; NON-PLATED HOLES START AT T1
; THROUGH (PLATED) HOLES START AT T100
M48
INCH
T100C0.041334
T101C0.042251
T102C0.035000
%
T100
X008562Y000723
X011562Y000723
X009562Y004723
X007562Y000723
X012562Y004723
X010562Y000723
X006562Y004723
X005562Y004723
X003562Y004723
X009562Y000723
X012562Y000723
X004548Y000723
X008562Y004723
X006562Y000723
X011562Y004723
X007562Y004723
X005562Y000723
X010562Y004723
X003562Y000723
X004562Y004723
T101
X001980Y003079
X001980Y001079
X001980Y004079
T102
X011980Y002811
X010980Y002811
X003980Y001811
X008980Y002811
X004980Y002811
X007980Y001811
T00
M30
