G04 MADE WITH FRITZING*
G04 WWW.FRITZING.ORG*
G04 DOUBLE SIDED*
G04 HOLES PLATED*
G04 CONTOUR ON CENTER OF CONTOUR VECTOR*
%ASAXBY*%
%FSLAX23Y23*%
%MOIN*%
%OFA0B0*%
%SFA1.0B1.0*%
%ADD10C,0.075000*%
%ADD11C,0.075334*%
%ADD12C,0.073749*%
%ADD13R,0.075000X0.075000*%
%ADD14C,0.024000*%
%LNCOPPER1*%
G90*
G70*
G54D10*
X102Y388D03*
X498Y281D03*
X898Y281D03*
X398Y181D03*
X798Y181D03*
G54D11*
X556Y472D03*
X656Y472D03*
X756Y472D03*
X856Y472D03*
X956Y472D03*
X1056Y472D03*
X1156Y472D03*
X1256Y472D03*
X656Y72D03*
X756Y72D03*
X856Y72D03*
X956Y72D03*
X1056Y72D03*
X1156Y72D03*
X1256Y72D03*
X556Y72D03*
X456Y472D03*
X455Y72D03*
X356Y472D03*
X356Y72D03*
G54D12*
X198Y408D03*
X198Y308D03*
X198Y108D03*
G54D10*
X1198Y281D03*
X1098Y281D03*
G54D13*
X1198Y281D03*
G54D14*
X198Y182D02*
X369Y181D01*
D02*
X198Y140D02*
X198Y182D01*
D02*
X230Y305D02*
X470Y284D01*
D02*
X1248Y103D02*
X1206Y254D01*
D02*
X298Y381D02*
X1098Y381D01*
D02*
X229Y399D02*
X298Y381D01*
D02*
X1098Y381D02*
X1178Y301D01*
G36*
X40Y511D02*
X40Y455D01*
X204Y455D01*
X204Y453D01*
X212Y453D01*
X212Y451D01*
X216Y451D01*
X216Y449D01*
X220Y449D01*
X220Y447D01*
X224Y447D01*
X224Y445D01*
X226Y445D01*
X226Y443D01*
X228Y443D01*
X228Y441D01*
X230Y441D01*
X230Y439D01*
X232Y439D01*
X232Y437D01*
X234Y437D01*
X234Y435D01*
X236Y435D01*
X236Y431D01*
X238Y431D01*
X238Y429D01*
X240Y429D01*
X240Y425D01*
X346Y425D01*
X346Y427D01*
X340Y427D01*
X340Y429D01*
X336Y429D01*
X336Y431D01*
X332Y431D01*
X332Y433D01*
X330Y433D01*
X330Y435D01*
X328Y435D01*
X328Y437D01*
X326Y437D01*
X326Y439D01*
X322Y439D01*
X322Y443D01*
X320Y443D01*
X320Y445D01*
X318Y445D01*
X318Y447D01*
X316Y447D01*
X316Y451D01*
X314Y451D01*
X314Y455D01*
X312Y455D01*
X312Y459D01*
X310Y459D01*
X310Y467D01*
X308Y467D01*
X308Y477D01*
X310Y477D01*
X310Y485D01*
X312Y485D01*
X312Y491D01*
X314Y491D01*
X314Y511D01*
X40Y511D01*
G37*
D02*
G36*
X40Y455D02*
X40Y261D01*
X190Y261D01*
X190Y263D01*
X184Y263D01*
X184Y265D01*
X180Y265D01*
X180Y267D01*
X176Y267D01*
X176Y269D01*
X172Y269D01*
X172Y271D01*
X170Y271D01*
X170Y273D01*
X168Y273D01*
X168Y275D01*
X166Y275D01*
X166Y277D01*
X164Y277D01*
X164Y279D01*
X162Y279D01*
X162Y281D01*
X160Y281D01*
X160Y285D01*
X158Y285D01*
X158Y287D01*
X156Y287D01*
X156Y291D01*
X154Y291D01*
X154Y297D01*
X152Y297D01*
X152Y319D01*
X154Y319D01*
X154Y325D01*
X156Y325D01*
X156Y329D01*
X158Y329D01*
X158Y331D01*
X160Y331D01*
X160Y335D01*
X162Y335D01*
X162Y337D01*
X164Y337D01*
X164Y339D01*
X166Y339D01*
X166Y341D01*
X168Y341D01*
X168Y343D01*
X170Y343D01*
X170Y345D01*
X172Y345D01*
X172Y347D01*
X176Y347D01*
X176Y369D01*
X172Y369D01*
X172Y371D01*
X170Y371D01*
X170Y373D01*
X168Y373D01*
X168Y375D01*
X166Y375D01*
X166Y377D01*
X164Y377D01*
X164Y379D01*
X162Y379D01*
X162Y381D01*
X160Y381D01*
X160Y385D01*
X158Y385D01*
X158Y387D01*
X156Y387D01*
X156Y391D01*
X154Y391D01*
X154Y397D01*
X152Y397D01*
X152Y419D01*
X154Y419D01*
X154Y425D01*
X156Y425D01*
X156Y429D01*
X158Y429D01*
X158Y431D01*
X160Y431D01*
X160Y435D01*
X162Y435D01*
X162Y437D01*
X164Y437D01*
X164Y439D01*
X166Y439D01*
X166Y441D01*
X168Y441D01*
X168Y443D01*
X170Y443D01*
X170Y445D01*
X172Y445D01*
X172Y447D01*
X176Y447D01*
X176Y449D01*
X180Y449D01*
X180Y451D01*
X184Y451D01*
X184Y453D01*
X192Y453D01*
X192Y455D01*
X40Y455D01*
G37*
D02*
G36*
X396Y449D02*
X396Y447D01*
X394Y447D01*
X394Y445D01*
X392Y445D01*
X392Y441D01*
X390Y441D01*
X390Y439D01*
X388Y439D01*
X388Y437D01*
X384Y437D01*
X384Y435D01*
X382Y435D01*
X382Y433D01*
X380Y433D01*
X380Y431D01*
X376Y431D01*
X376Y429D01*
X372Y429D01*
X372Y427D01*
X366Y427D01*
X366Y425D01*
X446Y425D01*
X446Y427D01*
X440Y427D01*
X440Y429D01*
X436Y429D01*
X436Y431D01*
X432Y431D01*
X432Y433D01*
X430Y433D01*
X430Y435D01*
X428Y435D01*
X428Y437D01*
X426Y437D01*
X426Y439D01*
X422Y439D01*
X422Y443D01*
X420Y443D01*
X420Y445D01*
X418Y445D01*
X418Y447D01*
X416Y447D01*
X416Y449D01*
X396Y449D01*
G37*
D02*
G36*
X496Y449D02*
X496Y447D01*
X494Y447D01*
X494Y445D01*
X492Y445D01*
X492Y441D01*
X490Y441D01*
X490Y439D01*
X488Y439D01*
X488Y437D01*
X484Y437D01*
X484Y435D01*
X482Y435D01*
X482Y433D01*
X480Y433D01*
X480Y431D01*
X476Y431D01*
X476Y429D01*
X472Y429D01*
X472Y427D01*
X466Y427D01*
X466Y425D01*
X546Y425D01*
X546Y427D01*
X540Y427D01*
X540Y429D01*
X536Y429D01*
X536Y431D01*
X532Y431D01*
X532Y433D01*
X530Y433D01*
X530Y435D01*
X528Y435D01*
X528Y437D01*
X526Y437D01*
X526Y439D01*
X522Y439D01*
X522Y443D01*
X520Y443D01*
X520Y445D01*
X518Y445D01*
X518Y447D01*
X516Y447D01*
X516Y449D01*
X496Y449D01*
G37*
D02*
G36*
X596Y449D02*
X596Y447D01*
X594Y447D01*
X594Y445D01*
X592Y445D01*
X592Y441D01*
X590Y441D01*
X590Y439D01*
X588Y439D01*
X588Y437D01*
X584Y437D01*
X584Y435D01*
X582Y435D01*
X582Y433D01*
X580Y433D01*
X580Y431D01*
X576Y431D01*
X576Y429D01*
X572Y429D01*
X572Y427D01*
X566Y427D01*
X566Y425D01*
X646Y425D01*
X646Y427D01*
X640Y427D01*
X640Y429D01*
X636Y429D01*
X636Y431D01*
X632Y431D01*
X632Y433D01*
X630Y433D01*
X630Y435D01*
X628Y435D01*
X628Y437D01*
X626Y437D01*
X626Y439D01*
X622Y439D01*
X622Y443D01*
X620Y443D01*
X620Y445D01*
X618Y445D01*
X618Y447D01*
X616Y447D01*
X616Y449D01*
X596Y449D01*
G37*
D02*
G36*
X696Y449D02*
X696Y447D01*
X694Y447D01*
X694Y445D01*
X692Y445D01*
X692Y441D01*
X690Y441D01*
X690Y439D01*
X688Y439D01*
X688Y437D01*
X684Y437D01*
X684Y435D01*
X682Y435D01*
X682Y433D01*
X680Y433D01*
X680Y431D01*
X676Y431D01*
X676Y429D01*
X672Y429D01*
X672Y427D01*
X666Y427D01*
X666Y425D01*
X746Y425D01*
X746Y427D01*
X740Y427D01*
X740Y429D01*
X736Y429D01*
X736Y431D01*
X732Y431D01*
X732Y433D01*
X730Y433D01*
X730Y435D01*
X728Y435D01*
X728Y437D01*
X726Y437D01*
X726Y439D01*
X722Y439D01*
X722Y443D01*
X720Y443D01*
X720Y445D01*
X718Y445D01*
X718Y447D01*
X716Y447D01*
X716Y449D01*
X696Y449D01*
G37*
D02*
G36*
X796Y449D02*
X796Y447D01*
X794Y447D01*
X794Y445D01*
X792Y445D01*
X792Y441D01*
X790Y441D01*
X790Y439D01*
X788Y439D01*
X788Y437D01*
X784Y437D01*
X784Y435D01*
X782Y435D01*
X782Y433D01*
X780Y433D01*
X780Y431D01*
X776Y431D01*
X776Y429D01*
X772Y429D01*
X772Y427D01*
X766Y427D01*
X766Y425D01*
X846Y425D01*
X846Y427D01*
X840Y427D01*
X840Y429D01*
X836Y429D01*
X836Y431D01*
X832Y431D01*
X832Y433D01*
X830Y433D01*
X830Y435D01*
X828Y435D01*
X828Y437D01*
X826Y437D01*
X826Y439D01*
X822Y439D01*
X822Y443D01*
X820Y443D01*
X820Y445D01*
X818Y445D01*
X818Y447D01*
X816Y447D01*
X816Y449D01*
X796Y449D01*
G37*
D02*
G36*
X896Y449D02*
X896Y447D01*
X894Y447D01*
X894Y445D01*
X892Y445D01*
X892Y441D01*
X890Y441D01*
X890Y439D01*
X888Y439D01*
X888Y437D01*
X884Y437D01*
X884Y435D01*
X882Y435D01*
X882Y433D01*
X880Y433D01*
X880Y431D01*
X876Y431D01*
X876Y429D01*
X872Y429D01*
X872Y427D01*
X866Y427D01*
X866Y425D01*
X946Y425D01*
X946Y427D01*
X940Y427D01*
X940Y429D01*
X936Y429D01*
X936Y431D01*
X932Y431D01*
X932Y433D01*
X930Y433D01*
X930Y435D01*
X928Y435D01*
X928Y437D01*
X926Y437D01*
X926Y439D01*
X922Y439D01*
X922Y443D01*
X920Y443D01*
X920Y445D01*
X918Y445D01*
X918Y447D01*
X916Y447D01*
X916Y449D01*
X896Y449D01*
G37*
D02*
G36*
X996Y449D02*
X996Y447D01*
X994Y447D01*
X994Y445D01*
X992Y445D01*
X992Y441D01*
X990Y441D01*
X990Y439D01*
X988Y439D01*
X988Y437D01*
X984Y437D01*
X984Y435D01*
X982Y435D01*
X982Y433D01*
X980Y433D01*
X980Y431D01*
X976Y431D01*
X976Y429D01*
X972Y429D01*
X972Y427D01*
X966Y427D01*
X966Y425D01*
X1046Y425D01*
X1046Y427D01*
X1040Y427D01*
X1040Y429D01*
X1036Y429D01*
X1036Y431D01*
X1032Y431D01*
X1032Y433D01*
X1030Y433D01*
X1030Y435D01*
X1028Y435D01*
X1028Y437D01*
X1026Y437D01*
X1026Y439D01*
X1022Y439D01*
X1022Y443D01*
X1020Y443D01*
X1020Y445D01*
X1018Y445D01*
X1018Y447D01*
X1016Y447D01*
X1016Y449D01*
X996Y449D01*
G37*
D02*
G36*
X1096Y449D02*
X1096Y447D01*
X1094Y447D01*
X1094Y445D01*
X1092Y445D01*
X1092Y441D01*
X1090Y441D01*
X1090Y439D01*
X1088Y439D01*
X1088Y437D01*
X1084Y437D01*
X1084Y435D01*
X1082Y435D01*
X1082Y433D01*
X1080Y433D01*
X1080Y431D01*
X1076Y431D01*
X1076Y429D01*
X1072Y429D01*
X1072Y427D01*
X1066Y427D01*
X1066Y425D01*
X1146Y425D01*
X1146Y427D01*
X1140Y427D01*
X1140Y429D01*
X1136Y429D01*
X1136Y431D01*
X1132Y431D01*
X1132Y433D01*
X1130Y433D01*
X1130Y435D01*
X1128Y435D01*
X1128Y437D01*
X1126Y437D01*
X1126Y439D01*
X1122Y439D01*
X1122Y443D01*
X1120Y443D01*
X1120Y445D01*
X1118Y445D01*
X1118Y447D01*
X1116Y447D01*
X1116Y449D01*
X1096Y449D01*
G37*
D02*
G36*
X1196Y449D02*
X1196Y447D01*
X1194Y447D01*
X1194Y445D01*
X1192Y445D01*
X1192Y441D01*
X1190Y441D01*
X1190Y439D01*
X1188Y439D01*
X1188Y437D01*
X1184Y437D01*
X1184Y435D01*
X1182Y435D01*
X1182Y433D01*
X1180Y433D01*
X1180Y431D01*
X1176Y431D01*
X1176Y429D01*
X1172Y429D01*
X1172Y427D01*
X1166Y427D01*
X1166Y425D01*
X1246Y425D01*
X1246Y427D01*
X1240Y427D01*
X1240Y429D01*
X1236Y429D01*
X1236Y431D01*
X1232Y431D01*
X1232Y433D01*
X1230Y433D01*
X1230Y435D01*
X1228Y435D01*
X1228Y437D01*
X1226Y437D01*
X1226Y439D01*
X1222Y439D01*
X1222Y443D01*
X1220Y443D01*
X1220Y445D01*
X1218Y445D01*
X1218Y447D01*
X1216Y447D01*
X1216Y449D01*
X1196Y449D01*
G37*
D02*
G36*
X1276Y431D02*
X1276Y429D01*
X1272Y429D01*
X1272Y427D01*
X1266Y427D01*
X1266Y425D01*
X1298Y425D01*
X1298Y431D01*
X1276Y431D01*
G37*
D02*
G36*
X242Y425D02*
X242Y423D01*
X1298Y423D01*
X1298Y425D01*
X242Y425D01*
G37*
D02*
G36*
X242Y425D02*
X242Y423D01*
X1298Y423D01*
X1298Y425D01*
X242Y425D01*
G37*
D02*
G36*
X242Y425D02*
X242Y423D01*
X1298Y423D01*
X1298Y425D01*
X242Y425D01*
G37*
D02*
G36*
X242Y425D02*
X242Y423D01*
X1298Y423D01*
X1298Y425D01*
X242Y425D01*
G37*
D02*
G36*
X242Y425D02*
X242Y423D01*
X1298Y423D01*
X1298Y425D01*
X242Y425D01*
G37*
D02*
G36*
X242Y425D02*
X242Y423D01*
X1298Y423D01*
X1298Y425D01*
X242Y425D01*
G37*
D02*
G36*
X242Y425D02*
X242Y423D01*
X1298Y423D01*
X1298Y425D01*
X242Y425D01*
G37*
D02*
G36*
X242Y425D02*
X242Y423D01*
X1298Y423D01*
X1298Y425D01*
X242Y425D01*
G37*
D02*
G36*
X242Y425D02*
X242Y423D01*
X1298Y423D01*
X1298Y425D01*
X242Y425D01*
G37*
D02*
G36*
X242Y425D02*
X242Y423D01*
X1298Y423D01*
X1298Y425D01*
X242Y425D01*
G37*
D02*
G36*
X242Y425D02*
X242Y423D01*
X1298Y423D01*
X1298Y425D01*
X242Y425D01*
G37*
D02*
G36*
X242Y423D02*
X242Y419D01*
X244Y419D01*
X244Y417D01*
X252Y417D01*
X252Y415D01*
X258Y415D01*
X258Y413D01*
X266Y413D01*
X266Y411D01*
X274Y411D01*
X274Y409D01*
X280Y409D01*
X280Y407D01*
X288Y407D01*
X288Y405D01*
X296Y405D01*
X296Y403D01*
X1102Y403D01*
X1102Y401D01*
X1108Y401D01*
X1108Y399D01*
X1112Y399D01*
X1112Y397D01*
X1114Y397D01*
X1114Y395D01*
X1116Y395D01*
X1116Y393D01*
X1118Y393D01*
X1118Y391D01*
X1120Y391D01*
X1120Y389D01*
X1122Y389D01*
X1122Y387D01*
X1124Y387D01*
X1124Y385D01*
X1126Y385D01*
X1126Y383D01*
X1128Y383D01*
X1128Y381D01*
X1130Y381D01*
X1130Y379D01*
X1132Y379D01*
X1132Y377D01*
X1134Y377D01*
X1134Y375D01*
X1136Y375D01*
X1136Y373D01*
X1138Y373D01*
X1138Y371D01*
X1140Y371D01*
X1140Y369D01*
X1142Y369D01*
X1142Y367D01*
X1144Y367D01*
X1144Y365D01*
X1146Y365D01*
X1146Y363D01*
X1148Y363D01*
X1148Y361D01*
X1150Y361D01*
X1150Y359D01*
X1152Y359D01*
X1152Y357D01*
X1154Y357D01*
X1154Y355D01*
X1156Y355D01*
X1156Y353D01*
X1158Y353D01*
X1158Y351D01*
X1160Y351D01*
X1160Y349D01*
X1162Y349D01*
X1162Y347D01*
X1164Y347D01*
X1164Y345D01*
X1166Y345D01*
X1166Y343D01*
X1168Y343D01*
X1168Y341D01*
X1170Y341D01*
X1170Y339D01*
X1172Y339D01*
X1172Y337D01*
X1174Y337D01*
X1174Y335D01*
X1176Y335D01*
X1176Y333D01*
X1178Y333D01*
X1178Y331D01*
X1180Y331D01*
X1180Y329D01*
X1246Y329D01*
X1246Y233D01*
X1240Y233D01*
X1240Y209D01*
X1242Y209D01*
X1242Y201D01*
X1244Y201D01*
X1244Y195D01*
X1246Y195D01*
X1246Y187D01*
X1248Y187D01*
X1248Y179D01*
X1250Y179D01*
X1250Y173D01*
X1252Y173D01*
X1252Y165D01*
X1254Y165D01*
X1254Y159D01*
X1256Y159D01*
X1256Y151D01*
X1258Y151D01*
X1258Y145D01*
X1260Y145D01*
X1260Y137D01*
X1262Y137D01*
X1262Y129D01*
X1264Y129D01*
X1264Y123D01*
X1266Y123D01*
X1266Y119D01*
X1268Y119D01*
X1268Y117D01*
X1272Y117D01*
X1272Y115D01*
X1276Y115D01*
X1276Y113D01*
X1298Y113D01*
X1298Y423D01*
X242Y423D01*
G37*
D02*
G36*
X226Y373D02*
X226Y371D01*
X224Y371D01*
X224Y369D01*
X220Y369D01*
X220Y347D01*
X224Y347D01*
X224Y345D01*
X226Y345D01*
X226Y343D01*
X228Y343D01*
X228Y341D01*
X230Y341D01*
X230Y339D01*
X232Y339D01*
X232Y337D01*
X234Y337D01*
X234Y335D01*
X236Y335D01*
X236Y331D01*
X238Y331D01*
X238Y329D01*
X904Y329D01*
X904Y327D01*
X910Y327D01*
X910Y325D01*
X916Y325D01*
X916Y323D01*
X920Y323D01*
X920Y321D01*
X922Y321D01*
X922Y319D01*
X926Y319D01*
X926Y317D01*
X928Y317D01*
X928Y315D01*
X930Y315D01*
X930Y313D01*
X932Y313D01*
X932Y311D01*
X934Y311D01*
X934Y309D01*
X936Y309D01*
X936Y305D01*
X938Y305D01*
X938Y303D01*
X940Y303D01*
X940Y299D01*
X942Y299D01*
X942Y293D01*
X944Y293D01*
X944Y287D01*
X946Y287D01*
X946Y275D01*
X944Y275D01*
X944Y269D01*
X942Y269D01*
X942Y263D01*
X940Y263D01*
X940Y259D01*
X938Y259D01*
X938Y257D01*
X936Y257D01*
X936Y253D01*
X934Y253D01*
X934Y251D01*
X932Y251D01*
X932Y249D01*
X930Y249D01*
X930Y247D01*
X928Y247D01*
X928Y245D01*
X926Y245D01*
X926Y243D01*
X922Y243D01*
X922Y241D01*
X920Y241D01*
X920Y239D01*
X916Y239D01*
X916Y237D01*
X910Y237D01*
X910Y235D01*
X904Y235D01*
X904Y233D01*
X1092Y233D01*
X1092Y235D01*
X1086Y235D01*
X1086Y237D01*
X1080Y237D01*
X1080Y239D01*
X1076Y239D01*
X1076Y241D01*
X1074Y241D01*
X1074Y243D01*
X1070Y243D01*
X1070Y245D01*
X1068Y245D01*
X1068Y247D01*
X1066Y247D01*
X1066Y249D01*
X1064Y249D01*
X1064Y251D01*
X1062Y251D01*
X1062Y253D01*
X1060Y253D01*
X1060Y257D01*
X1058Y257D01*
X1058Y259D01*
X1056Y259D01*
X1056Y263D01*
X1054Y263D01*
X1054Y269D01*
X1052Y269D01*
X1052Y275D01*
X1050Y275D01*
X1050Y287D01*
X1052Y287D01*
X1052Y293D01*
X1054Y293D01*
X1054Y299D01*
X1056Y299D01*
X1056Y303D01*
X1058Y303D01*
X1058Y305D01*
X1060Y305D01*
X1060Y309D01*
X1062Y309D01*
X1062Y311D01*
X1064Y311D01*
X1064Y313D01*
X1066Y313D01*
X1066Y315D01*
X1068Y315D01*
X1068Y317D01*
X1070Y317D01*
X1070Y319D01*
X1074Y319D01*
X1074Y321D01*
X1076Y321D01*
X1076Y323D01*
X1080Y323D01*
X1080Y325D01*
X1086Y325D01*
X1086Y327D01*
X1092Y327D01*
X1092Y329D01*
X1100Y329D01*
X1100Y349D01*
X1098Y349D01*
X1098Y351D01*
X1096Y351D01*
X1096Y353D01*
X1094Y353D01*
X1094Y355D01*
X1092Y355D01*
X1092Y357D01*
X1090Y357D01*
X1090Y359D01*
X290Y359D01*
X290Y361D01*
X282Y361D01*
X282Y363D01*
X274Y363D01*
X274Y365D01*
X268Y365D01*
X268Y367D01*
X260Y367D01*
X260Y369D01*
X252Y369D01*
X252Y371D01*
X246Y371D01*
X246Y373D01*
X226Y373D01*
G37*
D02*
G36*
X240Y329D02*
X240Y327D01*
X242Y327D01*
X242Y325D01*
X264Y325D01*
X264Y323D01*
X286Y323D01*
X286Y321D01*
X310Y321D01*
X310Y319D01*
X332Y319D01*
X332Y317D01*
X354Y317D01*
X354Y315D01*
X376Y315D01*
X376Y313D01*
X398Y313D01*
X398Y311D01*
X420Y311D01*
X420Y309D01*
X462Y309D01*
X462Y311D01*
X464Y311D01*
X464Y313D01*
X466Y313D01*
X466Y315D01*
X468Y315D01*
X468Y317D01*
X470Y317D01*
X470Y319D01*
X474Y319D01*
X474Y321D01*
X476Y321D01*
X476Y323D01*
X480Y323D01*
X480Y325D01*
X486Y325D01*
X486Y327D01*
X492Y327D01*
X492Y329D01*
X240Y329D01*
G37*
D02*
G36*
X504Y329D02*
X504Y327D01*
X510Y327D01*
X510Y325D01*
X516Y325D01*
X516Y323D01*
X520Y323D01*
X520Y321D01*
X522Y321D01*
X522Y319D01*
X526Y319D01*
X526Y317D01*
X528Y317D01*
X528Y315D01*
X530Y315D01*
X530Y313D01*
X532Y313D01*
X532Y311D01*
X534Y311D01*
X534Y309D01*
X536Y309D01*
X536Y305D01*
X538Y305D01*
X538Y303D01*
X540Y303D01*
X540Y299D01*
X542Y299D01*
X542Y293D01*
X544Y293D01*
X544Y287D01*
X546Y287D01*
X546Y275D01*
X544Y275D01*
X544Y269D01*
X542Y269D01*
X542Y263D01*
X540Y263D01*
X540Y259D01*
X538Y259D01*
X538Y257D01*
X536Y257D01*
X536Y253D01*
X534Y253D01*
X534Y251D01*
X532Y251D01*
X532Y249D01*
X530Y249D01*
X530Y247D01*
X528Y247D01*
X528Y245D01*
X526Y245D01*
X526Y243D01*
X522Y243D01*
X522Y241D01*
X520Y241D01*
X520Y239D01*
X516Y239D01*
X516Y237D01*
X510Y237D01*
X510Y235D01*
X504Y235D01*
X504Y233D01*
X892Y233D01*
X892Y235D01*
X886Y235D01*
X886Y237D01*
X880Y237D01*
X880Y239D01*
X876Y239D01*
X876Y241D01*
X874Y241D01*
X874Y243D01*
X870Y243D01*
X870Y245D01*
X868Y245D01*
X868Y247D01*
X866Y247D01*
X866Y249D01*
X864Y249D01*
X864Y251D01*
X862Y251D01*
X862Y253D01*
X860Y253D01*
X860Y257D01*
X858Y257D01*
X858Y259D01*
X856Y259D01*
X856Y263D01*
X854Y263D01*
X854Y269D01*
X852Y269D01*
X852Y275D01*
X850Y275D01*
X850Y287D01*
X852Y287D01*
X852Y293D01*
X854Y293D01*
X854Y299D01*
X856Y299D01*
X856Y303D01*
X858Y303D01*
X858Y305D01*
X860Y305D01*
X860Y309D01*
X862Y309D01*
X862Y311D01*
X864Y311D01*
X864Y313D01*
X866Y313D01*
X866Y315D01*
X868Y315D01*
X868Y317D01*
X870Y317D01*
X870Y319D01*
X874Y319D01*
X874Y321D01*
X876Y321D01*
X876Y323D01*
X880Y323D01*
X880Y325D01*
X886Y325D01*
X886Y327D01*
X892Y327D01*
X892Y329D01*
X504Y329D01*
G37*
D02*
G36*
X234Y281D02*
X234Y279D01*
X232Y279D01*
X232Y277D01*
X230Y277D01*
X230Y275D01*
X228Y275D01*
X228Y273D01*
X226Y273D01*
X226Y271D01*
X224Y271D01*
X224Y269D01*
X220Y269D01*
X220Y267D01*
X216Y267D01*
X216Y265D01*
X212Y265D01*
X212Y263D01*
X206Y263D01*
X206Y261D01*
X456Y261D01*
X456Y263D01*
X442Y263D01*
X442Y265D01*
X418Y265D01*
X418Y267D01*
X396Y267D01*
X396Y269D01*
X374Y269D01*
X374Y271D01*
X352Y271D01*
X352Y273D01*
X330Y273D01*
X330Y275D01*
X306Y275D01*
X306Y277D01*
X284Y277D01*
X284Y279D01*
X262Y279D01*
X262Y281D01*
X234Y281D01*
G37*
D02*
G36*
X40Y261D02*
X40Y259D01*
X456Y259D01*
X456Y261D01*
X40Y261D01*
G37*
D02*
G36*
X40Y261D02*
X40Y259D01*
X456Y259D01*
X456Y261D01*
X40Y261D01*
G37*
D02*
G36*
X40Y259D02*
X40Y233D01*
X492Y233D01*
X492Y235D01*
X486Y235D01*
X486Y237D01*
X480Y237D01*
X480Y239D01*
X476Y239D01*
X476Y241D01*
X474Y241D01*
X474Y243D01*
X470Y243D01*
X470Y245D01*
X468Y245D01*
X468Y247D01*
X466Y247D01*
X466Y249D01*
X464Y249D01*
X464Y251D01*
X462Y251D01*
X462Y253D01*
X460Y253D01*
X460Y257D01*
X458Y257D01*
X458Y259D01*
X40Y259D01*
G37*
D02*
G36*
X1130Y249D02*
X1130Y247D01*
X1128Y247D01*
X1128Y245D01*
X1126Y245D01*
X1126Y243D01*
X1122Y243D01*
X1122Y241D01*
X1120Y241D01*
X1120Y239D01*
X1116Y239D01*
X1116Y237D01*
X1110Y237D01*
X1110Y235D01*
X1104Y235D01*
X1104Y233D01*
X1150Y233D01*
X1150Y249D01*
X1130Y249D01*
G37*
D02*
G36*
X40Y233D02*
X40Y231D01*
X1188Y231D01*
X1188Y233D01*
X40Y233D01*
G37*
D02*
G36*
X40Y233D02*
X40Y231D01*
X1188Y231D01*
X1188Y233D01*
X40Y233D01*
G37*
D02*
G36*
X40Y233D02*
X40Y231D01*
X1188Y231D01*
X1188Y233D01*
X40Y233D01*
G37*
D02*
G36*
X40Y233D02*
X40Y231D01*
X1188Y231D01*
X1188Y233D01*
X40Y233D01*
G37*
D02*
G36*
X40Y231D02*
X40Y229D01*
X804Y229D01*
X804Y227D01*
X810Y227D01*
X810Y225D01*
X816Y225D01*
X816Y223D01*
X820Y223D01*
X820Y221D01*
X822Y221D01*
X822Y219D01*
X826Y219D01*
X826Y217D01*
X828Y217D01*
X828Y215D01*
X830Y215D01*
X830Y213D01*
X832Y213D01*
X832Y211D01*
X834Y211D01*
X834Y209D01*
X836Y209D01*
X836Y205D01*
X838Y205D01*
X838Y203D01*
X840Y203D01*
X840Y199D01*
X842Y199D01*
X842Y193D01*
X844Y193D01*
X844Y187D01*
X846Y187D01*
X846Y175D01*
X844Y175D01*
X844Y169D01*
X842Y169D01*
X842Y163D01*
X840Y163D01*
X840Y159D01*
X838Y159D01*
X838Y157D01*
X836Y157D01*
X836Y153D01*
X834Y153D01*
X834Y151D01*
X832Y151D01*
X832Y149D01*
X830Y149D01*
X830Y147D01*
X828Y147D01*
X828Y145D01*
X826Y145D01*
X826Y143D01*
X822Y143D01*
X822Y141D01*
X820Y141D01*
X820Y139D01*
X816Y139D01*
X816Y137D01*
X810Y137D01*
X810Y135D01*
X804Y135D01*
X804Y133D01*
X1216Y133D01*
X1216Y139D01*
X1214Y139D01*
X1214Y145D01*
X1212Y145D01*
X1212Y153D01*
X1210Y153D01*
X1210Y159D01*
X1208Y159D01*
X1208Y167D01*
X1206Y167D01*
X1206Y173D01*
X1204Y173D01*
X1204Y181D01*
X1202Y181D01*
X1202Y189D01*
X1200Y189D01*
X1200Y195D01*
X1198Y195D01*
X1198Y203D01*
X1196Y203D01*
X1196Y209D01*
X1194Y209D01*
X1194Y217D01*
X1192Y217D01*
X1192Y225D01*
X1190Y225D01*
X1190Y231D01*
X40Y231D01*
G37*
D02*
G36*
X40Y229D02*
X40Y61D01*
X190Y61D01*
X190Y63D01*
X184Y63D01*
X184Y65D01*
X180Y65D01*
X180Y67D01*
X176Y67D01*
X176Y69D01*
X172Y69D01*
X172Y71D01*
X170Y71D01*
X170Y73D01*
X168Y73D01*
X168Y75D01*
X166Y75D01*
X166Y77D01*
X164Y77D01*
X164Y79D01*
X162Y79D01*
X162Y81D01*
X160Y81D01*
X160Y85D01*
X158Y85D01*
X158Y87D01*
X156Y87D01*
X156Y91D01*
X154Y91D01*
X154Y97D01*
X152Y97D01*
X152Y119D01*
X154Y119D01*
X154Y125D01*
X156Y125D01*
X156Y129D01*
X158Y129D01*
X158Y131D01*
X160Y131D01*
X160Y135D01*
X162Y135D01*
X162Y137D01*
X164Y137D01*
X164Y139D01*
X166Y139D01*
X166Y141D01*
X168Y141D01*
X168Y143D01*
X170Y143D01*
X170Y145D01*
X172Y145D01*
X172Y147D01*
X176Y147D01*
X176Y189D01*
X178Y189D01*
X178Y193D01*
X180Y193D01*
X180Y197D01*
X182Y197D01*
X182Y199D01*
X186Y199D01*
X186Y201D01*
X190Y201D01*
X190Y203D01*
X358Y203D01*
X358Y205D01*
X360Y205D01*
X360Y209D01*
X362Y209D01*
X362Y211D01*
X364Y211D01*
X364Y213D01*
X366Y213D01*
X366Y215D01*
X368Y215D01*
X368Y217D01*
X370Y217D01*
X370Y219D01*
X374Y219D01*
X374Y221D01*
X376Y221D01*
X376Y223D01*
X380Y223D01*
X380Y225D01*
X386Y225D01*
X386Y227D01*
X392Y227D01*
X392Y229D01*
X40Y229D01*
G37*
D02*
G36*
X404Y229D02*
X404Y227D01*
X410Y227D01*
X410Y225D01*
X416Y225D01*
X416Y223D01*
X420Y223D01*
X420Y221D01*
X422Y221D01*
X422Y219D01*
X426Y219D01*
X426Y217D01*
X428Y217D01*
X428Y215D01*
X430Y215D01*
X430Y213D01*
X432Y213D01*
X432Y211D01*
X434Y211D01*
X434Y209D01*
X436Y209D01*
X436Y205D01*
X438Y205D01*
X438Y203D01*
X440Y203D01*
X440Y199D01*
X442Y199D01*
X442Y193D01*
X444Y193D01*
X444Y187D01*
X446Y187D01*
X446Y175D01*
X444Y175D01*
X444Y169D01*
X442Y169D01*
X442Y163D01*
X440Y163D01*
X440Y159D01*
X438Y159D01*
X438Y157D01*
X436Y157D01*
X436Y153D01*
X434Y153D01*
X434Y151D01*
X432Y151D01*
X432Y149D01*
X430Y149D01*
X430Y147D01*
X428Y147D01*
X428Y145D01*
X426Y145D01*
X426Y143D01*
X422Y143D01*
X422Y141D01*
X420Y141D01*
X420Y139D01*
X416Y139D01*
X416Y137D01*
X410Y137D01*
X410Y135D01*
X404Y135D01*
X404Y133D01*
X792Y133D01*
X792Y135D01*
X786Y135D01*
X786Y137D01*
X780Y137D01*
X780Y139D01*
X776Y139D01*
X776Y141D01*
X774Y141D01*
X774Y143D01*
X770Y143D01*
X770Y145D01*
X768Y145D01*
X768Y147D01*
X766Y147D01*
X766Y149D01*
X764Y149D01*
X764Y151D01*
X762Y151D01*
X762Y153D01*
X760Y153D01*
X760Y157D01*
X758Y157D01*
X758Y159D01*
X756Y159D01*
X756Y163D01*
X754Y163D01*
X754Y169D01*
X752Y169D01*
X752Y175D01*
X750Y175D01*
X750Y187D01*
X752Y187D01*
X752Y193D01*
X754Y193D01*
X754Y199D01*
X756Y199D01*
X756Y203D01*
X758Y203D01*
X758Y205D01*
X760Y205D01*
X760Y209D01*
X762Y209D01*
X762Y211D01*
X764Y211D01*
X764Y213D01*
X766Y213D01*
X766Y215D01*
X768Y215D01*
X768Y217D01*
X770Y217D01*
X770Y219D01*
X774Y219D01*
X774Y221D01*
X776Y221D01*
X776Y223D01*
X780Y223D01*
X780Y225D01*
X786Y225D01*
X786Y227D01*
X792Y227D01*
X792Y229D01*
X404Y229D01*
G37*
D02*
G36*
X230Y159D02*
X230Y139D01*
X232Y139D01*
X232Y137D01*
X234Y137D01*
X234Y135D01*
X236Y135D01*
X236Y133D01*
X392Y133D01*
X392Y135D01*
X386Y135D01*
X386Y137D01*
X380Y137D01*
X380Y139D01*
X376Y139D01*
X376Y141D01*
X374Y141D01*
X374Y143D01*
X370Y143D01*
X370Y145D01*
X368Y145D01*
X368Y147D01*
X366Y147D01*
X366Y149D01*
X364Y149D01*
X364Y151D01*
X362Y151D01*
X362Y153D01*
X360Y153D01*
X360Y157D01*
X358Y157D01*
X358Y159D01*
X230Y159D01*
G37*
D02*
G36*
X236Y133D02*
X236Y131D01*
X1216Y131D01*
X1216Y133D01*
X236Y133D01*
G37*
D02*
G36*
X236Y133D02*
X236Y131D01*
X1216Y131D01*
X1216Y133D01*
X236Y133D01*
G37*
D02*
G36*
X236Y133D02*
X236Y131D01*
X1216Y131D01*
X1216Y133D01*
X236Y133D01*
G37*
D02*
G36*
X238Y131D02*
X238Y129D01*
X240Y129D01*
X240Y125D01*
X242Y125D01*
X242Y119D01*
X1168Y119D01*
X1168Y117D01*
X1172Y117D01*
X1172Y115D01*
X1176Y115D01*
X1176Y113D01*
X1180Y113D01*
X1180Y111D01*
X1182Y111D01*
X1182Y109D01*
X1186Y109D01*
X1186Y107D01*
X1188Y107D01*
X1188Y105D01*
X1190Y105D01*
X1190Y103D01*
X1192Y103D01*
X1192Y101D01*
X1194Y101D01*
X1194Y97D01*
X1196Y97D01*
X1196Y95D01*
X1216Y95D01*
X1216Y97D01*
X1218Y97D01*
X1218Y99D01*
X1220Y99D01*
X1220Y123D01*
X1218Y123D01*
X1218Y131D01*
X238Y131D01*
G37*
D02*
G36*
X244Y119D02*
X244Y97D01*
X242Y97D01*
X242Y91D01*
X240Y91D01*
X240Y87D01*
X238Y87D01*
X238Y83D01*
X236Y83D01*
X236Y81D01*
X234Y81D01*
X234Y79D01*
X232Y79D01*
X232Y77D01*
X230Y77D01*
X230Y75D01*
X228Y75D01*
X228Y73D01*
X226Y73D01*
X226Y71D01*
X224Y71D01*
X224Y69D01*
X220Y69D01*
X220Y67D01*
X216Y67D01*
X216Y65D01*
X212Y65D01*
X212Y63D01*
X206Y63D01*
X206Y61D01*
X310Y61D01*
X310Y67D01*
X308Y67D01*
X308Y77D01*
X310Y77D01*
X310Y85D01*
X312Y85D01*
X312Y91D01*
X314Y91D01*
X314Y93D01*
X316Y93D01*
X316Y97D01*
X318Y97D01*
X318Y99D01*
X320Y99D01*
X320Y101D01*
X322Y101D01*
X322Y105D01*
X324Y105D01*
X324Y107D01*
X328Y107D01*
X328Y109D01*
X330Y109D01*
X330Y111D01*
X332Y111D01*
X332Y113D01*
X336Y113D01*
X336Y115D01*
X340Y115D01*
X340Y117D01*
X346Y117D01*
X346Y119D01*
X244Y119D01*
G37*
D02*
G36*
X368Y119D02*
X368Y117D01*
X372Y117D01*
X372Y115D01*
X376Y115D01*
X376Y113D01*
X380Y113D01*
X380Y111D01*
X382Y111D01*
X382Y109D01*
X386Y109D01*
X386Y107D01*
X388Y107D01*
X388Y105D01*
X390Y105D01*
X390Y103D01*
X392Y103D01*
X392Y101D01*
X394Y101D01*
X394Y97D01*
X416Y97D01*
X416Y99D01*
X418Y99D01*
X418Y101D01*
X420Y101D01*
X420Y103D01*
X422Y103D01*
X422Y105D01*
X424Y105D01*
X424Y107D01*
X426Y107D01*
X426Y109D01*
X428Y109D01*
X428Y111D01*
X430Y111D01*
X430Y113D01*
X434Y113D01*
X434Y115D01*
X438Y115D01*
X438Y117D01*
X444Y117D01*
X444Y119D01*
X368Y119D01*
G37*
D02*
G36*
X466Y119D02*
X466Y117D01*
X472Y117D01*
X472Y115D01*
X476Y115D01*
X476Y113D01*
X478Y113D01*
X478Y111D01*
X482Y111D01*
X482Y109D01*
X484Y109D01*
X484Y107D01*
X486Y107D01*
X486Y105D01*
X488Y105D01*
X488Y103D01*
X490Y103D01*
X490Y101D01*
X492Y101D01*
X492Y99D01*
X494Y99D01*
X494Y95D01*
X496Y95D01*
X496Y93D01*
X516Y93D01*
X516Y97D01*
X518Y97D01*
X518Y99D01*
X520Y99D01*
X520Y101D01*
X522Y101D01*
X522Y105D01*
X524Y105D01*
X524Y107D01*
X528Y107D01*
X528Y109D01*
X530Y109D01*
X530Y111D01*
X532Y111D01*
X532Y113D01*
X536Y113D01*
X536Y115D01*
X540Y115D01*
X540Y117D01*
X546Y117D01*
X546Y119D01*
X466Y119D01*
G37*
D02*
G36*
X568Y119D02*
X568Y117D01*
X572Y117D01*
X572Y115D01*
X576Y115D01*
X576Y113D01*
X580Y113D01*
X580Y111D01*
X582Y111D01*
X582Y109D01*
X586Y109D01*
X586Y107D01*
X588Y107D01*
X588Y105D01*
X590Y105D01*
X590Y103D01*
X592Y103D01*
X592Y101D01*
X594Y101D01*
X594Y97D01*
X596Y97D01*
X596Y95D01*
X616Y95D01*
X616Y97D01*
X618Y97D01*
X618Y99D01*
X620Y99D01*
X620Y101D01*
X622Y101D01*
X622Y105D01*
X624Y105D01*
X624Y107D01*
X628Y107D01*
X628Y109D01*
X630Y109D01*
X630Y111D01*
X632Y111D01*
X632Y113D01*
X636Y113D01*
X636Y115D01*
X640Y115D01*
X640Y117D01*
X646Y117D01*
X646Y119D01*
X568Y119D01*
G37*
D02*
G36*
X668Y119D02*
X668Y117D01*
X672Y117D01*
X672Y115D01*
X676Y115D01*
X676Y113D01*
X680Y113D01*
X680Y111D01*
X682Y111D01*
X682Y109D01*
X686Y109D01*
X686Y107D01*
X688Y107D01*
X688Y105D01*
X690Y105D01*
X690Y103D01*
X692Y103D01*
X692Y101D01*
X694Y101D01*
X694Y97D01*
X696Y97D01*
X696Y95D01*
X716Y95D01*
X716Y97D01*
X718Y97D01*
X718Y99D01*
X720Y99D01*
X720Y101D01*
X722Y101D01*
X722Y105D01*
X724Y105D01*
X724Y107D01*
X728Y107D01*
X728Y109D01*
X730Y109D01*
X730Y111D01*
X732Y111D01*
X732Y113D01*
X736Y113D01*
X736Y115D01*
X740Y115D01*
X740Y117D01*
X746Y117D01*
X746Y119D01*
X668Y119D01*
G37*
D02*
G36*
X768Y119D02*
X768Y117D01*
X772Y117D01*
X772Y115D01*
X776Y115D01*
X776Y113D01*
X780Y113D01*
X780Y111D01*
X782Y111D01*
X782Y109D01*
X786Y109D01*
X786Y107D01*
X788Y107D01*
X788Y105D01*
X790Y105D01*
X790Y103D01*
X792Y103D01*
X792Y101D01*
X794Y101D01*
X794Y97D01*
X796Y97D01*
X796Y95D01*
X816Y95D01*
X816Y97D01*
X818Y97D01*
X818Y99D01*
X820Y99D01*
X820Y101D01*
X822Y101D01*
X822Y105D01*
X824Y105D01*
X824Y107D01*
X828Y107D01*
X828Y109D01*
X830Y109D01*
X830Y111D01*
X832Y111D01*
X832Y113D01*
X836Y113D01*
X836Y115D01*
X840Y115D01*
X840Y117D01*
X846Y117D01*
X846Y119D01*
X768Y119D01*
G37*
D02*
G36*
X868Y119D02*
X868Y117D01*
X872Y117D01*
X872Y115D01*
X876Y115D01*
X876Y113D01*
X880Y113D01*
X880Y111D01*
X882Y111D01*
X882Y109D01*
X886Y109D01*
X886Y107D01*
X888Y107D01*
X888Y105D01*
X890Y105D01*
X890Y103D01*
X892Y103D01*
X892Y101D01*
X894Y101D01*
X894Y97D01*
X896Y97D01*
X896Y95D01*
X916Y95D01*
X916Y97D01*
X918Y97D01*
X918Y99D01*
X920Y99D01*
X920Y101D01*
X922Y101D01*
X922Y105D01*
X924Y105D01*
X924Y107D01*
X928Y107D01*
X928Y109D01*
X930Y109D01*
X930Y111D01*
X932Y111D01*
X932Y113D01*
X936Y113D01*
X936Y115D01*
X940Y115D01*
X940Y117D01*
X946Y117D01*
X946Y119D01*
X868Y119D01*
G37*
D02*
G36*
X968Y119D02*
X968Y117D01*
X972Y117D01*
X972Y115D01*
X976Y115D01*
X976Y113D01*
X980Y113D01*
X980Y111D01*
X982Y111D01*
X982Y109D01*
X986Y109D01*
X986Y107D01*
X988Y107D01*
X988Y105D01*
X990Y105D01*
X990Y103D01*
X992Y103D01*
X992Y101D01*
X994Y101D01*
X994Y97D01*
X996Y97D01*
X996Y95D01*
X1016Y95D01*
X1016Y97D01*
X1018Y97D01*
X1018Y99D01*
X1020Y99D01*
X1020Y101D01*
X1022Y101D01*
X1022Y105D01*
X1024Y105D01*
X1024Y107D01*
X1028Y107D01*
X1028Y109D01*
X1030Y109D01*
X1030Y111D01*
X1032Y111D01*
X1032Y113D01*
X1036Y113D01*
X1036Y115D01*
X1040Y115D01*
X1040Y117D01*
X1046Y117D01*
X1046Y119D01*
X968Y119D01*
G37*
D02*
G36*
X1068Y119D02*
X1068Y117D01*
X1072Y117D01*
X1072Y115D01*
X1076Y115D01*
X1076Y113D01*
X1080Y113D01*
X1080Y111D01*
X1082Y111D01*
X1082Y109D01*
X1086Y109D01*
X1086Y107D01*
X1088Y107D01*
X1088Y105D01*
X1090Y105D01*
X1090Y103D01*
X1092Y103D01*
X1092Y101D01*
X1094Y101D01*
X1094Y97D01*
X1096Y97D01*
X1096Y95D01*
X1116Y95D01*
X1116Y97D01*
X1118Y97D01*
X1118Y99D01*
X1120Y99D01*
X1120Y101D01*
X1122Y101D01*
X1122Y105D01*
X1124Y105D01*
X1124Y107D01*
X1128Y107D01*
X1128Y109D01*
X1130Y109D01*
X1130Y111D01*
X1132Y111D01*
X1132Y113D01*
X1136Y113D01*
X1136Y115D01*
X1140Y115D01*
X1140Y117D01*
X1146Y117D01*
X1146Y119D01*
X1068Y119D01*
G37*
D02*
G36*
X40Y61D02*
X40Y59D01*
X310Y59D01*
X310Y61D01*
X40Y61D01*
G37*
D02*
G36*
X40Y61D02*
X40Y59D01*
X310Y59D01*
X310Y61D01*
X40Y61D01*
G37*
D02*
G36*
X40Y59D02*
X40Y41D01*
X310Y41D01*
X310Y59D01*
X40Y59D01*
G37*
D02*
G04 End of Copper1*
M02*