G04 MADE WITH FRITZING*
G04 WWW.FRITZING.ORG*
G04 DOUBLE SIDED*
G04 HOLES PLATED*
G04 CONTOUR ON CENTER OF CONTOUR VECTOR*
%ASAXBY*%
%FSLAX23Y23*%
%MOIN*%
%OFA0B0*%
%SFA1.0B1.0*%
%ADD10C,0.075000*%
%ADD11C,0.073749*%
%ADD12C,0.075334*%
%ADD13R,0.075000X0.075000*%
%ADD14C,0.024000*%
%LNCOPPER1*%
G90*
G70*
G54D10*
X100Y360D03*
G54D11*
X198Y381D03*
X198Y281D03*
X198Y81D03*
G54D10*
X498Y281D03*
X898Y281D03*
X498Y181D03*
X898Y181D03*
G54D12*
X556Y472D03*
X656Y472D03*
X756Y472D03*
X856Y472D03*
X956Y472D03*
X1056Y472D03*
X1156Y472D03*
X1256Y472D03*
X656Y72D03*
X756Y72D03*
X856Y72D03*
X956Y72D03*
X1056Y72D03*
X1156Y72D03*
X1256Y72D03*
X556Y72D03*
X456Y472D03*
X455Y72D03*
X356Y472D03*
X356Y72D03*
G54D10*
X1198Y281D03*
X1098Y281D03*
G54D13*
X1198Y281D03*
G54D14*
X230Y381D02*
X298Y380D01*
D02*
X298Y380D02*
X478Y201D01*
D02*
X1098Y381D02*
X498Y382D01*
D02*
X1098Y310D02*
X1098Y381D01*
D02*
X498Y382D02*
X498Y310D01*
G36*
X40Y511D02*
X40Y427D01*
X210Y427D01*
X210Y425D01*
X346Y425D01*
X346Y427D01*
X340Y427D01*
X340Y429D01*
X336Y429D01*
X336Y431D01*
X332Y431D01*
X332Y433D01*
X330Y433D01*
X330Y435D01*
X328Y435D01*
X328Y437D01*
X326Y437D01*
X326Y439D01*
X322Y439D01*
X322Y443D01*
X320Y443D01*
X320Y445D01*
X318Y445D01*
X318Y447D01*
X316Y447D01*
X316Y451D01*
X314Y451D01*
X314Y455D01*
X312Y455D01*
X312Y459D01*
X310Y459D01*
X310Y467D01*
X308Y467D01*
X308Y477D01*
X310Y477D01*
X310Y485D01*
X312Y485D01*
X312Y491D01*
X314Y491D01*
X314Y511D01*
X40Y511D01*
G37*
D02*
G36*
X396Y449D02*
X396Y447D01*
X394Y447D01*
X394Y445D01*
X392Y445D01*
X392Y441D01*
X390Y441D01*
X390Y439D01*
X388Y439D01*
X388Y437D01*
X384Y437D01*
X384Y435D01*
X382Y435D01*
X382Y433D01*
X380Y433D01*
X380Y431D01*
X376Y431D01*
X376Y429D01*
X372Y429D01*
X372Y427D01*
X366Y427D01*
X366Y425D01*
X446Y425D01*
X446Y427D01*
X440Y427D01*
X440Y429D01*
X436Y429D01*
X436Y431D01*
X432Y431D01*
X432Y433D01*
X430Y433D01*
X430Y435D01*
X428Y435D01*
X428Y437D01*
X426Y437D01*
X426Y439D01*
X422Y439D01*
X422Y443D01*
X420Y443D01*
X420Y445D01*
X418Y445D01*
X418Y447D01*
X416Y447D01*
X416Y449D01*
X396Y449D01*
G37*
D02*
G36*
X496Y449D02*
X496Y447D01*
X494Y447D01*
X494Y445D01*
X492Y445D01*
X492Y441D01*
X490Y441D01*
X490Y439D01*
X488Y439D01*
X488Y437D01*
X484Y437D01*
X484Y435D01*
X482Y435D01*
X482Y433D01*
X480Y433D01*
X480Y431D01*
X476Y431D01*
X476Y429D01*
X472Y429D01*
X472Y427D01*
X466Y427D01*
X466Y425D01*
X546Y425D01*
X546Y427D01*
X540Y427D01*
X540Y429D01*
X536Y429D01*
X536Y431D01*
X532Y431D01*
X532Y433D01*
X530Y433D01*
X530Y435D01*
X528Y435D01*
X528Y437D01*
X526Y437D01*
X526Y439D01*
X522Y439D01*
X522Y443D01*
X520Y443D01*
X520Y445D01*
X518Y445D01*
X518Y447D01*
X516Y447D01*
X516Y449D01*
X496Y449D01*
G37*
D02*
G36*
X596Y449D02*
X596Y447D01*
X594Y447D01*
X594Y445D01*
X592Y445D01*
X592Y441D01*
X590Y441D01*
X590Y439D01*
X588Y439D01*
X588Y437D01*
X584Y437D01*
X584Y435D01*
X582Y435D01*
X582Y433D01*
X580Y433D01*
X580Y431D01*
X576Y431D01*
X576Y429D01*
X572Y429D01*
X572Y427D01*
X566Y427D01*
X566Y425D01*
X646Y425D01*
X646Y427D01*
X640Y427D01*
X640Y429D01*
X636Y429D01*
X636Y431D01*
X632Y431D01*
X632Y433D01*
X630Y433D01*
X630Y435D01*
X628Y435D01*
X628Y437D01*
X626Y437D01*
X626Y439D01*
X622Y439D01*
X622Y443D01*
X620Y443D01*
X620Y445D01*
X618Y445D01*
X618Y447D01*
X616Y447D01*
X616Y449D01*
X596Y449D01*
G37*
D02*
G36*
X696Y449D02*
X696Y447D01*
X694Y447D01*
X694Y445D01*
X692Y445D01*
X692Y441D01*
X690Y441D01*
X690Y439D01*
X688Y439D01*
X688Y437D01*
X684Y437D01*
X684Y435D01*
X682Y435D01*
X682Y433D01*
X680Y433D01*
X680Y431D01*
X676Y431D01*
X676Y429D01*
X672Y429D01*
X672Y427D01*
X666Y427D01*
X666Y425D01*
X746Y425D01*
X746Y427D01*
X740Y427D01*
X740Y429D01*
X736Y429D01*
X736Y431D01*
X732Y431D01*
X732Y433D01*
X730Y433D01*
X730Y435D01*
X728Y435D01*
X728Y437D01*
X726Y437D01*
X726Y439D01*
X722Y439D01*
X722Y443D01*
X720Y443D01*
X720Y445D01*
X718Y445D01*
X718Y447D01*
X716Y447D01*
X716Y449D01*
X696Y449D01*
G37*
D02*
G36*
X796Y449D02*
X796Y447D01*
X794Y447D01*
X794Y445D01*
X792Y445D01*
X792Y441D01*
X790Y441D01*
X790Y439D01*
X788Y439D01*
X788Y437D01*
X784Y437D01*
X784Y435D01*
X782Y435D01*
X782Y433D01*
X780Y433D01*
X780Y431D01*
X776Y431D01*
X776Y429D01*
X772Y429D01*
X772Y427D01*
X766Y427D01*
X766Y425D01*
X846Y425D01*
X846Y427D01*
X840Y427D01*
X840Y429D01*
X836Y429D01*
X836Y431D01*
X832Y431D01*
X832Y433D01*
X830Y433D01*
X830Y435D01*
X828Y435D01*
X828Y437D01*
X826Y437D01*
X826Y439D01*
X822Y439D01*
X822Y443D01*
X820Y443D01*
X820Y445D01*
X818Y445D01*
X818Y447D01*
X816Y447D01*
X816Y449D01*
X796Y449D01*
G37*
D02*
G36*
X896Y449D02*
X896Y447D01*
X894Y447D01*
X894Y445D01*
X892Y445D01*
X892Y441D01*
X890Y441D01*
X890Y439D01*
X888Y439D01*
X888Y437D01*
X884Y437D01*
X884Y435D01*
X882Y435D01*
X882Y433D01*
X880Y433D01*
X880Y431D01*
X876Y431D01*
X876Y429D01*
X872Y429D01*
X872Y427D01*
X866Y427D01*
X866Y425D01*
X946Y425D01*
X946Y427D01*
X940Y427D01*
X940Y429D01*
X936Y429D01*
X936Y431D01*
X932Y431D01*
X932Y433D01*
X930Y433D01*
X930Y435D01*
X928Y435D01*
X928Y437D01*
X926Y437D01*
X926Y439D01*
X922Y439D01*
X922Y443D01*
X920Y443D01*
X920Y445D01*
X918Y445D01*
X918Y447D01*
X916Y447D01*
X916Y449D01*
X896Y449D01*
G37*
D02*
G36*
X996Y449D02*
X996Y447D01*
X994Y447D01*
X994Y445D01*
X992Y445D01*
X992Y441D01*
X990Y441D01*
X990Y439D01*
X988Y439D01*
X988Y437D01*
X984Y437D01*
X984Y435D01*
X982Y435D01*
X982Y433D01*
X980Y433D01*
X980Y431D01*
X976Y431D01*
X976Y429D01*
X972Y429D01*
X972Y427D01*
X966Y427D01*
X966Y425D01*
X1046Y425D01*
X1046Y427D01*
X1040Y427D01*
X1040Y429D01*
X1036Y429D01*
X1036Y431D01*
X1032Y431D01*
X1032Y433D01*
X1030Y433D01*
X1030Y435D01*
X1028Y435D01*
X1028Y437D01*
X1026Y437D01*
X1026Y439D01*
X1022Y439D01*
X1022Y443D01*
X1020Y443D01*
X1020Y445D01*
X1018Y445D01*
X1018Y447D01*
X1016Y447D01*
X1016Y449D01*
X996Y449D01*
G37*
D02*
G36*
X1096Y449D02*
X1096Y447D01*
X1094Y447D01*
X1094Y445D01*
X1092Y445D01*
X1092Y441D01*
X1090Y441D01*
X1090Y439D01*
X1088Y439D01*
X1088Y437D01*
X1084Y437D01*
X1084Y435D01*
X1082Y435D01*
X1082Y433D01*
X1080Y433D01*
X1080Y431D01*
X1076Y431D01*
X1076Y429D01*
X1072Y429D01*
X1072Y427D01*
X1066Y427D01*
X1066Y425D01*
X1146Y425D01*
X1146Y427D01*
X1140Y427D01*
X1140Y429D01*
X1136Y429D01*
X1136Y431D01*
X1132Y431D01*
X1132Y433D01*
X1130Y433D01*
X1130Y435D01*
X1128Y435D01*
X1128Y437D01*
X1126Y437D01*
X1126Y439D01*
X1122Y439D01*
X1122Y443D01*
X1120Y443D01*
X1120Y445D01*
X1118Y445D01*
X1118Y447D01*
X1116Y447D01*
X1116Y449D01*
X1096Y449D01*
G37*
D02*
G36*
X1196Y449D02*
X1196Y447D01*
X1194Y447D01*
X1194Y445D01*
X1192Y445D01*
X1192Y441D01*
X1190Y441D01*
X1190Y439D01*
X1188Y439D01*
X1188Y437D01*
X1184Y437D01*
X1184Y435D01*
X1182Y435D01*
X1182Y433D01*
X1180Y433D01*
X1180Y431D01*
X1176Y431D01*
X1176Y429D01*
X1172Y429D01*
X1172Y427D01*
X1166Y427D01*
X1166Y425D01*
X1246Y425D01*
X1246Y427D01*
X1240Y427D01*
X1240Y429D01*
X1236Y429D01*
X1236Y431D01*
X1232Y431D01*
X1232Y433D01*
X1230Y433D01*
X1230Y435D01*
X1228Y435D01*
X1228Y437D01*
X1226Y437D01*
X1226Y439D01*
X1222Y439D01*
X1222Y443D01*
X1220Y443D01*
X1220Y445D01*
X1218Y445D01*
X1218Y447D01*
X1216Y447D01*
X1216Y449D01*
X1196Y449D01*
G37*
D02*
G36*
X1276Y431D02*
X1276Y429D01*
X1272Y429D01*
X1272Y427D01*
X1266Y427D01*
X1266Y425D01*
X1298Y425D01*
X1298Y431D01*
X1276Y431D01*
G37*
D02*
G36*
X40Y427D02*
X40Y235D01*
X186Y235D01*
X186Y237D01*
X182Y237D01*
X182Y239D01*
X178Y239D01*
X178Y241D01*
X174Y241D01*
X174Y243D01*
X172Y243D01*
X172Y245D01*
X170Y245D01*
X170Y247D01*
X166Y247D01*
X166Y249D01*
X164Y249D01*
X164Y253D01*
X162Y253D01*
X162Y255D01*
X160Y255D01*
X160Y257D01*
X158Y257D01*
X158Y261D01*
X156Y261D01*
X156Y265D01*
X154Y265D01*
X154Y269D01*
X152Y269D01*
X152Y293D01*
X154Y293D01*
X154Y297D01*
X156Y297D01*
X156Y301D01*
X158Y301D01*
X158Y305D01*
X160Y305D01*
X160Y307D01*
X162Y307D01*
X162Y309D01*
X164Y309D01*
X164Y313D01*
X166Y313D01*
X166Y315D01*
X170Y315D01*
X170Y317D01*
X172Y317D01*
X172Y319D01*
X174Y319D01*
X174Y321D01*
X178Y321D01*
X178Y341D01*
X174Y341D01*
X174Y343D01*
X172Y343D01*
X172Y345D01*
X170Y345D01*
X170Y347D01*
X166Y347D01*
X166Y349D01*
X164Y349D01*
X164Y353D01*
X162Y353D01*
X162Y355D01*
X160Y355D01*
X160Y357D01*
X158Y357D01*
X158Y361D01*
X156Y361D01*
X156Y365D01*
X154Y365D01*
X154Y369D01*
X152Y369D01*
X152Y393D01*
X154Y393D01*
X154Y397D01*
X156Y397D01*
X156Y401D01*
X158Y401D01*
X158Y405D01*
X160Y405D01*
X160Y407D01*
X162Y407D01*
X162Y409D01*
X164Y409D01*
X164Y413D01*
X166Y413D01*
X166Y415D01*
X170Y415D01*
X170Y417D01*
X172Y417D01*
X172Y419D01*
X174Y419D01*
X174Y421D01*
X178Y421D01*
X178Y423D01*
X182Y423D01*
X182Y425D01*
X186Y425D01*
X186Y427D01*
X40Y427D01*
G37*
D02*
G36*
X214Y425D02*
X214Y423D01*
X1298Y423D01*
X1298Y425D01*
X214Y425D01*
G37*
D02*
G36*
X214Y425D02*
X214Y423D01*
X1298Y423D01*
X1298Y425D01*
X214Y425D01*
G37*
D02*
G36*
X214Y425D02*
X214Y423D01*
X1298Y423D01*
X1298Y425D01*
X214Y425D01*
G37*
D02*
G36*
X214Y425D02*
X214Y423D01*
X1298Y423D01*
X1298Y425D01*
X214Y425D01*
G37*
D02*
G36*
X214Y425D02*
X214Y423D01*
X1298Y423D01*
X1298Y425D01*
X214Y425D01*
G37*
D02*
G36*
X214Y425D02*
X214Y423D01*
X1298Y423D01*
X1298Y425D01*
X214Y425D01*
G37*
D02*
G36*
X214Y425D02*
X214Y423D01*
X1298Y423D01*
X1298Y425D01*
X214Y425D01*
G37*
D02*
G36*
X214Y425D02*
X214Y423D01*
X1298Y423D01*
X1298Y425D01*
X214Y425D01*
G37*
D02*
G36*
X214Y425D02*
X214Y423D01*
X1298Y423D01*
X1298Y425D01*
X214Y425D01*
G37*
D02*
G36*
X214Y425D02*
X214Y423D01*
X1298Y423D01*
X1298Y425D01*
X214Y425D01*
G37*
D02*
G36*
X214Y425D02*
X214Y423D01*
X1298Y423D01*
X1298Y425D01*
X214Y425D01*
G37*
D02*
G36*
X218Y423D02*
X218Y421D01*
X222Y421D01*
X222Y419D01*
X224Y419D01*
X224Y417D01*
X226Y417D01*
X226Y415D01*
X230Y415D01*
X230Y413D01*
X232Y413D01*
X232Y409D01*
X234Y409D01*
X234Y407D01*
X236Y407D01*
X236Y405D01*
X238Y405D01*
X238Y403D01*
X1104Y403D01*
X1104Y401D01*
X1110Y401D01*
X1110Y399D01*
X1112Y399D01*
X1112Y397D01*
X1114Y397D01*
X1114Y395D01*
X1116Y395D01*
X1116Y391D01*
X1118Y391D01*
X1118Y387D01*
X1120Y387D01*
X1120Y329D01*
X1246Y329D01*
X1246Y233D01*
X1298Y233D01*
X1298Y423D01*
X218Y423D01*
G37*
D02*
G36*
X302Y403D02*
X302Y401D01*
X308Y401D01*
X308Y399D01*
X312Y399D01*
X312Y397D01*
X314Y397D01*
X314Y395D01*
X316Y395D01*
X316Y393D01*
X318Y393D01*
X318Y391D01*
X320Y391D01*
X320Y389D01*
X322Y389D01*
X322Y387D01*
X324Y387D01*
X324Y385D01*
X326Y385D01*
X326Y383D01*
X328Y383D01*
X328Y381D01*
X330Y381D01*
X330Y379D01*
X332Y379D01*
X332Y377D01*
X334Y377D01*
X334Y375D01*
X336Y375D01*
X336Y373D01*
X338Y373D01*
X338Y371D01*
X340Y371D01*
X340Y369D01*
X342Y369D01*
X342Y367D01*
X344Y367D01*
X344Y365D01*
X346Y365D01*
X346Y363D01*
X348Y363D01*
X348Y361D01*
X350Y361D01*
X350Y359D01*
X352Y359D01*
X352Y357D01*
X354Y357D01*
X354Y355D01*
X356Y355D01*
X356Y353D01*
X358Y353D01*
X358Y351D01*
X360Y351D01*
X360Y349D01*
X362Y349D01*
X362Y347D01*
X364Y347D01*
X364Y345D01*
X366Y345D01*
X366Y343D01*
X368Y343D01*
X368Y341D01*
X370Y341D01*
X370Y339D01*
X372Y339D01*
X372Y337D01*
X374Y337D01*
X374Y335D01*
X376Y335D01*
X376Y333D01*
X378Y333D01*
X378Y331D01*
X380Y331D01*
X380Y329D01*
X382Y329D01*
X382Y327D01*
X384Y327D01*
X384Y325D01*
X386Y325D01*
X386Y323D01*
X388Y323D01*
X388Y321D01*
X390Y321D01*
X390Y319D01*
X392Y319D01*
X392Y317D01*
X394Y317D01*
X394Y315D01*
X396Y315D01*
X396Y313D01*
X398Y313D01*
X398Y311D01*
X400Y311D01*
X400Y309D01*
X402Y309D01*
X402Y307D01*
X404Y307D01*
X404Y305D01*
X406Y305D01*
X406Y303D01*
X408Y303D01*
X408Y301D01*
X410Y301D01*
X410Y299D01*
X412Y299D01*
X412Y297D01*
X414Y297D01*
X414Y295D01*
X416Y295D01*
X416Y293D01*
X418Y293D01*
X418Y291D01*
X420Y291D01*
X420Y289D01*
X422Y289D01*
X422Y287D01*
X424Y287D01*
X424Y285D01*
X426Y285D01*
X426Y283D01*
X428Y283D01*
X428Y281D01*
X430Y281D01*
X430Y279D01*
X450Y279D01*
X450Y287D01*
X452Y287D01*
X452Y293D01*
X454Y293D01*
X454Y299D01*
X456Y299D01*
X456Y303D01*
X458Y303D01*
X458Y305D01*
X460Y305D01*
X460Y309D01*
X462Y309D01*
X462Y311D01*
X464Y311D01*
X464Y313D01*
X466Y313D01*
X466Y315D01*
X468Y315D01*
X468Y317D01*
X470Y317D01*
X470Y319D01*
X474Y319D01*
X474Y321D01*
X476Y321D01*
X476Y387D01*
X478Y387D01*
X478Y391D01*
X480Y391D01*
X480Y395D01*
X482Y395D01*
X482Y397D01*
X484Y397D01*
X484Y399D01*
X486Y399D01*
X486Y401D01*
X490Y401D01*
X490Y403D01*
X302Y403D01*
G37*
D02*
G36*
X238Y359D02*
X238Y357D01*
X236Y357D01*
X236Y355D01*
X234Y355D01*
X234Y353D01*
X232Y353D01*
X232Y349D01*
X230Y349D01*
X230Y347D01*
X226Y347D01*
X226Y345D01*
X224Y345D01*
X224Y343D01*
X222Y343D01*
X222Y341D01*
X218Y341D01*
X218Y321D01*
X222Y321D01*
X222Y319D01*
X224Y319D01*
X224Y317D01*
X226Y317D01*
X226Y315D01*
X230Y315D01*
X230Y313D01*
X232Y313D01*
X232Y309D01*
X234Y309D01*
X234Y307D01*
X236Y307D01*
X236Y305D01*
X238Y305D01*
X238Y301D01*
X240Y301D01*
X240Y297D01*
X242Y297D01*
X242Y293D01*
X244Y293D01*
X244Y269D01*
X242Y269D01*
X242Y265D01*
X240Y265D01*
X240Y261D01*
X238Y261D01*
X238Y257D01*
X236Y257D01*
X236Y255D01*
X234Y255D01*
X234Y253D01*
X232Y253D01*
X232Y249D01*
X230Y249D01*
X230Y247D01*
X226Y247D01*
X226Y245D01*
X224Y245D01*
X224Y243D01*
X222Y243D01*
X222Y241D01*
X218Y241D01*
X218Y239D01*
X214Y239D01*
X214Y237D01*
X210Y237D01*
X210Y235D01*
X412Y235D01*
X412Y237D01*
X410Y237D01*
X410Y239D01*
X408Y239D01*
X408Y241D01*
X406Y241D01*
X406Y243D01*
X404Y243D01*
X404Y245D01*
X402Y245D01*
X402Y247D01*
X400Y247D01*
X400Y249D01*
X398Y249D01*
X398Y251D01*
X396Y251D01*
X396Y253D01*
X394Y253D01*
X394Y255D01*
X392Y255D01*
X392Y257D01*
X390Y257D01*
X390Y259D01*
X388Y259D01*
X388Y261D01*
X386Y261D01*
X386Y263D01*
X384Y263D01*
X384Y265D01*
X382Y265D01*
X382Y267D01*
X380Y267D01*
X380Y269D01*
X378Y269D01*
X378Y271D01*
X376Y271D01*
X376Y273D01*
X374Y273D01*
X374Y275D01*
X372Y275D01*
X372Y277D01*
X370Y277D01*
X370Y279D01*
X368Y279D01*
X368Y281D01*
X366Y281D01*
X366Y283D01*
X364Y283D01*
X364Y285D01*
X362Y285D01*
X362Y287D01*
X360Y287D01*
X360Y289D01*
X358Y289D01*
X358Y291D01*
X356Y291D01*
X356Y293D01*
X354Y293D01*
X354Y295D01*
X352Y295D01*
X352Y297D01*
X350Y297D01*
X350Y299D01*
X348Y299D01*
X348Y301D01*
X346Y301D01*
X346Y303D01*
X344Y303D01*
X344Y305D01*
X342Y305D01*
X342Y307D01*
X340Y307D01*
X340Y309D01*
X338Y309D01*
X338Y311D01*
X336Y311D01*
X336Y313D01*
X334Y313D01*
X334Y315D01*
X332Y315D01*
X332Y317D01*
X330Y317D01*
X330Y319D01*
X328Y319D01*
X328Y321D01*
X326Y321D01*
X326Y323D01*
X324Y323D01*
X324Y325D01*
X322Y325D01*
X322Y327D01*
X320Y327D01*
X320Y329D01*
X318Y329D01*
X318Y331D01*
X316Y331D01*
X316Y333D01*
X314Y333D01*
X314Y335D01*
X312Y335D01*
X312Y337D01*
X310Y337D01*
X310Y339D01*
X308Y339D01*
X308Y341D01*
X306Y341D01*
X306Y343D01*
X304Y343D01*
X304Y345D01*
X302Y345D01*
X302Y347D01*
X300Y347D01*
X300Y349D01*
X298Y349D01*
X298Y351D01*
X296Y351D01*
X296Y353D01*
X294Y353D01*
X294Y355D01*
X292Y355D01*
X292Y357D01*
X290Y357D01*
X290Y359D01*
X238Y359D01*
G37*
D02*
G36*
X520Y359D02*
X520Y329D01*
X904Y329D01*
X904Y327D01*
X910Y327D01*
X910Y325D01*
X916Y325D01*
X916Y323D01*
X920Y323D01*
X920Y321D01*
X922Y321D01*
X922Y319D01*
X926Y319D01*
X926Y317D01*
X928Y317D01*
X928Y315D01*
X930Y315D01*
X930Y313D01*
X932Y313D01*
X932Y311D01*
X934Y311D01*
X934Y309D01*
X936Y309D01*
X936Y305D01*
X938Y305D01*
X938Y303D01*
X940Y303D01*
X940Y299D01*
X942Y299D01*
X942Y293D01*
X944Y293D01*
X944Y287D01*
X946Y287D01*
X946Y275D01*
X944Y275D01*
X944Y269D01*
X942Y269D01*
X942Y263D01*
X940Y263D01*
X940Y259D01*
X938Y259D01*
X938Y257D01*
X936Y257D01*
X936Y253D01*
X934Y253D01*
X934Y251D01*
X932Y251D01*
X932Y249D01*
X930Y249D01*
X930Y247D01*
X928Y247D01*
X928Y245D01*
X926Y245D01*
X926Y243D01*
X922Y243D01*
X922Y241D01*
X920Y241D01*
X920Y233D01*
X1092Y233D01*
X1092Y235D01*
X1086Y235D01*
X1086Y237D01*
X1080Y237D01*
X1080Y239D01*
X1076Y239D01*
X1076Y241D01*
X1074Y241D01*
X1074Y243D01*
X1070Y243D01*
X1070Y245D01*
X1068Y245D01*
X1068Y247D01*
X1066Y247D01*
X1066Y249D01*
X1064Y249D01*
X1064Y251D01*
X1062Y251D01*
X1062Y253D01*
X1060Y253D01*
X1060Y257D01*
X1058Y257D01*
X1058Y259D01*
X1056Y259D01*
X1056Y263D01*
X1054Y263D01*
X1054Y269D01*
X1052Y269D01*
X1052Y275D01*
X1050Y275D01*
X1050Y287D01*
X1052Y287D01*
X1052Y293D01*
X1054Y293D01*
X1054Y299D01*
X1056Y299D01*
X1056Y303D01*
X1058Y303D01*
X1058Y305D01*
X1060Y305D01*
X1060Y309D01*
X1062Y309D01*
X1062Y311D01*
X1064Y311D01*
X1064Y313D01*
X1066Y313D01*
X1066Y315D01*
X1068Y315D01*
X1068Y317D01*
X1070Y317D01*
X1070Y319D01*
X1074Y319D01*
X1074Y321D01*
X1076Y321D01*
X1076Y359D01*
X520Y359D01*
G37*
D02*
G36*
X520Y329D02*
X520Y321D01*
X522Y321D01*
X522Y319D01*
X526Y319D01*
X526Y317D01*
X528Y317D01*
X528Y315D01*
X530Y315D01*
X530Y313D01*
X532Y313D01*
X532Y311D01*
X534Y311D01*
X534Y309D01*
X536Y309D01*
X536Y305D01*
X538Y305D01*
X538Y303D01*
X540Y303D01*
X540Y299D01*
X542Y299D01*
X542Y293D01*
X544Y293D01*
X544Y287D01*
X546Y287D01*
X546Y275D01*
X544Y275D01*
X544Y269D01*
X542Y269D01*
X542Y263D01*
X540Y263D01*
X540Y259D01*
X538Y259D01*
X538Y257D01*
X536Y257D01*
X536Y253D01*
X534Y253D01*
X534Y251D01*
X532Y251D01*
X532Y249D01*
X530Y249D01*
X530Y247D01*
X528Y247D01*
X528Y245D01*
X526Y245D01*
X526Y243D01*
X522Y243D01*
X522Y241D01*
X520Y241D01*
X520Y221D01*
X522Y221D01*
X522Y219D01*
X526Y219D01*
X526Y217D01*
X528Y217D01*
X528Y215D01*
X530Y215D01*
X530Y213D01*
X532Y213D01*
X532Y211D01*
X534Y211D01*
X534Y209D01*
X536Y209D01*
X536Y205D01*
X538Y205D01*
X538Y203D01*
X540Y203D01*
X540Y199D01*
X542Y199D01*
X542Y193D01*
X544Y193D01*
X544Y187D01*
X546Y187D01*
X546Y175D01*
X544Y175D01*
X544Y169D01*
X542Y169D01*
X542Y163D01*
X540Y163D01*
X540Y159D01*
X538Y159D01*
X538Y157D01*
X536Y157D01*
X536Y153D01*
X534Y153D01*
X534Y151D01*
X532Y151D01*
X532Y149D01*
X530Y149D01*
X530Y147D01*
X528Y147D01*
X528Y145D01*
X526Y145D01*
X526Y143D01*
X522Y143D01*
X522Y141D01*
X520Y141D01*
X520Y139D01*
X516Y139D01*
X516Y137D01*
X510Y137D01*
X510Y135D01*
X504Y135D01*
X504Y133D01*
X892Y133D01*
X892Y135D01*
X886Y135D01*
X886Y137D01*
X880Y137D01*
X880Y139D01*
X876Y139D01*
X876Y141D01*
X874Y141D01*
X874Y143D01*
X870Y143D01*
X870Y145D01*
X868Y145D01*
X868Y147D01*
X866Y147D01*
X866Y149D01*
X864Y149D01*
X864Y151D01*
X862Y151D01*
X862Y153D01*
X860Y153D01*
X860Y157D01*
X858Y157D01*
X858Y159D01*
X856Y159D01*
X856Y163D01*
X854Y163D01*
X854Y169D01*
X852Y169D01*
X852Y175D01*
X850Y175D01*
X850Y187D01*
X852Y187D01*
X852Y193D01*
X854Y193D01*
X854Y199D01*
X856Y199D01*
X856Y203D01*
X858Y203D01*
X858Y205D01*
X860Y205D01*
X860Y209D01*
X862Y209D01*
X862Y211D01*
X864Y211D01*
X864Y213D01*
X866Y213D01*
X866Y215D01*
X868Y215D01*
X868Y217D01*
X870Y217D01*
X870Y219D01*
X874Y219D01*
X874Y221D01*
X876Y221D01*
X876Y241D01*
X874Y241D01*
X874Y243D01*
X870Y243D01*
X870Y245D01*
X868Y245D01*
X868Y247D01*
X866Y247D01*
X866Y249D01*
X864Y249D01*
X864Y251D01*
X862Y251D01*
X862Y253D01*
X860Y253D01*
X860Y257D01*
X858Y257D01*
X858Y259D01*
X856Y259D01*
X856Y263D01*
X854Y263D01*
X854Y269D01*
X852Y269D01*
X852Y275D01*
X850Y275D01*
X850Y287D01*
X852Y287D01*
X852Y293D01*
X854Y293D01*
X854Y299D01*
X856Y299D01*
X856Y303D01*
X858Y303D01*
X858Y305D01*
X860Y305D01*
X860Y309D01*
X862Y309D01*
X862Y311D01*
X864Y311D01*
X864Y313D01*
X866Y313D01*
X866Y315D01*
X868Y315D01*
X868Y317D01*
X870Y317D01*
X870Y319D01*
X874Y319D01*
X874Y321D01*
X876Y321D01*
X876Y323D01*
X880Y323D01*
X880Y325D01*
X886Y325D01*
X886Y327D01*
X892Y327D01*
X892Y329D01*
X520Y329D01*
G37*
D02*
G36*
X1120Y329D02*
X1120Y321D01*
X1122Y321D01*
X1122Y319D01*
X1126Y319D01*
X1126Y317D01*
X1128Y317D01*
X1128Y315D01*
X1130Y315D01*
X1130Y313D01*
X1150Y313D01*
X1150Y329D01*
X1120Y329D01*
G37*
D02*
G36*
X1130Y249D02*
X1130Y247D01*
X1128Y247D01*
X1128Y245D01*
X1126Y245D01*
X1126Y243D01*
X1122Y243D01*
X1122Y241D01*
X1120Y241D01*
X1120Y239D01*
X1116Y239D01*
X1116Y237D01*
X1110Y237D01*
X1110Y235D01*
X1104Y235D01*
X1104Y233D01*
X1150Y233D01*
X1150Y249D01*
X1130Y249D01*
G37*
D02*
G36*
X40Y235D02*
X40Y233D01*
X414Y233D01*
X414Y235D01*
X40Y235D01*
G37*
D02*
G36*
X40Y235D02*
X40Y233D01*
X414Y233D01*
X414Y235D01*
X40Y235D01*
G37*
D02*
G36*
X40Y233D02*
X40Y133D01*
X492Y133D01*
X492Y135D01*
X486Y135D01*
X486Y137D01*
X480Y137D01*
X480Y139D01*
X476Y139D01*
X476Y141D01*
X474Y141D01*
X474Y143D01*
X470Y143D01*
X470Y145D01*
X468Y145D01*
X468Y147D01*
X466Y147D01*
X466Y149D01*
X464Y149D01*
X464Y151D01*
X462Y151D01*
X462Y153D01*
X460Y153D01*
X460Y157D01*
X458Y157D01*
X458Y159D01*
X456Y159D01*
X456Y163D01*
X454Y163D01*
X454Y169D01*
X452Y169D01*
X452Y175D01*
X450Y175D01*
X450Y199D01*
X448Y199D01*
X448Y201D01*
X446Y201D01*
X446Y203D01*
X444Y203D01*
X444Y205D01*
X442Y205D01*
X442Y207D01*
X440Y207D01*
X440Y209D01*
X438Y209D01*
X438Y211D01*
X436Y211D01*
X436Y213D01*
X434Y213D01*
X434Y215D01*
X432Y215D01*
X432Y217D01*
X430Y217D01*
X430Y219D01*
X428Y219D01*
X428Y221D01*
X426Y221D01*
X426Y223D01*
X424Y223D01*
X424Y225D01*
X422Y225D01*
X422Y227D01*
X420Y227D01*
X420Y229D01*
X418Y229D01*
X418Y231D01*
X416Y231D01*
X416Y233D01*
X40Y233D01*
G37*
D02*
G36*
X920Y233D02*
X920Y231D01*
X1298Y231D01*
X1298Y233D01*
X920Y233D01*
G37*
D02*
G36*
X920Y233D02*
X920Y231D01*
X1298Y231D01*
X1298Y233D01*
X920Y233D01*
G37*
D02*
G36*
X920Y233D02*
X920Y231D01*
X1298Y231D01*
X1298Y233D01*
X920Y233D01*
G37*
D02*
G36*
X920Y231D02*
X920Y221D01*
X922Y221D01*
X922Y219D01*
X926Y219D01*
X926Y217D01*
X928Y217D01*
X928Y215D01*
X930Y215D01*
X930Y213D01*
X932Y213D01*
X932Y211D01*
X934Y211D01*
X934Y209D01*
X936Y209D01*
X936Y205D01*
X938Y205D01*
X938Y203D01*
X940Y203D01*
X940Y199D01*
X942Y199D01*
X942Y193D01*
X944Y193D01*
X944Y187D01*
X946Y187D01*
X946Y175D01*
X944Y175D01*
X944Y169D01*
X942Y169D01*
X942Y163D01*
X940Y163D01*
X940Y159D01*
X938Y159D01*
X938Y157D01*
X936Y157D01*
X936Y153D01*
X934Y153D01*
X934Y151D01*
X932Y151D01*
X932Y149D01*
X930Y149D01*
X930Y147D01*
X928Y147D01*
X928Y145D01*
X926Y145D01*
X926Y143D01*
X922Y143D01*
X922Y141D01*
X920Y141D01*
X920Y139D01*
X916Y139D01*
X916Y137D01*
X910Y137D01*
X910Y135D01*
X904Y135D01*
X904Y133D01*
X1298Y133D01*
X1298Y231D01*
X920Y231D01*
G37*
D02*
G36*
X40Y133D02*
X40Y131D01*
X1298Y131D01*
X1298Y133D01*
X40Y133D01*
G37*
D02*
G36*
X40Y133D02*
X40Y131D01*
X1298Y131D01*
X1298Y133D01*
X40Y133D01*
G37*
D02*
G36*
X40Y133D02*
X40Y131D01*
X1298Y131D01*
X1298Y133D01*
X40Y133D01*
G37*
D02*
G36*
X40Y131D02*
X40Y127D01*
X210Y127D01*
X210Y125D01*
X214Y125D01*
X214Y123D01*
X218Y123D01*
X218Y121D01*
X222Y121D01*
X222Y119D01*
X1268Y119D01*
X1268Y117D01*
X1272Y117D01*
X1272Y115D01*
X1276Y115D01*
X1276Y113D01*
X1298Y113D01*
X1298Y131D01*
X40Y131D01*
G37*
D02*
G36*
X40Y127D02*
X40Y41D01*
X158Y41D01*
X158Y61D01*
X156Y61D01*
X156Y65D01*
X154Y65D01*
X154Y69D01*
X152Y69D01*
X152Y93D01*
X154Y93D01*
X154Y97D01*
X156Y97D01*
X156Y101D01*
X158Y101D01*
X158Y105D01*
X160Y105D01*
X160Y107D01*
X162Y107D01*
X162Y109D01*
X164Y109D01*
X164Y113D01*
X166Y113D01*
X166Y115D01*
X170Y115D01*
X170Y117D01*
X172Y117D01*
X172Y119D01*
X174Y119D01*
X174Y121D01*
X178Y121D01*
X178Y123D01*
X182Y123D01*
X182Y125D01*
X186Y125D01*
X186Y127D01*
X40Y127D01*
G37*
D02*
G36*
X224Y119D02*
X224Y117D01*
X226Y117D01*
X226Y115D01*
X230Y115D01*
X230Y113D01*
X232Y113D01*
X232Y109D01*
X234Y109D01*
X234Y107D01*
X236Y107D01*
X236Y105D01*
X238Y105D01*
X238Y101D01*
X240Y101D01*
X240Y97D01*
X242Y97D01*
X242Y93D01*
X244Y93D01*
X244Y69D01*
X242Y69D01*
X242Y65D01*
X240Y65D01*
X240Y61D01*
X238Y61D01*
X238Y41D01*
X310Y41D01*
X310Y67D01*
X308Y67D01*
X308Y77D01*
X310Y77D01*
X310Y85D01*
X312Y85D01*
X312Y91D01*
X314Y91D01*
X314Y93D01*
X316Y93D01*
X316Y97D01*
X318Y97D01*
X318Y99D01*
X320Y99D01*
X320Y101D01*
X322Y101D01*
X322Y105D01*
X324Y105D01*
X324Y107D01*
X328Y107D01*
X328Y109D01*
X330Y109D01*
X330Y111D01*
X332Y111D01*
X332Y113D01*
X336Y113D01*
X336Y115D01*
X340Y115D01*
X340Y117D01*
X346Y117D01*
X346Y119D01*
X224Y119D01*
G37*
D02*
G36*
X368Y119D02*
X368Y117D01*
X372Y117D01*
X372Y115D01*
X376Y115D01*
X376Y113D01*
X380Y113D01*
X380Y111D01*
X382Y111D01*
X382Y109D01*
X386Y109D01*
X386Y107D01*
X388Y107D01*
X388Y105D01*
X390Y105D01*
X390Y103D01*
X392Y103D01*
X392Y101D01*
X394Y101D01*
X394Y97D01*
X416Y97D01*
X416Y99D01*
X418Y99D01*
X418Y101D01*
X420Y101D01*
X420Y103D01*
X422Y103D01*
X422Y105D01*
X424Y105D01*
X424Y107D01*
X426Y107D01*
X426Y109D01*
X428Y109D01*
X428Y111D01*
X430Y111D01*
X430Y113D01*
X434Y113D01*
X434Y115D01*
X438Y115D01*
X438Y117D01*
X444Y117D01*
X444Y119D01*
X368Y119D01*
G37*
D02*
G36*
X466Y119D02*
X466Y117D01*
X472Y117D01*
X472Y115D01*
X476Y115D01*
X476Y113D01*
X478Y113D01*
X478Y111D01*
X482Y111D01*
X482Y109D01*
X484Y109D01*
X484Y107D01*
X486Y107D01*
X486Y105D01*
X488Y105D01*
X488Y103D01*
X490Y103D01*
X490Y101D01*
X492Y101D01*
X492Y99D01*
X494Y99D01*
X494Y95D01*
X496Y95D01*
X496Y93D01*
X516Y93D01*
X516Y97D01*
X518Y97D01*
X518Y99D01*
X520Y99D01*
X520Y101D01*
X522Y101D01*
X522Y105D01*
X524Y105D01*
X524Y107D01*
X528Y107D01*
X528Y109D01*
X530Y109D01*
X530Y111D01*
X532Y111D01*
X532Y113D01*
X536Y113D01*
X536Y115D01*
X540Y115D01*
X540Y117D01*
X546Y117D01*
X546Y119D01*
X466Y119D01*
G37*
D02*
G36*
X568Y119D02*
X568Y117D01*
X572Y117D01*
X572Y115D01*
X576Y115D01*
X576Y113D01*
X580Y113D01*
X580Y111D01*
X582Y111D01*
X582Y109D01*
X586Y109D01*
X586Y107D01*
X588Y107D01*
X588Y105D01*
X590Y105D01*
X590Y103D01*
X592Y103D01*
X592Y101D01*
X594Y101D01*
X594Y97D01*
X596Y97D01*
X596Y95D01*
X616Y95D01*
X616Y97D01*
X618Y97D01*
X618Y99D01*
X620Y99D01*
X620Y101D01*
X622Y101D01*
X622Y105D01*
X624Y105D01*
X624Y107D01*
X628Y107D01*
X628Y109D01*
X630Y109D01*
X630Y111D01*
X632Y111D01*
X632Y113D01*
X636Y113D01*
X636Y115D01*
X640Y115D01*
X640Y117D01*
X646Y117D01*
X646Y119D01*
X568Y119D01*
G37*
D02*
G36*
X668Y119D02*
X668Y117D01*
X672Y117D01*
X672Y115D01*
X676Y115D01*
X676Y113D01*
X680Y113D01*
X680Y111D01*
X682Y111D01*
X682Y109D01*
X686Y109D01*
X686Y107D01*
X688Y107D01*
X688Y105D01*
X690Y105D01*
X690Y103D01*
X692Y103D01*
X692Y101D01*
X694Y101D01*
X694Y97D01*
X696Y97D01*
X696Y95D01*
X716Y95D01*
X716Y97D01*
X718Y97D01*
X718Y99D01*
X720Y99D01*
X720Y101D01*
X722Y101D01*
X722Y105D01*
X724Y105D01*
X724Y107D01*
X728Y107D01*
X728Y109D01*
X730Y109D01*
X730Y111D01*
X732Y111D01*
X732Y113D01*
X736Y113D01*
X736Y115D01*
X740Y115D01*
X740Y117D01*
X746Y117D01*
X746Y119D01*
X668Y119D01*
G37*
D02*
G36*
X768Y119D02*
X768Y117D01*
X772Y117D01*
X772Y115D01*
X776Y115D01*
X776Y113D01*
X780Y113D01*
X780Y111D01*
X782Y111D01*
X782Y109D01*
X786Y109D01*
X786Y107D01*
X788Y107D01*
X788Y105D01*
X790Y105D01*
X790Y103D01*
X792Y103D01*
X792Y101D01*
X794Y101D01*
X794Y97D01*
X796Y97D01*
X796Y95D01*
X816Y95D01*
X816Y97D01*
X818Y97D01*
X818Y99D01*
X820Y99D01*
X820Y101D01*
X822Y101D01*
X822Y105D01*
X824Y105D01*
X824Y107D01*
X828Y107D01*
X828Y109D01*
X830Y109D01*
X830Y111D01*
X832Y111D01*
X832Y113D01*
X836Y113D01*
X836Y115D01*
X840Y115D01*
X840Y117D01*
X846Y117D01*
X846Y119D01*
X768Y119D01*
G37*
D02*
G36*
X868Y119D02*
X868Y117D01*
X872Y117D01*
X872Y115D01*
X876Y115D01*
X876Y113D01*
X880Y113D01*
X880Y111D01*
X882Y111D01*
X882Y109D01*
X886Y109D01*
X886Y107D01*
X888Y107D01*
X888Y105D01*
X890Y105D01*
X890Y103D01*
X892Y103D01*
X892Y101D01*
X894Y101D01*
X894Y97D01*
X896Y97D01*
X896Y95D01*
X916Y95D01*
X916Y97D01*
X918Y97D01*
X918Y99D01*
X920Y99D01*
X920Y101D01*
X922Y101D01*
X922Y105D01*
X924Y105D01*
X924Y107D01*
X928Y107D01*
X928Y109D01*
X930Y109D01*
X930Y111D01*
X932Y111D01*
X932Y113D01*
X936Y113D01*
X936Y115D01*
X940Y115D01*
X940Y117D01*
X946Y117D01*
X946Y119D01*
X868Y119D01*
G37*
D02*
G36*
X968Y119D02*
X968Y117D01*
X972Y117D01*
X972Y115D01*
X976Y115D01*
X976Y113D01*
X980Y113D01*
X980Y111D01*
X982Y111D01*
X982Y109D01*
X986Y109D01*
X986Y107D01*
X988Y107D01*
X988Y105D01*
X990Y105D01*
X990Y103D01*
X992Y103D01*
X992Y101D01*
X994Y101D01*
X994Y97D01*
X996Y97D01*
X996Y95D01*
X1016Y95D01*
X1016Y97D01*
X1018Y97D01*
X1018Y99D01*
X1020Y99D01*
X1020Y101D01*
X1022Y101D01*
X1022Y105D01*
X1024Y105D01*
X1024Y107D01*
X1028Y107D01*
X1028Y109D01*
X1030Y109D01*
X1030Y111D01*
X1032Y111D01*
X1032Y113D01*
X1036Y113D01*
X1036Y115D01*
X1040Y115D01*
X1040Y117D01*
X1046Y117D01*
X1046Y119D01*
X968Y119D01*
G37*
D02*
G36*
X1068Y119D02*
X1068Y117D01*
X1072Y117D01*
X1072Y115D01*
X1076Y115D01*
X1076Y113D01*
X1080Y113D01*
X1080Y111D01*
X1082Y111D01*
X1082Y109D01*
X1086Y109D01*
X1086Y107D01*
X1088Y107D01*
X1088Y105D01*
X1090Y105D01*
X1090Y103D01*
X1092Y103D01*
X1092Y101D01*
X1094Y101D01*
X1094Y97D01*
X1096Y97D01*
X1096Y95D01*
X1116Y95D01*
X1116Y97D01*
X1118Y97D01*
X1118Y99D01*
X1120Y99D01*
X1120Y101D01*
X1122Y101D01*
X1122Y105D01*
X1124Y105D01*
X1124Y107D01*
X1128Y107D01*
X1128Y109D01*
X1130Y109D01*
X1130Y111D01*
X1132Y111D01*
X1132Y113D01*
X1136Y113D01*
X1136Y115D01*
X1140Y115D01*
X1140Y117D01*
X1146Y117D01*
X1146Y119D01*
X1068Y119D01*
G37*
D02*
G36*
X1168Y119D02*
X1168Y117D01*
X1172Y117D01*
X1172Y115D01*
X1176Y115D01*
X1176Y113D01*
X1180Y113D01*
X1180Y111D01*
X1182Y111D01*
X1182Y109D01*
X1186Y109D01*
X1186Y107D01*
X1188Y107D01*
X1188Y105D01*
X1190Y105D01*
X1190Y103D01*
X1192Y103D01*
X1192Y101D01*
X1194Y101D01*
X1194Y97D01*
X1196Y97D01*
X1196Y95D01*
X1216Y95D01*
X1216Y97D01*
X1218Y97D01*
X1218Y99D01*
X1220Y99D01*
X1220Y101D01*
X1222Y101D01*
X1222Y105D01*
X1224Y105D01*
X1224Y107D01*
X1228Y107D01*
X1228Y109D01*
X1230Y109D01*
X1230Y111D01*
X1232Y111D01*
X1232Y113D01*
X1236Y113D01*
X1236Y115D01*
X1240Y115D01*
X1240Y117D01*
X1246Y117D01*
X1246Y119D01*
X1168Y119D01*
G37*
D02*
G04 End of Copper1*
M02*