G04 MADE WITH FRITZING*
G04 WWW.FRITZING.ORG*
G04 DOUBLE SIDED*
G04 HOLES PLATED*
G04 CONTOUR ON CENTER OF CONTOUR VECTOR*
%ASAXBY*%
%FSLAX23Y23*%
%MOIN*%
%OFA0B0*%
%SFA1.0B1.0*%
%ADD10C,0.010000*%
%ADD11R,0.001000X0.001000*%
%LNSILK1*%
G90*
G70*
G54D10*
X608Y314D02*
X808Y314D01*
D02*
X808Y314D02*
X808Y248D01*
D02*
X808Y248D02*
X608Y248D01*
D02*
X608Y248D02*
X608Y314D01*
D02*
X608Y214D02*
X808Y214D01*
D02*
X808Y214D02*
X808Y148D01*
D02*
X808Y148D02*
X608Y148D01*
D02*
X608Y148D02*
X608Y214D01*
G54D11*
X0Y551D02*
X1337Y551D01*
X0Y550D02*
X1337Y550D01*
X0Y549D02*
X1337Y549D01*
X0Y548D02*
X1337Y548D01*
X0Y547D02*
X1337Y547D01*
X0Y546D02*
X1337Y546D01*
X0Y545D02*
X1337Y545D01*
X0Y544D02*
X1337Y544D01*
X0Y543D02*
X7Y543D01*
X1330Y543D02*
X1337Y543D01*
X0Y542D02*
X7Y542D01*
X1330Y542D02*
X1337Y542D01*
X0Y541D02*
X7Y541D01*
X1330Y541D02*
X1337Y541D01*
X0Y540D02*
X7Y540D01*
X1330Y540D02*
X1337Y540D01*
X0Y539D02*
X7Y539D01*
X1330Y539D02*
X1337Y539D01*
X0Y538D02*
X7Y538D01*
X1330Y538D02*
X1337Y538D01*
X0Y537D02*
X7Y537D01*
X1330Y537D02*
X1337Y537D01*
X0Y536D02*
X7Y536D01*
X1330Y536D02*
X1337Y536D01*
X0Y535D02*
X7Y535D01*
X1330Y535D02*
X1337Y535D01*
X0Y534D02*
X7Y534D01*
X1330Y534D02*
X1337Y534D01*
X0Y533D02*
X7Y533D01*
X1330Y533D02*
X1337Y533D01*
X0Y532D02*
X7Y532D01*
X1330Y532D02*
X1337Y532D01*
X0Y531D02*
X7Y531D01*
X1330Y531D02*
X1337Y531D01*
X0Y530D02*
X7Y530D01*
X1330Y530D02*
X1337Y530D01*
X0Y529D02*
X7Y529D01*
X1330Y529D02*
X1337Y529D01*
X0Y528D02*
X7Y528D01*
X1330Y528D02*
X1337Y528D01*
X0Y527D02*
X7Y527D01*
X1330Y527D02*
X1337Y527D01*
X0Y526D02*
X7Y526D01*
X1330Y526D02*
X1337Y526D01*
X0Y525D02*
X7Y525D01*
X0Y524D02*
X7Y524D01*
X102Y524D02*
X133Y524D01*
X150Y524D02*
X178Y524D01*
X202Y524D02*
X230Y524D01*
X0Y523D02*
X7Y523D01*
X101Y523D02*
X134Y523D01*
X150Y523D02*
X179Y523D01*
X201Y523D02*
X232Y523D01*
X0Y522D02*
X7Y522D01*
X101Y522D02*
X134Y522D01*
X150Y522D02*
X181Y522D01*
X201Y522D02*
X233Y522D01*
X0Y521D02*
X7Y521D01*
X101Y521D02*
X134Y521D01*
X150Y521D02*
X182Y521D01*
X201Y521D02*
X233Y521D01*
X0Y520D02*
X7Y520D01*
X101Y520D02*
X134Y520D01*
X150Y520D02*
X182Y520D01*
X201Y520D02*
X234Y520D01*
X0Y519D02*
X7Y519D01*
X102Y519D02*
X133Y519D01*
X150Y519D02*
X183Y519D01*
X202Y519D02*
X234Y519D01*
X0Y518D02*
X7Y518D01*
X103Y518D02*
X131Y518D01*
X150Y518D02*
X183Y518D01*
X203Y518D02*
X234Y518D01*
X0Y517D02*
X7Y517D01*
X114Y517D02*
X120Y517D01*
X150Y517D02*
X157Y517D01*
X177Y517D02*
X184Y517D01*
X228Y517D02*
X234Y517D01*
X302Y517D02*
X309Y517D01*
X1330Y517D02*
X1337Y517D01*
X0Y516D02*
X7Y516D01*
X114Y516D02*
X120Y516D01*
X150Y516D02*
X157Y516D01*
X178Y516D02*
X184Y516D01*
X228Y516D02*
X234Y516D01*
X302Y516D02*
X309Y516D01*
X1330Y516D02*
X1337Y516D01*
X0Y515D02*
X7Y515D01*
X114Y515D02*
X120Y515D01*
X150Y515D02*
X157Y515D01*
X178Y515D02*
X184Y515D01*
X228Y515D02*
X234Y515D01*
X302Y515D02*
X309Y515D01*
X1330Y515D02*
X1337Y515D01*
X0Y514D02*
X7Y514D01*
X114Y514D02*
X120Y514D01*
X150Y514D02*
X157Y514D01*
X178Y514D02*
X184Y514D01*
X228Y514D02*
X234Y514D01*
X302Y514D02*
X309Y514D01*
X1330Y514D02*
X1337Y514D01*
X0Y513D02*
X7Y513D01*
X114Y513D02*
X120Y513D01*
X150Y513D02*
X157Y513D01*
X178Y513D02*
X184Y513D01*
X228Y513D02*
X234Y513D01*
X302Y513D02*
X309Y513D01*
X1330Y513D02*
X1337Y513D01*
X0Y512D02*
X7Y512D01*
X114Y512D02*
X120Y512D01*
X150Y512D02*
X157Y512D01*
X178Y512D02*
X184Y512D01*
X228Y512D02*
X234Y512D01*
X302Y512D02*
X309Y512D01*
X1330Y512D02*
X1337Y512D01*
X0Y511D02*
X7Y511D01*
X114Y511D02*
X120Y511D01*
X150Y511D02*
X157Y511D01*
X178Y511D02*
X184Y511D01*
X228Y511D02*
X234Y511D01*
X302Y511D02*
X309Y511D01*
X1330Y511D02*
X1337Y511D01*
X0Y510D02*
X7Y510D01*
X114Y510D02*
X120Y510D01*
X150Y510D02*
X157Y510D01*
X178Y510D02*
X184Y510D01*
X228Y510D02*
X234Y510D01*
X302Y510D02*
X309Y510D01*
X1330Y510D02*
X1337Y510D01*
X0Y509D02*
X7Y509D01*
X114Y509D02*
X120Y509D01*
X150Y509D02*
X157Y509D01*
X177Y509D02*
X184Y509D01*
X228Y509D02*
X234Y509D01*
X302Y509D02*
X309Y509D01*
X1330Y509D02*
X1337Y509D01*
X0Y508D02*
X7Y508D01*
X114Y508D02*
X120Y508D01*
X150Y508D02*
X157Y508D01*
X177Y508D02*
X184Y508D01*
X228Y508D02*
X234Y508D01*
X302Y508D02*
X309Y508D01*
X1330Y508D02*
X1337Y508D01*
X0Y507D02*
X7Y507D01*
X114Y507D02*
X120Y507D01*
X150Y507D02*
X183Y507D01*
X228Y507D02*
X234Y507D01*
X302Y507D02*
X309Y507D01*
X1330Y507D02*
X1337Y507D01*
X0Y506D02*
X7Y506D01*
X114Y506D02*
X120Y506D01*
X150Y506D02*
X183Y506D01*
X228Y506D02*
X234Y506D01*
X302Y506D02*
X309Y506D01*
X1330Y506D02*
X1337Y506D01*
X0Y505D02*
X7Y505D01*
X114Y505D02*
X120Y505D01*
X150Y505D02*
X182Y505D01*
X228Y505D02*
X234Y505D01*
X302Y505D02*
X309Y505D01*
X1330Y505D02*
X1337Y505D01*
X0Y504D02*
X7Y504D01*
X114Y504D02*
X120Y504D01*
X150Y504D02*
X181Y504D01*
X228Y504D02*
X234Y504D01*
X302Y504D02*
X309Y504D01*
X1330Y504D02*
X1337Y504D01*
X0Y503D02*
X7Y503D01*
X114Y503D02*
X120Y503D01*
X150Y503D02*
X181Y503D01*
X228Y503D02*
X234Y503D01*
X302Y503D02*
X309Y503D01*
X1330Y503D02*
X1337Y503D01*
X0Y502D02*
X7Y502D01*
X114Y502D02*
X120Y502D01*
X150Y502D02*
X179Y502D01*
X228Y502D02*
X234Y502D01*
X302Y502D02*
X309Y502D01*
X1330Y502D02*
X1337Y502D01*
X0Y501D02*
X7Y501D01*
X114Y501D02*
X120Y501D01*
X150Y501D02*
X177Y501D01*
X206Y501D02*
X234Y501D01*
X302Y501D02*
X309Y501D01*
X1330Y501D02*
X1337Y501D01*
X0Y500D02*
X7Y500D01*
X114Y500D02*
X120Y500D01*
X150Y500D02*
X157Y500D01*
X162Y500D02*
X170Y500D01*
X203Y500D02*
X234Y500D01*
X302Y500D02*
X309Y500D01*
X1330Y500D02*
X1337Y500D01*
X0Y499D02*
X7Y499D01*
X114Y499D02*
X120Y499D01*
X150Y499D02*
X157Y499D01*
X163Y499D02*
X170Y499D01*
X202Y499D02*
X234Y499D01*
X302Y499D02*
X309Y499D01*
X1330Y499D02*
X1337Y499D01*
X0Y498D02*
X7Y498D01*
X114Y498D02*
X120Y498D01*
X150Y498D02*
X157Y498D01*
X164Y498D02*
X171Y498D01*
X202Y498D02*
X233Y498D01*
X302Y498D02*
X309Y498D01*
X1330Y498D02*
X1337Y498D01*
X0Y497D02*
X7Y497D01*
X114Y497D02*
X120Y497D01*
X150Y497D02*
X157Y497D01*
X164Y497D02*
X171Y497D01*
X201Y497D02*
X232Y497D01*
X302Y497D02*
X309Y497D01*
X1330Y497D02*
X1337Y497D01*
X0Y496D02*
X7Y496D01*
X114Y496D02*
X120Y496D01*
X150Y496D02*
X157Y496D01*
X165Y496D02*
X172Y496D01*
X201Y496D02*
X231Y496D01*
X302Y496D02*
X309Y496D01*
X1330Y496D02*
X1337Y496D01*
X0Y495D02*
X7Y495D01*
X114Y495D02*
X120Y495D01*
X150Y495D02*
X157Y495D01*
X165Y495D02*
X173Y495D01*
X201Y495D02*
X230Y495D01*
X302Y495D02*
X309Y495D01*
X1330Y495D02*
X1337Y495D01*
X0Y494D02*
X7Y494D01*
X114Y494D02*
X120Y494D01*
X150Y494D02*
X157Y494D01*
X166Y494D02*
X173Y494D01*
X200Y494D02*
X207Y494D01*
X302Y494D02*
X309Y494D01*
X1330Y494D02*
X1337Y494D01*
X0Y493D02*
X7Y493D01*
X114Y493D02*
X120Y493D01*
X150Y493D02*
X157Y493D01*
X167Y493D02*
X174Y493D01*
X200Y493D02*
X207Y493D01*
X302Y493D02*
X309Y493D01*
X1330Y493D02*
X1337Y493D01*
X0Y492D02*
X7Y492D01*
X114Y492D02*
X120Y492D01*
X150Y492D02*
X157Y492D01*
X167Y492D02*
X174Y492D01*
X200Y492D02*
X207Y492D01*
X302Y492D02*
X309Y492D01*
X1330Y492D02*
X1337Y492D01*
X0Y491D02*
X7Y491D01*
X114Y491D02*
X120Y491D01*
X150Y491D02*
X157Y491D01*
X168Y491D02*
X175Y491D01*
X200Y491D02*
X207Y491D01*
X302Y491D02*
X309Y491D01*
X1330Y491D02*
X1337Y491D01*
X0Y490D02*
X7Y490D01*
X114Y490D02*
X120Y490D01*
X150Y490D02*
X157Y490D01*
X168Y490D02*
X175Y490D01*
X200Y490D02*
X207Y490D01*
X302Y490D02*
X309Y490D01*
X1330Y490D02*
X1337Y490D01*
X0Y489D02*
X7Y489D01*
X114Y489D02*
X120Y489D01*
X150Y489D02*
X157Y489D01*
X169Y489D02*
X176Y489D01*
X200Y489D02*
X207Y489D01*
X302Y489D02*
X309Y489D01*
X1330Y489D02*
X1337Y489D01*
X0Y488D02*
X7Y488D01*
X114Y488D02*
X120Y488D01*
X150Y488D02*
X157Y488D01*
X169Y488D02*
X177Y488D01*
X200Y488D02*
X207Y488D01*
X302Y488D02*
X309Y488D01*
X1330Y488D02*
X1337Y488D01*
X0Y487D02*
X7Y487D01*
X114Y487D02*
X120Y487D01*
X150Y487D02*
X157Y487D01*
X170Y487D02*
X177Y487D01*
X200Y487D02*
X207Y487D01*
X302Y487D02*
X309Y487D01*
X1330Y487D02*
X1337Y487D01*
X0Y486D02*
X7Y486D01*
X114Y486D02*
X120Y486D01*
X150Y486D02*
X157Y486D01*
X171Y486D02*
X178Y486D01*
X200Y486D02*
X207Y486D01*
X302Y486D02*
X309Y486D01*
X1330Y486D02*
X1337Y486D01*
X0Y485D02*
X7Y485D01*
X114Y485D02*
X120Y485D01*
X150Y485D02*
X157Y485D01*
X171Y485D02*
X178Y485D01*
X200Y485D02*
X207Y485D01*
X302Y485D02*
X309Y485D01*
X1330Y485D02*
X1337Y485D01*
X0Y484D02*
X7Y484D01*
X114Y484D02*
X120Y484D01*
X150Y484D02*
X157Y484D01*
X172Y484D02*
X179Y484D01*
X200Y484D02*
X207Y484D01*
X302Y484D02*
X309Y484D01*
X1330Y484D02*
X1337Y484D01*
X0Y483D02*
X7Y483D01*
X114Y483D02*
X120Y483D01*
X150Y483D02*
X157Y483D01*
X172Y483D02*
X180Y483D01*
X200Y483D02*
X207Y483D01*
X302Y483D02*
X309Y483D01*
X1330Y483D02*
X1337Y483D01*
X0Y482D02*
X7Y482D01*
X114Y482D02*
X120Y482D01*
X150Y482D02*
X157Y482D01*
X173Y482D02*
X180Y482D01*
X200Y482D02*
X207Y482D01*
X302Y482D02*
X309Y482D01*
X1330Y482D02*
X1337Y482D01*
X0Y481D02*
X7Y481D01*
X114Y481D02*
X120Y481D01*
X150Y481D02*
X157Y481D01*
X174Y481D02*
X181Y481D01*
X200Y481D02*
X207Y481D01*
X302Y481D02*
X309Y481D01*
X1330Y481D02*
X1337Y481D01*
X0Y480D02*
X7Y480D01*
X114Y480D02*
X120Y480D01*
X150Y480D02*
X157Y480D01*
X174Y480D02*
X181Y480D01*
X200Y480D02*
X207Y480D01*
X302Y480D02*
X309Y480D01*
X1330Y480D02*
X1337Y480D01*
X0Y479D02*
X7Y479D01*
X114Y479D02*
X120Y479D01*
X150Y479D02*
X157Y479D01*
X175Y479D02*
X182Y479D01*
X200Y479D02*
X207Y479D01*
X302Y479D02*
X309Y479D01*
X1330Y479D02*
X1337Y479D01*
X0Y478D02*
X7Y478D01*
X114Y478D02*
X120Y478D01*
X150Y478D02*
X157Y478D01*
X175Y478D02*
X182Y478D01*
X200Y478D02*
X207Y478D01*
X302Y478D02*
X309Y478D01*
X1330Y478D02*
X1337Y478D01*
X0Y477D02*
X7Y477D01*
X102Y477D02*
X133Y477D01*
X150Y477D02*
X157Y477D01*
X176Y477D02*
X183Y477D01*
X200Y477D02*
X233Y477D01*
X302Y477D02*
X309Y477D01*
X1330Y477D02*
X1337Y477D01*
X0Y476D02*
X7Y476D01*
X101Y476D02*
X134Y476D01*
X150Y476D02*
X157Y476D01*
X176Y476D02*
X184Y476D01*
X200Y476D02*
X234Y476D01*
X302Y476D02*
X309Y476D01*
X1330Y476D02*
X1337Y476D01*
X0Y475D02*
X7Y475D01*
X101Y475D02*
X134Y475D01*
X150Y475D02*
X157Y475D01*
X177Y475D02*
X184Y475D01*
X200Y475D02*
X234Y475D01*
X302Y475D02*
X309Y475D01*
X1330Y475D02*
X1337Y475D01*
X0Y474D02*
X7Y474D01*
X101Y474D02*
X134Y474D01*
X151Y474D02*
X156Y474D01*
X178Y474D02*
X184Y474D01*
X200Y474D02*
X234Y474D01*
X302Y474D02*
X309Y474D01*
X1330Y474D02*
X1337Y474D01*
X0Y473D02*
X7Y473D01*
X101Y473D02*
X134Y473D01*
X151Y473D02*
X156Y473D01*
X178Y473D02*
X184Y473D01*
X200Y473D02*
X234Y473D01*
X302Y473D02*
X309Y473D01*
X1330Y473D02*
X1337Y473D01*
X0Y472D02*
X7Y472D01*
X101Y472D02*
X133Y472D01*
X151Y472D02*
X156Y472D01*
X179Y472D02*
X183Y472D01*
X200Y472D02*
X233Y472D01*
X302Y472D02*
X309Y472D01*
X1330Y472D02*
X1337Y472D01*
X0Y471D02*
X7Y471D01*
X103Y471D02*
X132Y471D01*
X153Y471D02*
X154Y471D01*
X180Y471D02*
X182Y471D01*
X201Y471D02*
X232Y471D01*
X302Y471D02*
X309Y471D01*
X1330Y471D02*
X1337Y471D01*
X0Y470D02*
X7Y470D01*
X302Y470D02*
X309Y470D01*
X1330Y470D02*
X1337Y470D01*
X0Y469D02*
X7Y469D01*
X302Y469D02*
X309Y469D01*
X1330Y469D02*
X1337Y469D01*
X0Y468D02*
X7Y468D01*
X302Y468D02*
X309Y468D01*
X1330Y468D02*
X1337Y468D01*
X0Y467D02*
X7Y467D01*
X302Y467D02*
X309Y467D01*
X1330Y467D02*
X1337Y467D01*
X0Y466D02*
X7Y466D01*
X302Y466D02*
X309Y466D01*
X1330Y466D02*
X1337Y466D01*
X0Y465D02*
X7Y465D01*
X302Y465D02*
X309Y465D01*
X1330Y465D02*
X1337Y465D01*
X0Y464D02*
X7Y464D01*
X302Y464D02*
X309Y464D01*
X1330Y464D02*
X1337Y464D01*
X0Y463D02*
X7Y463D01*
X302Y463D02*
X309Y463D01*
X1330Y463D02*
X1337Y463D01*
X0Y462D02*
X7Y462D01*
X302Y462D02*
X309Y462D01*
X1330Y462D02*
X1337Y462D01*
X0Y461D02*
X7Y461D01*
X302Y461D02*
X309Y461D01*
X1330Y461D02*
X1337Y461D01*
X0Y460D02*
X7Y460D01*
X302Y460D02*
X309Y460D01*
X1330Y460D02*
X1337Y460D01*
X0Y459D02*
X7Y459D01*
X302Y459D02*
X309Y459D01*
X1330Y459D02*
X1337Y459D01*
X0Y458D02*
X7Y458D01*
X302Y458D02*
X309Y458D01*
X1330Y458D02*
X1337Y458D01*
X0Y457D02*
X7Y457D01*
X302Y457D02*
X309Y457D01*
X1330Y457D02*
X1337Y457D01*
X0Y456D02*
X7Y456D01*
X302Y456D02*
X309Y456D01*
X1330Y456D02*
X1337Y456D01*
X0Y455D02*
X7Y455D01*
X302Y455D02*
X309Y455D01*
X1330Y455D02*
X1337Y455D01*
X0Y454D02*
X7Y454D01*
X302Y454D02*
X309Y454D01*
X1330Y454D02*
X1337Y454D01*
X0Y453D02*
X7Y453D01*
X302Y453D02*
X309Y453D01*
X1330Y453D02*
X1337Y453D01*
X0Y452D02*
X7Y452D01*
X302Y452D02*
X309Y452D01*
X1330Y452D02*
X1337Y452D01*
X0Y451D02*
X7Y451D01*
X302Y451D02*
X309Y451D01*
X1330Y451D02*
X1337Y451D01*
X0Y450D02*
X7Y450D01*
X302Y450D02*
X309Y450D01*
X1330Y450D02*
X1337Y450D01*
X0Y449D02*
X7Y449D01*
X302Y449D02*
X309Y449D01*
X1330Y449D02*
X1337Y449D01*
X0Y448D02*
X7Y448D01*
X302Y448D02*
X309Y448D01*
X1330Y448D02*
X1337Y448D01*
X0Y447D02*
X7Y447D01*
X302Y447D02*
X309Y447D01*
X1330Y447D02*
X1337Y447D01*
X0Y446D02*
X7Y446D01*
X302Y446D02*
X309Y446D01*
X1330Y446D02*
X1337Y446D01*
X0Y445D02*
X7Y445D01*
X302Y445D02*
X309Y445D01*
X1330Y445D02*
X1337Y445D01*
X0Y444D02*
X7Y444D01*
X302Y444D02*
X309Y444D01*
X1330Y444D02*
X1337Y444D01*
X0Y443D02*
X7Y443D01*
X302Y443D02*
X309Y443D01*
X1330Y443D02*
X1337Y443D01*
X0Y442D02*
X7Y442D01*
X302Y442D02*
X309Y442D01*
X1330Y442D02*
X1337Y442D01*
X0Y441D02*
X7Y441D01*
X302Y441D02*
X309Y441D01*
X1330Y441D02*
X1337Y441D01*
X0Y440D02*
X7Y440D01*
X302Y440D02*
X309Y440D01*
X1330Y440D02*
X1337Y440D01*
X0Y439D02*
X7Y439D01*
X302Y439D02*
X309Y439D01*
X1330Y439D02*
X1337Y439D01*
X0Y438D02*
X7Y438D01*
X302Y438D02*
X309Y438D01*
X1330Y438D02*
X1337Y438D01*
X0Y437D02*
X7Y437D01*
X302Y437D02*
X309Y437D01*
X1330Y437D02*
X1337Y437D01*
X0Y436D02*
X7Y436D01*
X112Y436D02*
X283Y436D01*
X302Y436D02*
X309Y436D01*
X1330Y436D02*
X1337Y436D01*
X0Y435D02*
X7Y435D01*
X112Y435D02*
X283Y435D01*
X302Y435D02*
X309Y435D01*
X1330Y435D02*
X1337Y435D01*
X0Y434D02*
X7Y434D01*
X112Y434D02*
X283Y434D01*
X302Y434D02*
X309Y434D01*
X1330Y434D02*
X1337Y434D01*
X0Y433D02*
X7Y433D01*
X112Y433D02*
X283Y433D01*
X302Y433D02*
X309Y433D01*
X1330Y433D02*
X1337Y433D01*
X0Y432D02*
X7Y432D01*
X112Y432D02*
X283Y432D01*
X302Y432D02*
X309Y432D01*
X1330Y432D02*
X1337Y432D01*
X0Y431D02*
X7Y431D01*
X112Y431D02*
X283Y431D01*
X302Y431D02*
X309Y431D01*
X1330Y431D02*
X1337Y431D01*
X0Y430D02*
X7Y430D01*
X112Y430D02*
X283Y430D01*
X302Y430D02*
X309Y430D01*
X1330Y430D02*
X1337Y430D01*
X0Y429D02*
X7Y429D01*
X112Y429D02*
X283Y429D01*
X302Y429D02*
X309Y429D01*
X1330Y429D02*
X1337Y429D01*
X0Y428D02*
X7Y428D01*
X112Y428D02*
X283Y428D01*
X302Y428D02*
X309Y428D01*
X1330Y428D02*
X1337Y428D01*
X0Y427D02*
X7Y427D01*
X112Y427D02*
X283Y427D01*
X302Y427D02*
X309Y427D01*
X1330Y427D02*
X1337Y427D01*
X0Y426D02*
X7Y426D01*
X112Y426D02*
X283Y426D01*
X302Y426D02*
X309Y426D01*
X1330Y426D02*
X1337Y426D01*
X0Y425D02*
X7Y425D01*
X112Y425D02*
X283Y425D01*
X302Y425D02*
X309Y425D01*
X1330Y425D02*
X1337Y425D01*
X0Y424D02*
X7Y424D01*
X112Y424D02*
X283Y424D01*
X302Y424D02*
X309Y424D01*
X1330Y424D02*
X1337Y424D01*
X0Y423D02*
X7Y423D01*
X112Y423D02*
X126Y423D01*
X269Y423D02*
X283Y423D01*
X302Y423D02*
X309Y423D01*
X1330Y423D02*
X1337Y423D01*
X0Y422D02*
X7Y422D01*
X112Y422D02*
X125Y422D01*
X270Y422D02*
X283Y422D01*
X302Y422D02*
X309Y422D01*
X1330Y422D02*
X1337Y422D01*
X0Y421D02*
X7Y421D01*
X112Y421D02*
X125Y421D01*
X270Y421D02*
X283Y421D01*
X302Y421D02*
X309Y421D01*
X1330Y421D02*
X1337Y421D01*
X0Y420D02*
X7Y420D01*
X112Y420D02*
X125Y420D01*
X270Y420D02*
X283Y420D01*
X302Y420D02*
X309Y420D01*
X1330Y420D02*
X1337Y420D01*
X0Y419D02*
X7Y419D01*
X112Y419D02*
X125Y419D01*
X270Y419D02*
X283Y419D01*
X302Y419D02*
X309Y419D01*
X1330Y419D02*
X1337Y419D01*
X0Y418D02*
X7Y418D01*
X112Y418D02*
X125Y418D01*
X270Y418D02*
X283Y418D01*
X302Y418D02*
X309Y418D01*
X1330Y418D02*
X1337Y418D01*
X0Y417D02*
X7Y417D01*
X112Y417D02*
X125Y417D01*
X270Y417D02*
X283Y417D01*
X302Y417D02*
X309Y417D01*
X1330Y417D02*
X1337Y417D01*
X0Y416D02*
X7Y416D01*
X112Y416D02*
X125Y416D01*
X270Y416D02*
X283Y416D01*
X302Y416D02*
X309Y416D01*
X1330Y416D02*
X1337Y416D01*
X0Y415D02*
X7Y415D01*
X112Y415D02*
X125Y415D01*
X270Y415D02*
X283Y415D01*
X302Y415D02*
X309Y415D01*
X1330Y415D02*
X1337Y415D01*
X0Y414D02*
X7Y414D01*
X112Y414D02*
X125Y414D01*
X270Y414D02*
X283Y414D01*
X302Y414D02*
X309Y414D01*
X1330Y414D02*
X1337Y414D01*
X0Y413D02*
X7Y413D01*
X112Y413D02*
X125Y413D01*
X270Y413D02*
X283Y413D01*
X302Y413D02*
X309Y413D01*
X1330Y413D02*
X1337Y413D01*
X0Y412D02*
X7Y412D01*
X112Y412D02*
X125Y412D01*
X270Y412D02*
X283Y412D01*
X302Y412D02*
X309Y412D01*
X1330Y412D02*
X1337Y412D01*
X0Y411D02*
X7Y411D01*
X112Y411D02*
X125Y411D01*
X270Y411D02*
X283Y411D01*
X302Y411D02*
X309Y411D01*
X1330Y411D02*
X1337Y411D01*
X0Y410D02*
X7Y410D01*
X112Y410D02*
X125Y410D01*
X270Y410D02*
X283Y410D01*
X302Y410D02*
X309Y410D01*
X1330Y410D02*
X1337Y410D01*
X0Y409D02*
X7Y409D01*
X112Y409D02*
X125Y409D01*
X270Y409D02*
X283Y409D01*
X302Y409D02*
X309Y409D01*
X1330Y409D02*
X1337Y409D01*
X0Y408D02*
X7Y408D01*
X112Y408D02*
X125Y408D01*
X270Y408D02*
X283Y408D01*
X302Y408D02*
X309Y408D01*
X1330Y408D02*
X1337Y408D01*
X0Y407D02*
X7Y407D01*
X112Y407D02*
X125Y407D01*
X270Y407D02*
X283Y407D01*
X302Y407D02*
X309Y407D01*
X1330Y407D02*
X1337Y407D01*
X0Y406D02*
X7Y406D01*
X112Y406D02*
X125Y406D01*
X270Y406D02*
X283Y406D01*
X302Y406D02*
X309Y406D01*
X1330Y406D02*
X1337Y406D01*
X0Y405D02*
X7Y405D01*
X112Y405D02*
X125Y405D01*
X270Y405D02*
X283Y405D01*
X302Y405D02*
X309Y405D01*
X1330Y405D02*
X1337Y405D01*
X0Y404D02*
X7Y404D01*
X112Y404D02*
X125Y404D01*
X270Y404D02*
X283Y404D01*
X302Y404D02*
X309Y404D01*
X1330Y404D02*
X1337Y404D01*
X0Y403D02*
X7Y403D01*
X112Y403D02*
X125Y403D01*
X270Y403D02*
X283Y403D01*
X302Y403D02*
X309Y403D01*
X1330Y403D02*
X1337Y403D01*
X0Y402D02*
X7Y402D01*
X112Y402D02*
X125Y402D01*
X270Y402D02*
X283Y402D01*
X302Y402D02*
X309Y402D01*
X1330Y402D02*
X1337Y402D01*
X0Y401D02*
X7Y401D01*
X112Y401D02*
X125Y401D01*
X270Y401D02*
X283Y401D01*
X302Y401D02*
X309Y401D01*
X1330Y401D02*
X1337Y401D01*
X0Y400D02*
X7Y400D01*
X112Y400D02*
X125Y400D01*
X270Y400D02*
X283Y400D01*
X302Y400D02*
X309Y400D01*
X1330Y400D02*
X1337Y400D01*
X0Y399D02*
X7Y399D01*
X112Y399D02*
X125Y399D01*
X270Y399D02*
X283Y399D01*
X302Y399D02*
X309Y399D01*
X1330Y399D02*
X1337Y399D01*
X0Y398D02*
X7Y398D01*
X112Y398D02*
X125Y398D01*
X270Y398D02*
X283Y398D01*
X302Y398D02*
X309Y398D01*
X1330Y398D02*
X1337Y398D01*
X0Y397D02*
X7Y397D01*
X112Y397D02*
X125Y397D01*
X270Y397D02*
X283Y397D01*
X302Y397D02*
X309Y397D01*
X1330Y397D02*
X1337Y397D01*
X0Y396D02*
X7Y396D01*
X112Y396D02*
X125Y396D01*
X270Y396D02*
X283Y396D01*
X302Y396D02*
X309Y396D01*
X1330Y396D02*
X1337Y396D01*
X0Y395D02*
X7Y395D01*
X112Y395D02*
X125Y395D01*
X270Y395D02*
X283Y395D01*
X302Y395D02*
X309Y395D01*
X1330Y395D02*
X1337Y395D01*
X0Y394D02*
X7Y394D01*
X112Y394D02*
X125Y394D01*
X270Y394D02*
X283Y394D01*
X302Y394D02*
X309Y394D01*
X1330Y394D02*
X1337Y394D01*
X0Y393D02*
X7Y393D01*
X112Y393D02*
X125Y393D01*
X270Y393D02*
X283Y393D01*
X302Y393D02*
X309Y393D01*
X1330Y393D02*
X1337Y393D01*
X0Y392D02*
X7Y392D01*
X112Y392D02*
X125Y392D01*
X270Y392D02*
X283Y392D01*
X302Y392D02*
X309Y392D01*
X1330Y392D02*
X1337Y392D01*
X0Y391D02*
X7Y391D01*
X112Y391D02*
X125Y391D01*
X270Y391D02*
X283Y391D01*
X302Y391D02*
X309Y391D01*
X1330Y391D02*
X1337Y391D01*
X0Y390D02*
X7Y390D01*
X112Y390D02*
X125Y390D01*
X270Y390D02*
X283Y390D01*
X302Y390D02*
X309Y390D01*
X1330Y390D02*
X1337Y390D01*
X0Y389D02*
X7Y389D01*
X112Y389D02*
X125Y389D01*
X270Y389D02*
X283Y389D01*
X302Y389D02*
X309Y389D01*
X1330Y389D02*
X1337Y389D01*
X0Y388D02*
X7Y388D01*
X112Y388D02*
X125Y388D01*
X270Y388D02*
X283Y388D01*
X302Y388D02*
X309Y388D01*
X1330Y388D02*
X1337Y388D01*
X0Y387D02*
X7Y387D01*
X112Y387D02*
X125Y387D01*
X270Y387D02*
X283Y387D01*
X302Y387D02*
X309Y387D01*
X1330Y387D02*
X1337Y387D01*
X0Y386D02*
X7Y386D01*
X112Y386D02*
X125Y386D01*
X270Y386D02*
X283Y386D01*
X302Y386D02*
X309Y386D01*
X1137Y386D02*
X1157Y386D01*
X1330Y386D02*
X1337Y386D01*
X0Y385D02*
X7Y385D01*
X112Y385D02*
X125Y385D01*
X270Y385D02*
X283Y385D01*
X302Y385D02*
X309Y385D01*
X1130Y385D02*
X1164Y385D01*
X1330Y385D02*
X1337Y385D01*
X0Y384D02*
X7Y384D01*
X112Y384D02*
X125Y384D01*
X270Y384D02*
X283Y384D01*
X302Y384D02*
X309Y384D01*
X1125Y384D02*
X1169Y384D01*
X1330Y384D02*
X1337Y384D01*
X0Y383D02*
X7Y383D01*
X112Y383D02*
X125Y383D01*
X270Y383D02*
X283Y383D01*
X302Y383D02*
X309Y383D01*
X1121Y383D02*
X1173Y383D01*
X1330Y383D02*
X1337Y383D01*
X0Y382D02*
X7Y382D01*
X112Y382D02*
X125Y382D01*
X270Y382D02*
X283Y382D01*
X302Y382D02*
X309Y382D01*
X1117Y382D02*
X1177Y382D01*
X1330Y382D02*
X1337Y382D01*
X0Y381D02*
X7Y381D01*
X112Y381D02*
X125Y381D01*
X270Y381D02*
X283Y381D01*
X302Y381D02*
X309Y381D01*
X1114Y381D02*
X1180Y381D01*
X1330Y381D02*
X1337Y381D01*
X0Y380D02*
X7Y380D01*
X112Y380D02*
X125Y380D01*
X270Y380D02*
X283Y380D01*
X302Y380D02*
X309Y380D01*
X1111Y380D02*
X1183Y380D01*
X1330Y380D02*
X1337Y380D01*
X0Y379D02*
X7Y379D01*
X112Y379D02*
X125Y379D01*
X270Y379D02*
X283Y379D01*
X302Y379D02*
X309Y379D01*
X1109Y379D02*
X1185Y379D01*
X1330Y379D02*
X1337Y379D01*
X0Y378D02*
X7Y378D01*
X112Y378D02*
X125Y378D01*
X270Y378D02*
X283Y378D01*
X302Y378D02*
X309Y378D01*
X1107Y378D02*
X1188Y378D01*
X1330Y378D02*
X1337Y378D01*
X0Y377D02*
X7Y377D01*
X112Y377D02*
X125Y377D01*
X270Y377D02*
X283Y377D01*
X302Y377D02*
X309Y377D01*
X1104Y377D02*
X1190Y377D01*
X1330Y377D02*
X1337Y377D01*
X0Y376D02*
X7Y376D01*
X112Y376D02*
X125Y376D01*
X270Y376D02*
X283Y376D01*
X302Y376D02*
X309Y376D01*
X1102Y376D02*
X1136Y376D01*
X1158Y376D02*
X1192Y376D01*
X1330Y376D02*
X1337Y376D01*
X0Y375D02*
X7Y375D01*
X112Y375D02*
X125Y375D01*
X270Y375D02*
X283Y375D01*
X302Y375D02*
X309Y375D01*
X1100Y375D02*
X1129Y375D01*
X1165Y375D02*
X1194Y375D01*
X1330Y375D02*
X1337Y375D01*
X0Y374D02*
X7Y374D01*
X112Y374D02*
X125Y374D01*
X270Y374D02*
X283Y374D01*
X302Y374D02*
X309Y374D01*
X1098Y374D02*
X1124Y374D01*
X1170Y374D02*
X1196Y374D01*
X1330Y374D02*
X1337Y374D01*
X0Y373D02*
X7Y373D01*
X112Y373D02*
X125Y373D01*
X270Y373D02*
X283Y373D01*
X302Y373D02*
X309Y373D01*
X1097Y373D02*
X1120Y373D01*
X1174Y373D02*
X1197Y373D01*
X1330Y373D02*
X1337Y373D01*
X0Y372D02*
X7Y372D01*
X112Y372D02*
X125Y372D01*
X270Y372D02*
X283Y372D01*
X302Y372D02*
X309Y372D01*
X1095Y372D02*
X1117Y372D01*
X1177Y372D02*
X1199Y372D01*
X1330Y372D02*
X1337Y372D01*
X0Y371D02*
X7Y371D01*
X112Y371D02*
X125Y371D01*
X270Y371D02*
X283Y371D01*
X302Y371D02*
X309Y371D01*
X1093Y371D02*
X1114Y371D01*
X1180Y371D02*
X1201Y371D01*
X1330Y371D02*
X1337Y371D01*
X0Y370D02*
X7Y370D01*
X112Y370D02*
X125Y370D01*
X270Y370D02*
X283Y370D01*
X302Y370D02*
X309Y370D01*
X1092Y370D02*
X1111Y370D01*
X1183Y370D02*
X1202Y370D01*
X1330Y370D02*
X1337Y370D01*
X0Y369D02*
X7Y369D01*
X112Y369D02*
X125Y369D01*
X270Y369D02*
X283Y369D01*
X302Y369D02*
X309Y369D01*
X1090Y369D02*
X1109Y369D01*
X1185Y369D02*
X1204Y369D01*
X1330Y369D02*
X1337Y369D01*
X0Y368D02*
X7Y368D01*
X112Y368D02*
X125Y368D01*
X270Y368D02*
X283Y368D01*
X302Y368D02*
X309Y368D01*
X1089Y368D02*
X1107Y368D01*
X1187Y368D02*
X1206Y368D01*
X1330Y368D02*
X1337Y368D01*
X0Y367D02*
X7Y367D01*
X112Y367D02*
X125Y367D01*
X270Y367D02*
X283Y367D01*
X302Y367D02*
X309Y367D01*
X1087Y367D02*
X1105Y367D01*
X1189Y367D02*
X1207Y367D01*
X1330Y367D02*
X1337Y367D01*
X0Y366D02*
X7Y366D01*
X112Y366D02*
X125Y366D01*
X270Y366D02*
X283Y366D01*
X302Y366D02*
X309Y366D01*
X1086Y366D02*
X1103Y366D01*
X1191Y366D02*
X1208Y366D01*
X1330Y366D02*
X1337Y366D01*
X0Y365D02*
X7Y365D01*
X112Y365D02*
X125Y365D01*
X270Y365D02*
X283Y365D01*
X302Y365D02*
X309Y365D01*
X1085Y365D02*
X1101Y365D01*
X1193Y365D02*
X1210Y365D01*
X1330Y365D02*
X1337Y365D01*
X0Y364D02*
X7Y364D01*
X112Y364D02*
X125Y364D01*
X270Y364D02*
X283Y364D01*
X302Y364D02*
X309Y364D01*
X1083Y364D02*
X1099Y364D01*
X1195Y364D02*
X1211Y364D01*
X1330Y364D02*
X1337Y364D01*
X0Y363D02*
X7Y363D01*
X112Y363D02*
X125Y363D01*
X270Y363D02*
X283Y363D01*
X302Y363D02*
X309Y363D01*
X1082Y363D02*
X1097Y363D01*
X1197Y363D02*
X1212Y363D01*
X1330Y363D02*
X1337Y363D01*
X0Y362D02*
X7Y362D01*
X112Y362D02*
X125Y362D01*
X270Y362D02*
X283Y362D01*
X302Y362D02*
X309Y362D01*
X1081Y362D02*
X1096Y362D01*
X1198Y362D02*
X1213Y362D01*
X1330Y362D02*
X1337Y362D01*
X0Y361D02*
X7Y361D01*
X112Y361D02*
X125Y361D01*
X270Y361D02*
X283Y361D01*
X302Y361D02*
X309Y361D01*
X1080Y361D02*
X1094Y361D01*
X1200Y361D02*
X1215Y361D01*
X1330Y361D02*
X1337Y361D01*
X0Y360D02*
X7Y360D01*
X112Y360D02*
X125Y360D01*
X270Y360D02*
X283Y360D01*
X302Y360D02*
X309Y360D01*
X948Y360D02*
X972Y360D01*
X1000Y360D02*
X1017Y360D01*
X1078Y360D02*
X1092Y360D01*
X1202Y360D02*
X1216Y360D01*
X1330Y360D02*
X1337Y360D01*
X0Y359D02*
X7Y359D01*
X112Y359D02*
X125Y359D01*
X270Y359D02*
X283Y359D01*
X302Y359D02*
X309Y359D01*
X948Y359D02*
X975Y359D01*
X999Y359D02*
X1017Y359D01*
X1077Y359D02*
X1091Y359D01*
X1203Y359D02*
X1217Y359D01*
X1330Y359D02*
X1337Y359D01*
X0Y358D02*
X7Y358D01*
X112Y358D02*
X125Y358D01*
X270Y358D02*
X283Y358D01*
X302Y358D02*
X309Y358D01*
X948Y358D02*
X977Y358D01*
X998Y358D02*
X1017Y358D01*
X1076Y358D02*
X1090Y358D01*
X1204Y358D02*
X1218Y358D01*
X1330Y358D02*
X1337Y358D01*
X0Y357D02*
X7Y357D01*
X112Y357D02*
X125Y357D01*
X270Y357D02*
X283Y357D01*
X302Y357D02*
X309Y357D01*
X948Y357D02*
X978Y357D01*
X998Y357D02*
X1017Y357D01*
X1075Y357D02*
X1088Y357D01*
X1206Y357D02*
X1219Y357D01*
X1330Y357D02*
X1337Y357D01*
X0Y356D02*
X7Y356D01*
X112Y356D02*
X125Y356D01*
X270Y356D02*
X283Y356D01*
X302Y356D02*
X309Y356D01*
X948Y356D02*
X979Y356D01*
X998Y356D02*
X1017Y356D01*
X1074Y356D02*
X1087Y356D01*
X1207Y356D02*
X1220Y356D01*
X1330Y356D02*
X1337Y356D01*
X0Y355D02*
X7Y355D01*
X112Y355D02*
X125Y355D01*
X270Y355D02*
X283Y355D01*
X302Y355D02*
X309Y355D01*
X948Y355D02*
X980Y355D01*
X998Y355D02*
X1017Y355D01*
X1073Y355D02*
X1086Y355D01*
X1208Y355D02*
X1221Y355D01*
X1330Y355D02*
X1337Y355D01*
X0Y354D02*
X7Y354D01*
X112Y354D02*
X125Y354D01*
X270Y354D02*
X283Y354D01*
X302Y354D02*
X309Y354D01*
X948Y354D02*
X980Y354D01*
X999Y354D02*
X1017Y354D01*
X1072Y354D02*
X1085Y354D01*
X1209Y354D02*
X1222Y354D01*
X1330Y354D02*
X1337Y354D01*
X0Y353D02*
X7Y353D01*
X112Y353D02*
X125Y353D01*
X270Y353D02*
X283Y353D01*
X302Y353D02*
X309Y353D01*
X948Y353D02*
X954Y353D01*
X972Y353D02*
X981Y353D01*
X1011Y353D02*
X1017Y353D01*
X1071Y353D02*
X1084Y353D01*
X1211Y353D02*
X1223Y353D01*
X1330Y353D02*
X1337Y353D01*
X0Y352D02*
X7Y352D01*
X112Y352D02*
X125Y352D01*
X270Y352D02*
X283Y352D01*
X302Y352D02*
X309Y352D01*
X948Y352D02*
X954Y352D01*
X974Y352D02*
X981Y352D01*
X1011Y352D02*
X1017Y352D01*
X1070Y352D02*
X1082Y352D01*
X1212Y352D02*
X1224Y352D01*
X1330Y352D02*
X1337Y352D01*
X0Y351D02*
X7Y351D01*
X112Y351D02*
X125Y351D01*
X270Y351D02*
X283Y351D01*
X302Y351D02*
X309Y351D01*
X948Y351D02*
X954Y351D01*
X975Y351D02*
X981Y351D01*
X1011Y351D02*
X1017Y351D01*
X1069Y351D02*
X1081Y351D01*
X1213Y351D02*
X1225Y351D01*
X1330Y351D02*
X1337Y351D01*
X0Y350D02*
X7Y350D01*
X112Y350D02*
X125Y350D01*
X270Y350D02*
X283Y350D01*
X302Y350D02*
X309Y350D01*
X948Y350D02*
X954Y350D01*
X975Y350D02*
X981Y350D01*
X1011Y350D02*
X1017Y350D01*
X1069Y350D02*
X1080Y350D01*
X1214Y350D02*
X1226Y350D01*
X1330Y350D02*
X1337Y350D01*
X0Y349D02*
X7Y349D01*
X112Y349D02*
X125Y349D01*
X270Y349D02*
X283Y349D01*
X302Y349D02*
X309Y349D01*
X948Y349D02*
X954Y349D01*
X975Y349D02*
X981Y349D01*
X1011Y349D02*
X1017Y349D01*
X1068Y349D02*
X1079Y349D01*
X1215Y349D02*
X1226Y349D01*
X1330Y349D02*
X1337Y349D01*
X0Y348D02*
X7Y348D01*
X110Y348D02*
X125Y348D01*
X270Y348D02*
X283Y348D01*
X302Y348D02*
X309Y348D01*
X948Y348D02*
X954Y348D01*
X975Y348D02*
X981Y348D01*
X1011Y348D02*
X1017Y348D01*
X1067Y348D02*
X1078Y348D01*
X1216Y348D02*
X1227Y348D01*
X1330Y348D02*
X1337Y348D01*
X0Y347D02*
X7Y347D01*
X107Y347D02*
X125Y347D01*
X270Y347D02*
X283Y347D01*
X302Y347D02*
X309Y347D01*
X948Y347D02*
X954Y347D01*
X975Y347D02*
X981Y347D01*
X1011Y347D02*
X1017Y347D01*
X1066Y347D02*
X1077Y347D01*
X1217Y347D02*
X1228Y347D01*
X1330Y347D02*
X1337Y347D01*
X0Y346D02*
X7Y346D01*
X105Y346D02*
X125Y346D01*
X270Y346D02*
X283Y346D01*
X302Y346D02*
X309Y346D01*
X948Y346D02*
X954Y346D01*
X975Y346D02*
X981Y346D01*
X1011Y346D02*
X1017Y346D01*
X1065Y346D02*
X1076Y346D01*
X1218Y346D02*
X1229Y346D01*
X1330Y346D02*
X1337Y346D01*
X0Y345D02*
X7Y345D01*
X103Y345D02*
X125Y345D01*
X270Y345D02*
X283Y345D01*
X302Y345D02*
X309Y345D01*
X948Y345D02*
X954Y345D01*
X975Y345D02*
X981Y345D01*
X1011Y345D02*
X1017Y345D01*
X1064Y345D02*
X1075Y345D01*
X1219Y345D02*
X1230Y345D01*
X1330Y345D02*
X1337Y345D01*
X0Y344D02*
X7Y344D01*
X101Y344D02*
X125Y344D01*
X270Y344D02*
X283Y344D01*
X302Y344D02*
X309Y344D01*
X948Y344D02*
X954Y344D01*
X974Y344D02*
X981Y344D01*
X1011Y344D02*
X1017Y344D01*
X1064Y344D02*
X1075Y344D01*
X1219Y344D02*
X1230Y344D01*
X1330Y344D02*
X1337Y344D01*
X0Y343D02*
X7Y343D01*
X99Y343D02*
X125Y343D01*
X270Y343D02*
X283Y343D01*
X302Y343D02*
X309Y343D01*
X948Y343D02*
X954Y343D01*
X973Y343D02*
X981Y343D01*
X1011Y343D02*
X1017Y343D01*
X1063Y343D02*
X1074Y343D01*
X1220Y343D02*
X1231Y343D01*
X1330Y343D02*
X1337Y343D01*
X0Y342D02*
X7Y342D01*
X97Y342D02*
X125Y342D01*
X270Y342D02*
X283Y342D01*
X302Y342D02*
X309Y342D01*
X948Y342D02*
X980Y342D01*
X1011Y342D02*
X1017Y342D01*
X1062Y342D02*
X1073Y342D01*
X1182Y342D02*
X1212Y342D01*
X1221Y342D02*
X1232Y342D01*
X1330Y342D02*
X1337Y342D01*
X0Y341D02*
X7Y341D01*
X95Y341D02*
X125Y341D01*
X270Y341D02*
X283Y341D01*
X302Y341D02*
X309Y341D01*
X948Y341D02*
X980Y341D01*
X1011Y341D02*
X1017Y341D01*
X1061Y341D02*
X1072Y341D01*
X1179Y341D02*
X1215Y341D01*
X1222Y341D02*
X1233Y341D01*
X1330Y341D02*
X1337Y341D01*
X0Y340D02*
X7Y340D01*
X93Y340D02*
X125Y340D01*
X270Y340D02*
X283Y340D01*
X302Y340D02*
X309Y340D01*
X948Y340D02*
X979Y340D01*
X1011Y340D02*
X1017Y340D01*
X1061Y340D02*
X1071Y340D01*
X1178Y340D02*
X1216Y340D01*
X1223Y340D02*
X1233Y340D01*
X1330Y340D02*
X1337Y340D01*
X0Y339D02*
X7Y339D01*
X92Y339D02*
X125Y339D01*
X270Y339D02*
X283Y339D01*
X302Y339D02*
X309Y339D01*
X948Y339D02*
X978Y339D01*
X1011Y339D02*
X1017Y339D01*
X1060Y339D02*
X1071Y339D01*
X1178Y339D02*
X1216Y339D01*
X1223Y339D02*
X1234Y339D01*
X1330Y339D02*
X1337Y339D01*
X0Y338D02*
X7Y338D01*
X90Y338D02*
X122Y338D01*
X270Y338D02*
X283Y338D01*
X302Y338D02*
X309Y338D01*
X948Y338D02*
X977Y338D01*
X1011Y338D02*
X1017Y338D01*
X1059Y338D02*
X1070Y338D01*
X1177Y338D02*
X1217Y338D01*
X1224Y338D02*
X1235Y338D01*
X1330Y338D02*
X1337Y338D01*
X0Y337D02*
X7Y337D01*
X88Y337D02*
X119Y337D01*
X270Y337D02*
X283Y337D01*
X302Y337D02*
X309Y337D01*
X948Y337D02*
X976Y337D01*
X1011Y337D02*
X1017Y337D01*
X1059Y337D02*
X1069Y337D01*
X1177Y337D02*
X1217Y337D01*
X1225Y337D02*
X1235Y337D01*
X1330Y337D02*
X1337Y337D01*
X0Y336D02*
X7Y336D01*
X87Y336D02*
X116Y336D01*
X270Y336D02*
X283Y336D01*
X302Y336D02*
X309Y336D01*
X948Y336D02*
X974Y336D01*
X1011Y336D02*
X1017Y336D01*
X1058Y336D02*
X1068Y336D01*
X1177Y336D02*
X1217Y336D01*
X1226Y336D02*
X1236Y336D01*
X1330Y336D02*
X1337Y336D01*
X0Y335D02*
X7Y335D01*
X85Y335D02*
X113Y335D01*
X270Y335D02*
X283Y335D01*
X302Y335D02*
X309Y335D01*
X948Y335D02*
X954Y335D01*
X960Y335D02*
X967Y335D01*
X1011Y335D02*
X1017Y335D01*
X1058Y335D02*
X1068Y335D01*
X1177Y335D02*
X1217Y335D01*
X1226Y335D02*
X1236Y335D01*
X1330Y335D02*
X1337Y335D01*
X0Y334D02*
X7Y334D01*
X84Y334D02*
X111Y334D01*
X270Y334D02*
X283Y334D01*
X302Y334D02*
X309Y334D01*
X948Y334D02*
X954Y334D01*
X960Y334D02*
X968Y334D01*
X1011Y334D02*
X1017Y334D01*
X1057Y334D02*
X1067Y334D01*
X1178Y334D02*
X1216Y334D01*
X1227Y334D02*
X1237Y334D01*
X1330Y334D02*
X1337Y334D01*
X0Y333D02*
X7Y333D01*
X83Y333D02*
X108Y333D01*
X270Y333D02*
X283Y333D01*
X302Y333D02*
X309Y333D01*
X948Y333D02*
X954Y333D01*
X961Y333D02*
X968Y333D01*
X1011Y333D02*
X1017Y333D01*
X1056Y333D02*
X1066Y333D01*
X1178Y333D02*
X1216Y333D01*
X1228Y333D02*
X1238Y333D01*
X1330Y333D02*
X1337Y333D01*
X0Y332D02*
X7Y332D01*
X81Y332D02*
X106Y332D01*
X270Y332D02*
X283Y332D01*
X302Y332D02*
X309Y332D01*
X948Y332D02*
X954Y332D01*
X961Y332D02*
X969Y332D01*
X1011Y332D02*
X1017Y332D01*
X1056Y332D02*
X1066Y332D01*
X1180Y332D02*
X1214Y332D01*
X1228Y332D02*
X1238Y332D01*
X1330Y332D02*
X1337Y332D01*
X0Y331D02*
X7Y331D01*
X80Y331D02*
X104Y331D01*
X270Y331D02*
X283Y331D01*
X302Y331D02*
X309Y331D01*
X948Y331D02*
X954Y331D01*
X962Y331D02*
X969Y331D01*
X1011Y331D02*
X1017Y331D01*
X1055Y331D02*
X1065Y331D01*
X1229Y331D02*
X1239Y331D01*
X1330Y331D02*
X1337Y331D01*
X0Y330D02*
X7Y330D01*
X79Y330D02*
X102Y330D01*
X270Y330D02*
X283Y330D01*
X302Y330D02*
X309Y330D01*
X948Y330D02*
X954Y330D01*
X963Y330D02*
X970Y330D01*
X1011Y330D02*
X1017Y330D01*
X1027Y330D02*
X1030Y330D01*
X1055Y330D02*
X1065Y330D01*
X1229Y330D02*
X1239Y330D01*
X1330Y330D02*
X1337Y330D01*
X0Y329D02*
X7Y329D01*
X78Y329D02*
X101Y329D01*
X270Y329D02*
X283Y329D01*
X302Y329D02*
X309Y329D01*
X948Y329D02*
X954Y329D01*
X963Y329D02*
X970Y329D01*
X1011Y329D02*
X1017Y329D01*
X1026Y329D02*
X1031Y329D01*
X1054Y329D02*
X1064Y329D01*
X1230Y329D02*
X1240Y329D01*
X1330Y329D02*
X1337Y329D01*
X0Y328D02*
X7Y328D01*
X76Y328D02*
X99Y328D01*
X270Y328D02*
X283Y328D01*
X302Y328D02*
X309Y328D01*
X948Y328D02*
X954Y328D01*
X964Y328D02*
X971Y328D01*
X1011Y328D02*
X1017Y328D01*
X1025Y328D02*
X1031Y328D01*
X1054Y328D02*
X1063Y328D01*
X1231Y328D02*
X1240Y328D01*
X1330Y328D02*
X1337Y328D01*
X0Y327D02*
X7Y327D01*
X75Y327D02*
X97Y327D01*
X270Y327D02*
X283Y327D01*
X302Y327D02*
X309Y327D01*
X948Y327D02*
X954Y327D01*
X964Y327D02*
X972Y327D01*
X1011Y327D02*
X1017Y327D01*
X1025Y327D02*
X1031Y327D01*
X1053Y327D02*
X1063Y327D01*
X1231Y327D02*
X1241Y327D01*
X1330Y327D02*
X1337Y327D01*
X0Y326D02*
X7Y326D01*
X74Y326D02*
X96Y326D01*
X270Y326D02*
X283Y326D01*
X302Y326D02*
X309Y326D01*
X948Y326D02*
X954Y326D01*
X965Y326D02*
X972Y326D01*
X1011Y326D02*
X1017Y326D01*
X1025Y326D02*
X1031Y326D01*
X1053Y326D02*
X1062Y326D01*
X1232Y326D02*
X1241Y326D01*
X1330Y326D02*
X1337Y326D01*
X0Y325D02*
X7Y325D01*
X73Y325D02*
X94Y325D01*
X270Y325D02*
X283Y325D01*
X302Y325D02*
X309Y325D01*
X948Y325D02*
X954Y325D01*
X966Y325D02*
X973Y325D01*
X1011Y325D02*
X1017Y325D01*
X1025Y325D02*
X1031Y325D01*
X1052Y325D02*
X1062Y325D01*
X1232Y325D02*
X1242Y325D01*
X1330Y325D02*
X1337Y325D01*
X0Y324D02*
X7Y324D01*
X72Y324D02*
X93Y324D01*
X270Y324D02*
X283Y324D01*
X302Y324D02*
X309Y324D01*
X948Y324D02*
X954Y324D01*
X966Y324D02*
X973Y324D01*
X1011Y324D02*
X1017Y324D01*
X1025Y324D02*
X1031Y324D01*
X1052Y324D02*
X1061Y324D01*
X1240Y324D02*
X1242Y324D01*
X1330Y324D02*
X1337Y324D01*
X0Y323D02*
X7Y323D01*
X71Y323D02*
X91Y323D01*
X270Y323D02*
X283Y323D01*
X302Y323D02*
X309Y323D01*
X948Y323D02*
X954Y323D01*
X967Y323D02*
X974Y323D01*
X1011Y323D02*
X1017Y323D01*
X1025Y323D02*
X1031Y323D01*
X1051Y323D02*
X1061Y323D01*
X1240Y323D02*
X1243Y323D01*
X1330Y323D02*
X1337Y323D01*
X0Y322D02*
X7Y322D01*
X70Y322D02*
X90Y322D01*
X270Y322D02*
X283Y322D01*
X302Y322D02*
X309Y322D01*
X948Y322D02*
X954Y322D01*
X967Y322D02*
X975Y322D01*
X1011Y322D02*
X1017Y322D01*
X1025Y322D02*
X1031Y322D01*
X1051Y322D02*
X1060Y322D01*
X1240Y322D02*
X1243Y322D01*
X1330Y322D02*
X1337Y322D01*
X0Y321D02*
X7Y321D01*
X69Y321D02*
X89Y321D01*
X270Y321D02*
X283Y321D01*
X302Y321D02*
X309Y321D01*
X948Y321D02*
X954Y321D01*
X968Y321D02*
X975Y321D01*
X1011Y321D02*
X1017Y321D01*
X1025Y321D02*
X1031Y321D01*
X1050Y321D02*
X1060Y321D01*
X1240Y321D02*
X1244Y321D01*
X1330Y321D02*
X1337Y321D01*
X0Y320D02*
X7Y320D01*
X68Y320D02*
X87Y320D01*
X270Y320D02*
X283Y320D01*
X302Y320D02*
X309Y320D01*
X948Y320D02*
X954Y320D01*
X968Y320D02*
X976Y320D01*
X1011Y320D02*
X1017Y320D01*
X1025Y320D02*
X1031Y320D01*
X1050Y320D02*
X1059Y320D01*
X1240Y320D02*
X1244Y320D01*
X1330Y320D02*
X1337Y320D01*
X0Y319D02*
X7Y319D01*
X67Y319D02*
X86Y319D01*
X270Y319D02*
X283Y319D01*
X302Y319D02*
X309Y319D01*
X948Y319D02*
X954Y319D01*
X969Y319D02*
X976Y319D01*
X1011Y319D02*
X1017Y319D01*
X1025Y319D02*
X1031Y319D01*
X1050Y319D02*
X1059Y319D01*
X1240Y319D02*
X1244Y319D01*
X1330Y319D02*
X1337Y319D01*
X0Y318D02*
X7Y318D01*
X66Y318D02*
X85Y318D01*
X270Y318D02*
X283Y318D01*
X302Y318D02*
X309Y318D01*
X948Y318D02*
X954Y318D01*
X970Y318D02*
X977Y318D01*
X1011Y318D02*
X1017Y318D01*
X1025Y318D02*
X1031Y318D01*
X1049Y318D02*
X1059Y318D01*
X1240Y318D02*
X1245Y318D01*
X1330Y318D02*
X1337Y318D01*
X0Y317D02*
X7Y317D01*
X65Y317D02*
X84Y317D01*
X270Y317D02*
X283Y317D01*
X302Y317D02*
X309Y317D01*
X948Y317D02*
X954Y317D01*
X970Y317D02*
X977Y317D01*
X1011Y317D02*
X1017Y317D01*
X1025Y317D02*
X1031Y317D01*
X1049Y317D02*
X1058Y317D01*
X1240Y317D02*
X1245Y317D01*
X1330Y317D02*
X1337Y317D01*
X0Y316D02*
X7Y316D01*
X64Y316D02*
X83Y316D01*
X270Y316D02*
X283Y316D01*
X302Y316D02*
X309Y316D01*
X948Y316D02*
X954Y316D01*
X971Y316D02*
X978Y316D01*
X1011Y316D02*
X1017Y316D01*
X1025Y316D02*
X1031Y316D01*
X1049Y316D02*
X1058Y316D01*
X1240Y316D02*
X1246Y316D01*
X1330Y316D02*
X1337Y316D01*
X0Y315D02*
X7Y315D01*
X63Y315D02*
X82Y315D01*
X270Y315D02*
X283Y315D01*
X302Y315D02*
X309Y315D01*
X948Y315D02*
X954Y315D01*
X971Y315D02*
X979Y315D01*
X1011Y315D02*
X1017Y315D01*
X1025Y315D02*
X1031Y315D01*
X1048Y315D02*
X1058Y315D01*
X1240Y315D02*
X1246Y315D01*
X1330Y315D02*
X1337Y315D01*
X0Y314D02*
X7Y314D01*
X62Y314D02*
X80Y314D01*
X270Y314D02*
X283Y314D01*
X302Y314D02*
X309Y314D01*
X948Y314D02*
X954Y314D01*
X972Y314D02*
X979Y314D01*
X1011Y314D02*
X1017Y314D01*
X1025Y314D02*
X1031Y314D01*
X1048Y314D02*
X1057Y314D01*
X1240Y314D02*
X1246Y314D01*
X1330Y314D02*
X1337Y314D01*
X0Y313D02*
X7Y313D01*
X62Y313D02*
X79Y313D01*
X270Y313D02*
X283Y313D01*
X302Y313D02*
X309Y313D01*
X948Y313D02*
X954Y313D01*
X973Y313D02*
X980Y313D01*
X1001Y313D02*
X1031Y313D01*
X1047Y313D02*
X1057Y313D01*
X1240Y313D02*
X1247Y313D01*
X1330Y313D02*
X1337Y313D01*
X0Y312D02*
X7Y312D01*
X61Y312D02*
X78Y312D01*
X270Y312D02*
X283Y312D01*
X302Y312D02*
X309Y312D01*
X948Y312D02*
X954Y312D01*
X973Y312D02*
X980Y312D01*
X999Y312D02*
X1031Y312D01*
X1047Y312D02*
X1056Y312D01*
X1240Y312D02*
X1247Y312D01*
X1330Y312D02*
X1337Y312D01*
X0Y311D02*
X7Y311D01*
X60Y311D02*
X77Y311D01*
X270Y311D02*
X283Y311D01*
X302Y311D02*
X309Y311D01*
X948Y311D02*
X954Y311D01*
X974Y311D02*
X981Y311D01*
X998Y311D02*
X1031Y311D01*
X1047Y311D02*
X1056Y311D01*
X1240Y311D02*
X1247Y311D01*
X1330Y311D02*
X1337Y311D01*
X0Y310D02*
X7Y310D01*
X59Y310D02*
X76Y310D01*
X270Y310D02*
X283Y310D01*
X302Y310D02*
X309Y310D01*
X948Y310D02*
X954Y310D01*
X974Y310D02*
X981Y310D01*
X998Y310D02*
X1031Y310D01*
X1047Y310D02*
X1056Y310D01*
X1240Y310D02*
X1247Y310D01*
X1330Y310D02*
X1337Y310D01*
X0Y309D02*
X7Y309D01*
X58Y309D02*
X75Y309D01*
X270Y309D02*
X283Y309D01*
X302Y309D02*
X309Y309D01*
X948Y309D02*
X954Y309D01*
X975Y309D02*
X981Y309D01*
X998Y309D02*
X1031Y309D01*
X1046Y309D02*
X1055Y309D01*
X1240Y309D02*
X1248Y309D01*
X1330Y309D02*
X1337Y309D01*
X0Y308D02*
X7Y308D01*
X58Y308D02*
X75Y308D01*
X270Y308D02*
X283Y308D01*
X302Y308D02*
X309Y308D01*
X948Y308D02*
X953Y308D01*
X976Y308D02*
X981Y308D01*
X998Y308D02*
X1031Y308D01*
X1046Y308D02*
X1055Y308D01*
X1240Y308D02*
X1248Y308D01*
X1330Y308D02*
X1337Y308D01*
X0Y307D02*
X7Y307D01*
X57Y307D02*
X74Y307D01*
X270Y307D02*
X283Y307D01*
X302Y307D02*
X309Y307D01*
X949Y307D02*
X952Y307D01*
X976Y307D02*
X980Y307D01*
X999Y307D02*
X1030Y307D01*
X1046Y307D02*
X1055Y307D01*
X1240Y307D02*
X1248Y307D01*
X1302Y307D02*
X1324Y307D01*
X1330Y307D02*
X1337Y307D01*
X0Y306D02*
X7Y306D01*
X56Y306D02*
X73Y306D01*
X270Y306D02*
X283Y306D01*
X302Y306D02*
X309Y306D01*
X1046Y306D02*
X1055Y306D01*
X1240Y306D02*
X1249Y306D01*
X1301Y306D02*
X1324Y306D01*
X1330Y306D02*
X1337Y306D01*
X0Y305D02*
X7Y305D01*
X56Y305D02*
X72Y305D01*
X270Y305D02*
X283Y305D01*
X302Y305D02*
X309Y305D01*
X1045Y305D02*
X1054Y305D01*
X1240Y305D02*
X1249Y305D01*
X1301Y305D02*
X1325Y305D01*
X1330Y305D02*
X1337Y305D01*
X0Y304D02*
X7Y304D01*
X55Y304D02*
X71Y304D01*
X270Y304D02*
X283Y304D01*
X302Y304D02*
X309Y304D01*
X1045Y304D02*
X1054Y304D01*
X1240Y304D02*
X1249Y304D01*
X1301Y304D02*
X1325Y304D01*
X1330Y304D02*
X1337Y304D01*
X0Y303D02*
X7Y303D01*
X54Y303D02*
X70Y303D01*
X270Y303D02*
X283Y303D01*
X302Y303D02*
X309Y303D01*
X1045Y303D02*
X1054Y303D01*
X1240Y303D02*
X1249Y303D01*
X1301Y303D02*
X1325Y303D01*
X1330Y303D02*
X1337Y303D01*
X0Y302D02*
X7Y302D01*
X54Y302D02*
X69Y302D01*
X270Y302D02*
X283Y302D01*
X302Y302D02*
X309Y302D01*
X1045Y302D02*
X1054Y302D01*
X1240Y302D02*
X1249Y302D01*
X1302Y302D02*
X1325Y302D01*
X1330Y302D02*
X1337Y302D01*
X0Y301D02*
X7Y301D01*
X53Y301D02*
X69Y301D01*
X270Y301D02*
X283Y301D01*
X302Y301D02*
X309Y301D01*
X1044Y301D02*
X1053Y301D01*
X1241Y301D02*
X1250Y301D01*
X1304Y301D02*
X1325Y301D01*
X1330Y301D02*
X1337Y301D01*
X0Y300D02*
X7Y300D01*
X52Y300D02*
X68Y300D01*
X270Y300D02*
X283Y300D01*
X302Y300D02*
X309Y300D01*
X1044Y300D02*
X1053Y300D01*
X1241Y300D02*
X1250Y300D01*
X1319Y300D02*
X1325Y300D01*
X1330Y300D02*
X1337Y300D01*
X0Y299D02*
X7Y299D01*
X52Y299D02*
X67Y299D01*
X270Y299D02*
X283Y299D01*
X302Y299D02*
X309Y299D01*
X1044Y299D02*
X1053Y299D01*
X1241Y299D02*
X1250Y299D01*
X1319Y299D02*
X1325Y299D01*
X1330Y299D02*
X1337Y299D01*
X0Y298D02*
X7Y298D01*
X51Y298D02*
X67Y298D01*
X270Y298D02*
X283Y298D01*
X302Y298D02*
X309Y298D01*
X1044Y298D02*
X1053Y298D01*
X1241Y298D02*
X1250Y298D01*
X1319Y298D02*
X1325Y298D01*
X1330Y298D02*
X1337Y298D01*
X0Y297D02*
X7Y297D01*
X51Y297D02*
X66Y297D01*
X270Y297D02*
X283Y297D01*
X302Y297D02*
X309Y297D01*
X1044Y297D02*
X1053Y297D01*
X1241Y297D02*
X1250Y297D01*
X1319Y297D02*
X1325Y297D01*
X1330Y297D02*
X1337Y297D01*
X0Y296D02*
X7Y296D01*
X50Y296D02*
X65Y296D01*
X270Y296D02*
X283Y296D01*
X302Y296D02*
X309Y296D01*
X1044Y296D02*
X1053Y296D01*
X1241Y296D02*
X1250Y296D01*
X1319Y296D02*
X1325Y296D01*
X1330Y296D02*
X1337Y296D01*
X0Y295D02*
X7Y295D01*
X49Y295D02*
X65Y295D01*
X270Y295D02*
X283Y295D01*
X302Y295D02*
X309Y295D01*
X1043Y295D02*
X1052Y295D01*
X1242Y295D02*
X1251Y295D01*
X1319Y295D02*
X1325Y295D01*
X1330Y295D02*
X1337Y295D01*
X0Y294D02*
X7Y294D01*
X49Y294D02*
X64Y294D01*
X270Y294D02*
X283Y294D01*
X302Y294D02*
X309Y294D01*
X1043Y294D02*
X1052Y294D01*
X1242Y294D02*
X1251Y294D01*
X1272Y294D02*
X1325Y294D01*
X1330Y294D02*
X1337Y294D01*
X0Y293D02*
X7Y293D01*
X48Y293D02*
X63Y293D01*
X270Y293D02*
X283Y293D01*
X302Y293D02*
X309Y293D01*
X1043Y293D02*
X1052Y293D01*
X1242Y293D02*
X1251Y293D01*
X1272Y293D02*
X1325Y293D01*
X1330Y293D02*
X1337Y293D01*
X0Y292D02*
X7Y292D01*
X48Y292D02*
X63Y292D01*
X270Y292D02*
X283Y292D01*
X302Y292D02*
X309Y292D01*
X1043Y292D02*
X1052Y292D01*
X1242Y292D02*
X1251Y292D01*
X1272Y292D02*
X1325Y292D01*
X1330Y292D02*
X1337Y292D01*
X0Y291D02*
X7Y291D01*
X47Y291D02*
X62Y291D01*
X270Y291D02*
X283Y291D01*
X302Y291D02*
X309Y291D01*
X1043Y291D02*
X1052Y291D01*
X1242Y291D02*
X1251Y291D01*
X1272Y291D02*
X1325Y291D01*
X1330Y291D02*
X1337Y291D01*
X0Y290D02*
X7Y290D01*
X47Y290D02*
X62Y290D01*
X270Y290D02*
X283Y290D01*
X302Y290D02*
X309Y290D01*
X1043Y290D02*
X1052Y290D01*
X1242Y290D02*
X1251Y290D01*
X1272Y290D02*
X1325Y290D01*
X1330Y290D02*
X1337Y290D01*
X0Y289D02*
X7Y289D01*
X46Y289D02*
X61Y289D01*
X270Y289D02*
X283Y289D01*
X302Y289D02*
X309Y289D01*
X1043Y289D02*
X1052Y289D01*
X1242Y289D02*
X1251Y289D01*
X1272Y289D02*
X1325Y289D01*
X1330Y289D02*
X1337Y289D01*
X0Y288D02*
X7Y288D01*
X46Y288D02*
X60Y288D01*
X270Y288D02*
X283Y288D01*
X302Y288D02*
X309Y288D01*
X1043Y288D02*
X1052Y288D01*
X1242Y288D02*
X1251Y288D01*
X1272Y288D02*
X1325Y288D01*
X1330Y288D02*
X1337Y288D01*
X0Y287D02*
X7Y287D01*
X45Y287D02*
X60Y287D01*
X270Y287D02*
X283Y287D01*
X302Y287D02*
X309Y287D01*
X1043Y287D02*
X1052Y287D01*
X1242Y287D02*
X1251Y287D01*
X1272Y287D02*
X1278Y287D01*
X1318Y287D02*
X1325Y287D01*
X1330Y287D02*
X1337Y287D01*
X0Y286D02*
X7Y286D01*
X45Y286D02*
X59Y286D01*
X270Y286D02*
X283Y286D01*
X302Y286D02*
X309Y286D01*
X540Y286D02*
X606Y286D01*
X807Y286D02*
X854Y286D01*
X1043Y286D02*
X1052Y286D01*
X1242Y286D02*
X1251Y286D01*
X1272Y286D02*
X1278Y286D01*
X1319Y286D02*
X1325Y286D01*
X1330Y286D02*
X1337Y286D01*
X0Y285D02*
X7Y285D01*
X45Y285D02*
X59Y285D01*
X270Y285D02*
X283Y285D01*
X302Y285D02*
X309Y285D01*
X540Y285D02*
X606Y285D01*
X807Y285D02*
X854Y285D01*
X1043Y285D02*
X1052Y285D01*
X1242Y285D02*
X1251Y285D01*
X1272Y285D02*
X1278Y285D01*
X1319Y285D02*
X1325Y285D01*
X1330Y285D02*
X1337Y285D01*
X0Y284D02*
X7Y284D01*
X44Y284D02*
X58Y284D01*
X270Y284D02*
X283Y284D01*
X302Y284D02*
X309Y284D01*
X540Y284D02*
X606Y284D01*
X807Y284D02*
X854Y284D01*
X1043Y284D02*
X1052Y284D01*
X1242Y284D02*
X1251Y284D01*
X1272Y284D02*
X1278Y284D01*
X1319Y284D02*
X1325Y284D01*
X1330Y284D02*
X1337Y284D01*
X0Y283D02*
X7Y283D01*
X44Y283D02*
X58Y283D01*
X270Y283D02*
X283Y283D01*
X302Y283D02*
X309Y283D01*
X540Y283D02*
X606Y283D01*
X807Y283D02*
X854Y283D01*
X1043Y283D02*
X1052Y283D01*
X1242Y283D02*
X1251Y283D01*
X1272Y283D02*
X1278Y283D01*
X1319Y283D02*
X1325Y283D01*
X1330Y283D02*
X1337Y283D01*
X0Y282D02*
X7Y282D01*
X43Y282D02*
X57Y282D01*
X270Y282D02*
X283Y282D01*
X302Y282D02*
X309Y282D01*
X540Y282D02*
X606Y282D01*
X807Y282D02*
X854Y282D01*
X1043Y282D02*
X1052Y282D01*
X1242Y282D02*
X1251Y282D01*
X1272Y282D02*
X1278Y282D01*
X1319Y282D02*
X1325Y282D01*
X1330Y282D02*
X1337Y282D01*
X0Y281D02*
X7Y281D01*
X43Y281D02*
X57Y281D01*
X270Y281D02*
X283Y281D01*
X302Y281D02*
X309Y281D01*
X540Y281D02*
X606Y281D01*
X807Y281D02*
X854Y281D01*
X1043Y281D02*
X1052Y281D01*
X1242Y281D02*
X1251Y281D01*
X1272Y281D02*
X1278Y281D01*
X1319Y281D02*
X1325Y281D01*
X1330Y281D02*
X1337Y281D01*
X0Y280D02*
X7Y280D01*
X43Y280D02*
X57Y280D01*
X270Y280D02*
X283Y280D01*
X302Y280D02*
X309Y280D01*
X540Y280D02*
X606Y280D01*
X807Y280D02*
X854Y280D01*
X1043Y280D02*
X1052Y280D01*
X1242Y280D02*
X1251Y280D01*
X1272Y280D02*
X1278Y280D01*
X1319Y280D02*
X1325Y280D01*
X1330Y280D02*
X1337Y280D01*
X0Y279D02*
X7Y279D01*
X42Y279D02*
X56Y279D01*
X270Y279D02*
X283Y279D01*
X302Y279D02*
X309Y279D01*
X540Y279D02*
X606Y279D01*
X807Y279D02*
X854Y279D01*
X1043Y279D02*
X1052Y279D01*
X1242Y279D02*
X1251Y279D01*
X1272Y279D02*
X1278Y279D01*
X1319Y279D02*
X1325Y279D01*
X1330Y279D02*
X1337Y279D01*
X0Y278D02*
X7Y278D01*
X42Y278D02*
X56Y278D01*
X270Y278D02*
X283Y278D01*
X302Y278D02*
X309Y278D01*
X540Y278D02*
X606Y278D01*
X807Y278D02*
X854Y278D01*
X1043Y278D02*
X1052Y278D01*
X1242Y278D02*
X1251Y278D01*
X1272Y278D02*
X1278Y278D01*
X1319Y278D02*
X1325Y278D01*
X1330Y278D02*
X1337Y278D01*
X0Y277D02*
X7Y277D01*
X41Y277D02*
X55Y277D01*
X270Y277D02*
X283Y277D01*
X302Y277D02*
X309Y277D01*
X540Y277D02*
X606Y277D01*
X807Y277D02*
X854Y277D01*
X1043Y277D02*
X1052Y277D01*
X1242Y277D02*
X1251Y277D01*
X1272Y277D02*
X1278Y277D01*
X1319Y277D02*
X1325Y277D01*
X1330Y277D02*
X1337Y277D01*
X0Y276D02*
X7Y276D01*
X41Y276D02*
X55Y276D01*
X270Y276D02*
X283Y276D01*
X302Y276D02*
X309Y276D01*
X1043Y276D02*
X1052Y276D01*
X1242Y276D02*
X1251Y276D01*
X1272Y276D02*
X1277Y276D01*
X1319Y276D02*
X1325Y276D01*
X1330Y276D02*
X1337Y276D01*
X0Y275D02*
X7Y275D01*
X41Y275D02*
X55Y275D01*
X270Y275D02*
X283Y275D01*
X302Y275D02*
X309Y275D01*
X1043Y275D02*
X1052Y275D01*
X1242Y275D02*
X1251Y275D01*
X1272Y275D02*
X1277Y275D01*
X1319Y275D02*
X1324Y275D01*
X1330Y275D02*
X1337Y275D01*
X0Y274D02*
X7Y274D01*
X41Y274D02*
X54Y274D01*
X270Y274D02*
X283Y274D01*
X302Y274D02*
X309Y274D01*
X1043Y274D02*
X1052Y274D01*
X1242Y274D02*
X1251Y274D01*
X1273Y274D02*
X1276Y274D01*
X1320Y274D02*
X1323Y274D01*
X1330Y274D02*
X1337Y274D01*
X0Y273D02*
X7Y273D01*
X40Y273D02*
X54Y273D01*
X270Y273D02*
X283Y273D01*
X302Y273D02*
X309Y273D01*
X1043Y273D02*
X1052Y273D01*
X1242Y273D02*
X1251Y273D01*
X1330Y273D02*
X1337Y273D01*
X0Y272D02*
X7Y272D01*
X40Y272D02*
X54Y272D01*
X270Y272D02*
X283Y272D01*
X302Y272D02*
X309Y272D01*
X1043Y272D02*
X1052Y272D01*
X1242Y272D02*
X1251Y272D01*
X1330Y272D02*
X1337Y272D01*
X0Y271D02*
X7Y271D01*
X40Y271D02*
X53Y271D01*
X270Y271D02*
X283Y271D01*
X302Y271D02*
X309Y271D01*
X1043Y271D02*
X1052Y271D01*
X1242Y271D02*
X1251Y271D01*
X1330Y271D02*
X1337Y271D01*
X0Y270D02*
X7Y270D01*
X39Y270D02*
X53Y270D01*
X270Y270D02*
X283Y270D01*
X302Y270D02*
X309Y270D01*
X1043Y270D02*
X1052Y270D01*
X1242Y270D02*
X1251Y270D01*
X1330Y270D02*
X1337Y270D01*
X0Y269D02*
X7Y269D01*
X39Y269D02*
X53Y269D01*
X270Y269D02*
X283Y269D01*
X302Y269D02*
X309Y269D01*
X1043Y269D02*
X1052Y269D01*
X1242Y269D02*
X1251Y269D01*
X1330Y269D02*
X1337Y269D01*
X0Y268D02*
X7Y268D01*
X39Y268D02*
X52Y268D01*
X270Y268D02*
X283Y268D01*
X302Y268D02*
X309Y268D01*
X1044Y268D02*
X1053Y268D01*
X1242Y268D02*
X1251Y268D01*
X1330Y268D02*
X1337Y268D01*
X0Y267D02*
X7Y267D01*
X39Y267D02*
X52Y267D01*
X270Y267D02*
X283Y267D01*
X302Y267D02*
X309Y267D01*
X1044Y267D02*
X1053Y267D01*
X1241Y267D02*
X1250Y267D01*
X1330Y267D02*
X1337Y267D01*
X0Y266D02*
X7Y266D01*
X38Y266D02*
X52Y266D01*
X270Y266D02*
X283Y266D01*
X302Y266D02*
X309Y266D01*
X1044Y266D02*
X1053Y266D01*
X1241Y266D02*
X1250Y266D01*
X1330Y266D02*
X1337Y266D01*
X0Y265D02*
X7Y265D01*
X38Y265D02*
X51Y265D01*
X270Y265D02*
X283Y265D01*
X302Y265D02*
X309Y265D01*
X1044Y265D02*
X1053Y265D01*
X1241Y265D02*
X1250Y265D01*
X1330Y265D02*
X1337Y265D01*
X0Y264D02*
X7Y264D01*
X38Y264D02*
X51Y264D01*
X270Y264D02*
X283Y264D01*
X302Y264D02*
X309Y264D01*
X1044Y264D02*
X1053Y264D01*
X1241Y264D02*
X1250Y264D01*
X1330Y264D02*
X1337Y264D01*
X0Y263D02*
X7Y263D01*
X38Y263D02*
X51Y263D01*
X270Y263D02*
X283Y263D01*
X302Y263D02*
X309Y263D01*
X1044Y263D02*
X1053Y263D01*
X1241Y263D02*
X1250Y263D01*
X1330Y263D02*
X1337Y263D01*
X0Y262D02*
X7Y262D01*
X37Y262D02*
X51Y262D01*
X270Y262D02*
X283Y262D01*
X302Y262D02*
X309Y262D01*
X1044Y262D02*
X1054Y262D01*
X1241Y262D02*
X1250Y262D01*
X1330Y262D02*
X1337Y262D01*
X0Y261D02*
X7Y261D01*
X37Y261D02*
X50Y261D01*
X270Y261D02*
X283Y261D01*
X302Y261D02*
X309Y261D01*
X1045Y261D02*
X1054Y261D01*
X1240Y261D02*
X1249Y261D01*
X1330Y261D02*
X1337Y261D01*
X0Y260D02*
X7Y260D01*
X37Y260D02*
X50Y260D01*
X270Y260D02*
X283Y260D01*
X302Y260D02*
X309Y260D01*
X1045Y260D02*
X1054Y260D01*
X1240Y260D02*
X1249Y260D01*
X1330Y260D02*
X1337Y260D01*
X0Y259D02*
X7Y259D01*
X37Y259D02*
X50Y259D01*
X270Y259D02*
X283Y259D01*
X302Y259D02*
X309Y259D01*
X1045Y259D02*
X1054Y259D01*
X1240Y259D02*
X1249Y259D01*
X1330Y259D02*
X1337Y259D01*
X0Y258D02*
X7Y258D01*
X37Y258D02*
X50Y258D01*
X270Y258D02*
X283Y258D01*
X302Y258D02*
X309Y258D01*
X1045Y258D02*
X1054Y258D01*
X1240Y258D02*
X1249Y258D01*
X1330Y258D02*
X1337Y258D01*
X0Y257D02*
X7Y257D01*
X36Y257D02*
X50Y257D01*
X270Y257D02*
X283Y257D01*
X302Y257D02*
X309Y257D01*
X1046Y257D02*
X1055Y257D01*
X1240Y257D02*
X1248Y257D01*
X1273Y257D02*
X1276Y257D01*
X1320Y257D02*
X1324Y257D01*
X1330Y257D02*
X1337Y257D01*
X0Y256D02*
X7Y256D01*
X36Y256D02*
X49Y256D01*
X270Y256D02*
X283Y256D01*
X302Y256D02*
X309Y256D01*
X1046Y256D02*
X1055Y256D01*
X1240Y256D02*
X1248Y256D01*
X1272Y256D02*
X1277Y256D01*
X1319Y256D02*
X1324Y256D01*
X1330Y256D02*
X1337Y256D01*
X0Y255D02*
X7Y255D01*
X36Y255D02*
X49Y255D01*
X270Y255D02*
X283Y255D01*
X302Y255D02*
X309Y255D01*
X1046Y255D02*
X1055Y255D01*
X1240Y255D02*
X1248Y255D01*
X1272Y255D02*
X1277Y255D01*
X1319Y255D02*
X1325Y255D01*
X1330Y255D02*
X1337Y255D01*
X0Y254D02*
X7Y254D01*
X36Y254D02*
X49Y254D01*
X270Y254D02*
X283Y254D01*
X302Y254D02*
X309Y254D01*
X1046Y254D02*
X1056Y254D01*
X1240Y254D02*
X1248Y254D01*
X1272Y254D02*
X1278Y254D01*
X1319Y254D02*
X1325Y254D01*
X1330Y254D02*
X1337Y254D01*
X0Y253D02*
X7Y253D01*
X36Y253D02*
X49Y253D01*
X270Y253D02*
X283Y253D01*
X302Y253D02*
X309Y253D01*
X1047Y253D02*
X1056Y253D01*
X1240Y253D02*
X1247Y253D01*
X1272Y253D02*
X1278Y253D01*
X1319Y253D02*
X1325Y253D01*
X1330Y253D02*
X1337Y253D01*
X0Y252D02*
X7Y252D01*
X36Y252D02*
X49Y252D01*
X270Y252D02*
X283Y252D01*
X302Y252D02*
X309Y252D01*
X1047Y252D02*
X1056Y252D01*
X1240Y252D02*
X1247Y252D01*
X1272Y252D02*
X1278Y252D01*
X1319Y252D02*
X1325Y252D01*
X1330Y252D02*
X1337Y252D01*
X0Y251D02*
X7Y251D01*
X35Y251D02*
X49Y251D01*
X270Y251D02*
X283Y251D01*
X302Y251D02*
X309Y251D01*
X1047Y251D02*
X1057Y251D01*
X1240Y251D02*
X1247Y251D01*
X1272Y251D02*
X1278Y251D01*
X1319Y251D02*
X1325Y251D01*
X1330Y251D02*
X1337Y251D01*
X0Y250D02*
X7Y250D01*
X35Y250D02*
X48Y250D01*
X270Y250D02*
X283Y250D01*
X302Y250D02*
X309Y250D01*
X1048Y250D02*
X1057Y250D01*
X1240Y250D02*
X1246Y250D01*
X1272Y250D02*
X1278Y250D01*
X1319Y250D02*
X1325Y250D01*
X1330Y250D02*
X1337Y250D01*
X0Y249D02*
X7Y249D01*
X35Y249D02*
X48Y249D01*
X270Y249D02*
X283Y249D01*
X302Y249D02*
X309Y249D01*
X1048Y249D02*
X1057Y249D01*
X1240Y249D02*
X1246Y249D01*
X1272Y249D02*
X1278Y249D01*
X1319Y249D02*
X1325Y249D01*
X1330Y249D02*
X1337Y249D01*
X0Y248D02*
X7Y248D01*
X35Y248D02*
X48Y248D01*
X270Y248D02*
X283Y248D01*
X302Y248D02*
X309Y248D01*
X1048Y248D02*
X1058Y248D01*
X1240Y248D02*
X1246Y248D01*
X1272Y248D02*
X1278Y248D01*
X1319Y248D02*
X1325Y248D01*
X1330Y248D02*
X1337Y248D01*
X0Y247D02*
X7Y247D01*
X35Y247D02*
X48Y247D01*
X270Y247D02*
X283Y247D01*
X302Y247D02*
X309Y247D01*
X1049Y247D02*
X1058Y247D01*
X1240Y247D02*
X1245Y247D01*
X1272Y247D02*
X1278Y247D01*
X1319Y247D02*
X1325Y247D01*
X1330Y247D02*
X1337Y247D01*
X0Y246D02*
X7Y246D01*
X35Y246D02*
X48Y246D01*
X270Y246D02*
X283Y246D01*
X302Y246D02*
X309Y246D01*
X1049Y246D02*
X1058Y246D01*
X1240Y246D02*
X1245Y246D01*
X1272Y246D02*
X1278Y246D01*
X1319Y246D02*
X1325Y246D01*
X1330Y246D02*
X1337Y246D01*
X0Y245D02*
X7Y245D01*
X35Y245D02*
X48Y245D01*
X270Y245D02*
X283Y245D01*
X302Y245D02*
X309Y245D01*
X1049Y245D02*
X1059Y245D01*
X1240Y245D02*
X1245Y245D01*
X1272Y245D02*
X1278Y245D01*
X1319Y245D02*
X1325Y245D01*
X1330Y245D02*
X1337Y245D01*
X0Y244D02*
X7Y244D01*
X35Y244D02*
X48Y244D01*
X270Y244D02*
X283Y244D01*
X302Y244D02*
X309Y244D01*
X1050Y244D02*
X1059Y244D01*
X1240Y244D02*
X1244Y244D01*
X1272Y244D02*
X1278Y244D01*
X1319Y244D02*
X1325Y244D01*
X1330Y244D02*
X1337Y244D01*
X0Y243D02*
X7Y243D01*
X35Y243D02*
X48Y243D01*
X270Y243D02*
X283Y243D01*
X302Y243D02*
X309Y243D01*
X1050Y243D02*
X1060Y243D01*
X1240Y243D02*
X1244Y243D01*
X1272Y243D02*
X1278Y243D01*
X1319Y243D02*
X1325Y243D01*
X1330Y243D02*
X1337Y243D01*
X0Y242D02*
X7Y242D01*
X35Y242D02*
X47Y242D01*
X270Y242D02*
X283Y242D01*
X302Y242D02*
X309Y242D01*
X1051Y242D02*
X1060Y242D01*
X1240Y242D02*
X1244Y242D01*
X1272Y242D02*
X1278Y242D01*
X1319Y242D02*
X1325Y242D01*
X1330Y242D02*
X1337Y242D01*
X0Y241D02*
X7Y241D01*
X34Y241D02*
X47Y241D01*
X270Y241D02*
X283Y241D01*
X302Y241D02*
X309Y241D01*
X1051Y241D02*
X1061Y241D01*
X1240Y241D02*
X1243Y241D01*
X1272Y241D02*
X1278Y241D01*
X1319Y241D02*
X1325Y241D01*
X1330Y241D02*
X1337Y241D01*
X0Y240D02*
X7Y240D01*
X34Y240D02*
X47Y240D01*
X270Y240D02*
X283Y240D01*
X302Y240D02*
X309Y240D01*
X1051Y240D02*
X1061Y240D01*
X1240Y240D02*
X1243Y240D01*
X1272Y240D02*
X1278Y240D01*
X1318Y240D02*
X1325Y240D01*
X1330Y240D02*
X1337Y240D01*
X0Y239D02*
X7Y239D01*
X34Y239D02*
X47Y239D01*
X270Y239D02*
X283Y239D01*
X302Y239D02*
X309Y239D01*
X1052Y239D02*
X1061Y239D01*
X1233Y239D02*
X1242Y239D01*
X1272Y239D02*
X1279Y239D01*
X1317Y239D02*
X1324Y239D01*
X1330Y239D02*
X1337Y239D01*
X0Y238D02*
X7Y238D01*
X34Y238D02*
X47Y238D01*
X270Y238D02*
X283Y238D01*
X302Y238D02*
X309Y238D01*
X1052Y238D02*
X1062Y238D01*
X1232Y238D02*
X1242Y238D01*
X1272Y238D02*
X1280Y238D01*
X1316Y238D02*
X1324Y238D01*
X1330Y238D02*
X1337Y238D01*
X0Y237D02*
X7Y237D01*
X34Y237D02*
X47Y237D01*
X270Y237D02*
X283Y237D01*
X302Y237D02*
X309Y237D01*
X1053Y237D02*
X1062Y237D01*
X1232Y237D02*
X1241Y237D01*
X1273Y237D02*
X1282Y237D01*
X1314Y237D02*
X1324Y237D01*
X1330Y237D02*
X1337Y237D01*
X0Y236D02*
X7Y236D01*
X34Y236D02*
X47Y236D01*
X270Y236D02*
X283Y236D01*
X302Y236D02*
X309Y236D01*
X1053Y236D02*
X1063Y236D01*
X1231Y236D02*
X1241Y236D01*
X1273Y236D02*
X1284Y236D01*
X1312Y236D02*
X1323Y236D01*
X1330Y236D02*
X1337Y236D01*
X0Y235D02*
X7Y235D01*
X34Y235D02*
X47Y235D01*
X270Y235D02*
X283Y235D01*
X302Y235D02*
X309Y235D01*
X1054Y235D02*
X1064Y235D01*
X1231Y235D02*
X1240Y235D01*
X1274Y235D02*
X1286Y235D01*
X1310Y235D02*
X1322Y235D01*
X1330Y235D02*
X1337Y235D01*
X0Y234D02*
X7Y234D01*
X34Y234D02*
X47Y234D01*
X270Y234D02*
X283Y234D01*
X302Y234D02*
X309Y234D01*
X1054Y234D02*
X1064Y234D01*
X1230Y234D02*
X1240Y234D01*
X1275Y234D02*
X1288Y234D01*
X1308Y234D02*
X1321Y234D01*
X1330Y234D02*
X1337Y234D01*
X0Y233D02*
X7Y233D01*
X34Y233D02*
X47Y233D01*
X270Y233D02*
X283Y233D01*
X302Y233D02*
X309Y233D01*
X1055Y233D02*
X1065Y233D01*
X1229Y233D02*
X1239Y233D01*
X1276Y233D02*
X1290Y233D01*
X1306Y233D02*
X1320Y233D01*
X1330Y233D02*
X1337Y233D01*
X0Y232D02*
X7Y232D01*
X34Y232D02*
X47Y232D01*
X270Y232D02*
X283Y232D01*
X302Y232D02*
X309Y232D01*
X1055Y232D02*
X1065Y232D01*
X1182Y232D02*
X1212Y232D01*
X1229Y232D02*
X1239Y232D01*
X1278Y232D02*
X1292Y232D01*
X1304Y232D02*
X1319Y232D01*
X1330Y232D02*
X1337Y232D01*
X0Y231D02*
X7Y231D01*
X34Y231D02*
X47Y231D01*
X270Y231D02*
X283Y231D01*
X302Y231D02*
X309Y231D01*
X1056Y231D02*
X1066Y231D01*
X1179Y231D02*
X1215Y231D01*
X1228Y231D02*
X1238Y231D01*
X1280Y231D02*
X1295Y231D01*
X1302Y231D02*
X1317Y231D01*
X1330Y231D02*
X1337Y231D01*
X0Y230D02*
X7Y230D01*
X34Y230D02*
X47Y230D01*
X270Y230D02*
X283Y230D01*
X302Y230D02*
X309Y230D01*
X1057Y230D02*
X1067Y230D01*
X1178Y230D02*
X1216Y230D01*
X1228Y230D02*
X1238Y230D01*
X1282Y230D02*
X1315Y230D01*
X1330Y230D02*
X1337Y230D01*
X0Y229D02*
X7Y229D01*
X34Y229D02*
X47Y229D01*
X270Y229D02*
X283Y229D01*
X302Y229D02*
X309Y229D01*
X1057Y229D02*
X1067Y229D01*
X1178Y229D02*
X1216Y229D01*
X1227Y229D02*
X1237Y229D01*
X1284Y229D02*
X1313Y229D01*
X1330Y229D02*
X1337Y229D01*
X0Y228D02*
X7Y228D01*
X34Y228D02*
X47Y228D01*
X270Y228D02*
X283Y228D01*
X302Y228D02*
X309Y228D01*
X1058Y228D02*
X1068Y228D01*
X1177Y228D02*
X1217Y228D01*
X1226Y228D02*
X1236Y228D01*
X1286Y228D02*
X1311Y228D01*
X1330Y228D02*
X1337Y228D01*
X0Y227D02*
X7Y227D01*
X34Y227D02*
X47Y227D01*
X270Y227D02*
X283Y227D01*
X302Y227D02*
X309Y227D01*
X1058Y227D02*
X1068Y227D01*
X1177Y227D02*
X1217Y227D01*
X1226Y227D02*
X1236Y227D01*
X1288Y227D02*
X1309Y227D01*
X1330Y227D02*
X1337Y227D01*
X0Y226D02*
X7Y226D01*
X34Y226D02*
X47Y226D01*
X270Y226D02*
X283Y226D01*
X302Y226D02*
X309Y226D01*
X1059Y226D02*
X1069Y226D01*
X1177Y226D02*
X1217Y226D01*
X1225Y226D02*
X1235Y226D01*
X1290Y226D02*
X1307Y226D01*
X1330Y226D02*
X1337Y226D01*
X0Y225D02*
X7Y225D01*
X34Y225D02*
X47Y225D01*
X270Y225D02*
X283Y225D01*
X302Y225D02*
X309Y225D01*
X1060Y225D02*
X1070Y225D01*
X1177Y225D02*
X1217Y225D01*
X1224Y225D02*
X1234Y225D01*
X1292Y225D02*
X1305Y225D01*
X1330Y225D02*
X1337Y225D01*
X0Y224D02*
X7Y224D01*
X34Y224D02*
X47Y224D01*
X270Y224D02*
X283Y224D01*
X302Y224D02*
X309Y224D01*
X1060Y224D02*
X1071Y224D01*
X1178Y224D02*
X1216Y224D01*
X1223Y224D02*
X1234Y224D01*
X1295Y224D02*
X1302Y224D01*
X1330Y224D02*
X1337Y224D01*
X0Y223D02*
X7Y223D01*
X34Y223D02*
X47Y223D01*
X270Y223D02*
X283Y223D01*
X302Y223D02*
X309Y223D01*
X1061Y223D02*
X1071Y223D01*
X1178Y223D02*
X1216Y223D01*
X1223Y223D02*
X1233Y223D01*
X1330Y223D02*
X1337Y223D01*
X0Y222D02*
X7Y222D01*
X34Y222D02*
X47Y222D01*
X270Y222D02*
X283Y222D01*
X302Y222D02*
X309Y222D01*
X1062Y222D02*
X1072Y222D01*
X1180Y222D02*
X1214Y222D01*
X1222Y222D02*
X1232Y222D01*
X1330Y222D02*
X1337Y222D01*
X0Y221D02*
X7Y221D01*
X34Y221D02*
X47Y221D01*
X270Y221D02*
X283Y221D01*
X302Y221D02*
X309Y221D01*
X1062Y221D02*
X1073Y221D01*
X1221Y221D02*
X1232Y221D01*
X1330Y221D02*
X1337Y221D01*
X0Y220D02*
X7Y220D01*
X34Y220D02*
X47Y220D01*
X270Y220D02*
X283Y220D01*
X302Y220D02*
X309Y220D01*
X1063Y220D02*
X1074Y220D01*
X1220Y220D02*
X1231Y220D01*
X1330Y220D02*
X1337Y220D01*
X0Y219D02*
X7Y219D01*
X34Y219D02*
X47Y219D01*
X270Y219D02*
X283Y219D01*
X302Y219D02*
X309Y219D01*
X1064Y219D02*
X1075Y219D01*
X1219Y219D02*
X1230Y219D01*
X1330Y219D02*
X1337Y219D01*
X0Y218D02*
X7Y218D01*
X34Y218D02*
X47Y218D01*
X270Y218D02*
X283Y218D01*
X302Y218D02*
X309Y218D01*
X1065Y218D02*
X1076Y218D01*
X1218Y218D02*
X1229Y218D01*
X1330Y218D02*
X1337Y218D01*
X0Y217D02*
X7Y217D01*
X35Y217D02*
X47Y217D01*
X270Y217D02*
X283Y217D01*
X302Y217D02*
X309Y217D01*
X1065Y217D02*
X1077Y217D01*
X1217Y217D02*
X1229Y217D01*
X1330Y217D02*
X1337Y217D01*
X0Y216D02*
X7Y216D01*
X35Y216D02*
X48Y216D01*
X270Y216D02*
X283Y216D01*
X302Y216D02*
X309Y216D01*
X1066Y216D02*
X1077Y216D01*
X1217Y216D02*
X1228Y216D01*
X1330Y216D02*
X1337Y216D01*
X0Y215D02*
X7Y215D01*
X35Y215D02*
X48Y215D01*
X270Y215D02*
X283Y215D01*
X302Y215D02*
X309Y215D01*
X1067Y215D02*
X1078Y215D01*
X1216Y215D02*
X1227Y215D01*
X1330Y215D02*
X1337Y215D01*
X0Y214D02*
X7Y214D01*
X35Y214D02*
X48Y214D01*
X270Y214D02*
X283Y214D01*
X302Y214D02*
X309Y214D01*
X1068Y214D02*
X1079Y214D01*
X1215Y214D02*
X1226Y214D01*
X1330Y214D02*
X1337Y214D01*
X0Y213D02*
X7Y213D01*
X35Y213D02*
X48Y213D01*
X270Y213D02*
X283Y213D01*
X302Y213D02*
X309Y213D01*
X1069Y213D02*
X1080Y213D01*
X1214Y213D02*
X1225Y213D01*
X1330Y213D02*
X1337Y213D01*
X0Y212D02*
X7Y212D01*
X35Y212D02*
X48Y212D01*
X270Y212D02*
X283Y212D01*
X302Y212D02*
X309Y212D01*
X1070Y212D02*
X1082Y212D01*
X1213Y212D02*
X1224Y212D01*
X1330Y212D02*
X1337Y212D01*
X0Y211D02*
X7Y211D01*
X35Y211D02*
X48Y211D01*
X270Y211D02*
X283Y211D01*
X302Y211D02*
X309Y211D01*
X1070Y211D02*
X1083Y211D01*
X1211Y211D02*
X1224Y211D01*
X1330Y211D02*
X1337Y211D01*
X0Y210D02*
X7Y210D01*
X35Y210D02*
X48Y210D01*
X270Y210D02*
X283Y210D01*
X302Y210D02*
X309Y210D01*
X1071Y210D02*
X1084Y210D01*
X1210Y210D02*
X1223Y210D01*
X1330Y210D02*
X1337Y210D01*
X0Y209D02*
X7Y209D01*
X35Y209D02*
X48Y209D01*
X270Y209D02*
X283Y209D01*
X302Y209D02*
X309Y209D01*
X1072Y209D02*
X1085Y209D01*
X1209Y209D02*
X1222Y209D01*
X1330Y209D02*
X1337Y209D01*
X0Y208D02*
X7Y208D01*
X35Y208D02*
X49Y208D01*
X270Y208D02*
X283Y208D01*
X302Y208D02*
X309Y208D01*
X1073Y208D02*
X1086Y208D01*
X1208Y208D02*
X1221Y208D01*
X1330Y208D02*
X1337Y208D01*
X0Y207D02*
X7Y207D01*
X36Y207D02*
X49Y207D01*
X270Y207D02*
X283Y207D01*
X302Y207D02*
X309Y207D01*
X1074Y207D02*
X1087Y207D01*
X1207Y207D02*
X1220Y207D01*
X1330Y207D02*
X1337Y207D01*
X0Y206D02*
X7Y206D01*
X36Y206D02*
X49Y206D01*
X270Y206D02*
X283Y206D01*
X302Y206D02*
X309Y206D01*
X1075Y206D02*
X1089Y206D01*
X1205Y206D02*
X1219Y206D01*
X1330Y206D02*
X1337Y206D01*
X0Y205D02*
X7Y205D01*
X36Y205D02*
X49Y205D01*
X270Y205D02*
X283Y205D01*
X302Y205D02*
X309Y205D01*
X1076Y205D02*
X1090Y205D01*
X1204Y205D02*
X1218Y205D01*
X1330Y205D02*
X1337Y205D01*
X0Y204D02*
X7Y204D01*
X36Y204D02*
X49Y204D01*
X270Y204D02*
X283Y204D01*
X302Y204D02*
X309Y204D01*
X1078Y204D02*
X1091Y204D01*
X1203Y204D02*
X1216Y204D01*
X1330Y204D02*
X1337Y204D01*
X0Y203D02*
X7Y203D01*
X36Y203D02*
X49Y203D01*
X270Y203D02*
X283Y203D01*
X302Y203D02*
X309Y203D01*
X1079Y203D02*
X1093Y203D01*
X1201Y203D02*
X1215Y203D01*
X1330Y203D02*
X1337Y203D01*
X0Y202D02*
X7Y202D01*
X36Y202D02*
X50Y202D01*
X270Y202D02*
X283Y202D01*
X302Y202D02*
X309Y202D01*
X353Y202D02*
X379Y202D01*
X404Y202D02*
X432Y202D01*
X1080Y202D02*
X1094Y202D01*
X1200Y202D02*
X1214Y202D01*
X1330Y202D02*
X1337Y202D01*
X0Y201D02*
X7Y201D01*
X37Y201D02*
X50Y201D01*
X270Y201D02*
X283Y201D01*
X302Y201D02*
X309Y201D01*
X353Y201D02*
X381Y201D01*
X403Y201D02*
X434Y201D01*
X1081Y201D02*
X1096Y201D01*
X1198Y201D02*
X1213Y201D01*
X1330Y201D02*
X1337Y201D01*
X0Y200D02*
X7Y200D01*
X37Y200D02*
X50Y200D01*
X270Y200D02*
X283Y200D01*
X302Y200D02*
X309Y200D01*
X353Y200D02*
X383Y200D01*
X403Y200D02*
X435Y200D01*
X1082Y200D02*
X1098Y200D01*
X1196Y200D02*
X1212Y200D01*
X1330Y200D02*
X1337Y200D01*
X0Y199D02*
X7Y199D01*
X37Y199D02*
X50Y199D01*
X270Y199D02*
X283Y199D01*
X302Y199D02*
X309Y199D01*
X353Y199D02*
X384Y199D01*
X403Y199D02*
X435Y199D01*
X1083Y199D02*
X1099Y199D01*
X1195Y199D02*
X1211Y199D01*
X1330Y199D02*
X1337Y199D01*
X0Y198D02*
X7Y198D01*
X37Y198D02*
X50Y198D01*
X270Y198D02*
X283Y198D01*
X302Y198D02*
X309Y198D01*
X353Y198D02*
X384Y198D01*
X403Y198D02*
X436Y198D01*
X1085Y198D02*
X1101Y198D01*
X1193Y198D02*
X1209Y198D01*
X1330Y198D02*
X1337Y198D01*
X0Y197D02*
X7Y197D01*
X37Y197D02*
X51Y197D01*
X270Y197D02*
X283Y197D01*
X302Y197D02*
X309Y197D01*
X353Y197D02*
X385Y197D01*
X403Y197D02*
X436Y197D01*
X1086Y197D02*
X1103Y197D01*
X1191Y197D02*
X1208Y197D01*
X1330Y197D02*
X1337Y197D01*
X0Y196D02*
X7Y196D01*
X38Y196D02*
X51Y196D01*
X270Y196D02*
X283Y196D01*
X302Y196D02*
X309Y196D01*
X353Y196D02*
X385Y196D01*
X405Y196D02*
X436Y196D01*
X1087Y196D02*
X1105Y196D01*
X1189Y196D02*
X1207Y196D01*
X1330Y196D02*
X1337Y196D01*
X0Y195D02*
X7Y195D01*
X38Y195D02*
X51Y195D01*
X270Y195D02*
X283Y195D01*
X302Y195D02*
X309Y195D01*
X353Y195D02*
X359Y195D01*
X379Y195D02*
X386Y195D01*
X430Y195D02*
X436Y195D01*
X1089Y195D02*
X1107Y195D01*
X1187Y195D02*
X1205Y195D01*
X1330Y195D02*
X1337Y195D01*
X0Y194D02*
X7Y194D01*
X38Y194D02*
X51Y194D01*
X270Y194D02*
X283Y194D01*
X302Y194D02*
X309Y194D01*
X353Y194D02*
X359Y194D01*
X380Y194D02*
X386Y194D01*
X430Y194D02*
X436Y194D01*
X1090Y194D02*
X1109Y194D01*
X1185Y194D02*
X1204Y194D01*
X1330Y194D02*
X1337Y194D01*
X0Y193D02*
X7Y193D01*
X38Y193D02*
X52Y193D01*
X270Y193D02*
X283Y193D01*
X302Y193D02*
X309Y193D01*
X353Y193D02*
X359Y193D01*
X380Y193D02*
X386Y193D01*
X430Y193D02*
X436Y193D01*
X1092Y193D02*
X1112Y193D01*
X1182Y193D02*
X1202Y193D01*
X1330Y193D02*
X1337Y193D01*
X0Y192D02*
X7Y192D01*
X39Y192D02*
X52Y192D01*
X270Y192D02*
X283Y192D01*
X302Y192D02*
X309Y192D01*
X353Y192D02*
X359Y192D01*
X380Y192D02*
X386Y192D01*
X430Y192D02*
X436Y192D01*
X1094Y192D02*
X1115Y192D01*
X1179Y192D02*
X1200Y192D01*
X1330Y192D02*
X1337Y192D01*
X0Y191D02*
X7Y191D01*
X39Y191D02*
X52Y191D01*
X270Y191D02*
X283Y191D01*
X302Y191D02*
X309Y191D01*
X353Y191D02*
X359Y191D01*
X380Y191D02*
X386Y191D01*
X430Y191D02*
X436Y191D01*
X1095Y191D02*
X1118Y191D01*
X1176Y191D02*
X1199Y191D01*
X1330Y191D02*
X1337Y191D01*
X0Y190D02*
X7Y190D01*
X39Y190D02*
X53Y190D01*
X270Y190D02*
X283Y190D01*
X302Y190D02*
X309Y190D01*
X353Y190D02*
X359Y190D01*
X380Y190D02*
X386Y190D01*
X430Y190D02*
X436Y190D01*
X1097Y190D02*
X1121Y190D01*
X1173Y190D02*
X1197Y190D01*
X1330Y190D02*
X1337Y190D01*
X0Y189D02*
X7Y189D01*
X39Y189D02*
X53Y189D01*
X270Y189D02*
X283Y189D01*
X302Y189D02*
X309Y189D01*
X353Y189D02*
X359Y189D01*
X380Y189D02*
X386Y189D01*
X430Y189D02*
X436Y189D01*
X1099Y189D02*
X1125Y189D01*
X1169Y189D02*
X1195Y189D01*
X1330Y189D02*
X1337Y189D01*
X0Y188D02*
X7Y188D01*
X40Y188D02*
X53Y188D01*
X270Y188D02*
X283Y188D01*
X302Y188D02*
X309Y188D01*
X353Y188D02*
X359Y188D01*
X380Y188D02*
X386Y188D01*
X430Y188D02*
X436Y188D01*
X1101Y188D02*
X1130Y188D01*
X1164Y188D02*
X1193Y188D01*
X1330Y188D02*
X1337Y188D01*
X0Y187D02*
X7Y187D01*
X40Y187D02*
X54Y187D01*
X270Y187D02*
X283Y187D01*
X302Y187D02*
X309Y187D01*
X353Y187D02*
X359Y187D01*
X380Y187D02*
X386Y187D01*
X430Y187D02*
X436Y187D01*
X1103Y187D02*
X1138Y187D01*
X1156Y187D02*
X1191Y187D01*
X1330Y187D02*
X1337Y187D01*
X0Y186D02*
X7Y186D01*
X40Y186D02*
X54Y186D01*
X270Y186D02*
X283Y186D01*
X302Y186D02*
X309Y186D01*
X353Y186D02*
X359Y186D01*
X379Y186D02*
X386Y186D01*
X430Y186D02*
X436Y186D01*
X540Y186D02*
X606Y186D01*
X807Y186D02*
X854Y186D01*
X1105Y186D02*
X1189Y186D01*
X1330Y186D02*
X1337Y186D01*
X0Y185D02*
X7Y185D01*
X41Y185D02*
X54Y185D01*
X270Y185D02*
X283Y185D01*
X302Y185D02*
X309Y185D01*
X353Y185D02*
X359Y185D01*
X377Y185D02*
X386Y185D01*
X430Y185D02*
X436Y185D01*
X540Y185D02*
X606Y185D01*
X807Y185D02*
X854Y185D01*
X1107Y185D02*
X1187Y185D01*
X1330Y185D02*
X1337Y185D01*
X0Y184D02*
X7Y184D01*
X41Y184D02*
X55Y184D01*
X270Y184D02*
X283Y184D01*
X302Y184D02*
X309Y184D01*
X353Y184D02*
X385Y184D01*
X430Y184D02*
X436Y184D01*
X540Y184D02*
X606Y184D01*
X807Y184D02*
X854Y184D01*
X1109Y184D02*
X1185Y184D01*
X1330Y184D02*
X1337Y184D01*
X0Y183D02*
X7Y183D01*
X41Y183D02*
X55Y183D01*
X270Y183D02*
X283Y183D01*
X302Y183D02*
X309Y183D01*
X353Y183D02*
X385Y183D01*
X430Y183D02*
X436Y183D01*
X540Y183D02*
X606Y183D01*
X807Y183D02*
X854Y183D01*
X1112Y183D02*
X1182Y183D01*
X1330Y183D02*
X1337Y183D01*
X0Y182D02*
X7Y182D01*
X42Y182D02*
X55Y182D01*
X270Y182D02*
X283Y182D01*
X302Y182D02*
X309Y182D01*
X353Y182D02*
X384Y182D01*
X430Y182D02*
X436Y182D01*
X540Y182D02*
X606Y182D01*
X807Y182D02*
X854Y182D01*
X1115Y182D02*
X1179Y182D01*
X1330Y182D02*
X1337Y182D01*
X0Y181D02*
X7Y181D01*
X42Y181D02*
X56Y181D01*
X270Y181D02*
X283Y181D01*
X302Y181D02*
X309Y181D01*
X353Y181D02*
X383Y181D01*
X430Y181D02*
X436Y181D01*
X540Y181D02*
X606Y181D01*
X807Y181D02*
X854Y181D01*
X1118Y181D02*
X1176Y181D01*
X1330Y181D02*
X1337Y181D01*
X0Y180D02*
X7Y180D01*
X42Y180D02*
X56Y180D01*
X270Y180D02*
X283Y180D01*
X302Y180D02*
X309Y180D01*
X353Y180D02*
X382Y180D01*
X430Y180D02*
X436Y180D01*
X540Y180D02*
X606Y180D01*
X807Y180D02*
X854Y180D01*
X1121Y180D02*
X1173Y180D01*
X1330Y180D02*
X1337Y180D01*
X0Y179D02*
X7Y179D01*
X43Y179D02*
X57Y179D01*
X270Y179D02*
X283Y179D01*
X302Y179D02*
X309Y179D01*
X353Y179D02*
X380Y179D01*
X409Y179D02*
X436Y179D01*
X540Y179D02*
X606Y179D01*
X807Y179D02*
X854Y179D01*
X1126Y179D02*
X1168Y179D01*
X1330Y179D02*
X1337Y179D01*
X0Y178D02*
X7Y178D01*
X43Y178D02*
X57Y178D01*
X270Y178D02*
X283Y178D01*
X302Y178D02*
X309Y178D01*
X353Y178D02*
X376Y178D01*
X406Y178D02*
X436Y178D01*
X540Y178D02*
X606Y178D01*
X807Y178D02*
X854Y178D01*
X1131Y178D02*
X1163Y178D01*
X1330Y178D02*
X1337Y178D01*
X0Y177D02*
X7Y177D01*
X43Y177D02*
X58Y177D01*
X270Y177D02*
X283Y177D01*
X302Y177D02*
X309Y177D01*
X353Y177D02*
X359Y177D01*
X365Y177D02*
X372Y177D01*
X405Y177D02*
X436Y177D01*
X540Y177D02*
X606Y177D01*
X807Y177D02*
X854Y177D01*
X1139Y177D02*
X1155Y177D01*
X1330Y177D02*
X1337Y177D01*
X0Y176D02*
X7Y176D01*
X44Y176D02*
X58Y176D01*
X270Y176D02*
X283Y176D01*
X302Y176D02*
X309Y176D01*
X353Y176D02*
X359Y176D01*
X366Y176D02*
X373Y176D01*
X404Y176D02*
X435Y176D01*
X1330Y176D02*
X1337Y176D01*
X0Y175D02*
X7Y175D01*
X44Y175D02*
X58Y175D01*
X270Y175D02*
X283Y175D01*
X302Y175D02*
X309Y175D01*
X353Y175D02*
X359Y175D01*
X366Y175D02*
X373Y175D01*
X403Y175D02*
X435Y175D01*
X1330Y175D02*
X1337Y175D01*
X0Y174D02*
X7Y174D01*
X45Y174D02*
X59Y174D01*
X270Y174D02*
X283Y174D01*
X302Y174D02*
X309Y174D01*
X353Y174D02*
X359Y174D01*
X367Y174D02*
X374Y174D01*
X403Y174D02*
X434Y174D01*
X1330Y174D02*
X1337Y174D01*
X0Y173D02*
X7Y173D01*
X45Y173D02*
X59Y173D01*
X270Y173D02*
X283Y173D01*
X302Y173D02*
X309Y173D01*
X353Y173D02*
X359Y173D01*
X367Y173D02*
X375Y173D01*
X403Y173D02*
X433Y173D01*
X1330Y173D02*
X1337Y173D01*
X0Y172D02*
X7Y172D01*
X46Y172D02*
X60Y172D01*
X270Y172D02*
X283Y172D01*
X302Y172D02*
X309Y172D01*
X353Y172D02*
X359Y172D01*
X368Y172D02*
X375Y172D01*
X403Y172D02*
X409Y172D01*
X1330Y172D02*
X1337Y172D01*
X0Y171D02*
X7Y171D01*
X46Y171D02*
X61Y171D01*
X270Y171D02*
X283Y171D01*
X302Y171D02*
X309Y171D01*
X353Y171D02*
X359Y171D01*
X369Y171D02*
X376Y171D01*
X403Y171D02*
X409Y171D01*
X1330Y171D02*
X1337Y171D01*
X0Y170D02*
X7Y170D01*
X46Y170D02*
X61Y170D01*
X270Y170D02*
X283Y170D01*
X302Y170D02*
X309Y170D01*
X353Y170D02*
X359Y170D01*
X369Y170D02*
X376Y170D01*
X403Y170D02*
X409Y170D01*
X1330Y170D02*
X1337Y170D01*
X0Y169D02*
X7Y169D01*
X47Y169D02*
X62Y169D01*
X270Y169D02*
X283Y169D01*
X302Y169D02*
X309Y169D01*
X353Y169D02*
X359Y169D01*
X370Y169D02*
X377Y169D01*
X403Y169D02*
X409Y169D01*
X1330Y169D02*
X1337Y169D01*
X0Y168D02*
X7Y168D01*
X47Y168D02*
X62Y168D01*
X270Y168D02*
X283Y168D01*
X302Y168D02*
X309Y168D01*
X353Y168D02*
X359Y168D01*
X370Y168D02*
X377Y168D01*
X403Y168D02*
X409Y168D01*
X1330Y168D02*
X1337Y168D01*
X0Y167D02*
X7Y167D01*
X48Y167D02*
X63Y167D01*
X270Y167D02*
X283Y167D01*
X302Y167D02*
X309Y167D01*
X353Y167D02*
X359Y167D01*
X371Y167D02*
X378Y167D01*
X403Y167D02*
X409Y167D01*
X1330Y167D02*
X1337Y167D01*
X0Y166D02*
X7Y166D01*
X48Y166D02*
X63Y166D01*
X270Y166D02*
X283Y166D01*
X302Y166D02*
X309Y166D01*
X353Y166D02*
X359Y166D01*
X371Y166D02*
X379Y166D01*
X403Y166D02*
X409Y166D01*
X1330Y166D02*
X1337Y166D01*
X0Y165D02*
X7Y165D01*
X49Y165D02*
X64Y165D01*
X270Y165D02*
X283Y165D01*
X302Y165D02*
X309Y165D01*
X353Y165D02*
X359Y165D01*
X372Y165D02*
X379Y165D01*
X403Y165D02*
X409Y165D01*
X1330Y165D02*
X1337Y165D01*
X0Y164D02*
X7Y164D01*
X49Y164D02*
X65Y164D01*
X270Y164D02*
X283Y164D01*
X302Y164D02*
X309Y164D01*
X353Y164D02*
X359Y164D01*
X373Y164D02*
X380Y164D01*
X403Y164D02*
X409Y164D01*
X1330Y164D02*
X1337Y164D01*
X0Y163D02*
X7Y163D01*
X50Y163D02*
X65Y163D01*
X270Y163D02*
X283Y163D01*
X302Y163D02*
X309Y163D01*
X353Y163D02*
X359Y163D01*
X373Y163D02*
X380Y163D01*
X403Y163D02*
X409Y163D01*
X1330Y163D02*
X1337Y163D01*
X0Y162D02*
X7Y162D01*
X51Y162D02*
X66Y162D01*
X270Y162D02*
X283Y162D01*
X302Y162D02*
X309Y162D01*
X353Y162D02*
X359Y162D01*
X374Y162D02*
X381Y162D01*
X403Y162D02*
X409Y162D01*
X1330Y162D02*
X1337Y162D01*
X0Y161D02*
X7Y161D01*
X51Y161D02*
X67Y161D01*
X270Y161D02*
X283Y161D01*
X302Y161D02*
X309Y161D01*
X353Y161D02*
X359Y161D01*
X374Y161D02*
X382Y161D01*
X403Y161D02*
X409Y161D01*
X1330Y161D02*
X1337Y161D01*
X0Y160D02*
X7Y160D01*
X52Y160D02*
X67Y160D01*
X270Y160D02*
X283Y160D01*
X302Y160D02*
X309Y160D01*
X353Y160D02*
X359Y160D01*
X375Y160D02*
X382Y160D01*
X403Y160D02*
X409Y160D01*
X1330Y160D02*
X1337Y160D01*
X0Y159D02*
X7Y159D01*
X52Y159D02*
X68Y159D01*
X270Y159D02*
X283Y159D01*
X302Y159D02*
X309Y159D01*
X353Y159D02*
X359Y159D01*
X376Y159D02*
X383Y159D01*
X403Y159D02*
X409Y159D01*
X1330Y159D02*
X1337Y159D01*
X0Y158D02*
X7Y158D01*
X53Y158D02*
X69Y158D01*
X270Y158D02*
X283Y158D01*
X302Y158D02*
X309Y158D01*
X353Y158D02*
X359Y158D01*
X376Y158D02*
X383Y158D01*
X403Y158D02*
X409Y158D01*
X1330Y158D02*
X1337Y158D01*
X0Y157D02*
X7Y157D01*
X54Y157D02*
X70Y157D01*
X270Y157D02*
X283Y157D01*
X302Y157D02*
X309Y157D01*
X353Y157D02*
X359Y157D01*
X377Y157D02*
X384Y157D01*
X403Y157D02*
X409Y157D01*
X1330Y157D02*
X1337Y157D01*
X0Y156D02*
X7Y156D01*
X54Y156D02*
X70Y156D01*
X270Y156D02*
X283Y156D01*
X302Y156D02*
X309Y156D01*
X353Y156D02*
X359Y156D01*
X377Y156D02*
X384Y156D01*
X403Y156D02*
X409Y156D01*
X1330Y156D02*
X1337Y156D01*
X0Y155D02*
X7Y155D01*
X55Y155D02*
X71Y155D01*
X270Y155D02*
X283Y155D01*
X302Y155D02*
X309Y155D01*
X353Y155D02*
X359Y155D01*
X378Y155D02*
X385Y155D01*
X403Y155D02*
X434Y155D01*
X1330Y155D02*
X1337Y155D01*
X0Y154D02*
X7Y154D01*
X56Y154D02*
X72Y154D01*
X270Y154D02*
X283Y154D01*
X302Y154D02*
X309Y154D01*
X353Y154D02*
X359Y154D01*
X378Y154D02*
X386Y154D01*
X403Y154D02*
X435Y154D01*
X1330Y154D02*
X1337Y154D01*
X0Y153D02*
X7Y153D01*
X56Y153D02*
X73Y153D01*
X270Y153D02*
X283Y153D01*
X302Y153D02*
X309Y153D01*
X353Y153D02*
X359Y153D01*
X379Y153D02*
X386Y153D01*
X403Y153D02*
X436Y153D01*
X1330Y153D02*
X1337Y153D01*
X0Y152D02*
X7Y152D01*
X57Y152D02*
X74Y152D01*
X270Y152D02*
X283Y152D01*
X302Y152D02*
X309Y152D01*
X353Y152D02*
X359Y152D01*
X380Y152D02*
X386Y152D01*
X403Y152D02*
X436Y152D01*
X1330Y152D02*
X1337Y152D01*
X0Y151D02*
X7Y151D01*
X58Y151D02*
X75Y151D01*
X270Y151D02*
X283Y151D01*
X302Y151D02*
X309Y151D01*
X353Y151D02*
X358Y151D01*
X380Y151D02*
X386Y151D01*
X403Y151D02*
X436Y151D01*
X1330Y151D02*
X1337Y151D01*
X0Y150D02*
X7Y150D01*
X58Y150D02*
X76Y150D01*
X270Y150D02*
X283Y150D01*
X302Y150D02*
X309Y150D01*
X353Y150D02*
X358Y150D01*
X381Y150D02*
X386Y150D01*
X403Y150D02*
X435Y150D01*
X1330Y150D02*
X1337Y150D01*
X0Y149D02*
X7Y149D01*
X59Y149D02*
X76Y149D01*
X270Y149D02*
X283Y149D01*
X302Y149D02*
X309Y149D01*
X354Y149D02*
X357Y149D01*
X382Y149D02*
X384Y149D01*
X403Y149D02*
X434Y149D01*
X1330Y149D02*
X1337Y149D01*
X0Y148D02*
X7Y148D01*
X60Y148D02*
X77Y148D01*
X270Y148D02*
X283Y148D01*
X302Y148D02*
X309Y148D01*
X1330Y148D02*
X1337Y148D01*
X0Y147D02*
X7Y147D01*
X61Y147D02*
X78Y147D01*
X270Y147D02*
X283Y147D01*
X302Y147D02*
X309Y147D01*
X1330Y147D02*
X1337Y147D01*
X0Y146D02*
X7Y146D01*
X62Y146D02*
X80Y146D01*
X270Y146D02*
X283Y146D01*
X302Y146D02*
X309Y146D01*
X1330Y146D02*
X1337Y146D01*
X0Y145D02*
X7Y145D01*
X62Y145D02*
X81Y145D01*
X270Y145D02*
X283Y145D01*
X302Y145D02*
X309Y145D01*
X1330Y145D02*
X1337Y145D01*
X0Y144D02*
X7Y144D01*
X63Y144D02*
X82Y144D01*
X270Y144D02*
X283Y144D01*
X302Y144D02*
X309Y144D01*
X1330Y144D02*
X1337Y144D01*
X0Y143D02*
X7Y143D01*
X64Y143D02*
X83Y143D01*
X270Y143D02*
X283Y143D01*
X302Y143D02*
X309Y143D01*
X1330Y143D02*
X1337Y143D01*
X0Y142D02*
X7Y142D01*
X65Y142D02*
X84Y142D01*
X270Y142D02*
X283Y142D01*
X302Y142D02*
X309Y142D01*
X1330Y142D02*
X1337Y142D01*
X0Y141D02*
X7Y141D01*
X66Y141D02*
X85Y141D01*
X270Y141D02*
X283Y141D01*
X302Y141D02*
X309Y141D01*
X1330Y141D02*
X1337Y141D01*
X0Y140D02*
X7Y140D01*
X67Y140D02*
X86Y140D01*
X270Y140D02*
X283Y140D01*
X302Y140D02*
X309Y140D01*
X1330Y140D02*
X1337Y140D01*
X0Y139D02*
X7Y139D01*
X68Y139D02*
X88Y139D01*
X270Y139D02*
X283Y139D01*
X302Y139D02*
X309Y139D01*
X1330Y139D02*
X1337Y139D01*
X0Y138D02*
X7Y138D01*
X69Y138D02*
X89Y138D01*
X270Y138D02*
X283Y138D01*
X302Y138D02*
X309Y138D01*
X1330Y138D02*
X1337Y138D01*
X0Y137D02*
X7Y137D01*
X70Y137D02*
X90Y137D01*
X270Y137D02*
X283Y137D01*
X302Y137D02*
X309Y137D01*
X1330Y137D02*
X1337Y137D01*
X0Y136D02*
X7Y136D01*
X71Y136D02*
X91Y136D01*
X270Y136D02*
X283Y136D01*
X302Y136D02*
X309Y136D01*
X1330Y136D02*
X1337Y136D01*
X0Y135D02*
X7Y135D01*
X72Y135D02*
X93Y135D01*
X270Y135D02*
X283Y135D01*
X302Y135D02*
X309Y135D01*
X1330Y135D02*
X1337Y135D01*
X0Y134D02*
X7Y134D01*
X73Y134D02*
X94Y134D01*
X270Y134D02*
X283Y134D01*
X302Y134D02*
X309Y134D01*
X1330Y134D02*
X1337Y134D01*
X0Y133D02*
X7Y133D01*
X74Y133D02*
X96Y133D01*
X270Y133D02*
X283Y133D01*
X302Y133D02*
X309Y133D01*
X1330Y133D02*
X1337Y133D01*
X0Y132D02*
X7Y132D01*
X75Y132D02*
X97Y132D01*
X270Y132D02*
X283Y132D01*
X302Y132D02*
X309Y132D01*
X1330Y132D02*
X1337Y132D01*
X0Y131D02*
X7Y131D01*
X76Y131D02*
X99Y131D01*
X270Y131D02*
X283Y131D01*
X302Y131D02*
X309Y131D01*
X1330Y131D02*
X1337Y131D01*
X0Y130D02*
X7Y130D01*
X78Y130D02*
X101Y130D01*
X270Y130D02*
X283Y130D01*
X302Y130D02*
X309Y130D01*
X1330Y130D02*
X1337Y130D01*
X0Y129D02*
X7Y129D01*
X79Y129D02*
X103Y129D01*
X270Y129D02*
X283Y129D01*
X302Y129D02*
X309Y129D01*
X1330Y129D02*
X1337Y129D01*
X0Y128D02*
X7Y128D01*
X80Y128D02*
X105Y128D01*
X270Y128D02*
X283Y128D01*
X302Y128D02*
X309Y128D01*
X1330Y128D02*
X1337Y128D01*
X0Y127D02*
X7Y127D01*
X81Y127D02*
X107Y127D01*
X270Y127D02*
X283Y127D01*
X302Y127D02*
X309Y127D01*
X1330Y127D02*
X1337Y127D01*
X0Y126D02*
X7Y126D01*
X83Y126D02*
X109Y126D01*
X270Y126D02*
X283Y126D01*
X302Y126D02*
X309Y126D01*
X1330Y126D02*
X1337Y126D01*
X0Y125D02*
X7Y125D01*
X84Y125D02*
X111Y125D01*
X270Y125D02*
X283Y125D01*
X302Y125D02*
X309Y125D01*
X1330Y125D02*
X1337Y125D01*
X0Y124D02*
X7Y124D01*
X86Y124D02*
X113Y124D01*
X270Y124D02*
X283Y124D01*
X302Y124D02*
X309Y124D01*
X1330Y124D02*
X1337Y124D01*
X0Y123D02*
X7Y123D01*
X87Y123D02*
X116Y123D01*
X270Y123D02*
X283Y123D01*
X302Y123D02*
X309Y123D01*
X1330Y123D02*
X1337Y123D01*
X0Y122D02*
X7Y122D01*
X89Y122D02*
X119Y122D01*
X270Y122D02*
X283Y122D01*
X302Y122D02*
X309Y122D01*
X1330Y122D02*
X1337Y122D01*
X0Y121D02*
X7Y121D01*
X90Y121D02*
X122Y121D01*
X270Y121D02*
X283Y121D01*
X302Y121D02*
X309Y121D01*
X1330Y121D02*
X1337Y121D01*
X0Y120D02*
X7Y120D01*
X92Y120D02*
X125Y120D01*
X270Y120D02*
X283Y120D01*
X302Y120D02*
X309Y120D01*
X1330Y120D02*
X1337Y120D01*
X0Y119D02*
X7Y119D01*
X93Y119D02*
X125Y119D01*
X270Y119D02*
X283Y119D01*
X302Y119D02*
X309Y119D01*
X1330Y119D02*
X1337Y119D01*
X0Y118D02*
X7Y118D01*
X95Y118D02*
X125Y118D01*
X270Y118D02*
X283Y118D01*
X302Y118D02*
X309Y118D01*
X1330Y118D02*
X1337Y118D01*
X0Y117D02*
X7Y117D01*
X97Y117D02*
X125Y117D01*
X270Y117D02*
X283Y117D01*
X302Y117D02*
X309Y117D01*
X1330Y117D02*
X1337Y117D01*
X0Y116D02*
X7Y116D01*
X99Y116D02*
X125Y116D01*
X270Y116D02*
X283Y116D01*
X302Y116D02*
X309Y116D01*
X1330Y116D02*
X1337Y116D01*
X0Y115D02*
X7Y115D01*
X101Y115D02*
X125Y115D01*
X270Y115D02*
X283Y115D01*
X302Y115D02*
X309Y115D01*
X1330Y115D02*
X1337Y115D01*
X0Y114D02*
X7Y114D01*
X103Y114D02*
X125Y114D01*
X270Y114D02*
X283Y114D01*
X302Y114D02*
X309Y114D01*
X1330Y114D02*
X1337Y114D01*
X0Y113D02*
X7Y113D01*
X105Y113D02*
X125Y113D01*
X270Y113D02*
X283Y113D01*
X302Y113D02*
X309Y113D01*
X1330Y113D02*
X1337Y113D01*
X0Y112D02*
X7Y112D01*
X107Y112D02*
X125Y112D01*
X270Y112D02*
X283Y112D01*
X302Y112D02*
X309Y112D01*
X1330Y112D02*
X1337Y112D01*
X0Y111D02*
X7Y111D01*
X110Y111D02*
X125Y111D01*
X270Y111D02*
X283Y111D01*
X302Y111D02*
X309Y111D01*
X1330Y111D02*
X1337Y111D01*
X0Y110D02*
X7Y110D01*
X112Y110D02*
X125Y110D01*
X270Y110D02*
X283Y110D01*
X302Y110D02*
X309Y110D01*
X1330Y110D02*
X1337Y110D01*
X0Y109D02*
X7Y109D01*
X112Y109D02*
X125Y109D01*
X270Y109D02*
X283Y109D01*
X302Y109D02*
X309Y109D01*
X1330Y109D02*
X1337Y109D01*
X0Y108D02*
X7Y108D01*
X112Y108D02*
X125Y108D01*
X270Y108D02*
X283Y108D01*
X302Y108D02*
X309Y108D01*
X1330Y108D02*
X1337Y108D01*
X0Y107D02*
X7Y107D01*
X112Y107D02*
X125Y107D01*
X270Y107D02*
X283Y107D01*
X302Y107D02*
X309Y107D01*
X1330Y107D02*
X1337Y107D01*
X0Y106D02*
X7Y106D01*
X112Y106D02*
X125Y106D01*
X270Y106D02*
X283Y106D01*
X302Y106D02*
X309Y106D01*
X1330Y106D02*
X1337Y106D01*
X0Y105D02*
X7Y105D01*
X112Y105D02*
X125Y105D01*
X270Y105D02*
X283Y105D01*
X302Y105D02*
X309Y105D01*
X1330Y105D02*
X1337Y105D01*
X0Y104D02*
X7Y104D01*
X112Y104D02*
X125Y104D01*
X270Y104D02*
X283Y104D01*
X302Y104D02*
X309Y104D01*
X1330Y104D02*
X1337Y104D01*
X0Y103D02*
X7Y103D01*
X112Y103D02*
X125Y103D01*
X270Y103D02*
X283Y103D01*
X302Y103D02*
X309Y103D01*
X1330Y103D02*
X1337Y103D01*
X0Y102D02*
X7Y102D01*
X112Y102D02*
X125Y102D01*
X270Y102D02*
X283Y102D01*
X302Y102D02*
X309Y102D01*
X1330Y102D02*
X1337Y102D01*
X0Y101D02*
X7Y101D01*
X112Y101D02*
X125Y101D01*
X270Y101D02*
X283Y101D01*
X302Y101D02*
X309Y101D01*
X1330Y101D02*
X1337Y101D01*
X0Y100D02*
X7Y100D01*
X112Y100D02*
X125Y100D01*
X270Y100D02*
X283Y100D01*
X302Y100D02*
X309Y100D01*
X1330Y100D02*
X1337Y100D01*
X0Y99D02*
X7Y99D01*
X112Y99D02*
X125Y99D01*
X270Y99D02*
X283Y99D01*
X302Y99D02*
X309Y99D01*
X1330Y99D02*
X1337Y99D01*
X0Y98D02*
X7Y98D01*
X112Y98D02*
X125Y98D01*
X270Y98D02*
X283Y98D01*
X302Y98D02*
X309Y98D01*
X1330Y98D02*
X1337Y98D01*
X0Y97D02*
X7Y97D01*
X112Y97D02*
X125Y97D01*
X270Y97D02*
X283Y97D01*
X302Y97D02*
X309Y97D01*
X1330Y97D02*
X1337Y97D01*
X0Y96D02*
X7Y96D01*
X112Y96D02*
X125Y96D01*
X270Y96D02*
X283Y96D01*
X302Y96D02*
X309Y96D01*
X1330Y96D02*
X1337Y96D01*
X0Y95D02*
X7Y95D01*
X112Y95D02*
X125Y95D01*
X270Y95D02*
X283Y95D01*
X302Y95D02*
X309Y95D01*
X1330Y95D02*
X1337Y95D01*
X0Y94D02*
X7Y94D01*
X112Y94D02*
X125Y94D01*
X270Y94D02*
X283Y94D01*
X302Y94D02*
X309Y94D01*
X1330Y94D02*
X1337Y94D01*
X0Y93D02*
X7Y93D01*
X112Y93D02*
X125Y93D01*
X270Y93D02*
X283Y93D01*
X302Y93D02*
X309Y93D01*
X1330Y93D02*
X1337Y93D01*
X0Y92D02*
X7Y92D01*
X112Y92D02*
X125Y92D01*
X270Y92D02*
X283Y92D01*
X302Y92D02*
X309Y92D01*
X1330Y92D02*
X1337Y92D01*
X0Y91D02*
X7Y91D01*
X112Y91D02*
X125Y91D01*
X270Y91D02*
X283Y91D01*
X302Y91D02*
X309Y91D01*
X1330Y91D02*
X1337Y91D01*
X0Y90D02*
X7Y90D01*
X112Y90D02*
X125Y90D01*
X270Y90D02*
X283Y90D01*
X302Y90D02*
X309Y90D01*
X1330Y90D02*
X1337Y90D01*
X0Y89D02*
X7Y89D01*
X112Y89D02*
X125Y89D01*
X270Y89D02*
X283Y89D01*
X302Y89D02*
X309Y89D01*
X1330Y89D02*
X1337Y89D01*
X0Y88D02*
X7Y88D01*
X112Y88D02*
X125Y88D01*
X270Y88D02*
X283Y88D01*
X302Y88D02*
X309Y88D01*
X1330Y88D02*
X1337Y88D01*
X0Y87D02*
X7Y87D01*
X112Y87D02*
X125Y87D01*
X270Y87D02*
X283Y87D01*
X302Y87D02*
X309Y87D01*
X1330Y87D02*
X1337Y87D01*
X0Y86D02*
X7Y86D01*
X112Y86D02*
X125Y86D01*
X270Y86D02*
X283Y86D01*
X302Y86D02*
X309Y86D01*
X1330Y86D02*
X1337Y86D01*
X0Y85D02*
X7Y85D01*
X112Y85D02*
X125Y85D01*
X270Y85D02*
X283Y85D01*
X302Y85D02*
X309Y85D01*
X1330Y85D02*
X1337Y85D01*
X0Y84D02*
X7Y84D01*
X112Y84D02*
X125Y84D01*
X270Y84D02*
X283Y84D01*
X302Y84D02*
X309Y84D01*
X1330Y84D02*
X1337Y84D01*
X0Y83D02*
X7Y83D01*
X112Y83D02*
X125Y83D01*
X270Y83D02*
X283Y83D01*
X302Y83D02*
X309Y83D01*
X1330Y83D02*
X1337Y83D01*
X0Y82D02*
X7Y82D01*
X112Y82D02*
X125Y82D01*
X270Y82D02*
X283Y82D01*
X302Y82D02*
X309Y82D01*
X1330Y82D02*
X1337Y82D01*
X0Y81D02*
X7Y81D01*
X112Y81D02*
X125Y81D01*
X270Y81D02*
X283Y81D01*
X302Y81D02*
X309Y81D01*
X1330Y81D02*
X1337Y81D01*
X0Y80D02*
X7Y80D01*
X112Y80D02*
X125Y80D01*
X270Y80D02*
X283Y80D01*
X302Y80D02*
X309Y80D01*
X1330Y80D02*
X1337Y80D01*
X0Y79D02*
X7Y79D01*
X112Y79D02*
X125Y79D01*
X270Y79D02*
X283Y79D01*
X302Y79D02*
X309Y79D01*
X1330Y79D02*
X1337Y79D01*
X0Y78D02*
X7Y78D01*
X112Y78D02*
X125Y78D01*
X270Y78D02*
X283Y78D01*
X302Y78D02*
X309Y78D01*
X1330Y78D02*
X1337Y78D01*
X0Y77D02*
X7Y77D01*
X112Y77D02*
X125Y77D01*
X270Y77D02*
X283Y77D01*
X302Y77D02*
X309Y77D01*
X1330Y77D02*
X1337Y77D01*
X0Y76D02*
X7Y76D01*
X112Y76D02*
X125Y76D01*
X270Y76D02*
X283Y76D01*
X302Y76D02*
X309Y76D01*
X1330Y76D02*
X1337Y76D01*
X0Y75D02*
X7Y75D01*
X112Y75D02*
X125Y75D01*
X270Y75D02*
X283Y75D01*
X302Y75D02*
X309Y75D01*
X1330Y75D02*
X1337Y75D01*
X0Y74D02*
X7Y74D01*
X112Y74D02*
X125Y74D01*
X270Y74D02*
X283Y74D01*
X302Y74D02*
X309Y74D01*
X1330Y74D02*
X1337Y74D01*
X0Y73D02*
X7Y73D01*
X112Y73D02*
X125Y73D01*
X270Y73D02*
X283Y73D01*
X302Y73D02*
X309Y73D01*
X1330Y73D02*
X1337Y73D01*
X0Y72D02*
X7Y72D01*
X112Y72D02*
X125Y72D01*
X270Y72D02*
X283Y72D01*
X302Y72D02*
X309Y72D01*
X1330Y72D02*
X1337Y72D01*
X0Y71D02*
X7Y71D01*
X112Y71D02*
X125Y71D01*
X270Y71D02*
X283Y71D01*
X302Y71D02*
X309Y71D01*
X1330Y71D02*
X1337Y71D01*
X0Y70D02*
X7Y70D01*
X112Y70D02*
X125Y70D01*
X270Y70D02*
X283Y70D01*
X302Y70D02*
X309Y70D01*
X1330Y70D02*
X1337Y70D01*
X0Y69D02*
X7Y69D01*
X112Y69D02*
X125Y69D01*
X270Y69D02*
X283Y69D01*
X302Y69D02*
X309Y69D01*
X1330Y69D02*
X1337Y69D01*
X0Y68D02*
X7Y68D01*
X112Y68D02*
X125Y68D01*
X270Y68D02*
X283Y68D01*
X302Y68D02*
X309Y68D01*
X1330Y68D02*
X1337Y68D01*
X0Y67D02*
X7Y67D01*
X112Y67D02*
X125Y67D01*
X270Y67D02*
X283Y67D01*
X302Y67D02*
X309Y67D01*
X1330Y67D02*
X1337Y67D01*
X0Y66D02*
X7Y66D01*
X112Y66D02*
X125Y66D01*
X270Y66D02*
X283Y66D01*
X302Y66D02*
X309Y66D01*
X1330Y66D02*
X1337Y66D01*
X0Y65D02*
X7Y65D01*
X112Y65D02*
X125Y65D01*
X270Y65D02*
X283Y65D01*
X302Y65D02*
X309Y65D01*
X1330Y65D02*
X1337Y65D01*
X0Y64D02*
X7Y64D01*
X112Y64D02*
X125Y64D01*
X270Y64D02*
X283Y64D01*
X302Y64D02*
X309Y64D01*
X1330Y64D02*
X1337Y64D01*
X0Y63D02*
X7Y63D01*
X112Y63D02*
X125Y63D01*
X270Y63D02*
X283Y63D01*
X302Y63D02*
X309Y63D01*
X1330Y63D02*
X1337Y63D01*
X0Y62D02*
X7Y62D01*
X112Y62D02*
X125Y62D01*
X270Y62D02*
X283Y62D01*
X302Y62D02*
X309Y62D01*
X1330Y62D02*
X1337Y62D01*
X0Y61D02*
X7Y61D01*
X112Y61D02*
X125Y61D01*
X270Y61D02*
X283Y61D01*
X302Y61D02*
X309Y61D01*
X1330Y61D02*
X1337Y61D01*
X0Y60D02*
X7Y60D01*
X112Y60D02*
X125Y60D01*
X270Y60D02*
X283Y60D01*
X302Y60D02*
X309Y60D01*
X1330Y60D02*
X1337Y60D01*
X0Y59D02*
X7Y59D01*
X112Y59D02*
X125Y59D01*
X270Y59D02*
X283Y59D01*
X302Y59D02*
X309Y59D01*
X1330Y59D02*
X1337Y59D01*
X0Y58D02*
X7Y58D01*
X112Y58D02*
X125Y58D01*
X270Y58D02*
X283Y58D01*
X302Y58D02*
X309Y58D01*
X1330Y58D02*
X1337Y58D01*
X0Y57D02*
X7Y57D01*
X112Y57D02*
X125Y57D01*
X270Y57D02*
X283Y57D01*
X302Y57D02*
X309Y57D01*
X1330Y57D02*
X1337Y57D01*
X0Y56D02*
X7Y56D01*
X112Y56D02*
X125Y56D01*
X270Y56D02*
X283Y56D01*
X302Y56D02*
X309Y56D01*
X1330Y56D02*
X1337Y56D01*
X0Y55D02*
X7Y55D01*
X112Y55D02*
X125Y55D01*
X270Y55D02*
X283Y55D01*
X302Y55D02*
X309Y55D01*
X1330Y55D02*
X1337Y55D01*
X0Y54D02*
X7Y54D01*
X112Y54D02*
X125Y54D01*
X270Y54D02*
X283Y54D01*
X302Y54D02*
X309Y54D01*
X1330Y54D02*
X1337Y54D01*
X0Y53D02*
X7Y53D01*
X112Y53D02*
X125Y53D01*
X270Y53D02*
X283Y53D01*
X302Y53D02*
X309Y53D01*
X1330Y53D02*
X1337Y53D01*
X0Y52D02*
X7Y52D01*
X112Y52D02*
X125Y52D01*
X270Y52D02*
X283Y52D01*
X302Y52D02*
X309Y52D01*
X1330Y52D02*
X1337Y52D01*
X0Y51D02*
X7Y51D01*
X112Y51D02*
X125Y51D01*
X270Y51D02*
X283Y51D01*
X302Y51D02*
X309Y51D01*
X1330Y51D02*
X1337Y51D01*
X0Y50D02*
X7Y50D01*
X112Y50D02*
X125Y50D01*
X270Y50D02*
X283Y50D01*
X302Y50D02*
X309Y50D01*
X1330Y50D02*
X1337Y50D01*
X0Y49D02*
X7Y49D01*
X112Y49D02*
X125Y49D01*
X270Y49D02*
X283Y49D01*
X302Y49D02*
X309Y49D01*
X1330Y49D02*
X1337Y49D01*
X0Y48D02*
X7Y48D01*
X112Y48D02*
X125Y48D01*
X270Y48D02*
X283Y48D01*
X302Y48D02*
X309Y48D01*
X1330Y48D02*
X1337Y48D01*
X0Y47D02*
X7Y47D01*
X112Y47D02*
X125Y47D01*
X270Y47D02*
X283Y47D01*
X302Y47D02*
X309Y47D01*
X1330Y47D02*
X1337Y47D01*
X0Y46D02*
X7Y46D01*
X112Y46D02*
X125Y46D01*
X270Y46D02*
X283Y46D01*
X302Y46D02*
X309Y46D01*
X1330Y46D02*
X1337Y46D01*
X0Y45D02*
X7Y45D01*
X112Y45D02*
X125Y45D01*
X270Y45D02*
X283Y45D01*
X302Y45D02*
X309Y45D01*
X1330Y45D02*
X1337Y45D01*
X0Y44D02*
X7Y44D01*
X112Y44D02*
X125Y44D01*
X270Y44D02*
X283Y44D01*
X302Y44D02*
X309Y44D01*
X1330Y44D02*
X1337Y44D01*
X0Y43D02*
X7Y43D01*
X112Y43D02*
X182Y43D01*
X213Y43D02*
X326Y43D01*
X1330Y43D02*
X1337Y43D01*
X0Y42D02*
X7Y42D01*
X112Y42D02*
X185Y42D01*
X210Y42D02*
X327Y42D01*
X1330Y42D02*
X1337Y42D01*
X0Y41D02*
X7Y41D01*
X112Y41D02*
X188Y41D01*
X207Y41D02*
X328Y41D01*
X1330Y41D02*
X1337Y41D01*
X0Y40D02*
X7Y40D01*
X112Y40D02*
X193Y40D01*
X201Y40D02*
X329Y40D01*
X1330Y40D02*
X1337Y40D01*
X0Y39D02*
X7Y39D01*
X112Y39D02*
X331Y39D01*
X1330Y39D02*
X1337Y39D01*
X0Y38D02*
X7Y38D01*
X112Y38D02*
X331Y38D01*
X1330Y38D02*
X1337Y38D01*
X0Y37D02*
X7Y37D01*
X112Y37D02*
X331Y37D01*
X1330Y37D02*
X1337Y37D01*
X0Y36D02*
X7Y36D01*
X112Y36D02*
X331Y36D01*
X1330Y36D02*
X1337Y36D01*
X0Y35D02*
X7Y35D01*
X112Y35D02*
X331Y35D01*
X1330Y35D02*
X1337Y35D01*
X0Y34D02*
X7Y34D01*
X112Y34D02*
X331Y34D01*
X1330Y34D02*
X1337Y34D01*
X0Y33D02*
X7Y33D01*
X112Y33D02*
X331Y33D01*
X1330Y33D02*
X1337Y33D01*
X0Y32D02*
X7Y32D01*
X112Y32D02*
X331Y32D01*
X1330Y32D02*
X1337Y32D01*
X0Y31D02*
X7Y31D01*
X112Y31D02*
X331Y31D01*
X1330Y31D02*
X1337Y31D01*
X0Y30D02*
X7Y30D01*
X112Y30D02*
X331Y30D01*
X1330Y30D02*
X1337Y30D01*
X0Y29D02*
X7Y29D01*
X302Y29D02*
X309Y29D01*
X1330Y29D02*
X1337Y29D01*
X0Y28D02*
X7Y28D01*
X302Y28D02*
X309Y28D01*
X1330Y28D02*
X1337Y28D01*
X0Y27D02*
X7Y27D01*
X302Y27D02*
X309Y27D01*
X1330Y27D02*
X1337Y27D01*
X0Y26D02*
X7Y26D01*
X302Y26D02*
X309Y26D01*
X1330Y26D02*
X1337Y26D01*
X0Y25D02*
X7Y25D01*
X0Y24D02*
X7Y24D01*
X0Y23D02*
X7Y23D01*
X0Y22D02*
X7Y22D01*
X0Y21D02*
X7Y21D01*
X0Y20D02*
X7Y20D01*
X0Y19D02*
X7Y19D01*
X0Y18D02*
X7Y18D01*
X0Y17D02*
X7Y17D01*
X1330Y17D02*
X1337Y17D01*
X0Y16D02*
X7Y16D01*
X1330Y16D02*
X1337Y16D01*
X0Y15D02*
X7Y15D01*
X1330Y15D02*
X1337Y15D01*
X0Y14D02*
X7Y14D01*
X1330Y14D02*
X1337Y14D01*
X0Y13D02*
X7Y13D01*
X1330Y13D02*
X1337Y13D01*
X0Y12D02*
X7Y12D01*
X1330Y12D02*
X1337Y12D01*
X0Y11D02*
X7Y11D01*
X1330Y11D02*
X1337Y11D01*
X0Y10D02*
X7Y10D01*
X1330Y10D02*
X1337Y10D01*
X0Y9D02*
X7Y9D01*
X1330Y9D02*
X1337Y9D01*
X0Y8D02*
X1337Y8D01*
X0Y7D02*
X1337Y7D01*
X0Y6D02*
X1337Y6D01*
X0Y5D02*
X1337Y5D01*
X0Y4D02*
X1337Y4D01*
X0Y3D02*
X1337Y3D01*
X0Y2D02*
X1337Y2D01*
X0Y1D02*
X1337Y1D01*
D02*
G04 End of Silk1*
M02*