G04 MADE WITH FRITZING*
G04 WWW.FRITZING.ORG*
G04 DOUBLE SIDED*
G04 HOLES PLATED*
G04 CONTOUR ON CENTER OF CONTOUR VECTOR*
%ASAXBY*%
%FSLAX23Y23*%
%MOIN*%
%OFA0B0*%
%SFA1.0B1.0*%
%ADD10C,0.075000*%
%ADD11C,0.062992*%
%ADD12C,0.075334*%
%ADD13R,0.062992X0.062992*%
%LNCOPPER1*%
G90*
G70*
G54D10*
X1015Y359D03*
G54D11*
X135Y338D03*
X135Y239D03*
X135Y338D03*
X135Y239D03*
G54D10*
X935Y285D03*
X535Y285D03*
X935Y285D03*
X535Y285D03*
G54D12*
X593Y476D03*
X693Y476D03*
X793Y476D03*
X893Y476D03*
X993Y476D03*
X1093Y476D03*
X1193Y476D03*
X1293Y476D03*
X693Y76D03*
X793Y76D03*
X893Y76D03*
X993Y76D03*
X1093Y76D03*
X1193Y76D03*
X1293Y76D03*
X593Y76D03*
X493Y476D03*
X492Y76D03*
X393Y476D03*
X393Y76D03*
G54D13*
X135Y338D03*
X135Y338D03*
G36*
X40Y511D02*
X40Y427D01*
X392Y427D01*
X392Y429D01*
X382Y429D01*
X382Y431D01*
X376Y431D01*
X376Y433D01*
X372Y433D01*
X372Y435D01*
X370Y435D01*
X370Y437D01*
X366Y437D01*
X366Y439D01*
X364Y439D01*
X364Y441D01*
X362Y441D01*
X362Y443D01*
X360Y443D01*
X360Y445D01*
X358Y445D01*
X358Y447D01*
X356Y447D01*
X356Y449D01*
X354Y449D01*
X354Y453D01*
X352Y453D01*
X352Y455D01*
X350Y455D01*
X350Y461D01*
X348Y461D01*
X348Y465D01*
X346Y465D01*
X346Y485D01*
X348Y485D01*
X348Y491D01*
X350Y491D01*
X350Y511D01*
X40Y511D01*
G37*
D02*
G36*
X434Y453D02*
X434Y451D01*
X432Y451D01*
X432Y449D01*
X430Y449D01*
X430Y447D01*
X428Y447D01*
X428Y445D01*
X426Y445D01*
X426Y443D01*
X424Y443D01*
X424Y441D01*
X422Y441D01*
X422Y439D01*
X420Y439D01*
X420Y437D01*
X418Y437D01*
X418Y435D01*
X414Y435D01*
X414Y433D01*
X410Y433D01*
X410Y431D01*
X404Y431D01*
X404Y429D01*
X394Y429D01*
X394Y427D01*
X492Y427D01*
X492Y429D01*
X482Y429D01*
X482Y431D01*
X476Y431D01*
X476Y433D01*
X472Y433D01*
X472Y435D01*
X470Y435D01*
X470Y437D01*
X466Y437D01*
X466Y439D01*
X464Y439D01*
X464Y441D01*
X462Y441D01*
X462Y443D01*
X460Y443D01*
X460Y445D01*
X458Y445D01*
X458Y447D01*
X456Y447D01*
X456Y449D01*
X454Y449D01*
X454Y453D01*
X434Y453D01*
G37*
D02*
G36*
X534Y453D02*
X534Y451D01*
X532Y451D01*
X532Y449D01*
X530Y449D01*
X530Y447D01*
X528Y447D01*
X528Y445D01*
X526Y445D01*
X526Y443D01*
X524Y443D01*
X524Y441D01*
X522Y441D01*
X522Y439D01*
X520Y439D01*
X520Y437D01*
X518Y437D01*
X518Y435D01*
X514Y435D01*
X514Y433D01*
X510Y433D01*
X510Y431D01*
X504Y431D01*
X504Y429D01*
X494Y429D01*
X494Y427D01*
X592Y427D01*
X592Y429D01*
X582Y429D01*
X582Y431D01*
X576Y431D01*
X576Y433D01*
X572Y433D01*
X572Y435D01*
X570Y435D01*
X570Y437D01*
X566Y437D01*
X566Y439D01*
X564Y439D01*
X564Y441D01*
X562Y441D01*
X562Y443D01*
X560Y443D01*
X560Y445D01*
X558Y445D01*
X558Y447D01*
X556Y447D01*
X556Y449D01*
X554Y449D01*
X554Y453D01*
X534Y453D01*
G37*
D02*
G36*
X634Y453D02*
X634Y451D01*
X632Y451D01*
X632Y449D01*
X630Y449D01*
X630Y447D01*
X628Y447D01*
X628Y445D01*
X626Y445D01*
X626Y443D01*
X624Y443D01*
X624Y441D01*
X622Y441D01*
X622Y439D01*
X620Y439D01*
X620Y437D01*
X618Y437D01*
X618Y435D01*
X614Y435D01*
X614Y433D01*
X610Y433D01*
X610Y431D01*
X604Y431D01*
X604Y429D01*
X594Y429D01*
X594Y427D01*
X692Y427D01*
X692Y429D01*
X682Y429D01*
X682Y431D01*
X676Y431D01*
X676Y433D01*
X672Y433D01*
X672Y435D01*
X670Y435D01*
X670Y437D01*
X666Y437D01*
X666Y439D01*
X664Y439D01*
X664Y441D01*
X662Y441D01*
X662Y443D01*
X660Y443D01*
X660Y445D01*
X658Y445D01*
X658Y447D01*
X656Y447D01*
X656Y449D01*
X654Y449D01*
X654Y453D01*
X634Y453D01*
G37*
D02*
G36*
X734Y453D02*
X734Y451D01*
X732Y451D01*
X732Y449D01*
X730Y449D01*
X730Y447D01*
X728Y447D01*
X728Y445D01*
X726Y445D01*
X726Y443D01*
X724Y443D01*
X724Y441D01*
X722Y441D01*
X722Y439D01*
X720Y439D01*
X720Y437D01*
X718Y437D01*
X718Y435D01*
X714Y435D01*
X714Y433D01*
X710Y433D01*
X710Y431D01*
X704Y431D01*
X704Y429D01*
X694Y429D01*
X694Y427D01*
X792Y427D01*
X792Y429D01*
X782Y429D01*
X782Y431D01*
X776Y431D01*
X776Y433D01*
X772Y433D01*
X772Y435D01*
X770Y435D01*
X770Y437D01*
X766Y437D01*
X766Y439D01*
X764Y439D01*
X764Y441D01*
X762Y441D01*
X762Y443D01*
X760Y443D01*
X760Y445D01*
X758Y445D01*
X758Y447D01*
X756Y447D01*
X756Y449D01*
X754Y449D01*
X754Y453D01*
X734Y453D01*
G37*
D02*
G36*
X834Y453D02*
X834Y451D01*
X832Y451D01*
X832Y449D01*
X830Y449D01*
X830Y447D01*
X828Y447D01*
X828Y445D01*
X826Y445D01*
X826Y443D01*
X824Y443D01*
X824Y441D01*
X822Y441D01*
X822Y439D01*
X820Y439D01*
X820Y437D01*
X818Y437D01*
X818Y435D01*
X814Y435D01*
X814Y433D01*
X810Y433D01*
X810Y431D01*
X804Y431D01*
X804Y429D01*
X794Y429D01*
X794Y427D01*
X892Y427D01*
X892Y429D01*
X882Y429D01*
X882Y431D01*
X876Y431D01*
X876Y433D01*
X872Y433D01*
X872Y435D01*
X870Y435D01*
X870Y437D01*
X866Y437D01*
X866Y439D01*
X864Y439D01*
X864Y441D01*
X862Y441D01*
X862Y443D01*
X860Y443D01*
X860Y445D01*
X858Y445D01*
X858Y447D01*
X856Y447D01*
X856Y449D01*
X854Y449D01*
X854Y453D01*
X834Y453D01*
G37*
D02*
G36*
X934Y453D02*
X934Y451D01*
X932Y451D01*
X932Y449D01*
X930Y449D01*
X930Y447D01*
X928Y447D01*
X928Y445D01*
X926Y445D01*
X926Y443D01*
X924Y443D01*
X924Y441D01*
X922Y441D01*
X922Y439D01*
X920Y439D01*
X920Y437D01*
X918Y437D01*
X918Y435D01*
X914Y435D01*
X914Y433D01*
X910Y433D01*
X910Y431D01*
X904Y431D01*
X904Y429D01*
X894Y429D01*
X894Y427D01*
X992Y427D01*
X992Y429D01*
X982Y429D01*
X982Y431D01*
X976Y431D01*
X976Y433D01*
X972Y433D01*
X972Y435D01*
X970Y435D01*
X970Y437D01*
X966Y437D01*
X966Y439D01*
X964Y439D01*
X964Y441D01*
X962Y441D01*
X962Y443D01*
X960Y443D01*
X960Y445D01*
X958Y445D01*
X958Y447D01*
X956Y447D01*
X956Y449D01*
X954Y449D01*
X954Y453D01*
X934Y453D01*
G37*
D02*
G36*
X1034Y453D02*
X1034Y451D01*
X1032Y451D01*
X1032Y449D01*
X1030Y449D01*
X1030Y447D01*
X1028Y447D01*
X1028Y445D01*
X1026Y445D01*
X1026Y443D01*
X1024Y443D01*
X1024Y441D01*
X1022Y441D01*
X1022Y439D01*
X1020Y439D01*
X1020Y437D01*
X1018Y437D01*
X1018Y435D01*
X1014Y435D01*
X1014Y433D01*
X1010Y433D01*
X1010Y431D01*
X1004Y431D01*
X1004Y429D01*
X994Y429D01*
X994Y427D01*
X1092Y427D01*
X1092Y429D01*
X1082Y429D01*
X1082Y431D01*
X1076Y431D01*
X1076Y433D01*
X1072Y433D01*
X1072Y435D01*
X1070Y435D01*
X1070Y437D01*
X1066Y437D01*
X1066Y439D01*
X1064Y439D01*
X1064Y441D01*
X1062Y441D01*
X1062Y443D01*
X1060Y443D01*
X1060Y445D01*
X1058Y445D01*
X1058Y447D01*
X1056Y447D01*
X1056Y449D01*
X1054Y449D01*
X1054Y453D01*
X1034Y453D01*
G37*
D02*
G36*
X1134Y453D02*
X1134Y451D01*
X1132Y451D01*
X1132Y449D01*
X1130Y449D01*
X1130Y447D01*
X1128Y447D01*
X1128Y445D01*
X1126Y445D01*
X1126Y443D01*
X1124Y443D01*
X1124Y441D01*
X1122Y441D01*
X1122Y439D01*
X1120Y439D01*
X1120Y437D01*
X1118Y437D01*
X1118Y435D01*
X1114Y435D01*
X1114Y433D01*
X1110Y433D01*
X1110Y431D01*
X1104Y431D01*
X1104Y429D01*
X1094Y429D01*
X1094Y427D01*
X1192Y427D01*
X1192Y429D01*
X1182Y429D01*
X1182Y431D01*
X1176Y431D01*
X1176Y433D01*
X1172Y433D01*
X1172Y435D01*
X1170Y435D01*
X1170Y437D01*
X1166Y437D01*
X1166Y439D01*
X1164Y439D01*
X1164Y441D01*
X1162Y441D01*
X1162Y443D01*
X1160Y443D01*
X1160Y445D01*
X1158Y445D01*
X1158Y447D01*
X1156Y447D01*
X1156Y449D01*
X1154Y449D01*
X1154Y453D01*
X1134Y453D01*
G37*
D02*
G36*
X1234Y453D02*
X1234Y451D01*
X1232Y451D01*
X1232Y449D01*
X1230Y449D01*
X1230Y447D01*
X1228Y447D01*
X1228Y445D01*
X1226Y445D01*
X1226Y443D01*
X1224Y443D01*
X1224Y441D01*
X1222Y441D01*
X1222Y439D01*
X1220Y439D01*
X1220Y437D01*
X1218Y437D01*
X1218Y435D01*
X1214Y435D01*
X1214Y433D01*
X1210Y433D01*
X1210Y431D01*
X1204Y431D01*
X1204Y429D01*
X1194Y429D01*
X1194Y427D01*
X1292Y427D01*
X1292Y429D01*
X1282Y429D01*
X1282Y431D01*
X1276Y431D01*
X1276Y433D01*
X1272Y433D01*
X1272Y435D01*
X1270Y435D01*
X1270Y437D01*
X1266Y437D01*
X1266Y439D01*
X1264Y439D01*
X1264Y441D01*
X1262Y441D01*
X1262Y443D01*
X1260Y443D01*
X1260Y445D01*
X1258Y445D01*
X1258Y447D01*
X1256Y447D01*
X1256Y449D01*
X1254Y449D01*
X1254Y453D01*
X1234Y453D01*
G37*
D02*
G36*
X1314Y435D02*
X1314Y433D01*
X1310Y433D01*
X1310Y431D01*
X1304Y431D01*
X1304Y429D01*
X1294Y429D01*
X1294Y427D01*
X1336Y427D01*
X1336Y435D01*
X1314Y435D01*
G37*
D02*
G36*
X40Y427D02*
X40Y425D01*
X1336Y425D01*
X1336Y427D01*
X40Y427D01*
G37*
D02*
G36*
X40Y427D02*
X40Y425D01*
X1336Y425D01*
X1336Y427D01*
X40Y427D01*
G37*
D02*
G36*
X40Y427D02*
X40Y425D01*
X1336Y425D01*
X1336Y427D01*
X40Y427D01*
G37*
D02*
G36*
X40Y427D02*
X40Y425D01*
X1336Y425D01*
X1336Y427D01*
X40Y427D01*
G37*
D02*
G36*
X40Y427D02*
X40Y425D01*
X1336Y425D01*
X1336Y427D01*
X40Y427D01*
G37*
D02*
G36*
X40Y427D02*
X40Y425D01*
X1336Y425D01*
X1336Y427D01*
X40Y427D01*
G37*
D02*
G36*
X40Y427D02*
X40Y425D01*
X1336Y425D01*
X1336Y427D01*
X40Y427D01*
G37*
D02*
G36*
X40Y427D02*
X40Y425D01*
X1336Y425D01*
X1336Y427D01*
X40Y427D01*
G37*
D02*
G36*
X40Y427D02*
X40Y425D01*
X1336Y425D01*
X1336Y427D01*
X40Y427D01*
G37*
D02*
G36*
X40Y427D02*
X40Y425D01*
X1336Y425D01*
X1336Y427D01*
X40Y427D01*
G37*
D02*
G36*
X40Y427D02*
X40Y425D01*
X1336Y425D01*
X1336Y427D01*
X40Y427D01*
G37*
D02*
G36*
X40Y425D02*
X40Y379D01*
X176Y379D01*
X176Y331D01*
X946Y331D01*
X946Y329D01*
X952Y329D01*
X952Y327D01*
X956Y327D01*
X956Y325D01*
X958Y325D01*
X958Y323D01*
X962Y323D01*
X962Y321D01*
X964Y321D01*
X964Y319D01*
X966Y319D01*
X966Y317D01*
X968Y317D01*
X968Y315D01*
X970Y315D01*
X970Y313D01*
X972Y313D01*
X972Y311D01*
X974Y311D01*
X974Y307D01*
X976Y307D01*
X976Y305D01*
X978Y305D01*
X978Y301D01*
X980Y301D01*
X980Y295D01*
X982Y295D01*
X982Y275D01*
X980Y275D01*
X980Y269D01*
X978Y269D01*
X978Y265D01*
X976Y265D01*
X976Y261D01*
X974Y261D01*
X974Y259D01*
X972Y259D01*
X972Y255D01*
X970Y255D01*
X970Y253D01*
X968Y253D01*
X968Y251D01*
X966Y251D01*
X966Y249D01*
X962Y249D01*
X962Y247D01*
X960Y247D01*
X960Y245D01*
X958Y245D01*
X958Y243D01*
X954Y243D01*
X954Y241D01*
X950Y241D01*
X950Y239D01*
X944Y239D01*
X944Y237D01*
X1336Y237D01*
X1336Y425D01*
X40Y425D01*
G37*
D02*
G36*
X40Y379D02*
X40Y197D01*
X130Y197D01*
X130Y199D01*
X122Y199D01*
X122Y201D01*
X118Y201D01*
X118Y203D01*
X114Y203D01*
X114Y205D01*
X112Y205D01*
X112Y207D01*
X110Y207D01*
X110Y209D01*
X108Y209D01*
X108Y211D01*
X106Y211D01*
X106Y213D01*
X104Y213D01*
X104Y215D01*
X102Y215D01*
X102Y217D01*
X100Y217D01*
X100Y221D01*
X98Y221D01*
X98Y225D01*
X96Y225D01*
X96Y229D01*
X94Y229D01*
X94Y247D01*
X96Y247D01*
X96Y253D01*
X98Y253D01*
X98Y257D01*
X100Y257D01*
X100Y261D01*
X102Y261D01*
X102Y263D01*
X104Y263D01*
X104Y265D01*
X106Y265D01*
X106Y267D01*
X108Y267D01*
X108Y269D01*
X110Y269D01*
X110Y271D01*
X112Y271D01*
X112Y273D01*
X116Y273D01*
X116Y275D01*
X118Y275D01*
X118Y295D01*
X94Y295D01*
X94Y379D01*
X40Y379D01*
G37*
D02*
G36*
X176Y331D02*
X176Y295D01*
X152Y295D01*
X152Y275D01*
X154Y275D01*
X154Y273D01*
X158Y273D01*
X158Y271D01*
X160Y271D01*
X160Y269D01*
X162Y269D01*
X162Y267D01*
X164Y267D01*
X164Y265D01*
X166Y265D01*
X166Y263D01*
X168Y263D01*
X168Y261D01*
X170Y261D01*
X170Y257D01*
X172Y257D01*
X172Y253D01*
X174Y253D01*
X174Y249D01*
X176Y249D01*
X176Y237D01*
X526Y237D01*
X526Y239D01*
X520Y239D01*
X520Y241D01*
X516Y241D01*
X516Y243D01*
X512Y243D01*
X512Y245D01*
X510Y245D01*
X510Y247D01*
X508Y247D01*
X508Y249D01*
X504Y249D01*
X504Y251D01*
X502Y251D01*
X502Y253D01*
X500Y253D01*
X500Y257D01*
X498Y257D01*
X498Y259D01*
X496Y259D01*
X496Y261D01*
X494Y261D01*
X494Y265D01*
X492Y265D01*
X492Y269D01*
X490Y269D01*
X490Y275D01*
X488Y275D01*
X488Y295D01*
X490Y295D01*
X490Y299D01*
X492Y299D01*
X492Y305D01*
X494Y305D01*
X494Y307D01*
X496Y307D01*
X496Y311D01*
X498Y311D01*
X498Y313D01*
X500Y313D01*
X500Y315D01*
X502Y315D01*
X502Y317D01*
X504Y317D01*
X504Y319D01*
X506Y319D01*
X506Y321D01*
X508Y321D01*
X508Y323D01*
X512Y323D01*
X512Y325D01*
X514Y325D01*
X514Y327D01*
X518Y327D01*
X518Y329D01*
X524Y329D01*
X524Y331D01*
X176Y331D01*
G37*
D02*
G36*
X546Y331D02*
X546Y329D01*
X552Y329D01*
X552Y327D01*
X556Y327D01*
X556Y325D01*
X558Y325D01*
X558Y323D01*
X562Y323D01*
X562Y321D01*
X564Y321D01*
X564Y319D01*
X566Y319D01*
X566Y317D01*
X568Y317D01*
X568Y315D01*
X570Y315D01*
X570Y313D01*
X572Y313D01*
X572Y311D01*
X574Y311D01*
X574Y307D01*
X576Y307D01*
X576Y305D01*
X578Y305D01*
X578Y301D01*
X580Y301D01*
X580Y295D01*
X582Y295D01*
X582Y275D01*
X580Y275D01*
X580Y269D01*
X578Y269D01*
X578Y265D01*
X576Y265D01*
X576Y261D01*
X574Y261D01*
X574Y259D01*
X572Y259D01*
X572Y255D01*
X570Y255D01*
X570Y253D01*
X568Y253D01*
X568Y251D01*
X566Y251D01*
X566Y249D01*
X562Y249D01*
X562Y247D01*
X560Y247D01*
X560Y245D01*
X558Y245D01*
X558Y243D01*
X554Y243D01*
X554Y241D01*
X550Y241D01*
X550Y239D01*
X544Y239D01*
X544Y237D01*
X926Y237D01*
X926Y239D01*
X920Y239D01*
X920Y241D01*
X916Y241D01*
X916Y243D01*
X912Y243D01*
X912Y245D01*
X910Y245D01*
X910Y247D01*
X908Y247D01*
X908Y249D01*
X904Y249D01*
X904Y251D01*
X902Y251D01*
X902Y253D01*
X900Y253D01*
X900Y257D01*
X898Y257D01*
X898Y259D01*
X896Y259D01*
X896Y261D01*
X894Y261D01*
X894Y265D01*
X892Y265D01*
X892Y269D01*
X890Y269D01*
X890Y275D01*
X888Y275D01*
X888Y295D01*
X890Y295D01*
X890Y299D01*
X892Y299D01*
X892Y305D01*
X894Y305D01*
X894Y307D01*
X896Y307D01*
X896Y311D01*
X898Y311D01*
X898Y313D01*
X900Y313D01*
X900Y315D01*
X902Y315D01*
X902Y317D01*
X904Y317D01*
X904Y319D01*
X906Y319D01*
X906Y321D01*
X908Y321D01*
X908Y323D01*
X912Y323D01*
X912Y325D01*
X914Y325D01*
X914Y327D01*
X918Y327D01*
X918Y329D01*
X924Y329D01*
X924Y331D01*
X546Y331D01*
G37*
D02*
G36*
X176Y237D02*
X176Y235D01*
X1336Y235D01*
X1336Y237D01*
X176Y237D01*
G37*
D02*
G36*
X176Y237D02*
X176Y235D01*
X1336Y235D01*
X1336Y237D01*
X176Y237D01*
G37*
D02*
G36*
X176Y237D02*
X176Y235D01*
X1336Y235D01*
X1336Y237D01*
X176Y237D01*
G37*
D02*
G36*
X176Y235D02*
X176Y229D01*
X174Y229D01*
X174Y225D01*
X172Y225D01*
X172Y221D01*
X170Y221D01*
X170Y217D01*
X168Y217D01*
X168Y215D01*
X166Y215D01*
X166Y213D01*
X164Y213D01*
X164Y211D01*
X162Y211D01*
X162Y209D01*
X160Y209D01*
X160Y207D01*
X158Y207D01*
X158Y205D01*
X156Y205D01*
X156Y203D01*
X152Y203D01*
X152Y201D01*
X148Y201D01*
X148Y199D01*
X140Y199D01*
X140Y197D01*
X1336Y197D01*
X1336Y235D01*
X176Y235D01*
G37*
D02*
G36*
X40Y197D02*
X40Y195D01*
X1336Y195D01*
X1336Y197D01*
X40Y197D01*
G37*
D02*
G36*
X40Y197D02*
X40Y195D01*
X1336Y195D01*
X1336Y197D01*
X40Y197D01*
G37*
D02*
G36*
X40Y195D02*
X40Y123D01*
X1302Y123D01*
X1302Y121D01*
X1308Y121D01*
X1308Y119D01*
X1312Y119D01*
X1312Y117D01*
X1316Y117D01*
X1316Y115D01*
X1336Y115D01*
X1336Y195D01*
X40Y195D01*
G37*
D02*
G36*
X40Y123D02*
X40Y41D01*
X350Y41D01*
X350Y61D01*
X348Y61D01*
X348Y65D01*
X346Y65D01*
X346Y85D01*
X348Y85D01*
X348Y91D01*
X350Y91D01*
X350Y95D01*
X352Y95D01*
X352Y99D01*
X354Y99D01*
X354Y101D01*
X356Y101D01*
X356Y105D01*
X358Y105D01*
X358Y107D01*
X360Y107D01*
X360Y109D01*
X362Y109D01*
X362Y111D01*
X364Y111D01*
X364Y113D01*
X368Y113D01*
X368Y115D01*
X370Y115D01*
X370Y117D01*
X374Y117D01*
X374Y119D01*
X378Y119D01*
X378Y121D01*
X384Y121D01*
X384Y123D01*
X40Y123D01*
G37*
D02*
G36*
X402Y123D02*
X402Y121D01*
X408Y121D01*
X408Y119D01*
X412Y119D01*
X412Y117D01*
X416Y117D01*
X416Y115D01*
X420Y115D01*
X420Y113D01*
X422Y113D01*
X422Y111D01*
X424Y111D01*
X424Y109D01*
X426Y109D01*
X426Y107D01*
X428Y107D01*
X428Y105D01*
X430Y105D01*
X430Y103D01*
X432Y103D01*
X432Y99D01*
X452Y99D01*
X452Y101D01*
X454Y101D01*
X454Y103D01*
X456Y103D01*
X456Y105D01*
X458Y105D01*
X458Y109D01*
X462Y109D01*
X462Y111D01*
X464Y111D01*
X464Y113D01*
X466Y113D01*
X466Y115D01*
X468Y115D01*
X468Y117D01*
X472Y117D01*
X472Y119D01*
X476Y119D01*
X476Y121D01*
X482Y121D01*
X482Y123D01*
X402Y123D01*
G37*
D02*
G36*
X502Y123D02*
X502Y121D01*
X508Y121D01*
X508Y119D01*
X512Y119D01*
X512Y117D01*
X514Y117D01*
X514Y115D01*
X518Y115D01*
X518Y113D01*
X520Y113D01*
X520Y111D01*
X522Y111D01*
X522Y109D01*
X524Y109D01*
X524Y107D01*
X526Y107D01*
X526Y105D01*
X528Y105D01*
X528Y103D01*
X530Y103D01*
X530Y101D01*
X532Y101D01*
X532Y97D01*
X552Y97D01*
X552Y99D01*
X554Y99D01*
X554Y101D01*
X556Y101D01*
X556Y105D01*
X558Y105D01*
X558Y107D01*
X560Y107D01*
X560Y109D01*
X562Y109D01*
X562Y111D01*
X564Y111D01*
X564Y113D01*
X568Y113D01*
X568Y115D01*
X570Y115D01*
X570Y117D01*
X574Y117D01*
X574Y119D01*
X578Y119D01*
X578Y121D01*
X584Y121D01*
X584Y123D01*
X502Y123D01*
G37*
D02*
G36*
X602Y123D02*
X602Y121D01*
X608Y121D01*
X608Y119D01*
X612Y119D01*
X612Y117D01*
X616Y117D01*
X616Y115D01*
X620Y115D01*
X620Y113D01*
X622Y113D01*
X622Y111D01*
X624Y111D01*
X624Y109D01*
X626Y109D01*
X626Y107D01*
X628Y107D01*
X628Y105D01*
X630Y105D01*
X630Y103D01*
X632Y103D01*
X632Y99D01*
X654Y99D01*
X654Y101D01*
X656Y101D01*
X656Y105D01*
X658Y105D01*
X658Y107D01*
X660Y107D01*
X660Y109D01*
X662Y109D01*
X662Y111D01*
X664Y111D01*
X664Y113D01*
X668Y113D01*
X668Y115D01*
X670Y115D01*
X670Y117D01*
X674Y117D01*
X674Y119D01*
X678Y119D01*
X678Y121D01*
X684Y121D01*
X684Y123D01*
X602Y123D01*
G37*
D02*
G36*
X702Y123D02*
X702Y121D01*
X708Y121D01*
X708Y119D01*
X712Y119D01*
X712Y117D01*
X716Y117D01*
X716Y115D01*
X720Y115D01*
X720Y113D01*
X722Y113D01*
X722Y111D01*
X724Y111D01*
X724Y109D01*
X726Y109D01*
X726Y107D01*
X728Y107D01*
X728Y105D01*
X730Y105D01*
X730Y103D01*
X732Y103D01*
X732Y99D01*
X754Y99D01*
X754Y101D01*
X756Y101D01*
X756Y105D01*
X758Y105D01*
X758Y107D01*
X760Y107D01*
X760Y109D01*
X762Y109D01*
X762Y111D01*
X764Y111D01*
X764Y113D01*
X768Y113D01*
X768Y115D01*
X770Y115D01*
X770Y117D01*
X774Y117D01*
X774Y119D01*
X778Y119D01*
X778Y121D01*
X784Y121D01*
X784Y123D01*
X702Y123D01*
G37*
D02*
G36*
X802Y123D02*
X802Y121D01*
X808Y121D01*
X808Y119D01*
X812Y119D01*
X812Y117D01*
X816Y117D01*
X816Y115D01*
X820Y115D01*
X820Y113D01*
X822Y113D01*
X822Y111D01*
X824Y111D01*
X824Y109D01*
X826Y109D01*
X826Y107D01*
X828Y107D01*
X828Y105D01*
X830Y105D01*
X830Y103D01*
X832Y103D01*
X832Y99D01*
X854Y99D01*
X854Y101D01*
X856Y101D01*
X856Y105D01*
X858Y105D01*
X858Y107D01*
X860Y107D01*
X860Y109D01*
X862Y109D01*
X862Y111D01*
X864Y111D01*
X864Y113D01*
X868Y113D01*
X868Y115D01*
X870Y115D01*
X870Y117D01*
X874Y117D01*
X874Y119D01*
X878Y119D01*
X878Y121D01*
X884Y121D01*
X884Y123D01*
X802Y123D01*
G37*
D02*
G36*
X902Y123D02*
X902Y121D01*
X908Y121D01*
X908Y119D01*
X912Y119D01*
X912Y117D01*
X916Y117D01*
X916Y115D01*
X920Y115D01*
X920Y113D01*
X922Y113D01*
X922Y111D01*
X924Y111D01*
X924Y109D01*
X926Y109D01*
X926Y107D01*
X928Y107D01*
X928Y105D01*
X930Y105D01*
X930Y103D01*
X932Y103D01*
X932Y99D01*
X954Y99D01*
X954Y101D01*
X956Y101D01*
X956Y105D01*
X958Y105D01*
X958Y107D01*
X960Y107D01*
X960Y109D01*
X962Y109D01*
X962Y111D01*
X964Y111D01*
X964Y113D01*
X968Y113D01*
X968Y115D01*
X970Y115D01*
X970Y117D01*
X974Y117D01*
X974Y119D01*
X978Y119D01*
X978Y121D01*
X984Y121D01*
X984Y123D01*
X902Y123D01*
G37*
D02*
G36*
X1002Y123D02*
X1002Y121D01*
X1008Y121D01*
X1008Y119D01*
X1012Y119D01*
X1012Y117D01*
X1016Y117D01*
X1016Y115D01*
X1020Y115D01*
X1020Y113D01*
X1022Y113D01*
X1022Y111D01*
X1024Y111D01*
X1024Y109D01*
X1026Y109D01*
X1026Y107D01*
X1028Y107D01*
X1028Y105D01*
X1030Y105D01*
X1030Y103D01*
X1032Y103D01*
X1032Y99D01*
X1054Y99D01*
X1054Y101D01*
X1056Y101D01*
X1056Y105D01*
X1058Y105D01*
X1058Y107D01*
X1060Y107D01*
X1060Y109D01*
X1062Y109D01*
X1062Y111D01*
X1064Y111D01*
X1064Y113D01*
X1068Y113D01*
X1068Y115D01*
X1070Y115D01*
X1070Y117D01*
X1074Y117D01*
X1074Y119D01*
X1078Y119D01*
X1078Y121D01*
X1084Y121D01*
X1084Y123D01*
X1002Y123D01*
G37*
D02*
G36*
X1102Y123D02*
X1102Y121D01*
X1108Y121D01*
X1108Y119D01*
X1112Y119D01*
X1112Y117D01*
X1116Y117D01*
X1116Y115D01*
X1120Y115D01*
X1120Y113D01*
X1122Y113D01*
X1122Y111D01*
X1124Y111D01*
X1124Y109D01*
X1126Y109D01*
X1126Y107D01*
X1128Y107D01*
X1128Y105D01*
X1130Y105D01*
X1130Y103D01*
X1132Y103D01*
X1132Y99D01*
X1154Y99D01*
X1154Y101D01*
X1156Y101D01*
X1156Y105D01*
X1158Y105D01*
X1158Y107D01*
X1160Y107D01*
X1160Y109D01*
X1162Y109D01*
X1162Y111D01*
X1164Y111D01*
X1164Y113D01*
X1168Y113D01*
X1168Y115D01*
X1170Y115D01*
X1170Y117D01*
X1174Y117D01*
X1174Y119D01*
X1178Y119D01*
X1178Y121D01*
X1184Y121D01*
X1184Y123D01*
X1102Y123D01*
G37*
D02*
G36*
X1202Y123D02*
X1202Y121D01*
X1208Y121D01*
X1208Y119D01*
X1212Y119D01*
X1212Y117D01*
X1216Y117D01*
X1216Y115D01*
X1220Y115D01*
X1220Y113D01*
X1222Y113D01*
X1222Y111D01*
X1224Y111D01*
X1224Y109D01*
X1226Y109D01*
X1226Y107D01*
X1228Y107D01*
X1228Y105D01*
X1230Y105D01*
X1230Y103D01*
X1232Y103D01*
X1232Y99D01*
X1254Y99D01*
X1254Y101D01*
X1256Y101D01*
X1256Y105D01*
X1258Y105D01*
X1258Y107D01*
X1260Y107D01*
X1260Y109D01*
X1262Y109D01*
X1262Y111D01*
X1264Y111D01*
X1264Y113D01*
X1268Y113D01*
X1268Y115D01*
X1270Y115D01*
X1270Y117D01*
X1274Y117D01*
X1274Y119D01*
X1278Y119D01*
X1278Y121D01*
X1284Y121D01*
X1284Y123D01*
X1202Y123D01*
G37*
D02*
G04 End of Copper1*
M02*