; NON-PLATED HOLES START AT T1
; THROUGH (PLATED) HOLES START AT T100
M48
INCH
T100C0.041334
T101C0.035000
T102C0.031497
%
T100
X008932Y000757
X011932Y000757
X009932Y004757
X012932Y004757
X007932Y004757
X005932Y000757
X010932Y004757
X006932Y004757
X003932Y004757
X009932Y000757
X012932Y000757
X007932Y000757
X004918Y000757
X010932Y000757
X008932Y004757
X006932Y000757
X011932Y004757
X005932Y004757
X003932Y000757
X004932Y004757
T101
X009350Y002846
X005350Y002846
T102
X001350Y002390
X001350Y003375
T00
M30
