G04 MADE WITH FRITZING*
G04 WWW.FRITZING.ORG*
G04 DOUBLE SIDED*
G04 HOLES PLATED*
G04 CONTOUR ON CENTER OF CONTOUR VECTOR*
%ASAXBY*%
%FSLAX23Y23*%
%MOIN*%
%OFA0B0*%
%SFA1.0B1.0*%
%ADD10R,1.377950X0.551181X1.361950X0.535181*%
%ADD11C,0.008000*%
%ADD12R,0.001000X0.001000*%
%LNSILK1*%
G90*
G70*
G54D11*
X4Y547D02*
X1374Y547D01*
X1374Y4D01*
X4Y4D01*
X4Y547D01*
D02*
G54D12*
X339Y520D02*
X346Y520D01*
X339Y519D02*
X346Y519D01*
X339Y518D02*
X346Y518D01*
X339Y517D02*
X346Y517D01*
X339Y516D02*
X346Y516D01*
X339Y515D02*
X346Y515D01*
X339Y514D02*
X346Y514D01*
X339Y513D02*
X346Y513D01*
X339Y512D02*
X346Y512D01*
X339Y511D02*
X346Y511D01*
X339Y510D02*
X346Y510D01*
X339Y509D02*
X346Y509D01*
X339Y508D02*
X346Y508D01*
X339Y507D02*
X346Y507D01*
X339Y506D02*
X346Y506D01*
X339Y505D02*
X346Y505D01*
X339Y504D02*
X346Y504D01*
X339Y503D02*
X346Y503D01*
X339Y502D02*
X346Y502D01*
X339Y501D02*
X346Y501D01*
X339Y500D02*
X346Y500D01*
X339Y499D02*
X346Y499D01*
X339Y498D02*
X346Y498D01*
X339Y497D02*
X346Y497D01*
X339Y496D02*
X346Y496D01*
X339Y495D02*
X346Y495D01*
X339Y494D02*
X346Y494D01*
X339Y493D02*
X346Y493D01*
X339Y492D02*
X346Y492D01*
X339Y491D02*
X346Y491D01*
X339Y490D02*
X346Y490D01*
X339Y489D02*
X346Y489D01*
X339Y488D02*
X346Y488D01*
X339Y487D02*
X346Y487D01*
X339Y486D02*
X346Y486D01*
X339Y485D02*
X346Y485D01*
X339Y484D02*
X346Y484D01*
X339Y483D02*
X346Y483D01*
X339Y482D02*
X346Y482D01*
X339Y481D02*
X346Y481D01*
X339Y480D02*
X346Y480D01*
X339Y479D02*
X346Y479D01*
X339Y478D02*
X346Y478D01*
X339Y477D02*
X346Y477D01*
X339Y476D02*
X346Y476D01*
X339Y475D02*
X346Y475D01*
X339Y474D02*
X346Y474D01*
X339Y473D02*
X346Y473D01*
X339Y472D02*
X346Y472D01*
X339Y471D02*
X346Y471D01*
X339Y470D02*
X346Y470D01*
X339Y469D02*
X346Y469D01*
X339Y468D02*
X346Y468D01*
X339Y467D02*
X346Y467D01*
X339Y466D02*
X346Y466D01*
X339Y465D02*
X346Y465D01*
X339Y464D02*
X346Y464D01*
X339Y463D02*
X346Y463D01*
X339Y462D02*
X346Y462D01*
X339Y461D02*
X346Y461D01*
X339Y460D02*
X346Y460D01*
X339Y459D02*
X346Y459D01*
X339Y458D02*
X346Y458D01*
X339Y457D02*
X346Y457D01*
X339Y456D02*
X346Y456D01*
X339Y455D02*
X346Y455D01*
X339Y454D02*
X346Y454D01*
X339Y453D02*
X346Y453D01*
X339Y452D02*
X346Y452D01*
X339Y451D02*
X346Y451D01*
X339Y450D02*
X346Y450D01*
X339Y449D02*
X346Y449D01*
X339Y448D02*
X346Y448D01*
X339Y447D02*
X346Y447D01*
X339Y446D02*
X346Y446D01*
X339Y445D02*
X346Y445D01*
X339Y444D02*
X346Y444D01*
X339Y443D02*
X346Y443D01*
X339Y442D02*
X346Y442D01*
X339Y441D02*
X346Y441D01*
X339Y440D02*
X346Y440D01*
X339Y439D02*
X346Y439D01*
X339Y438D02*
X346Y438D01*
X339Y437D02*
X346Y437D01*
X339Y436D02*
X346Y436D01*
X339Y435D02*
X346Y435D01*
X339Y434D02*
X346Y434D01*
X339Y433D02*
X346Y433D01*
X339Y432D02*
X346Y432D01*
X339Y431D02*
X346Y431D01*
X339Y430D02*
X346Y430D01*
X339Y429D02*
X346Y429D01*
X339Y428D02*
X346Y428D01*
X339Y427D02*
X346Y427D01*
X339Y426D02*
X346Y426D01*
X339Y425D02*
X346Y425D01*
X339Y424D02*
X346Y424D01*
X339Y423D02*
X346Y423D01*
X339Y422D02*
X346Y422D01*
X339Y421D02*
X346Y421D01*
X339Y420D02*
X346Y420D01*
X339Y419D02*
X346Y419D01*
X339Y418D02*
X346Y418D01*
X339Y417D02*
X346Y417D01*
X339Y416D02*
X346Y416D01*
X339Y415D02*
X346Y415D01*
X339Y414D02*
X346Y414D01*
X339Y413D02*
X346Y413D01*
X339Y412D02*
X346Y412D01*
X339Y411D02*
X346Y411D01*
X339Y410D02*
X346Y410D01*
X339Y409D02*
X346Y409D01*
X339Y408D02*
X346Y408D01*
X339Y407D02*
X346Y407D01*
X339Y406D02*
X346Y406D01*
X339Y405D02*
X346Y405D01*
X339Y404D02*
X346Y404D01*
X339Y403D02*
X346Y403D01*
X339Y402D02*
X346Y402D01*
X339Y401D02*
X346Y401D01*
X339Y400D02*
X346Y400D01*
X339Y399D02*
X346Y399D01*
X339Y398D02*
X346Y398D01*
X339Y397D02*
X346Y397D01*
X339Y396D02*
X346Y396D01*
X339Y395D02*
X346Y395D01*
X339Y394D02*
X346Y394D01*
X339Y393D02*
X346Y393D01*
X339Y392D02*
X346Y392D01*
X339Y391D02*
X346Y391D01*
X339Y390D02*
X346Y390D01*
X339Y389D02*
X346Y389D01*
X339Y388D02*
X346Y388D01*
X339Y387D02*
X346Y387D01*
X339Y386D02*
X346Y386D01*
X339Y385D02*
X346Y385D01*
X339Y384D02*
X346Y384D01*
X339Y383D02*
X346Y383D01*
X339Y382D02*
X346Y382D01*
X339Y381D02*
X346Y381D01*
X339Y380D02*
X346Y380D01*
X339Y379D02*
X346Y379D01*
X339Y378D02*
X346Y378D01*
X339Y377D02*
X346Y377D01*
X339Y376D02*
X346Y376D01*
X339Y375D02*
X346Y375D01*
X339Y374D02*
X346Y374D01*
X339Y373D02*
X346Y373D01*
X339Y372D02*
X346Y372D01*
X339Y371D02*
X346Y371D01*
X339Y370D02*
X346Y370D01*
X339Y369D02*
X346Y369D01*
X339Y368D02*
X346Y368D01*
X339Y367D02*
X346Y367D01*
X339Y366D02*
X346Y366D01*
X339Y365D02*
X346Y365D01*
X339Y364D02*
X346Y364D01*
X339Y363D02*
X346Y363D01*
X339Y362D02*
X346Y362D01*
X339Y361D02*
X346Y361D01*
X339Y360D02*
X346Y360D01*
X339Y359D02*
X346Y359D01*
X339Y358D02*
X346Y358D01*
X339Y357D02*
X346Y357D01*
X339Y356D02*
X346Y356D01*
X339Y355D02*
X346Y355D01*
X339Y354D02*
X346Y354D01*
X339Y353D02*
X346Y353D01*
X339Y352D02*
X346Y352D01*
X339Y351D02*
X346Y351D01*
X339Y350D02*
X346Y350D01*
X339Y349D02*
X346Y349D01*
X339Y348D02*
X346Y348D01*
X339Y347D02*
X346Y347D01*
X339Y346D02*
X346Y346D01*
X339Y345D02*
X346Y345D01*
X339Y344D02*
X346Y344D01*
X339Y343D02*
X346Y343D01*
X339Y342D02*
X346Y342D01*
X339Y341D02*
X346Y341D01*
X339Y340D02*
X346Y340D01*
X339Y339D02*
X346Y339D01*
X339Y338D02*
X346Y338D01*
X339Y337D02*
X346Y337D01*
X339Y336D02*
X346Y336D01*
X339Y335D02*
X346Y335D01*
X339Y334D02*
X346Y334D01*
X339Y333D02*
X346Y333D01*
X339Y332D02*
X346Y332D01*
X339Y331D02*
X346Y331D01*
X339Y330D02*
X346Y330D01*
X339Y329D02*
X346Y329D01*
X339Y328D02*
X346Y328D01*
X339Y327D02*
X346Y327D01*
X339Y326D02*
X346Y326D01*
X339Y325D02*
X346Y325D01*
X339Y324D02*
X346Y324D01*
X339Y323D02*
X346Y323D01*
X339Y322D02*
X346Y322D01*
X339Y321D02*
X346Y321D01*
X339Y320D02*
X346Y320D01*
X339Y319D02*
X346Y319D01*
X339Y318D02*
X346Y318D01*
X339Y317D02*
X346Y317D01*
X339Y316D02*
X346Y316D01*
X339Y315D02*
X346Y315D01*
X339Y314D02*
X346Y314D01*
X339Y313D02*
X346Y313D01*
X339Y312D02*
X346Y312D01*
X339Y311D02*
X346Y311D01*
X339Y310D02*
X346Y310D01*
X339Y309D02*
X346Y309D01*
X339Y308D02*
X346Y308D01*
X339Y307D02*
X346Y307D01*
X339Y306D02*
X346Y306D01*
X339Y305D02*
X346Y305D01*
X339Y304D02*
X346Y304D01*
X339Y303D02*
X346Y303D01*
X339Y302D02*
X346Y302D01*
X339Y301D02*
X346Y301D01*
X339Y300D02*
X346Y300D01*
X339Y299D02*
X346Y299D01*
X339Y298D02*
X346Y298D01*
X339Y297D02*
X346Y297D01*
X339Y296D02*
X346Y296D01*
X339Y295D02*
X346Y295D01*
X339Y294D02*
X346Y294D01*
X339Y293D02*
X346Y293D01*
X339Y292D02*
X346Y292D01*
X339Y291D02*
X346Y291D01*
X339Y290D02*
X346Y290D01*
X339Y289D02*
X346Y289D01*
X339Y288D02*
X346Y288D01*
X339Y287D02*
X346Y287D01*
X339Y286D02*
X346Y286D01*
X339Y285D02*
X346Y285D01*
X339Y284D02*
X346Y284D01*
X339Y283D02*
X346Y283D01*
X339Y282D02*
X346Y282D01*
X339Y281D02*
X346Y281D01*
X339Y280D02*
X346Y280D01*
X339Y279D02*
X346Y279D01*
X339Y278D02*
X346Y278D01*
X339Y277D02*
X346Y277D01*
X339Y276D02*
X346Y276D01*
X339Y275D02*
X346Y275D01*
X339Y274D02*
X346Y274D01*
X339Y273D02*
X346Y273D01*
X339Y272D02*
X346Y272D01*
X339Y271D02*
X346Y271D01*
X339Y270D02*
X346Y270D01*
X339Y269D02*
X346Y269D01*
X339Y268D02*
X346Y268D01*
X339Y267D02*
X346Y267D01*
X339Y266D02*
X346Y266D01*
X339Y265D02*
X346Y265D01*
X339Y264D02*
X346Y264D01*
X339Y263D02*
X346Y263D01*
X339Y262D02*
X346Y262D01*
X339Y261D02*
X346Y261D01*
X339Y260D02*
X346Y260D01*
X339Y259D02*
X346Y259D01*
X339Y258D02*
X346Y258D01*
X339Y257D02*
X346Y257D01*
X339Y256D02*
X346Y256D01*
X339Y255D02*
X346Y255D01*
X339Y254D02*
X346Y254D01*
X339Y253D02*
X346Y253D01*
X339Y252D02*
X346Y252D01*
X339Y251D02*
X346Y251D01*
X339Y250D02*
X346Y250D01*
X339Y249D02*
X346Y249D01*
X339Y248D02*
X346Y248D01*
X339Y247D02*
X346Y247D01*
X339Y246D02*
X346Y246D01*
X339Y245D02*
X346Y245D01*
X339Y244D02*
X346Y244D01*
X339Y243D02*
X346Y243D01*
X339Y242D02*
X346Y242D01*
X339Y241D02*
X346Y241D01*
X339Y240D02*
X346Y240D01*
X339Y239D02*
X346Y239D01*
X339Y238D02*
X346Y238D01*
X339Y237D02*
X346Y237D01*
X339Y236D02*
X346Y236D01*
X339Y235D02*
X346Y235D01*
X339Y234D02*
X346Y234D01*
X339Y233D02*
X346Y233D01*
X339Y232D02*
X346Y232D01*
X339Y231D02*
X346Y231D01*
X339Y230D02*
X346Y230D01*
X339Y229D02*
X346Y229D01*
X339Y228D02*
X346Y228D01*
X339Y227D02*
X346Y227D01*
X339Y226D02*
X346Y226D01*
X339Y225D02*
X346Y225D01*
X339Y224D02*
X346Y224D01*
X339Y223D02*
X346Y223D01*
X339Y222D02*
X346Y222D01*
X339Y221D02*
X346Y221D01*
X339Y220D02*
X346Y220D01*
X339Y219D02*
X346Y219D01*
X339Y218D02*
X346Y218D01*
X339Y217D02*
X346Y217D01*
X339Y216D02*
X346Y216D01*
X339Y215D02*
X346Y215D01*
X339Y214D02*
X346Y214D01*
X339Y213D02*
X346Y213D01*
X339Y212D02*
X346Y212D01*
X339Y211D02*
X346Y211D01*
X339Y210D02*
X346Y210D01*
X339Y209D02*
X346Y209D01*
X339Y208D02*
X346Y208D01*
X339Y207D02*
X346Y207D01*
X339Y206D02*
X346Y206D01*
X339Y205D02*
X346Y205D01*
X339Y204D02*
X346Y204D01*
X339Y203D02*
X346Y203D01*
X339Y202D02*
X346Y202D01*
X339Y201D02*
X346Y201D01*
X339Y200D02*
X346Y200D01*
X339Y199D02*
X346Y199D01*
X339Y198D02*
X346Y198D01*
X339Y197D02*
X346Y197D01*
X339Y196D02*
X346Y196D01*
X339Y195D02*
X346Y195D01*
X339Y194D02*
X346Y194D01*
X339Y193D02*
X346Y193D01*
X339Y192D02*
X346Y192D01*
X339Y191D02*
X346Y191D01*
X339Y190D02*
X346Y190D01*
X339Y189D02*
X346Y189D01*
X339Y188D02*
X346Y188D01*
X339Y187D02*
X346Y187D01*
X339Y186D02*
X346Y186D01*
X339Y185D02*
X346Y185D01*
X339Y184D02*
X346Y184D01*
X339Y183D02*
X346Y183D01*
X339Y182D02*
X346Y182D01*
X339Y181D02*
X346Y181D01*
X339Y180D02*
X346Y180D01*
X339Y179D02*
X346Y179D01*
X339Y178D02*
X346Y178D01*
X339Y177D02*
X346Y177D01*
X339Y176D02*
X346Y176D01*
X339Y175D02*
X346Y175D01*
X339Y174D02*
X346Y174D01*
X339Y173D02*
X346Y173D01*
X339Y172D02*
X346Y172D01*
X339Y171D02*
X346Y171D01*
X339Y170D02*
X346Y170D01*
X339Y169D02*
X346Y169D01*
X339Y168D02*
X346Y168D01*
X339Y167D02*
X346Y167D01*
X339Y166D02*
X346Y166D01*
X339Y165D02*
X346Y165D01*
X339Y164D02*
X346Y164D01*
X339Y163D02*
X346Y163D01*
X339Y162D02*
X346Y162D01*
X339Y161D02*
X346Y161D01*
X339Y160D02*
X346Y160D01*
X339Y159D02*
X346Y159D01*
X339Y158D02*
X346Y158D01*
X339Y157D02*
X346Y157D01*
X339Y156D02*
X346Y156D01*
X339Y155D02*
X346Y155D01*
X339Y154D02*
X346Y154D01*
X339Y153D02*
X346Y153D01*
X339Y152D02*
X346Y152D01*
X339Y151D02*
X346Y151D01*
X339Y150D02*
X346Y150D01*
X339Y149D02*
X346Y149D01*
X339Y148D02*
X346Y148D01*
X339Y147D02*
X346Y147D01*
X339Y146D02*
X346Y146D01*
X339Y145D02*
X346Y145D01*
X339Y144D02*
X346Y144D01*
X339Y143D02*
X346Y143D01*
X339Y142D02*
X346Y142D01*
X339Y141D02*
X346Y141D01*
X339Y140D02*
X346Y140D01*
X339Y139D02*
X346Y139D01*
X339Y138D02*
X346Y138D01*
X339Y137D02*
X346Y137D01*
X339Y136D02*
X346Y136D01*
X339Y135D02*
X346Y135D01*
X339Y134D02*
X346Y134D01*
X339Y133D02*
X346Y133D01*
X339Y132D02*
X346Y132D01*
X339Y131D02*
X346Y131D01*
X339Y130D02*
X346Y130D01*
X339Y129D02*
X346Y129D01*
X339Y128D02*
X346Y128D01*
X339Y127D02*
X346Y127D01*
X339Y126D02*
X346Y126D01*
X339Y125D02*
X346Y125D01*
X339Y124D02*
X346Y124D01*
X339Y123D02*
X346Y123D01*
X339Y122D02*
X346Y122D01*
X339Y121D02*
X346Y121D01*
X339Y120D02*
X346Y120D01*
X339Y119D02*
X346Y119D01*
X339Y118D02*
X346Y118D01*
X339Y117D02*
X346Y117D01*
X339Y116D02*
X346Y116D01*
X339Y115D02*
X346Y115D01*
X339Y114D02*
X346Y114D01*
X339Y113D02*
X346Y113D01*
X339Y112D02*
X346Y112D01*
X339Y111D02*
X346Y111D01*
X339Y110D02*
X346Y110D01*
X339Y109D02*
X346Y109D01*
X339Y108D02*
X346Y108D01*
X339Y107D02*
X346Y107D01*
X339Y106D02*
X346Y106D01*
X339Y105D02*
X346Y105D01*
X339Y104D02*
X346Y104D01*
X339Y103D02*
X346Y103D01*
X339Y102D02*
X346Y102D01*
X339Y101D02*
X346Y101D01*
X339Y100D02*
X346Y100D01*
X339Y99D02*
X346Y99D01*
X339Y98D02*
X346Y98D01*
X339Y97D02*
X346Y97D01*
X339Y96D02*
X346Y96D01*
X339Y95D02*
X346Y95D01*
X339Y94D02*
X346Y94D01*
X339Y93D02*
X346Y93D01*
X339Y92D02*
X346Y92D01*
X339Y91D02*
X346Y91D01*
X339Y90D02*
X346Y90D01*
X339Y89D02*
X346Y89D01*
X339Y88D02*
X346Y88D01*
X339Y87D02*
X346Y87D01*
X339Y86D02*
X346Y86D01*
X339Y85D02*
X346Y85D01*
X339Y84D02*
X346Y84D01*
X339Y83D02*
X346Y83D01*
X339Y82D02*
X346Y82D01*
X339Y81D02*
X346Y81D01*
X339Y80D02*
X346Y80D01*
X339Y79D02*
X346Y79D01*
X339Y78D02*
X346Y78D01*
X339Y77D02*
X346Y77D01*
X339Y76D02*
X346Y76D01*
X339Y75D02*
X346Y75D01*
X339Y74D02*
X346Y74D01*
X339Y73D02*
X346Y73D01*
X339Y72D02*
X346Y72D01*
X339Y71D02*
X346Y71D01*
X339Y70D02*
X346Y70D01*
X339Y69D02*
X346Y69D01*
X339Y68D02*
X346Y68D01*
X339Y67D02*
X346Y67D01*
X339Y66D02*
X346Y66D01*
X339Y65D02*
X346Y65D01*
X339Y64D02*
X346Y64D01*
X339Y63D02*
X346Y63D01*
X339Y62D02*
X346Y62D01*
X339Y61D02*
X346Y61D01*
X339Y60D02*
X346Y60D01*
X339Y59D02*
X346Y59D01*
X339Y58D02*
X346Y58D01*
X339Y57D02*
X346Y57D01*
X339Y56D02*
X346Y56D01*
X339Y55D02*
X346Y55D01*
X339Y54D02*
X346Y54D01*
X339Y53D02*
X346Y53D01*
X339Y52D02*
X346Y52D01*
X339Y51D02*
X346Y51D01*
X339Y50D02*
X346Y50D01*
X339Y49D02*
X346Y49D01*
X339Y48D02*
X346Y48D01*
X339Y47D02*
X346Y47D01*
X339Y46D02*
X346Y46D01*
X339Y45D02*
X346Y45D01*
X339Y44D02*
X346Y44D01*
X339Y43D02*
X346Y43D01*
X339Y42D02*
X346Y42D01*
X339Y41D02*
X346Y41D01*
X339Y40D02*
X346Y40D01*
X339Y39D02*
X346Y39D01*
X339Y38D02*
X346Y38D01*
X339Y37D02*
X346Y37D01*
X339Y36D02*
X346Y36D01*
X339Y35D02*
X346Y35D01*
X339Y34D02*
X346Y34D01*
X339Y33D02*
X346Y33D01*
X339Y32D02*
X346Y32D01*
X339Y31D02*
X346Y31D01*
X339Y30D02*
X346Y30D01*
X339Y29D02*
X346Y29D01*
D02*
G04 End of Silk1*
M02*