G04 MADE WITH FRITZING*
G04 WWW.FRITZING.ORG*
G04 DOUBLE SIDED*
G04 HOLES PLATED*
G04 CONTOUR ON CENTER OF CONTOUR VECTOR*
%ASAXBY*%
%FSLAX23Y23*%
%MOIN*%
%OFA0B0*%
%SFA1.0B1.0*%
%ADD10C,0.075000*%
%ADD11C,0.062992*%
%ADD12C,0.039370*%
%ADD13C,0.073749*%
%ADD14C,0.075334*%
%ADD15R,0.062992X0.062992*%
%ADD16R,0.075000X0.075000*%
%ADD17C,0.024000*%
%LNCOPPER0*%
G90*
G70*
G54D10*
X270Y263D03*
X1600Y177D03*
G54D11*
X400Y286D03*
X400Y385D03*
X400Y286D03*
X400Y385D03*
G54D12*
X500Y285D03*
G54D13*
X200Y85D03*
X200Y185D03*
X200Y385D03*
X200Y85D03*
X200Y185D03*
X200Y385D03*
G54D10*
X600Y485D03*
X600Y85D03*
X600Y485D03*
X600Y85D03*
X1100Y185D03*
X1500Y185D03*
X1100Y185D03*
X1500Y185D03*
X1000Y285D03*
X1400Y285D03*
X1000Y285D03*
X1400Y285D03*
X1700Y285D03*
X1600Y285D03*
X1700Y285D03*
X1600Y285D03*
G54D14*
X958Y476D03*
X1058Y476D03*
X1158Y476D03*
X1258Y476D03*
X1358Y476D03*
X1458Y476D03*
X1558Y476D03*
X1658Y476D03*
X1058Y76D03*
X1158Y76D03*
X1258Y76D03*
X1358Y76D03*
X1458Y76D03*
X1558Y76D03*
X1658Y76D03*
X958Y76D03*
X858Y476D03*
X857Y76D03*
X758Y476D03*
X758Y76D03*
G54D15*
X400Y286D03*
X400Y286D03*
G54D16*
X1700Y285D03*
X1700Y285D03*
G54D17*
X1700Y313D02*
X1699Y384D01*
D02*
X1699Y384D02*
X427Y385D01*
D02*
X1694Y257D02*
X1664Y107D01*
D02*
X399Y185D02*
X400Y259D01*
D02*
X574Y97D02*
X399Y185D01*
D02*
X971Y285D02*
X519Y285D01*
D02*
X1399Y185D02*
X1443Y104D01*
D02*
X1128Y185D02*
X1399Y185D01*
D02*
X1543Y104D02*
X1513Y159D01*
D02*
X1480Y205D02*
X1420Y264D01*
G36*
X40Y511D02*
X40Y437D01*
X592Y437D01*
X592Y439D01*
X586Y439D01*
X586Y441D01*
X580Y441D01*
X580Y443D01*
X578Y443D01*
X578Y445D01*
X574Y445D01*
X574Y447D01*
X572Y447D01*
X572Y449D01*
X570Y449D01*
X570Y451D01*
X568Y451D01*
X568Y453D01*
X566Y453D01*
X566Y455D01*
X564Y455D01*
X564Y457D01*
X562Y457D01*
X562Y459D01*
X560Y459D01*
X560Y463D01*
X558Y463D01*
X558Y467D01*
X556Y467D01*
X556Y471D01*
X554Y471D01*
X554Y477D01*
X552Y477D01*
X552Y491D01*
X554Y491D01*
X554Y511D01*
X40Y511D01*
G37*
D02*
G36*
X646Y511D02*
X646Y489D01*
X648Y489D01*
X648Y481D01*
X646Y481D01*
X646Y473D01*
X644Y473D01*
X644Y467D01*
X642Y467D01*
X642Y463D01*
X640Y463D01*
X640Y461D01*
X638Y461D01*
X638Y457D01*
X636Y457D01*
X636Y455D01*
X634Y455D01*
X634Y453D01*
X632Y453D01*
X632Y451D01*
X630Y451D01*
X630Y449D01*
X628Y449D01*
X628Y447D01*
X626Y447D01*
X626Y445D01*
X622Y445D01*
X622Y443D01*
X618Y443D01*
X618Y441D01*
X614Y441D01*
X614Y439D01*
X608Y439D01*
X608Y437D01*
X730Y437D01*
X730Y439D01*
X728Y439D01*
X728Y441D01*
X726Y441D01*
X726Y443D01*
X724Y443D01*
X724Y445D01*
X722Y445D01*
X722Y447D01*
X720Y447D01*
X720Y451D01*
X718Y451D01*
X718Y453D01*
X716Y453D01*
X716Y457D01*
X714Y457D01*
X714Y463D01*
X712Y463D01*
X712Y469D01*
X710Y469D01*
X710Y483D01*
X712Y483D01*
X712Y489D01*
X714Y489D01*
X714Y511D01*
X646Y511D01*
G37*
D02*
G36*
X1702Y511D02*
X1702Y489D01*
X1704Y489D01*
X1704Y481D01*
X1706Y481D01*
X1706Y469D01*
X1704Y469D01*
X1704Y463D01*
X1702Y463D01*
X1702Y457D01*
X1700Y457D01*
X1700Y453D01*
X1698Y453D01*
X1698Y451D01*
X1696Y451D01*
X1696Y447D01*
X1694Y447D01*
X1694Y445D01*
X1692Y445D01*
X1692Y443D01*
X1690Y443D01*
X1690Y441D01*
X1688Y441D01*
X1688Y439D01*
X1684Y439D01*
X1684Y437D01*
X1682Y437D01*
X1682Y435D01*
X1678Y435D01*
X1678Y433D01*
X1676Y433D01*
X1676Y431D01*
X1670Y431D01*
X1670Y429D01*
X1658Y429D01*
X1658Y427D01*
X1770Y427D01*
X1770Y511D01*
X1702Y511D01*
G37*
D02*
G36*
X798Y453D02*
X798Y451D01*
X796Y451D01*
X796Y447D01*
X794Y447D01*
X794Y445D01*
X792Y445D01*
X792Y443D01*
X790Y443D01*
X790Y441D01*
X788Y441D01*
X788Y439D01*
X784Y439D01*
X784Y437D01*
X782Y437D01*
X782Y435D01*
X778Y435D01*
X778Y433D01*
X776Y433D01*
X776Y431D01*
X770Y431D01*
X770Y429D01*
X758Y429D01*
X758Y427D01*
X856Y427D01*
X856Y429D01*
X846Y429D01*
X846Y431D01*
X840Y431D01*
X840Y433D01*
X838Y433D01*
X838Y435D01*
X834Y435D01*
X834Y437D01*
X830Y437D01*
X830Y439D01*
X828Y439D01*
X828Y441D01*
X826Y441D01*
X826Y443D01*
X824Y443D01*
X824Y445D01*
X822Y445D01*
X822Y447D01*
X820Y447D01*
X820Y451D01*
X818Y451D01*
X818Y453D01*
X798Y453D01*
G37*
D02*
G36*
X898Y453D02*
X898Y451D01*
X896Y451D01*
X896Y447D01*
X894Y447D01*
X894Y445D01*
X892Y445D01*
X892Y443D01*
X890Y443D01*
X890Y441D01*
X888Y441D01*
X888Y439D01*
X884Y439D01*
X884Y437D01*
X882Y437D01*
X882Y435D01*
X878Y435D01*
X878Y433D01*
X876Y433D01*
X876Y431D01*
X870Y431D01*
X870Y429D01*
X858Y429D01*
X858Y427D01*
X956Y427D01*
X956Y429D01*
X946Y429D01*
X946Y431D01*
X940Y431D01*
X940Y433D01*
X938Y433D01*
X938Y435D01*
X934Y435D01*
X934Y437D01*
X930Y437D01*
X930Y439D01*
X928Y439D01*
X928Y441D01*
X926Y441D01*
X926Y443D01*
X924Y443D01*
X924Y445D01*
X922Y445D01*
X922Y447D01*
X920Y447D01*
X920Y451D01*
X918Y451D01*
X918Y453D01*
X898Y453D01*
G37*
D02*
G36*
X998Y453D02*
X998Y451D01*
X996Y451D01*
X996Y447D01*
X994Y447D01*
X994Y445D01*
X992Y445D01*
X992Y443D01*
X990Y443D01*
X990Y441D01*
X988Y441D01*
X988Y439D01*
X984Y439D01*
X984Y437D01*
X982Y437D01*
X982Y435D01*
X978Y435D01*
X978Y433D01*
X976Y433D01*
X976Y431D01*
X970Y431D01*
X970Y429D01*
X958Y429D01*
X958Y427D01*
X1056Y427D01*
X1056Y429D01*
X1046Y429D01*
X1046Y431D01*
X1040Y431D01*
X1040Y433D01*
X1038Y433D01*
X1038Y435D01*
X1034Y435D01*
X1034Y437D01*
X1030Y437D01*
X1030Y439D01*
X1028Y439D01*
X1028Y441D01*
X1026Y441D01*
X1026Y443D01*
X1024Y443D01*
X1024Y445D01*
X1022Y445D01*
X1022Y447D01*
X1020Y447D01*
X1020Y451D01*
X1018Y451D01*
X1018Y453D01*
X998Y453D01*
G37*
D02*
G36*
X1098Y453D02*
X1098Y451D01*
X1096Y451D01*
X1096Y447D01*
X1094Y447D01*
X1094Y445D01*
X1092Y445D01*
X1092Y443D01*
X1090Y443D01*
X1090Y441D01*
X1088Y441D01*
X1088Y439D01*
X1084Y439D01*
X1084Y437D01*
X1082Y437D01*
X1082Y435D01*
X1078Y435D01*
X1078Y433D01*
X1076Y433D01*
X1076Y431D01*
X1070Y431D01*
X1070Y429D01*
X1058Y429D01*
X1058Y427D01*
X1156Y427D01*
X1156Y429D01*
X1146Y429D01*
X1146Y431D01*
X1140Y431D01*
X1140Y433D01*
X1138Y433D01*
X1138Y435D01*
X1134Y435D01*
X1134Y437D01*
X1130Y437D01*
X1130Y439D01*
X1128Y439D01*
X1128Y441D01*
X1126Y441D01*
X1126Y443D01*
X1124Y443D01*
X1124Y445D01*
X1122Y445D01*
X1122Y447D01*
X1120Y447D01*
X1120Y451D01*
X1118Y451D01*
X1118Y453D01*
X1098Y453D01*
G37*
D02*
G36*
X1198Y453D02*
X1198Y451D01*
X1196Y451D01*
X1196Y447D01*
X1194Y447D01*
X1194Y445D01*
X1192Y445D01*
X1192Y443D01*
X1190Y443D01*
X1190Y441D01*
X1188Y441D01*
X1188Y439D01*
X1184Y439D01*
X1184Y437D01*
X1182Y437D01*
X1182Y435D01*
X1178Y435D01*
X1178Y433D01*
X1176Y433D01*
X1176Y431D01*
X1170Y431D01*
X1170Y429D01*
X1158Y429D01*
X1158Y427D01*
X1256Y427D01*
X1256Y429D01*
X1246Y429D01*
X1246Y431D01*
X1240Y431D01*
X1240Y433D01*
X1238Y433D01*
X1238Y435D01*
X1234Y435D01*
X1234Y437D01*
X1230Y437D01*
X1230Y439D01*
X1228Y439D01*
X1228Y441D01*
X1226Y441D01*
X1226Y443D01*
X1224Y443D01*
X1224Y445D01*
X1222Y445D01*
X1222Y447D01*
X1220Y447D01*
X1220Y451D01*
X1218Y451D01*
X1218Y453D01*
X1198Y453D01*
G37*
D02*
G36*
X1298Y453D02*
X1298Y451D01*
X1296Y451D01*
X1296Y447D01*
X1294Y447D01*
X1294Y445D01*
X1292Y445D01*
X1292Y443D01*
X1290Y443D01*
X1290Y441D01*
X1288Y441D01*
X1288Y439D01*
X1284Y439D01*
X1284Y437D01*
X1282Y437D01*
X1282Y435D01*
X1278Y435D01*
X1278Y433D01*
X1276Y433D01*
X1276Y431D01*
X1270Y431D01*
X1270Y429D01*
X1258Y429D01*
X1258Y427D01*
X1356Y427D01*
X1356Y429D01*
X1346Y429D01*
X1346Y431D01*
X1340Y431D01*
X1340Y433D01*
X1338Y433D01*
X1338Y435D01*
X1334Y435D01*
X1334Y437D01*
X1330Y437D01*
X1330Y439D01*
X1328Y439D01*
X1328Y441D01*
X1326Y441D01*
X1326Y443D01*
X1324Y443D01*
X1324Y445D01*
X1322Y445D01*
X1322Y447D01*
X1320Y447D01*
X1320Y451D01*
X1318Y451D01*
X1318Y453D01*
X1298Y453D01*
G37*
D02*
G36*
X1398Y453D02*
X1398Y451D01*
X1396Y451D01*
X1396Y447D01*
X1394Y447D01*
X1394Y445D01*
X1392Y445D01*
X1392Y443D01*
X1390Y443D01*
X1390Y441D01*
X1388Y441D01*
X1388Y439D01*
X1384Y439D01*
X1384Y437D01*
X1382Y437D01*
X1382Y435D01*
X1378Y435D01*
X1378Y433D01*
X1376Y433D01*
X1376Y431D01*
X1370Y431D01*
X1370Y429D01*
X1358Y429D01*
X1358Y427D01*
X1456Y427D01*
X1456Y429D01*
X1446Y429D01*
X1446Y431D01*
X1440Y431D01*
X1440Y433D01*
X1438Y433D01*
X1438Y435D01*
X1434Y435D01*
X1434Y437D01*
X1430Y437D01*
X1430Y439D01*
X1428Y439D01*
X1428Y441D01*
X1426Y441D01*
X1426Y443D01*
X1424Y443D01*
X1424Y445D01*
X1422Y445D01*
X1422Y447D01*
X1420Y447D01*
X1420Y451D01*
X1418Y451D01*
X1418Y453D01*
X1398Y453D01*
G37*
D02*
G36*
X1498Y453D02*
X1498Y451D01*
X1496Y451D01*
X1496Y447D01*
X1494Y447D01*
X1494Y445D01*
X1492Y445D01*
X1492Y443D01*
X1490Y443D01*
X1490Y441D01*
X1488Y441D01*
X1488Y439D01*
X1484Y439D01*
X1484Y437D01*
X1482Y437D01*
X1482Y435D01*
X1478Y435D01*
X1478Y433D01*
X1476Y433D01*
X1476Y431D01*
X1470Y431D01*
X1470Y429D01*
X1458Y429D01*
X1458Y427D01*
X1556Y427D01*
X1556Y429D01*
X1546Y429D01*
X1546Y431D01*
X1540Y431D01*
X1540Y433D01*
X1538Y433D01*
X1538Y435D01*
X1534Y435D01*
X1534Y437D01*
X1530Y437D01*
X1530Y439D01*
X1528Y439D01*
X1528Y441D01*
X1526Y441D01*
X1526Y443D01*
X1524Y443D01*
X1524Y445D01*
X1522Y445D01*
X1522Y447D01*
X1520Y447D01*
X1520Y451D01*
X1518Y451D01*
X1518Y453D01*
X1498Y453D01*
G37*
D02*
G36*
X1598Y453D02*
X1598Y451D01*
X1596Y451D01*
X1596Y447D01*
X1594Y447D01*
X1594Y445D01*
X1592Y445D01*
X1592Y443D01*
X1590Y443D01*
X1590Y441D01*
X1588Y441D01*
X1588Y439D01*
X1584Y439D01*
X1584Y437D01*
X1582Y437D01*
X1582Y435D01*
X1578Y435D01*
X1578Y433D01*
X1576Y433D01*
X1576Y431D01*
X1570Y431D01*
X1570Y429D01*
X1558Y429D01*
X1558Y427D01*
X1656Y427D01*
X1656Y429D01*
X1646Y429D01*
X1646Y431D01*
X1640Y431D01*
X1640Y433D01*
X1638Y433D01*
X1638Y435D01*
X1634Y435D01*
X1634Y437D01*
X1630Y437D01*
X1630Y439D01*
X1628Y439D01*
X1628Y441D01*
X1626Y441D01*
X1626Y443D01*
X1624Y443D01*
X1624Y445D01*
X1622Y445D01*
X1622Y447D01*
X1620Y447D01*
X1620Y451D01*
X1618Y451D01*
X1618Y453D01*
X1598Y453D01*
G37*
D02*
G36*
X40Y437D02*
X40Y435D01*
X734Y435D01*
X734Y437D01*
X40Y437D01*
G37*
D02*
G36*
X40Y437D02*
X40Y435D01*
X734Y435D01*
X734Y437D01*
X40Y437D01*
G37*
D02*
G36*
X40Y435D02*
X40Y431D01*
X210Y431D01*
X210Y429D01*
X216Y429D01*
X216Y427D01*
X756Y427D01*
X756Y429D01*
X746Y429D01*
X746Y431D01*
X740Y431D01*
X740Y433D01*
X738Y433D01*
X738Y435D01*
X40Y435D01*
G37*
D02*
G36*
X40Y431D02*
X40Y337D01*
X194Y337D01*
X194Y339D01*
X188Y339D01*
X188Y341D01*
X182Y341D01*
X182Y343D01*
X178Y343D01*
X178Y345D01*
X176Y345D01*
X176Y347D01*
X172Y347D01*
X172Y349D01*
X170Y349D01*
X170Y351D01*
X168Y351D01*
X168Y353D01*
X166Y353D01*
X166Y355D01*
X164Y355D01*
X164Y357D01*
X162Y357D01*
X162Y361D01*
X160Y361D01*
X160Y363D01*
X158Y363D01*
X158Y367D01*
X156Y367D01*
X156Y373D01*
X154Y373D01*
X154Y383D01*
X152Y383D01*
X152Y387D01*
X154Y387D01*
X154Y397D01*
X156Y397D01*
X156Y401D01*
X158Y401D01*
X158Y405D01*
X160Y405D01*
X160Y409D01*
X162Y409D01*
X162Y411D01*
X164Y411D01*
X164Y413D01*
X166Y413D01*
X166Y417D01*
X170Y417D01*
X170Y419D01*
X172Y419D01*
X172Y421D01*
X174Y421D01*
X174Y423D01*
X176Y423D01*
X176Y425D01*
X180Y425D01*
X180Y427D01*
X184Y427D01*
X184Y429D01*
X190Y429D01*
X190Y431D01*
X40Y431D01*
G37*
D02*
G36*
X220Y427D02*
X220Y425D01*
X1770Y425D01*
X1770Y427D01*
X220Y427D01*
G37*
D02*
G36*
X220Y427D02*
X220Y425D01*
X1770Y425D01*
X1770Y427D01*
X220Y427D01*
G37*
D02*
G36*
X220Y427D02*
X220Y425D01*
X1770Y425D01*
X1770Y427D01*
X220Y427D01*
G37*
D02*
G36*
X220Y427D02*
X220Y425D01*
X1770Y425D01*
X1770Y427D01*
X220Y427D01*
G37*
D02*
G36*
X220Y427D02*
X220Y425D01*
X1770Y425D01*
X1770Y427D01*
X220Y427D01*
G37*
D02*
G36*
X220Y427D02*
X220Y425D01*
X1770Y425D01*
X1770Y427D01*
X220Y427D01*
G37*
D02*
G36*
X220Y427D02*
X220Y425D01*
X1770Y425D01*
X1770Y427D01*
X220Y427D01*
G37*
D02*
G36*
X220Y427D02*
X220Y425D01*
X1770Y425D01*
X1770Y427D01*
X220Y427D01*
G37*
D02*
G36*
X220Y427D02*
X220Y425D01*
X1770Y425D01*
X1770Y427D01*
X220Y427D01*
G37*
D02*
G36*
X220Y427D02*
X220Y425D01*
X1770Y425D01*
X1770Y427D01*
X220Y427D01*
G37*
D02*
G36*
X220Y427D02*
X220Y425D01*
X1770Y425D01*
X1770Y427D01*
X220Y427D01*
G37*
D02*
G36*
X222Y425D02*
X222Y423D01*
X226Y423D01*
X226Y421D01*
X228Y421D01*
X228Y419D01*
X230Y419D01*
X230Y417D01*
X232Y417D01*
X232Y415D01*
X234Y415D01*
X234Y413D01*
X236Y413D01*
X236Y411D01*
X238Y411D01*
X238Y407D01*
X240Y407D01*
X240Y405D01*
X242Y405D01*
X242Y401D01*
X244Y401D01*
X244Y395D01*
X246Y395D01*
X246Y375D01*
X244Y375D01*
X244Y369D01*
X242Y369D01*
X242Y365D01*
X240Y365D01*
X240Y361D01*
X238Y361D01*
X238Y359D01*
X236Y359D01*
X236Y355D01*
X234Y355D01*
X234Y353D01*
X232Y353D01*
X232Y351D01*
X230Y351D01*
X230Y349D01*
X226Y349D01*
X226Y347D01*
X224Y347D01*
X224Y345D01*
X220Y345D01*
X220Y343D01*
X218Y343D01*
X218Y341D01*
X212Y341D01*
X212Y339D01*
X204Y339D01*
X204Y337D01*
X386Y337D01*
X386Y347D01*
X382Y347D01*
X382Y349D01*
X378Y349D01*
X378Y351D01*
X376Y351D01*
X376Y353D01*
X374Y353D01*
X374Y355D01*
X372Y355D01*
X372Y357D01*
X370Y357D01*
X370Y359D01*
X368Y359D01*
X368Y361D01*
X366Y361D01*
X366Y365D01*
X364Y365D01*
X364Y367D01*
X362Y367D01*
X362Y371D01*
X360Y371D01*
X360Y377D01*
X358Y377D01*
X358Y391D01*
X360Y391D01*
X360Y397D01*
X362Y397D01*
X362Y401D01*
X364Y401D01*
X364Y405D01*
X366Y405D01*
X366Y407D01*
X368Y407D01*
X368Y411D01*
X370Y411D01*
X370Y413D01*
X372Y413D01*
X372Y415D01*
X374Y415D01*
X374Y417D01*
X378Y417D01*
X378Y419D01*
X380Y419D01*
X380Y421D01*
X384Y421D01*
X384Y423D01*
X390Y423D01*
X390Y425D01*
X222Y425D01*
G37*
D02*
G36*
X410Y425D02*
X410Y423D01*
X416Y423D01*
X416Y421D01*
X418Y421D01*
X418Y419D01*
X422Y419D01*
X422Y417D01*
X424Y417D01*
X424Y415D01*
X426Y415D01*
X426Y413D01*
X428Y413D01*
X428Y411D01*
X430Y411D01*
X430Y409D01*
X432Y409D01*
X432Y407D01*
X1398Y407D01*
X1398Y405D01*
X1708Y405D01*
X1708Y403D01*
X1712Y403D01*
X1712Y401D01*
X1714Y401D01*
X1714Y399D01*
X1716Y399D01*
X1716Y397D01*
X1718Y397D01*
X1718Y393D01*
X1720Y393D01*
X1720Y387D01*
X1722Y387D01*
X1722Y333D01*
X1746Y333D01*
X1746Y331D01*
X1748Y331D01*
X1748Y237D01*
X1712Y237D01*
X1712Y229D01*
X1710Y229D01*
X1710Y219D01*
X1708Y219D01*
X1708Y209D01*
X1706Y209D01*
X1706Y199D01*
X1704Y199D01*
X1704Y189D01*
X1702Y189D01*
X1702Y179D01*
X1700Y179D01*
X1700Y169D01*
X1698Y169D01*
X1698Y159D01*
X1696Y159D01*
X1696Y149D01*
X1694Y149D01*
X1694Y139D01*
X1692Y139D01*
X1692Y129D01*
X1690Y129D01*
X1690Y107D01*
X1692Y107D01*
X1692Y105D01*
X1694Y105D01*
X1694Y103D01*
X1696Y103D01*
X1696Y101D01*
X1698Y101D01*
X1698Y97D01*
X1700Y97D01*
X1700Y93D01*
X1702Y93D01*
X1702Y89D01*
X1704Y89D01*
X1704Y81D01*
X1706Y81D01*
X1706Y69D01*
X1704Y69D01*
X1704Y63D01*
X1702Y63D01*
X1702Y41D01*
X1770Y41D01*
X1770Y425D01*
X410Y425D01*
G37*
D02*
G36*
X40Y337D02*
X40Y335D01*
X386Y335D01*
X386Y337D01*
X40Y337D01*
G37*
D02*
G36*
X40Y337D02*
X40Y335D01*
X386Y335D01*
X386Y337D01*
X40Y337D01*
G37*
D02*
G36*
X40Y335D02*
X40Y231D01*
X210Y231D01*
X210Y229D01*
X216Y229D01*
X216Y227D01*
X220Y227D01*
X220Y225D01*
X222Y225D01*
X222Y223D01*
X226Y223D01*
X226Y221D01*
X228Y221D01*
X228Y219D01*
X230Y219D01*
X230Y217D01*
X232Y217D01*
X232Y215D01*
X234Y215D01*
X234Y213D01*
X236Y213D01*
X236Y211D01*
X238Y211D01*
X238Y207D01*
X240Y207D01*
X240Y205D01*
X242Y205D01*
X242Y201D01*
X244Y201D01*
X244Y195D01*
X246Y195D01*
X246Y175D01*
X244Y175D01*
X244Y169D01*
X242Y169D01*
X242Y165D01*
X240Y165D01*
X240Y161D01*
X238Y161D01*
X238Y159D01*
X236Y159D01*
X236Y155D01*
X234Y155D01*
X234Y153D01*
X232Y153D01*
X232Y151D01*
X230Y151D01*
X230Y149D01*
X226Y149D01*
X226Y147D01*
X224Y147D01*
X224Y145D01*
X220Y145D01*
X220Y125D01*
X222Y125D01*
X222Y123D01*
X226Y123D01*
X226Y121D01*
X228Y121D01*
X228Y119D01*
X230Y119D01*
X230Y117D01*
X232Y117D01*
X232Y115D01*
X234Y115D01*
X234Y113D01*
X236Y113D01*
X236Y111D01*
X238Y111D01*
X238Y107D01*
X240Y107D01*
X240Y105D01*
X242Y105D01*
X242Y101D01*
X244Y101D01*
X244Y95D01*
X246Y95D01*
X246Y75D01*
X244Y75D01*
X244Y69D01*
X242Y69D01*
X242Y65D01*
X240Y65D01*
X240Y61D01*
X238Y61D01*
X238Y41D01*
X560Y41D01*
X560Y63D01*
X558Y63D01*
X558Y67D01*
X556Y67D01*
X556Y71D01*
X554Y71D01*
X554Y77D01*
X552Y77D01*
X552Y85D01*
X548Y85D01*
X548Y87D01*
X544Y87D01*
X544Y89D01*
X540Y89D01*
X540Y91D01*
X536Y91D01*
X536Y93D01*
X532Y93D01*
X532Y95D01*
X528Y95D01*
X528Y97D01*
X524Y97D01*
X524Y99D01*
X520Y99D01*
X520Y101D01*
X516Y101D01*
X516Y103D01*
X512Y103D01*
X512Y105D01*
X508Y105D01*
X508Y107D01*
X504Y107D01*
X504Y109D01*
X500Y109D01*
X500Y111D01*
X496Y111D01*
X496Y113D01*
X492Y113D01*
X492Y115D01*
X488Y115D01*
X488Y117D01*
X484Y117D01*
X484Y119D01*
X480Y119D01*
X480Y121D01*
X476Y121D01*
X476Y123D01*
X472Y123D01*
X472Y125D01*
X468Y125D01*
X468Y127D01*
X464Y127D01*
X464Y129D01*
X460Y129D01*
X460Y131D01*
X456Y131D01*
X456Y133D01*
X452Y133D01*
X452Y135D01*
X448Y135D01*
X448Y137D01*
X444Y137D01*
X444Y139D01*
X440Y139D01*
X440Y141D01*
X436Y141D01*
X436Y143D01*
X432Y143D01*
X432Y145D01*
X428Y145D01*
X428Y147D01*
X424Y147D01*
X424Y149D01*
X420Y149D01*
X420Y151D01*
X416Y151D01*
X416Y153D01*
X412Y153D01*
X412Y155D01*
X408Y155D01*
X408Y157D01*
X404Y157D01*
X404Y159D01*
X400Y159D01*
X400Y161D01*
X396Y161D01*
X396Y163D01*
X392Y163D01*
X392Y165D01*
X388Y165D01*
X388Y167D01*
X386Y167D01*
X386Y169D01*
X384Y169D01*
X384Y171D01*
X382Y171D01*
X382Y173D01*
X380Y173D01*
X380Y177D01*
X378Y177D01*
X378Y245D01*
X358Y245D01*
X358Y327D01*
X386Y327D01*
X386Y335D01*
X40Y335D01*
G37*
D02*
G36*
X40Y231D02*
X40Y41D01*
X162Y41D01*
X162Y61D01*
X160Y61D01*
X160Y63D01*
X158Y63D01*
X158Y67D01*
X156Y67D01*
X156Y73D01*
X154Y73D01*
X154Y83D01*
X152Y83D01*
X152Y87D01*
X154Y87D01*
X154Y97D01*
X156Y97D01*
X156Y101D01*
X158Y101D01*
X158Y105D01*
X160Y105D01*
X160Y109D01*
X162Y109D01*
X162Y111D01*
X164Y111D01*
X164Y113D01*
X166Y113D01*
X166Y117D01*
X170Y117D01*
X170Y119D01*
X172Y119D01*
X172Y121D01*
X174Y121D01*
X174Y123D01*
X176Y123D01*
X176Y125D01*
X178Y125D01*
X178Y145D01*
X176Y145D01*
X176Y147D01*
X172Y147D01*
X172Y149D01*
X170Y149D01*
X170Y151D01*
X168Y151D01*
X168Y153D01*
X166Y153D01*
X166Y155D01*
X164Y155D01*
X164Y157D01*
X162Y157D01*
X162Y161D01*
X160Y161D01*
X160Y163D01*
X158Y163D01*
X158Y167D01*
X156Y167D01*
X156Y173D01*
X154Y173D01*
X154Y183D01*
X152Y183D01*
X152Y187D01*
X154Y187D01*
X154Y197D01*
X156Y197D01*
X156Y201D01*
X158Y201D01*
X158Y205D01*
X160Y205D01*
X160Y209D01*
X162Y209D01*
X162Y211D01*
X164Y211D01*
X164Y213D01*
X166Y213D01*
X166Y217D01*
X170Y217D01*
X170Y219D01*
X172Y219D01*
X172Y221D01*
X174Y221D01*
X174Y223D01*
X176Y223D01*
X176Y225D01*
X180Y225D01*
X180Y227D01*
X184Y227D01*
X184Y229D01*
X190Y229D01*
X190Y231D01*
X40Y231D01*
G37*
D02*
G36*
X434Y363D02*
X434Y361D01*
X432Y361D01*
X432Y359D01*
X430Y359D01*
X430Y357D01*
X428Y357D01*
X428Y355D01*
X426Y355D01*
X426Y353D01*
X424Y353D01*
X424Y351D01*
X420Y351D01*
X420Y349D01*
X418Y349D01*
X418Y347D01*
X414Y347D01*
X414Y331D01*
X1612Y331D01*
X1612Y329D01*
X1616Y329D01*
X1616Y327D01*
X1620Y327D01*
X1620Y325D01*
X1624Y325D01*
X1624Y323D01*
X1626Y323D01*
X1626Y321D01*
X1628Y321D01*
X1628Y319D01*
X1632Y319D01*
X1632Y317D01*
X1652Y317D01*
X1652Y331D01*
X1654Y331D01*
X1654Y333D01*
X1678Y333D01*
X1678Y361D01*
X1380Y361D01*
X1380Y363D01*
X434Y363D01*
G37*
D02*
G36*
X414Y331D02*
X414Y327D01*
X442Y327D01*
X442Y315D01*
X506Y315D01*
X506Y313D01*
X510Y313D01*
X510Y311D01*
X514Y311D01*
X514Y309D01*
X516Y309D01*
X516Y307D01*
X960Y307D01*
X960Y309D01*
X962Y309D01*
X962Y313D01*
X964Y313D01*
X964Y315D01*
X966Y315D01*
X966Y317D01*
X968Y317D01*
X968Y319D01*
X970Y319D01*
X970Y321D01*
X974Y321D01*
X974Y323D01*
X976Y323D01*
X976Y325D01*
X980Y325D01*
X980Y327D01*
X982Y327D01*
X982Y329D01*
X988Y329D01*
X988Y331D01*
X414Y331D01*
G37*
D02*
G36*
X1012Y331D02*
X1012Y329D01*
X1016Y329D01*
X1016Y327D01*
X1020Y327D01*
X1020Y325D01*
X1024Y325D01*
X1024Y323D01*
X1026Y323D01*
X1026Y321D01*
X1028Y321D01*
X1028Y319D01*
X1032Y319D01*
X1032Y317D01*
X1034Y317D01*
X1034Y313D01*
X1036Y313D01*
X1036Y311D01*
X1038Y311D01*
X1038Y309D01*
X1040Y309D01*
X1040Y305D01*
X1042Y305D01*
X1042Y301D01*
X1044Y301D01*
X1044Y297D01*
X1046Y297D01*
X1046Y289D01*
X1048Y289D01*
X1048Y281D01*
X1046Y281D01*
X1046Y273D01*
X1044Y273D01*
X1044Y267D01*
X1042Y267D01*
X1042Y263D01*
X1040Y263D01*
X1040Y261D01*
X1038Y261D01*
X1038Y257D01*
X1036Y257D01*
X1036Y255D01*
X1034Y255D01*
X1034Y253D01*
X1032Y253D01*
X1032Y251D01*
X1030Y251D01*
X1030Y249D01*
X1028Y249D01*
X1028Y247D01*
X1026Y247D01*
X1026Y245D01*
X1022Y245D01*
X1022Y243D01*
X1018Y243D01*
X1018Y241D01*
X1014Y241D01*
X1014Y239D01*
X1008Y239D01*
X1008Y237D01*
X1392Y237D01*
X1392Y239D01*
X1386Y239D01*
X1386Y241D01*
X1380Y241D01*
X1380Y243D01*
X1378Y243D01*
X1378Y245D01*
X1374Y245D01*
X1374Y247D01*
X1372Y247D01*
X1372Y249D01*
X1370Y249D01*
X1370Y251D01*
X1368Y251D01*
X1368Y253D01*
X1366Y253D01*
X1366Y255D01*
X1364Y255D01*
X1364Y257D01*
X1362Y257D01*
X1362Y259D01*
X1360Y259D01*
X1360Y263D01*
X1358Y263D01*
X1358Y267D01*
X1356Y267D01*
X1356Y271D01*
X1354Y271D01*
X1354Y277D01*
X1352Y277D01*
X1352Y291D01*
X1354Y291D01*
X1354Y297D01*
X1356Y297D01*
X1356Y303D01*
X1358Y303D01*
X1358Y307D01*
X1360Y307D01*
X1360Y309D01*
X1362Y309D01*
X1362Y313D01*
X1364Y313D01*
X1364Y315D01*
X1366Y315D01*
X1366Y317D01*
X1368Y317D01*
X1368Y319D01*
X1370Y319D01*
X1370Y321D01*
X1374Y321D01*
X1374Y323D01*
X1376Y323D01*
X1376Y325D01*
X1380Y325D01*
X1380Y327D01*
X1382Y327D01*
X1382Y329D01*
X1388Y329D01*
X1388Y331D01*
X1012Y331D01*
G37*
D02*
G36*
X1412Y331D02*
X1412Y329D01*
X1416Y329D01*
X1416Y327D01*
X1420Y327D01*
X1420Y325D01*
X1424Y325D01*
X1424Y323D01*
X1426Y323D01*
X1426Y321D01*
X1428Y321D01*
X1428Y319D01*
X1432Y319D01*
X1432Y317D01*
X1434Y317D01*
X1434Y313D01*
X1436Y313D01*
X1436Y311D01*
X1438Y311D01*
X1438Y309D01*
X1440Y309D01*
X1440Y305D01*
X1442Y305D01*
X1442Y301D01*
X1444Y301D01*
X1444Y297D01*
X1446Y297D01*
X1446Y289D01*
X1448Y289D01*
X1448Y267D01*
X1450Y267D01*
X1450Y265D01*
X1452Y265D01*
X1452Y263D01*
X1454Y263D01*
X1454Y261D01*
X1456Y261D01*
X1456Y259D01*
X1458Y259D01*
X1458Y257D01*
X1460Y257D01*
X1460Y255D01*
X1462Y255D01*
X1462Y253D01*
X1464Y253D01*
X1464Y251D01*
X1466Y251D01*
X1466Y249D01*
X1468Y249D01*
X1468Y247D01*
X1470Y247D01*
X1470Y245D01*
X1472Y245D01*
X1472Y243D01*
X1474Y243D01*
X1474Y241D01*
X1476Y241D01*
X1476Y239D01*
X1478Y239D01*
X1478Y237D01*
X1592Y237D01*
X1592Y239D01*
X1586Y239D01*
X1586Y241D01*
X1580Y241D01*
X1580Y243D01*
X1578Y243D01*
X1578Y245D01*
X1574Y245D01*
X1574Y247D01*
X1572Y247D01*
X1572Y249D01*
X1570Y249D01*
X1570Y251D01*
X1568Y251D01*
X1568Y253D01*
X1566Y253D01*
X1566Y255D01*
X1564Y255D01*
X1564Y257D01*
X1562Y257D01*
X1562Y259D01*
X1560Y259D01*
X1560Y263D01*
X1558Y263D01*
X1558Y267D01*
X1556Y267D01*
X1556Y271D01*
X1554Y271D01*
X1554Y277D01*
X1552Y277D01*
X1552Y291D01*
X1554Y291D01*
X1554Y297D01*
X1556Y297D01*
X1556Y303D01*
X1558Y303D01*
X1558Y307D01*
X1560Y307D01*
X1560Y309D01*
X1562Y309D01*
X1562Y313D01*
X1564Y313D01*
X1564Y315D01*
X1566Y315D01*
X1566Y317D01*
X1568Y317D01*
X1568Y319D01*
X1570Y319D01*
X1570Y321D01*
X1574Y321D01*
X1574Y323D01*
X1576Y323D01*
X1576Y325D01*
X1580Y325D01*
X1580Y327D01*
X1582Y327D01*
X1582Y329D01*
X1588Y329D01*
X1588Y331D01*
X1412Y331D01*
G37*
D02*
G36*
X442Y315D02*
X442Y255D01*
X496Y255D01*
X496Y257D01*
X490Y257D01*
X490Y259D01*
X486Y259D01*
X486Y261D01*
X484Y261D01*
X484Y263D01*
X480Y263D01*
X480Y265D01*
X478Y265D01*
X478Y269D01*
X476Y269D01*
X476Y271D01*
X474Y271D01*
X474Y275D01*
X472Y275D01*
X472Y279D01*
X470Y279D01*
X470Y291D01*
X472Y291D01*
X472Y295D01*
X474Y295D01*
X474Y299D01*
X476Y299D01*
X476Y301D01*
X478Y301D01*
X478Y305D01*
X480Y305D01*
X480Y307D01*
X484Y307D01*
X484Y309D01*
X486Y309D01*
X486Y311D01*
X490Y311D01*
X490Y313D01*
X494Y313D01*
X494Y315D01*
X442Y315D01*
G37*
D02*
G36*
X516Y263D02*
X516Y261D01*
X514Y261D01*
X514Y259D01*
X510Y259D01*
X510Y257D01*
X504Y257D01*
X504Y255D01*
X964Y255D01*
X964Y257D01*
X962Y257D01*
X962Y259D01*
X960Y259D01*
X960Y263D01*
X516Y263D01*
G37*
D02*
G36*
X442Y255D02*
X442Y253D01*
X966Y253D01*
X966Y255D01*
X442Y255D01*
G37*
D02*
G36*
X442Y255D02*
X442Y253D01*
X966Y253D01*
X966Y255D01*
X442Y255D01*
G37*
D02*
G36*
X442Y253D02*
X442Y245D01*
X422Y245D01*
X422Y237D01*
X992Y237D01*
X992Y239D01*
X986Y239D01*
X986Y241D01*
X980Y241D01*
X980Y243D01*
X978Y243D01*
X978Y245D01*
X974Y245D01*
X974Y247D01*
X972Y247D01*
X972Y249D01*
X970Y249D01*
X970Y251D01*
X968Y251D01*
X968Y253D01*
X442Y253D01*
G37*
D02*
G36*
X1632Y253D02*
X1632Y251D01*
X1630Y251D01*
X1630Y249D01*
X1628Y249D01*
X1628Y247D01*
X1626Y247D01*
X1626Y245D01*
X1622Y245D01*
X1622Y243D01*
X1618Y243D01*
X1618Y241D01*
X1614Y241D01*
X1614Y239D01*
X1608Y239D01*
X1608Y237D01*
X1652Y237D01*
X1652Y253D01*
X1632Y253D01*
G37*
D02*
G36*
X422Y237D02*
X422Y235D01*
X1418Y235D01*
X1418Y237D01*
X422Y237D01*
G37*
D02*
G36*
X422Y237D02*
X422Y235D01*
X1418Y235D01*
X1418Y237D01*
X422Y237D01*
G37*
D02*
G36*
X1480Y237D02*
X1480Y235D01*
X1664Y235D01*
X1664Y237D01*
X1480Y237D01*
G37*
D02*
G36*
X1480Y237D02*
X1480Y235D01*
X1664Y235D01*
X1664Y237D01*
X1480Y237D01*
G37*
D02*
G36*
X422Y235D02*
X422Y231D01*
X1112Y231D01*
X1112Y229D01*
X1116Y229D01*
X1116Y227D01*
X1120Y227D01*
X1120Y225D01*
X1124Y225D01*
X1124Y223D01*
X1126Y223D01*
X1126Y221D01*
X1128Y221D01*
X1128Y219D01*
X1132Y219D01*
X1132Y217D01*
X1134Y217D01*
X1134Y213D01*
X1136Y213D01*
X1136Y211D01*
X1138Y211D01*
X1138Y209D01*
X1140Y209D01*
X1140Y207D01*
X1404Y207D01*
X1404Y205D01*
X1410Y205D01*
X1410Y203D01*
X1412Y203D01*
X1412Y201D01*
X1416Y201D01*
X1416Y197D01*
X1418Y197D01*
X1418Y195D01*
X1420Y195D01*
X1420Y191D01*
X1422Y191D01*
X1422Y187D01*
X1424Y187D01*
X1424Y183D01*
X1426Y183D01*
X1426Y179D01*
X1428Y179D01*
X1428Y175D01*
X1430Y175D01*
X1430Y173D01*
X1432Y173D01*
X1432Y169D01*
X1434Y169D01*
X1434Y165D01*
X1436Y165D01*
X1436Y161D01*
X1438Y161D01*
X1438Y157D01*
X1440Y157D01*
X1440Y153D01*
X1442Y153D01*
X1442Y149D01*
X1444Y149D01*
X1444Y147D01*
X1446Y147D01*
X1446Y143D01*
X1448Y143D01*
X1448Y139D01*
X1450Y139D01*
X1450Y135D01*
X1452Y135D01*
X1452Y131D01*
X1454Y131D01*
X1454Y127D01*
X1456Y127D01*
X1456Y123D01*
X1468Y123D01*
X1468Y121D01*
X1474Y121D01*
X1474Y119D01*
X1478Y119D01*
X1478Y117D01*
X1480Y117D01*
X1480Y115D01*
X1484Y115D01*
X1484Y113D01*
X1486Y113D01*
X1486Y111D01*
X1488Y111D01*
X1488Y109D01*
X1490Y109D01*
X1490Y107D01*
X1492Y107D01*
X1492Y105D01*
X1494Y105D01*
X1494Y103D01*
X1514Y103D01*
X1514Y113D01*
X1512Y113D01*
X1512Y117D01*
X1510Y117D01*
X1510Y121D01*
X1508Y121D01*
X1508Y125D01*
X1506Y125D01*
X1506Y127D01*
X1504Y127D01*
X1504Y131D01*
X1502Y131D01*
X1502Y135D01*
X1500Y135D01*
X1500Y137D01*
X1492Y137D01*
X1492Y139D01*
X1486Y139D01*
X1486Y141D01*
X1480Y141D01*
X1480Y143D01*
X1478Y143D01*
X1478Y145D01*
X1474Y145D01*
X1474Y147D01*
X1472Y147D01*
X1472Y149D01*
X1470Y149D01*
X1470Y151D01*
X1468Y151D01*
X1468Y153D01*
X1466Y153D01*
X1466Y155D01*
X1464Y155D01*
X1464Y157D01*
X1462Y157D01*
X1462Y159D01*
X1460Y159D01*
X1460Y163D01*
X1458Y163D01*
X1458Y167D01*
X1456Y167D01*
X1456Y171D01*
X1454Y171D01*
X1454Y177D01*
X1452Y177D01*
X1452Y203D01*
X1450Y203D01*
X1450Y205D01*
X1448Y205D01*
X1448Y207D01*
X1446Y207D01*
X1446Y209D01*
X1444Y209D01*
X1444Y211D01*
X1442Y211D01*
X1442Y213D01*
X1440Y213D01*
X1440Y215D01*
X1438Y215D01*
X1438Y217D01*
X1436Y217D01*
X1436Y219D01*
X1434Y219D01*
X1434Y221D01*
X1432Y221D01*
X1432Y223D01*
X1430Y223D01*
X1430Y225D01*
X1428Y225D01*
X1428Y227D01*
X1426Y227D01*
X1426Y229D01*
X1424Y229D01*
X1424Y231D01*
X1422Y231D01*
X1422Y233D01*
X1420Y233D01*
X1420Y235D01*
X422Y235D01*
G37*
D02*
G36*
X1482Y235D02*
X1482Y233D01*
X1484Y233D01*
X1484Y231D01*
X1512Y231D01*
X1512Y229D01*
X1516Y229D01*
X1516Y227D01*
X1520Y227D01*
X1520Y225D01*
X1524Y225D01*
X1524Y223D01*
X1526Y223D01*
X1526Y221D01*
X1528Y221D01*
X1528Y219D01*
X1532Y219D01*
X1532Y217D01*
X1534Y217D01*
X1534Y213D01*
X1536Y213D01*
X1536Y211D01*
X1538Y211D01*
X1538Y209D01*
X1540Y209D01*
X1540Y205D01*
X1542Y205D01*
X1542Y201D01*
X1544Y201D01*
X1544Y197D01*
X1546Y197D01*
X1546Y189D01*
X1548Y189D01*
X1548Y181D01*
X1546Y181D01*
X1546Y173D01*
X1544Y173D01*
X1544Y147D01*
X1546Y147D01*
X1546Y143D01*
X1548Y143D01*
X1548Y139D01*
X1550Y139D01*
X1550Y135D01*
X1552Y135D01*
X1552Y131D01*
X1554Y131D01*
X1554Y127D01*
X1556Y127D01*
X1556Y125D01*
X1558Y125D01*
X1558Y123D01*
X1568Y123D01*
X1568Y121D01*
X1574Y121D01*
X1574Y119D01*
X1578Y119D01*
X1578Y117D01*
X1580Y117D01*
X1580Y115D01*
X1584Y115D01*
X1584Y113D01*
X1586Y113D01*
X1586Y111D01*
X1588Y111D01*
X1588Y109D01*
X1590Y109D01*
X1590Y107D01*
X1592Y107D01*
X1592Y105D01*
X1594Y105D01*
X1594Y103D01*
X1596Y103D01*
X1596Y101D01*
X1598Y101D01*
X1598Y97D01*
X1618Y97D01*
X1618Y101D01*
X1620Y101D01*
X1620Y103D01*
X1622Y103D01*
X1622Y105D01*
X1624Y105D01*
X1624Y109D01*
X1628Y109D01*
X1628Y111D01*
X1630Y111D01*
X1630Y113D01*
X1632Y113D01*
X1632Y115D01*
X1634Y115D01*
X1634Y117D01*
X1638Y117D01*
X1638Y119D01*
X1642Y119D01*
X1642Y121D01*
X1644Y121D01*
X1644Y123D01*
X1646Y123D01*
X1646Y133D01*
X1648Y133D01*
X1648Y143D01*
X1650Y143D01*
X1650Y153D01*
X1652Y153D01*
X1652Y163D01*
X1654Y163D01*
X1654Y173D01*
X1656Y173D01*
X1656Y183D01*
X1658Y183D01*
X1658Y193D01*
X1660Y193D01*
X1660Y203D01*
X1662Y203D01*
X1662Y213D01*
X1664Y213D01*
X1664Y235D01*
X1482Y235D01*
G37*
D02*
G36*
X422Y231D02*
X422Y197D01*
X426Y197D01*
X426Y195D01*
X430Y195D01*
X430Y193D01*
X434Y193D01*
X434Y191D01*
X438Y191D01*
X438Y189D01*
X442Y189D01*
X442Y187D01*
X446Y187D01*
X446Y185D01*
X450Y185D01*
X450Y183D01*
X454Y183D01*
X454Y181D01*
X458Y181D01*
X458Y179D01*
X462Y179D01*
X462Y177D01*
X466Y177D01*
X466Y175D01*
X470Y175D01*
X470Y173D01*
X474Y173D01*
X474Y171D01*
X478Y171D01*
X478Y169D01*
X482Y169D01*
X482Y167D01*
X486Y167D01*
X486Y165D01*
X490Y165D01*
X490Y163D01*
X494Y163D01*
X494Y161D01*
X498Y161D01*
X498Y159D01*
X502Y159D01*
X502Y157D01*
X506Y157D01*
X506Y155D01*
X510Y155D01*
X510Y153D01*
X514Y153D01*
X514Y151D01*
X518Y151D01*
X518Y149D01*
X522Y149D01*
X522Y147D01*
X526Y147D01*
X526Y145D01*
X530Y145D01*
X530Y143D01*
X534Y143D01*
X534Y141D01*
X538Y141D01*
X538Y139D01*
X542Y139D01*
X542Y137D01*
X1092Y137D01*
X1092Y139D01*
X1086Y139D01*
X1086Y141D01*
X1080Y141D01*
X1080Y143D01*
X1078Y143D01*
X1078Y145D01*
X1074Y145D01*
X1074Y147D01*
X1072Y147D01*
X1072Y149D01*
X1070Y149D01*
X1070Y151D01*
X1068Y151D01*
X1068Y153D01*
X1066Y153D01*
X1066Y155D01*
X1064Y155D01*
X1064Y157D01*
X1062Y157D01*
X1062Y159D01*
X1060Y159D01*
X1060Y163D01*
X1058Y163D01*
X1058Y167D01*
X1056Y167D01*
X1056Y171D01*
X1054Y171D01*
X1054Y177D01*
X1052Y177D01*
X1052Y191D01*
X1054Y191D01*
X1054Y197D01*
X1056Y197D01*
X1056Y203D01*
X1058Y203D01*
X1058Y207D01*
X1060Y207D01*
X1060Y209D01*
X1062Y209D01*
X1062Y213D01*
X1064Y213D01*
X1064Y215D01*
X1066Y215D01*
X1066Y217D01*
X1068Y217D01*
X1068Y219D01*
X1070Y219D01*
X1070Y221D01*
X1074Y221D01*
X1074Y223D01*
X1076Y223D01*
X1076Y225D01*
X1080Y225D01*
X1080Y227D01*
X1082Y227D01*
X1082Y229D01*
X1088Y229D01*
X1088Y231D01*
X422Y231D01*
G37*
D02*
G36*
X1140Y163D02*
X1140Y161D01*
X1138Y161D01*
X1138Y157D01*
X1136Y157D01*
X1136Y155D01*
X1134Y155D01*
X1134Y153D01*
X1132Y153D01*
X1132Y151D01*
X1130Y151D01*
X1130Y149D01*
X1128Y149D01*
X1128Y147D01*
X1126Y147D01*
X1126Y145D01*
X1122Y145D01*
X1122Y143D01*
X1118Y143D01*
X1118Y141D01*
X1114Y141D01*
X1114Y139D01*
X1108Y139D01*
X1108Y137D01*
X1400Y137D01*
X1400Y139D01*
X1398Y139D01*
X1398Y143D01*
X1396Y143D01*
X1396Y147D01*
X1394Y147D01*
X1394Y149D01*
X1392Y149D01*
X1392Y153D01*
X1390Y153D01*
X1390Y157D01*
X1388Y157D01*
X1388Y161D01*
X1386Y161D01*
X1386Y163D01*
X1140Y163D01*
G37*
D02*
G36*
X546Y137D02*
X546Y135D01*
X1400Y135D01*
X1400Y137D01*
X546Y137D01*
G37*
D02*
G36*
X546Y137D02*
X546Y135D01*
X1400Y135D01*
X1400Y137D01*
X546Y137D01*
G37*
D02*
G36*
X550Y135D02*
X550Y133D01*
X554Y133D01*
X554Y131D01*
X612Y131D01*
X612Y129D01*
X616Y129D01*
X616Y127D01*
X620Y127D01*
X620Y125D01*
X624Y125D01*
X624Y123D01*
X1368Y123D01*
X1368Y121D01*
X1374Y121D01*
X1374Y119D01*
X1378Y119D01*
X1378Y117D01*
X1380Y117D01*
X1380Y115D01*
X1384Y115D01*
X1384Y113D01*
X1386Y113D01*
X1386Y111D01*
X1388Y111D01*
X1388Y109D01*
X1390Y109D01*
X1390Y107D01*
X1392Y107D01*
X1392Y105D01*
X1394Y105D01*
X1394Y103D01*
X1414Y103D01*
X1414Y113D01*
X1412Y113D01*
X1412Y117D01*
X1410Y117D01*
X1410Y121D01*
X1408Y121D01*
X1408Y123D01*
X1406Y123D01*
X1406Y127D01*
X1404Y127D01*
X1404Y131D01*
X1402Y131D01*
X1402Y135D01*
X550Y135D01*
G37*
D02*
G36*
X558Y131D02*
X558Y129D01*
X562Y129D01*
X562Y127D01*
X582Y127D01*
X582Y129D01*
X588Y129D01*
X588Y131D01*
X558Y131D01*
G37*
D02*
G36*
X626Y123D02*
X626Y121D01*
X628Y121D01*
X628Y119D01*
X632Y119D01*
X632Y117D01*
X634Y117D01*
X634Y113D01*
X636Y113D01*
X636Y111D01*
X638Y111D01*
X638Y109D01*
X640Y109D01*
X640Y105D01*
X642Y105D01*
X642Y101D01*
X644Y101D01*
X644Y97D01*
X646Y97D01*
X646Y89D01*
X648Y89D01*
X648Y81D01*
X646Y81D01*
X646Y73D01*
X644Y73D01*
X644Y67D01*
X642Y67D01*
X642Y63D01*
X640Y63D01*
X640Y61D01*
X638Y61D01*
X638Y41D01*
X714Y41D01*
X714Y63D01*
X712Y63D01*
X712Y69D01*
X710Y69D01*
X710Y83D01*
X712Y83D01*
X712Y89D01*
X714Y89D01*
X714Y95D01*
X716Y95D01*
X716Y97D01*
X718Y97D01*
X718Y101D01*
X720Y101D01*
X720Y103D01*
X722Y103D01*
X722Y105D01*
X724Y105D01*
X724Y109D01*
X728Y109D01*
X728Y111D01*
X730Y111D01*
X730Y113D01*
X732Y113D01*
X732Y115D01*
X734Y115D01*
X734Y117D01*
X738Y117D01*
X738Y119D01*
X742Y119D01*
X742Y121D01*
X748Y121D01*
X748Y123D01*
X626Y123D01*
G37*
D02*
G36*
X768Y123D02*
X768Y121D01*
X774Y121D01*
X774Y119D01*
X778Y119D01*
X778Y117D01*
X780Y117D01*
X780Y115D01*
X784Y115D01*
X784Y113D01*
X786Y113D01*
X786Y111D01*
X788Y111D01*
X788Y109D01*
X790Y109D01*
X790Y107D01*
X792Y107D01*
X792Y105D01*
X794Y105D01*
X794Y103D01*
X796Y103D01*
X796Y101D01*
X798Y101D01*
X798Y99D01*
X818Y99D01*
X818Y103D01*
X820Y103D01*
X820Y105D01*
X822Y105D01*
X822Y107D01*
X824Y107D01*
X824Y109D01*
X826Y109D01*
X826Y111D01*
X828Y111D01*
X828Y113D01*
X830Y113D01*
X830Y115D01*
X834Y115D01*
X834Y117D01*
X838Y117D01*
X838Y119D01*
X842Y119D01*
X842Y121D01*
X848Y121D01*
X848Y123D01*
X768Y123D01*
G37*
D02*
G36*
X866Y123D02*
X866Y121D01*
X872Y121D01*
X872Y119D01*
X876Y119D01*
X876Y117D01*
X880Y117D01*
X880Y115D01*
X882Y115D01*
X882Y113D01*
X884Y113D01*
X884Y111D01*
X888Y111D01*
X888Y109D01*
X890Y109D01*
X890Y107D01*
X892Y107D01*
X892Y103D01*
X894Y103D01*
X894Y101D01*
X896Y101D01*
X896Y99D01*
X898Y99D01*
X898Y97D01*
X918Y97D01*
X918Y101D01*
X920Y101D01*
X920Y103D01*
X922Y103D01*
X922Y105D01*
X924Y105D01*
X924Y109D01*
X928Y109D01*
X928Y111D01*
X930Y111D01*
X930Y113D01*
X932Y113D01*
X932Y115D01*
X934Y115D01*
X934Y117D01*
X938Y117D01*
X938Y119D01*
X942Y119D01*
X942Y121D01*
X948Y121D01*
X948Y123D01*
X866Y123D01*
G37*
D02*
G36*
X968Y123D02*
X968Y121D01*
X974Y121D01*
X974Y119D01*
X978Y119D01*
X978Y117D01*
X980Y117D01*
X980Y115D01*
X984Y115D01*
X984Y113D01*
X986Y113D01*
X986Y111D01*
X988Y111D01*
X988Y109D01*
X990Y109D01*
X990Y107D01*
X992Y107D01*
X992Y105D01*
X994Y105D01*
X994Y103D01*
X996Y103D01*
X996Y101D01*
X998Y101D01*
X998Y97D01*
X1018Y97D01*
X1018Y101D01*
X1020Y101D01*
X1020Y103D01*
X1022Y103D01*
X1022Y105D01*
X1024Y105D01*
X1024Y109D01*
X1028Y109D01*
X1028Y111D01*
X1030Y111D01*
X1030Y113D01*
X1032Y113D01*
X1032Y115D01*
X1034Y115D01*
X1034Y117D01*
X1038Y117D01*
X1038Y119D01*
X1042Y119D01*
X1042Y121D01*
X1048Y121D01*
X1048Y123D01*
X968Y123D01*
G37*
D02*
G36*
X1068Y123D02*
X1068Y121D01*
X1074Y121D01*
X1074Y119D01*
X1078Y119D01*
X1078Y117D01*
X1080Y117D01*
X1080Y115D01*
X1084Y115D01*
X1084Y113D01*
X1086Y113D01*
X1086Y111D01*
X1088Y111D01*
X1088Y109D01*
X1090Y109D01*
X1090Y107D01*
X1092Y107D01*
X1092Y105D01*
X1094Y105D01*
X1094Y103D01*
X1096Y103D01*
X1096Y101D01*
X1098Y101D01*
X1098Y97D01*
X1118Y97D01*
X1118Y101D01*
X1120Y101D01*
X1120Y103D01*
X1122Y103D01*
X1122Y105D01*
X1124Y105D01*
X1124Y109D01*
X1128Y109D01*
X1128Y111D01*
X1130Y111D01*
X1130Y113D01*
X1132Y113D01*
X1132Y115D01*
X1134Y115D01*
X1134Y117D01*
X1138Y117D01*
X1138Y119D01*
X1142Y119D01*
X1142Y121D01*
X1148Y121D01*
X1148Y123D01*
X1068Y123D01*
G37*
D02*
G36*
X1168Y123D02*
X1168Y121D01*
X1174Y121D01*
X1174Y119D01*
X1178Y119D01*
X1178Y117D01*
X1180Y117D01*
X1180Y115D01*
X1184Y115D01*
X1184Y113D01*
X1186Y113D01*
X1186Y111D01*
X1188Y111D01*
X1188Y109D01*
X1190Y109D01*
X1190Y107D01*
X1192Y107D01*
X1192Y105D01*
X1194Y105D01*
X1194Y103D01*
X1196Y103D01*
X1196Y101D01*
X1198Y101D01*
X1198Y97D01*
X1218Y97D01*
X1218Y101D01*
X1220Y101D01*
X1220Y103D01*
X1222Y103D01*
X1222Y105D01*
X1224Y105D01*
X1224Y109D01*
X1228Y109D01*
X1228Y111D01*
X1230Y111D01*
X1230Y113D01*
X1232Y113D01*
X1232Y115D01*
X1234Y115D01*
X1234Y117D01*
X1238Y117D01*
X1238Y119D01*
X1242Y119D01*
X1242Y121D01*
X1248Y121D01*
X1248Y123D01*
X1168Y123D01*
G37*
D02*
G36*
X1268Y123D02*
X1268Y121D01*
X1274Y121D01*
X1274Y119D01*
X1278Y119D01*
X1278Y117D01*
X1280Y117D01*
X1280Y115D01*
X1284Y115D01*
X1284Y113D01*
X1286Y113D01*
X1286Y111D01*
X1288Y111D01*
X1288Y109D01*
X1290Y109D01*
X1290Y107D01*
X1292Y107D01*
X1292Y105D01*
X1294Y105D01*
X1294Y103D01*
X1296Y103D01*
X1296Y101D01*
X1298Y101D01*
X1298Y97D01*
X1318Y97D01*
X1318Y101D01*
X1320Y101D01*
X1320Y103D01*
X1322Y103D01*
X1322Y105D01*
X1324Y105D01*
X1324Y109D01*
X1328Y109D01*
X1328Y111D01*
X1330Y111D01*
X1330Y113D01*
X1332Y113D01*
X1332Y115D01*
X1334Y115D01*
X1334Y117D01*
X1338Y117D01*
X1338Y119D01*
X1342Y119D01*
X1342Y121D01*
X1348Y121D01*
X1348Y123D01*
X1268Y123D01*
G37*
D02*
G04 End of Copper0*
M02*