G04 MADE WITH FRITZING*
G04 WWW.FRITZING.ORG*
G04 DOUBLE SIDED*
G04 HOLES PLATED*
G04 CONTOUR ON CENTER OF CONTOUR VECTOR*
%ASAXBY*%
%FSLAX23Y23*%
%MOIN*%
%OFA0B0*%
%SFA1.0B1.0*%
%ADD10C,0.010000*%
%ADD11R,0.001000X0.001000*%
%LNSILK0*%
G90*
G70*
G54D10*
X567Y375D02*
X567Y175D01*
D02*
X567Y175D02*
X633Y175D01*
D02*
X633Y175D02*
X633Y375D01*
D02*
X633Y375D02*
X567Y375D01*
D02*
X1209Y152D02*
X1409Y152D01*
D02*
X1409Y152D02*
X1409Y218D01*
D02*
X1409Y218D02*
X1209Y218D01*
D02*
X1209Y218D02*
X1209Y152D01*
D02*
X1109Y252D02*
X1309Y252D01*
D02*
X1309Y252D02*
X1309Y318D01*
D02*
X1309Y318D02*
X1109Y318D01*
D02*
X1109Y318D02*
X1109Y252D01*
G54D11*
X0Y551D02*
X1810Y551D01*
X0Y550D02*
X1810Y550D01*
X0Y549D02*
X1810Y549D01*
X0Y548D02*
X1810Y548D01*
X0Y547D02*
X1810Y547D01*
X0Y546D02*
X1810Y546D01*
X0Y545D02*
X1810Y545D01*
X0Y544D02*
X1810Y544D01*
X0Y543D02*
X7Y543D01*
X1803Y543D02*
X1810Y543D01*
X0Y542D02*
X7Y542D01*
X1803Y542D02*
X1810Y542D01*
X0Y541D02*
X7Y541D01*
X1803Y541D02*
X1810Y541D01*
X0Y540D02*
X7Y540D01*
X1803Y540D02*
X1810Y540D01*
X0Y539D02*
X7Y539D01*
X1803Y539D02*
X1810Y539D01*
X0Y538D02*
X7Y538D01*
X1803Y538D02*
X1810Y538D01*
X0Y537D02*
X7Y537D01*
X1803Y537D02*
X1810Y537D01*
X0Y536D02*
X7Y536D01*
X1803Y536D02*
X1810Y536D01*
X0Y535D02*
X7Y535D01*
X1803Y535D02*
X1810Y535D01*
X0Y534D02*
X7Y534D01*
X1803Y534D02*
X1810Y534D01*
X0Y533D02*
X7Y533D01*
X1803Y533D02*
X1810Y533D01*
X0Y532D02*
X7Y532D01*
X1803Y532D02*
X1810Y532D01*
X0Y531D02*
X7Y531D01*
X1803Y531D02*
X1810Y531D01*
X0Y530D02*
X7Y530D01*
X1803Y530D02*
X1810Y530D01*
X0Y529D02*
X7Y529D01*
X1803Y529D02*
X1810Y529D01*
X0Y528D02*
X7Y528D01*
X1803Y528D02*
X1810Y528D01*
X0Y527D02*
X7Y527D01*
X1803Y527D02*
X1810Y527D01*
X0Y526D02*
X7Y526D01*
X1803Y526D02*
X1810Y526D01*
X0Y525D02*
X7Y525D01*
X1803Y525D02*
X1810Y525D01*
X0Y524D02*
X7Y524D01*
X1803Y524D02*
X1810Y524D01*
X0Y523D02*
X7Y523D01*
X1803Y523D02*
X1810Y523D01*
X0Y522D02*
X7Y522D01*
X1803Y522D02*
X1810Y522D01*
X0Y521D02*
X7Y521D01*
X1803Y521D02*
X1810Y521D01*
X0Y520D02*
X7Y520D01*
X1803Y520D02*
X1810Y520D01*
X0Y519D02*
X7Y519D01*
X1803Y519D02*
X1810Y519D01*
X0Y518D02*
X7Y518D01*
X1803Y518D02*
X1810Y518D01*
X0Y517D02*
X7Y517D01*
X257Y517D02*
X270Y517D01*
X293Y517D02*
X322Y517D01*
X449Y517D02*
X472Y517D01*
X493Y517D02*
X520Y517D01*
X1803Y517D02*
X1810Y517D01*
X0Y516D02*
X7Y516D01*
X253Y516D02*
X272Y516D01*
X290Y516D02*
X323Y516D01*
X368Y516D02*
X372Y516D01*
X445Y516D02*
X473Y516D01*
X490Y516D02*
X522Y516D01*
X1803Y516D02*
X1810Y516D01*
X0Y515D02*
X7Y515D01*
X251Y515D02*
X272Y515D01*
X290Y515D02*
X323Y515D01*
X367Y515D02*
X372Y515D01*
X444Y515D02*
X473Y515D01*
X490Y515D02*
X522Y515D01*
X1803Y515D02*
X1810Y515D01*
X0Y514D02*
X7Y514D01*
X250Y514D02*
X273Y514D01*
X289Y514D02*
X323Y514D01*
X367Y514D02*
X373Y514D01*
X443Y514D02*
X473Y514D01*
X489Y514D02*
X523Y514D01*
X1803Y514D02*
X1810Y514D01*
X0Y513D02*
X7Y513D01*
X249Y513D02*
X273Y513D01*
X289Y513D02*
X323Y513D01*
X367Y513D02*
X373Y513D01*
X442Y513D02*
X473Y513D01*
X489Y513D02*
X523Y513D01*
X1803Y513D02*
X1810Y513D01*
X0Y512D02*
X7Y512D01*
X249Y512D02*
X272Y512D01*
X290Y512D02*
X323Y512D01*
X367Y512D02*
X373Y512D01*
X441Y512D02*
X473Y512D01*
X490Y512D02*
X522Y512D01*
X1803Y512D02*
X1810Y512D01*
X0Y511D02*
X7Y511D01*
X248Y511D02*
X272Y511D01*
X290Y511D02*
X323Y511D01*
X367Y511D02*
X373Y511D01*
X440Y511D02*
X473Y511D01*
X490Y511D02*
X522Y511D01*
X1803Y511D02*
X1810Y511D01*
X0Y510D02*
X7Y510D01*
X247Y510D02*
X256Y510D01*
X260Y510D02*
X266Y510D01*
X316Y510D02*
X323Y510D01*
X367Y510D02*
X373Y510D01*
X440Y510D02*
X449Y510D01*
X466Y510D02*
X473Y510D01*
X503Y510D02*
X510Y510D01*
X1803Y510D02*
X1810Y510D01*
X0Y509D02*
X7Y509D01*
X247Y509D02*
X254Y509D01*
X260Y509D02*
X266Y509D01*
X317Y509D02*
X323Y509D01*
X367Y509D02*
X373Y509D01*
X440Y509D02*
X446Y509D01*
X467Y509D02*
X473Y509D01*
X503Y509D02*
X509Y509D01*
X1803Y509D02*
X1810Y509D01*
X0Y508D02*
X7Y508D01*
X246Y508D02*
X253Y508D01*
X260Y508D02*
X266Y508D01*
X317Y508D02*
X323Y508D01*
X367Y508D02*
X373Y508D01*
X439Y508D02*
X446Y508D01*
X467Y508D02*
X473Y508D01*
X503Y508D02*
X509Y508D01*
X1803Y508D02*
X1810Y508D01*
X0Y507D02*
X7Y507D01*
X246Y507D02*
X253Y507D01*
X260Y507D02*
X266Y507D01*
X317Y507D02*
X323Y507D01*
X367Y507D02*
X373Y507D01*
X439Y507D02*
X445Y507D01*
X467Y507D02*
X473Y507D01*
X503Y507D02*
X509Y507D01*
X1803Y507D02*
X1810Y507D01*
X0Y506D02*
X7Y506D01*
X245Y506D02*
X252Y506D01*
X260Y506D02*
X266Y506D01*
X317Y506D02*
X323Y506D01*
X367Y506D02*
X373Y506D01*
X439Y506D02*
X445Y506D01*
X467Y506D02*
X473Y506D01*
X503Y506D02*
X509Y506D01*
X1803Y506D02*
X1810Y506D01*
X0Y505D02*
X7Y505D01*
X245Y505D02*
X252Y505D01*
X260Y505D02*
X266Y505D01*
X317Y505D02*
X323Y505D01*
X367Y505D02*
X373Y505D01*
X439Y505D02*
X445Y505D01*
X467Y505D02*
X473Y505D01*
X503Y505D02*
X509Y505D01*
X1803Y505D02*
X1810Y505D01*
X0Y504D02*
X7Y504D01*
X244Y504D02*
X251Y504D01*
X260Y504D02*
X266Y504D01*
X317Y504D02*
X323Y504D01*
X367Y504D02*
X373Y504D01*
X439Y504D02*
X445Y504D01*
X467Y504D02*
X473Y504D01*
X503Y504D02*
X509Y504D01*
X1803Y504D02*
X1810Y504D01*
X0Y503D02*
X7Y503D01*
X244Y503D02*
X251Y503D01*
X260Y503D02*
X266Y503D01*
X317Y503D02*
X323Y503D01*
X367Y503D02*
X373Y503D01*
X439Y503D02*
X445Y503D01*
X467Y503D02*
X473Y503D01*
X503Y503D02*
X509Y503D01*
X1803Y503D02*
X1810Y503D01*
X0Y502D02*
X7Y502D01*
X243Y502D02*
X250Y502D01*
X260Y502D02*
X266Y502D01*
X317Y502D02*
X323Y502D01*
X367Y502D02*
X373Y502D01*
X439Y502D02*
X445Y502D01*
X467Y502D02*
X473Y502D01*
X503Y502D02*
X509Y502D01*
X1803Y502D02*
X1810Y502D01*
X0Y501D02*
X7Y501D01*
X243Y501D02*
X250Y501D01*
X260Y501D02*
X266Y501D01*
X317Y501D02*
X323Y501D01*
X367Y501D02*
X373Y501D01*
X439Y501D02*
X446Y501D01*
X467Y501D02*
X473Y501D01*
X503Y501D02*
X509Y501D01*
X1803Y501D02*
X1810Y501D01*
X0Y500D02*
X7Y500D01*
X242Y500D02*
X249Y500D01*
X260Y500D02*
X266Y500D01*
X317Y500D02*
X323Y500D01*
X367Y500D02*
X373Y500D01*
X440Y500D02*
X447Y500D01*
X467Y500D02*
X473Y500D01*
X503Y500D02*
X509Y500D01*
X1803Y500D02*
X1810Y500D01*
X0Y499D02*
X7Y499D01*
X242Y499D02*
X249Y499D01*
X260Y499D02*
X266Y499D01*
X317Y499D02*
X323Y499D01*
X367Y499D02*
X373Y499D01*
X440Y499D02*
X473Y499D01*
X503Y499D02*
X509Y499D01*
X1803Y499D02*
X1810Y499D01*
X0Y498D02*
X7Y498D01*
X241Y498D02*
X248Y498D01*
X260Y498D02*
X266Y498D01*
X317Y498D02*
X323Y498D01*
X367Y498D02*
X373Y498D01*
X441Y498D02*
X473Y498D01*
X503Y498D02*
X509Y498D01*
X1803Y498D02*
X1810Y498D01*
X0Y497D02*
X7Y497D01*
X241Y497D02*
X248Y497D01*
X260Y497D02*
X266Y497D01*
X317Y497D02*
X323Y497D01*
X367Y497D02*
X373Y497D01*
X441Y497D02*
X473Y497D01*
X503Y497D02*
X509Y497D01*
X1803Y497D02*
X1810Y497D01*
X0Y496D02*
X7Y496D01*
X241Y496D02*
X247Y496D01*
X260Y496D02*
X266Y496D01*
X317Y496D02*
X323Y496D01*
X367Y496D02*
X373Y496D01*
X442Y496D02*
X473Y496D01*
X503Y496D02*
X509Y496D01*
X1803Y496D02*
X1810Y496D01*
X0Y495D02*
X7Y495D01*
X240Y495D02*
X247Y495D01*
X260Y495D02*
X266Y495D01*
X317Y495D02*
X323Y495D01*
X367Y495D02*
X373Y495D01*
X443Y495D02*
X473Y495D01*
X503Y495D02*
X509Y495D01*
X1803Y495D02*
X1810Y495D01*
X0Y494D02*
X7Y494D01*
X240Y494D02*
X246Y494D01*
X260Y494D02*
X266Y494D01*
X317Y494D02*
X323Y494D01*
X367Y494D02*
X373Y494D01*
X444Y494D02*
X473Y494D01*
X503Y494D02*
X509Y494D01*
X1803Y494D02*
X1810Y494D01*
X0Y493D02*
X7Y493D01*
X240Y493D02*
X246Y493D01*
X260Y493D02*
X266Y493D01*
X305Y493D02*
X323Y493D01*
X367Y493D02*
X373Y493D01*
X446Y493D02*
X473Y493D01*
X503Y493D02*
X509Y493D01*
X1803Y493D02*
X1810Y493D01*
X0Y492D02*
X7Y492D01*
X239Y492D02*
X246Y492D01*
X260Y492D02*
X266Y492D01*
X304Y492D02*
X323Y492D01*
X367Y492D02*
X373Y492D01*
X454Y492D02*
X461Y492D01*
X467Y492D02*
X473Y492D01*
X503Y492D02*
X509Y492D01*
X1803Y492D02*
X1810Y492D01*
X0Y491D02*
X7Y491D01*
X239Y491D02*
X245Y491D01*
X260Y491D02*
X266Y491D01*
X303Y491D02*
X323Y491D01*
X367Y491D02*
X373Y491D01*
X453Y491D02*
X460Y491D01*
X467Y491D02*
X473Y491D01*
X503Y491D02*
X509Y491D01*
X1803Y491D02*
X1810Y491D01*
X0Y490D02*
X7Y490D01*
X239Y490D02*
X245Y490D01*
X260Y490D02*
X266Y490D01*
X303Y490D02*
X323Y490D01*
X367Y490D02*
X373Y490D01*
X452Y490D02*
X460Y490D01*
X467Y490D02*
X473Y490D01*
X503Y490D02*
X509Y490D01*
X1803Y490D02*
X1810Y490D01*
X0Y489D02*
X7Y489D01*
X239Y489D02*
X245Y489D01*
X260Y489D02*
X266Y489D01*
X303Y489D02*
X323Y489D01*
X367Y489D02*
X373Y489D01*
X452Y489D02*
X459Y489D01*
X467Y489D02*
X473Y489D01*
X503Y489D02*
X509Y489D01*
X1803Y489D02*
X1810Y489D01*
X0Y488D02*
X7Y488D01*
X239Y488D02*
X246Y488D01*
X260Y488D02*
X266Y488D01*
X304Y488D02*
X323Y488D01*
X367Y488D02*
X373Y488D01*
X451Y488D02*
X459Y488D01*
X467Y488D02*
X473Y488D01*
X503Y488D02*
X509Y488D01*
X1803Y488D02*
X1810Y488D01*
X0Y487D02*
X7Y487D01*
X240Y487D02*
X246Y487D01*
X260Y487D02*
X266Y487D01*
X305Y487D02*
X323Y487D01*
X367Y487D02*
X373Y487D01*
X451Y487D02*
X458Y487D01*
X467Y487D02*
X473Y487D01*
X503Y487D02*
X509Y487D01*
X1803Y487D02*
X1810Y487D01*
X0Y486D02*
X7Y486D01*
X240Y486D02*
X246Y486D01*
X260Y486D02*
X266Y486D01*
X317Y486D02*
X323Y486D01*
X367Y486D02*
X373Y486D01*
X450Y486D02*
X457Y486D01*
X467Y486D02*
X473Y486D01*
X503Y486D02*
X509Y486D01*
X1803Y486D02*
X1810Y486D01*
X0Y485D02*
X7Y485D01*
X240Y485D02*
X247Y485D01*
X260Y485D02*
X266Y485D01*
X317Y485D02*
X323Y485D01*
X367Y485D02*
X373Y485D01*
X450Y485D02*
X457Y485D01*
X467Y485D02*
X473Y485D01*
X503Y485D02*
X509Y485D01*
X1803Y485D02*
X1810Y485D01*
X0Y484D02*
X7Y484D01*
X241Y484D02*
X247Y484D01*
X260Y484D02*
X266Y484D01*
X317Y484D02*
X323Y484D01*
X367Y484D02*
X373Y484D01*
X449Y484D02*
X456Y484D01*
X467Y484D02*
X473Y484D01*
X503Y484D02*
X509Y484D01*
X1803Y484D02*
X1810Y484D01*
X0Y483D02*
X7Y483D01*
X241Y483D02*
X248Y483D01*
X260Y483D02*
X266Y483D01*
X317Y483D02*
X323Y483D01*
X367Y483D02*
X373Y483D01*
X448Y483D02*
X456Y483D01*
X467Y483D02*
X473Y483D01*
X503Y483D02*
X509Y483D01*
X1803Y483D02*
X1810Y483D01*
X0Y482D02*
X7Y482D01*
X241Y482D02*
X248Y482D01*
X260Y482D02*
X266Y482D01*
X317Y482D02*
X323Y482D01*
X367Y482D02*
X373Y482D01*
X448Y482D02*
X455Y482D01*
X467Y482D02*
X473Y482D01*
X503Y482D02*
X509Y482D01*
X1803Y482D02*
X1810Y482D01*
X0Y481D02*
X7Y481D01*
X242Y481D02*
X249Y481D01*
X260Y481D02*
X266Y481D01*
X317Y481D02*
X323Y481D01*
X367Y481D02*
X373Y481D01*
X447Y481D02*
X454Y481D01*
X467Y481D02*
X473Y481D01*
X503Y481D02*
X509Y481D01*
X1803Y481D02*
X1810Y481D01*
X0Y480D02*
X7Y480D01*
X242Y480D02*
X249Y480D01*
X260Y480D02*
X266Y480D01*
X317Y480D02*
X323Y480D01*
X367Y480D02*
X373Y480D01*
X447Y480D02*
X454Y480D01*
X467Y480D02*
X473Y480D01*
X503Y480D02*
X509Y480D01*
X1803Y480D02*
X1810Y480D01*
X0Y479D02*
X7Y479D01*
X243Y479D02*
X250Y479D01*
X260Y479D02*
X266Y479D01*
X317Y479D02*
X323Y479D01*
X367Y479D02*
X373Y479D01*
X446Y479D02*
X453Y479D01*
X467Y479D02*
X473Y479D01*
X503Y479D02*
X509Y479D01*
X1803Y479D02*
X1810Y479D01*
X0Y478D02*
X7Y478D01*
X243Y478D02*
X250Y478D01*
X260Y478D02*
X266Y478D01*
X317Y478D02*
X323Y478D01*
X367Y478D02*
X373Y478D01*
X445Y478D02*
X453Y478D01*
X467Y478D02*
X473Y478D01*
X503Y478D02*
X509Y478D01*
X1803Y478D02*
X1810Y478D01*
X0Y477D02*
X7Y477D01*
X244Y477D02*
X251Y477D01*
X260Y477D02*
X266Y477D01*
X317Y477D02*
X323Y477D01*
X367Y477D02*
X373Y477D01*
X445Y477D02*
X452Y477D01*
X467Y477D02*
X473Y477D01*
X503Y477D02*
X509Y477D01*
X1803Y477D02*
X1810Y477D01*
X0Y476D02*
X7Y476D01*
X244Y476D02*
X251Y476D01*
X260Y476D02*
X266Y476D01*
X317Y476D02*
X323Y476D01*
X367Y476D02*
X373Y476D01*
X444Y476D02*
X452Y476D01*
X467Y476D02*
X473Y476D01*
X503Y476D02*
X509Y476D01*
X1803Y476D02*
X1810Y476D01*
X0Y475D02*
X7Y475D01*
X245Y475D02*
X252Y475D01*
X260Y475D02*
X266Y475D01*
X317Y475D02*
X323Y475D01*
X367Y475D02*
X373Y475D01*
X444Y475D02*
X451Y475D01*
X467Y475D02*
X473Y475D01*
X503Y475D02*
X509Y475D01*
X1803Y475D02*
X1810Y475D01*
X0Y474D02*
X7Y474D01*
X245Y474D02*
X252Y474D01*
X260Y474D02*
X266Y474D01*
X317Y474D02*
X323Y474D01*
X367Y474D02*
X373Y474D01*
X443Y474D02*
X450Y474D01*
X467Y474D02*
X473Y474D01*
X503Y474D02*
X509Y474D01*
X1803Y474D02*
X1810Y474D01*
X0Y473D02*
X7Y473D01*
X246Y473D02*
X253Y473D01*
X260Y473D02*
X266Y473D01*
X317Y473D02*
X323Y473D01*
X367Y473D02*
X373Y473D01*
X443Y473D02*
X450Y473D01*
X467Y473D02*
X473Y473D01*
X503Y473D02*
X509Y473D01*
X1803Y473D02*
X1810Y473D01*
X0Y472D02*
X7Y472D01*
X246Y472D02*
X253Y472D01*
X260Y472D02*
X266Y472D01*
X317Y472D02*
X323Y472D01*
X367Y472D02*
X373Y472D01*
X442Y472D02*
X449Y472D01*
X467Y472D02*
X473Y472D01*
X503Y472D02*
X509Y472D01*
X1803Y472D02*
X1810Y472D01*
X0Y471D02*
X7Y471D01*
X247Y471D02*
X254Y471D01*
X260Y471D02*
X266Y471D01*
X317Y471D02*
X323Y471D01*
X367Y471D02*
X373Y471D01*
X441Y471D02*
X449Y471D01*
X467Y471D02*
X473Y471D01*
X503Y471D02*
X509Y471D01*
X1803Y471D02*
X1810Y471D01*
X0Y470D02*
X7Y470D01*
X247Y470D02*
X256Y470D01*
X260Y470D02*
X266Y470D01*
X317Y470D02*
X323Y470D01*
X367Y470D02*
X373Y470D01*
X441Y470D02*
X448Y470D01*
X467Y470D02*
X473Y470D01*
X503Y470D02*
X509Y470D01*
X1803Y470D02*
X1810Y470D01*
X0Y469D02*
X7Y469D01*
X248Y469D02*
X272Y469D01*
X291Y469D02*
X323Y469D01*
X341Y469D02*
X373Y469D01*
X440Y469D02*
X447Y469D01*
X467Y469D02*
X473Y469D01*
X491Y469D02*
X522Y469D01*
X1803Y469D02*
X1810Y469D01*
X0Y468D02*
X7Y468D01*
X248Y468D02*
X272Y468D01*
X290Y468D02*
X323Y468D01*
X340Y468D02*
X373Y468D01*
X440Y468D02*
X447Y468D01*
X467Y468D02*
X473Y468D01*
X490Y468D02*
X522Y468D01*
X1803Y468D02*
X1810Y468D01*
X0Y467D02*
X7Y467D01*
X249Y467D02*
X273Y467D01*
X289Y467D02*
X323Y467D01*
X339Y467D02*
X373Y467D01*
X439Y467D02*
X446Y467D01*
X467Y467D02*
X473Y467D01*
X489Y467D02*
X523Y467D01*
X1803Y467D02*
X1810Y467D01*
X0Y466D02*
X7Y466D01*
X250Y466D02*
X273Y466D01*
X289Y466D02*
X323Y466D01*
X339Y466D02*
X373Y466D01*
X439Y466D02*
X446Y466D01*
X467Y466D02*
X473Y466D01*
X489Y466D02*
X523Y466D01*
X1803Y466D02*
X1810Y466D01*
X0Y465D02*
X7Y465D01*
X251Y465D02*
X273Y465D01*
X290Y465D02*
X323Y465D01*
X340Y465D02*
X373Y465D01*
X440Y465D02*
X445Y465D01*
X467Y465D02*
X473Y465D01*
X490Y465D02*
X523Y465D01*
X1803Y465D02*
X1810Y465D01*
X0Y464D02*
X7Y464D01*
X253Y464D02*
X272Y464D01*
X290Y464D02*
X323Y464D01*
X340Y464D02*
X373Y464D01*
X440Y464D02*
X444Y464D01*
X468Y464D02*
X472Y464D01*
X490Y464D02*
X522Y464D01*
X1803Y464D02*
X1810Y464D01*
X0Y463D02*
X7Y463D01*
X257Y463D02*
X270Y463D01*
X292Y463D02*
X323Y463D01*
X342Y463D02*
X373Y463D01*
X442Y463D02*
X443Y463D01*
X470Y463D02*
X470Y463D01*
X492Y463D02*
X520Y463D01*
X1803Y463D02*
X1810Y463D01*
X0Y462D02*
X7Y462D01*
X391Y462D02*
X422Y462D01*
X1803Y462D02*
X1810Y462D01*
X0Y461D02*
X7Y461D01*
X390Y461D02*
X422Y461D01*
X1803Y461D02*
X1810Y461D01*
X0Y460D02*
X7Y460D01*
X389Y460D02*
X423Y460D01*
X1803Y460D02*
X1810Y460D01*
X0Y459D02*
X7Y459D01*
X389Y459D02*
X423Y459D01*
X1803Y459D02*
X1810Y459D01*
X0Y458D02*
X7Y458D01*
X390Y458D02*
X423Y458D01*
X1803Y458D02*
X1810Y458D01*
X0Y457D02*
X7Y457D01*
X390Y457D02*
X422Y457D01*
X1803Y457D02*
X1810Y457D01*
X0Y456D02*
X7Y456D01*
X392Y456D02*
X420Y456D01*
X1803Y456D02*
X1810Y456D01*
X0Y455D02*
X7Y455D01*
X1803Y455D02*
X1810Y455D01*
X0Y454D02*
X7Y454D01*
X1803Y454D02*
X1810Y454D01*
X0Y453D02*
X7Y453D01*
X1803Y453D02*
X1810Y453D01*
X0Y452D02*
X7Y452D01*
X1803Y452D02*
X1810Y452D01*
X0Y451D02*
X7Y451D01*
X1803Y451D02*
X1810Y451D01*
X0Y450D02*
X7Y450D01*
X1803Y450D02*
X1810Y450D01*
X0Y449D02*
X7Y449D01*
X1803Y449D02*
X1810Y449D01*
X0Y448D02*
X7Y448D01*
X1803Y448D02*
X1810Y448D01*
X0Y447D02*
X7Y447D01*
X1803Y447D02*
X1810Y447D01*
X0Y446D02*
X7Y446D01*
X1803Y446D02*
X1810Y446D01*
X0Y445D02*
X7Y445D01*
X1803Y445D02*
X1810Y445D01*
X0Y444D02*
X7Y444D01*
X1803Y444D02*
X1810Y444D01*
X0Y443D02*
X7Y443D01*
X1803Y443D02*
X1810Y443D01*
X0Y442D02*
X7Y442D01*
X595Y442D02*
X604Y442D01*
X1803Y442D02*
X1810Y442D01*
X0Y441D02*
X7Y441D01*
X595Y441D02*
X604Y441D01*
X1803Y441D02*
X1810Y441D01*
X0Y440D02*
X7Y440D01*
X595Y440D02*
X604Y440D01*
X1803Y440D02*
X1810Y440D01*
X0Y439D02*
X7Y439D01*
X595Y439D02*
X604Y439D01*
X1803Y439D02*
X1810Y439D01*
X0Y438D02*
X7Y438D01*
X595Y438D02*
X604Y438D01*
X1803Y438D02*
X1810Y438D01*
X0Y437D02*
X7Y437D01*
X114Y437D02*
X333Y437D01*
X595Y437D02*
X604Y437D01*
X1803Y437D02*
X1810Y437D01*
X0Y436D02*
X7Y436D01*
X114Y436D02*
X333Y436D01*
X595Y436D02*
X604Y436D01*
X1803Y436D02*
X1810Y436D01*
X0Y435D02*
X7Y435D01*
X114Y435D02*
X333Y435D01*
X595Y435D02*
X604Y435D01*
X1803Y435D02*
X1810Y435D01*
X0Y434D02*
X7Y434D01*
X114Y434D02*
X471Y434D01*
X595Y434D02*
X604Y434D01*
X1803Y434D02*
X1810Y434D01*
X0Y433D02*
X7Y433D01*
X114Y433D02*
X473Y433D01*
X595Y433D02*
X604Y433D01*
X1803Y433D02*
X1810Y433D01*
X0Y432D02*
X7Y432D01*
X114Y432D02*
X474Y432D01*
X595Y432D02*
X604Y432D01*
X1803Y432D02*
X1810Y432D01*
X0Y431D02*
X7Y431D01*
X114Y431D02*
X475Y431D01*
X595Y431D02*
X604Y431D01*
X1803Y431D02*
X1810Y431D01*
X0Y430D02*
X7Y430D01*
X114Y430D02*
X476Y430D01*
X595Y430D02*
X604Y430D01*
X1803Y430D02*
X1810Y430D01*
X0Y429D02*
X7Y429D01*
X114Y429D02*
X477Y429D01*
X595Y429D02*
X604Y429D01*
X1803Y429D02*
X1810Y429D01*
X0Y428D02*
X7Y428D01*
X114Y428D02*
X479Y428D01*
X595Y428D02*
X604Y428D01*
X1803Y428D02*
X1810Y428D01*
X0Y427D02*
X7Y427D01*
X114Y427D02*
X480Y427D01*
X595Y427D02*
X604Y427D01*
X1803Y427D02*
X1810Y427D01*
X0Y426D02*
X7Y426D01*
X114Y426D02*
X191Y426D01*
X208Y426D02*
X333Y426D01*
X470Y426D02*
X481Y426D01*
X595Y426D02*
X604Y426D01*
X1803Y426D02*
X1810Y426D01*
X0Y425D02*
X7Y425D01*
X114Y425D02*
X187Y425D01*
X211Y425D02*
X333Y425D01*
X471Y425D02*
X482Y425D01*
X595Y425D02*
X604Y425D01*
X1803Y425D02*
X1810Y425D01*
X0Y424D02*
X7Y424D01*
X114Y424D02*
X185Y424D01*
X214Y424D02*
X333Y424D01*
X472Y424D02*
X483Y424D01*
X595Y424D02*
X604Y424D01*
X1803Y424D02*
X1810Y424D01*
X0Y423D02*
X7Y423D01*
X114Y423D02*
X127Y423D01*
X271Y423D02*
X285Y423D01*
X314Y423D02*
X325Y423D01*
X473Y423D02*
X484Y423D01*
X595Y423D02*
X604Y423D01*
X1803Y423D02*
X1810Y423D01*
X0Y422D02*
X7Y422D01*
X114Y422D02*
X127Y422D01*
X272Y422D02*
X284Y422D01*
X313Y422D02*
X324Y422D01*
X475Y422D02*
X485Y422D01*
X595Y422D02*
X604Y422D01*
X1803Y422D02*
X1810Y422D01*
X0Y421D02*
X7Y421D01*
X114Y421D02*
X127Y421D01*
X272Y421D02*
X284Y421D01*
X312Y421D02*
X323Y421D01*
X476Y421D02*
X486Y421D01*
X595Y421D02*
X604Y421D01*
X1803Y421D02*
X1810Y421D01*
X0Y420D02*
X7Y420D01*
X114Y420D02*
X127Y420D01*
X272Y420D02*
X284Y420D01*
X311Y420D02*
X322Y420D01*
X477Y420D02*
X487Y420D01*
X595Y420D02*
X604Y420D01*
X1803Y420D02*
X1810Y420D01*
X0Y419D02*
X7Y419D01*
X114Y419D02*
X127Y419D01*
X272Y419D02*
X284Y419D01*
X311Y419D02*
X321Y419D01*
X478Y419D02*
X488Y419D01*
X595Y419D02*
X604Y419D01*
X1803Y419D02*
X1810Y419D01*
X0Y418D02*
X7Y418D01*
X114Y418D02*
X127Y418D01*
X272Y418D02*
X284Y418D01*
X310Y418D02*
X320Y418D01*
X479Y418D02*
X489Y418D01*
X595Y418D02*
X604Y418D01*
X1803Y418D02*
X1810Y418D01*
X0Y417D02*
X7Y417D01*
X114Y417D02*
X127Y417D01*
X272Y417D02*
X284Y417D01*
X309Y417D02*
X318Y417D01*
X480Y417D02*
X490Y417D01*
X595Y417D02*
X604Y417D01*
X1803Y417D02*
X1810Y417D01*
X0Y416D02*
X7Y416D01*
X114Y416D02*
X127Y416D01*
X272Y416D02*
X284Y416D01*
X308Y416D02*
X317Y416D01*
X481Y416D02*
X491Y416D01*
X595Y416D02*
X604Y416D01*
X1803Y416D02*
X1810Y416D01*
X0Y415D02*
X7Y415D01*
X114Y415D02*
X127Y415D01*
X272Y415D02*
X284Y415D01*
X307Y415D02*
X316Y415D01*
X482Y415D02*
X492Y415D01*
X595Y415D02*
X604Y415D01*
X1803Y415D02*
X1810Y415D01*
X0Y414D02*
X7Y414D01*
X114Y414D02*
X127Y414D01*
X272Y414D02*
X284Y414D01*
X306Y414D02*
X316Y414D01*
X483Y414D02*
X492Y414D01*
X595Y414D02*
X604Y414D01*
X1803Y414D02*
X1810Y414D01*
X0Y413D02*
X7Y413D01*
X114Y413D02*
X127Y413D01*
X272Y413D02*
X284Y413D01*
X305Y413D02*
X315Y413D01*
X484Y413D02*
X493Y413D01*
X595Y413D02*
X604Y413D01*
X1803Y413D02*
X1810Y413D01*
X0Y412D02*
X7Y412D01*
X114Y412D02*
X127Y412D01*
X272Y412D02*
X284Y412D01*
X304Y412D02*
X314Y412D01*
X485Y412D02*
X494Y412D01*
X595Y412D02*
X604Y412D01*
X1803Y412D02*
X1810Y412D01*
X0Y411D02*
X7Y411D01*
X114Y411D02*
X127Y411D01*
X272Y411D02*
X284Y411D01*
X304Y411D02*
X313Y411D01*
X486Y411D02*
X495Y411D01*
X595Y411D02*
X604Y411D01*
X1803Y411D02*
X1810Y411D01*
X0Y410D02*
X7Y410D01*
X114Y410D02*
X127Y410D01*
X272Y410D02*
X284Y410D01*
X303Y410D02*
X312Y410D01*
X486Y410D02*
X496Y410D01*
X595Y410D02*
X604Y410D01*
X1803Y410D02*
X1810Y410D01*
X0Y409D02*
X7Y409D01*
X114Y409D02*
X127Y409D01*
X272Y409D02*
X284Y409D01*
X302Y409D02*
X311Y409D01*
X487Y409D02*
X496Y409D01*
X595Y409D02*
X604Y409D01*
X1803Y409D02*
X1810Y409D01*
X0Y408D02*
X7Y408D01*
X114Y408D02*
X127Y408D01*
X272Y408D02*
X284Y408D01*
X301Y408D02*
X310Y408D01*
X488Y408D02*
X497Y408D01*
X595Y408D02*
X604Y408D01*
X1803Y408D02*
X1810Y408D01*
X0Y407D02*
X7Y407D01*
X114Y407D02*
X127Y407D01*
X272Y407D02*
X284Y407D01*
X301Y407D02*
X309Y407D01*
X489Y407D02*
X498Y407D01*
X595Y407D02*
X604Y407D01*
X1803Y407D02*
X1810Y407D01*
X0Y406D02*
X7Y406D01*
X114Y406D02*
X127Y406D01*
X272Y406D02*
X284Y406D01*
X300Y406D02*
X309Y406D01*
X490Y406D02*
X499Y406D01*
X595Y406D02*
X604Y406D01*
X1803Y406D02*
X1810Y406D01*
X0Y405D02*
X7Y405D01*
X114Y405D02*
X127Y405D01*
X272Y405D02*
X284Y405D01*
X299Y405D02*
X308Y405D01*
X491Y405D02*
X499Y405D01*
X595Y405D02*
X604Y405D01*
X1803Y405D02*
X1810Y405D01*
X0Y404D02*
X7Y404D01*
X114Y404D02*
X127Y404D01*
X272Y404D02*
X284Y404D01*
X299Y404D02*
X307Y404D01*
X491Y404D02*
X500Y404D01*
X595Y404D02*
X604Y404D01*
X1803Y404D02*
X1810Y404D01*
X0Y403D02*
X7Y403D01*
X114Y403D02*
X127Y403D01*
X272Y403D02*
X284Y403D01*
X298Y403D02*
X306Y403D01*
X492Y403D02*
X501Y403D01*
X595Y403D02*
X604Y403D01*
X1803Y403D02*
X1810Y403D01*
X0Y402D02*
X7Y402D01*
X114Y402D02*
X127Y402D01*
X272Y402D02*
X284Y402D01*
X297Y402D02*
X306Y402D01*
X493Y402D02*
X501Y402D01*
X595Y402D02*
X604Y402D01*
X1803Y402D02*
X1810Y402D01*
X0Y401D02*
X7Y401D01*
X114Y401D02*
X127Y401D01*
X272Y401D02*
X284Y401D01*
X297Y401D02*
X305Y401D01*
X493Y401D02*
X502Y401D01*
X595Y401D02*
X604Y401D01*
X1803Y401D02*
X1810Y401D01*
X0Y400D02*
X7Y400D01*
X114Y400D02*
X127Y400D01*
X272Y400D02*
X284Y400D01*
X296Y400D02*
X304Y400D01*
X494Y400D02*
X503Y400D01*
X595Y400D02*
X604Y400D01*
X1188Y400D02*
X1206Y400D01*
X1231Y400D02*
X1258Y400D01*
X1803Y400D02*
X1810Y400D01*
X0Y399D02*
X7Y399D01*
X114Y399D02*
X127Y399D01*
X272Y399D02*
X284Y399D01*
X296Y399D02*
X304Y399D01*
X495Y399D02*
X503Y399D01*
X595Y399D02*
X604Y399D01*
X1188Y399D02*
X1207Y399D01*
X1229Y399D02*
X1258Y399D01*
X1803Y399D02*
X1810Y399D01*
X0Y398D02*
X7Y398D01*
X114Y398D02*
X127Y398D01*
X272Y398D02*
X284Y398D01*
X295Y398D02*
X303Y398D01*
X495Y398D02*
X504Y398D01*
X595Y398D02*
X604Y398D01*
X1188Y398D02*
X1208Y398D01*
X1228Y398D02*
X1258Y398D01*
X1803Y398D02*
X1810Y398D01*
X0Y397D02*
X7Y397D01*
X114Y397D02*
X127Y397D01*
X272Y397D02*
X284Y397D01*
X294Y397D02*
X302Y397D01*
X496Y397D02*
X504Y397D01*
X595Y397D02*
X604Y397D01*
X1188Y397D02*
X1208Y397D01*
X1227Y397D02*
X1258Y397D01*
X1803Y397D02*
X1810Y397D01*
X0Y396D02*
X7Y396D01*
X114Y396D02*
X127Y396D01*
X272Y396D02*
X284Y396D01*
X294Y396D02*
X302Y396D01*
X497Y396D02*
X505Y396D01*
X595Y396D02*
X604Y396D01*
X1188Y396D02*
X1208Y396D01*
X1226Y396D02*
X1258Y396D01*
X1803Y396D02*
X1810Y396D01*
X0Y395D02*
X7Y395D01*
X114Y395D02*
X127Y395D01*
X272Y395D02*
X284Y395D01*
X293Y395D02*
X301Y395D01*
X497Y395D02*
X505Y395D01*
X595Y395D02*
X604Y395D01*
X1188Y395D02*
X1207Y395D01*
X1225Y395D02*
X1258Y395D01*
X1803Y395D02*
X1810Y395D01*
X0Y394D02*
X7Y394D01*
X114Y394D02*
X127Y394D01*
X272Y394D02*
X284Y394D01*
X293Y394D02*
X300Y394D01*
X498Y394D02*
X506Y394D01*
X595Y394D02*
X604Y394D01*
X1188Y394D02*
X1205Y394D01*
X1225Y394D02*
X1258Y394D01*
X1803Y394D02*
X1810Y394D01*
X0Y393D02*
X7Y393D01*
X114Y393D02*
X127Y393D01*
X272Y393D02*
X284Y393D01*
X292Y393D02*
X300Y393D01*
X499Y393D02*
X507Y393D01*
X595Y393D02*
X604Y393D01*
X1188Y393D02*
X1194Y393D01*
X1225Y393D02*
X1232Y393D01*
X1252Y393D02*
X1258Y393D01*
X1803Y393D02*
X1810Y393D01*
X0Y392D02*
X7Y392D01*
X114Y392D02*
X127Y392D01*
X272Y392D02*
X284Y392D01*
X292Y392D02*
X299Y392D01*
X499Y392D02*
X507Y392D01*
X595Y392D02*
X604Y392D01*
X1188Y392D02*
X1194Y392D01*
X1224Y392D02*
X1231Y392D01*
X1252Y392D02*
X1258Y392D01*
X1803Y392D02*
X1810Y392D01*
X0Y391D02*
X7Y391D01*
X114Y391D02*
X127Y391D01*
X272Y391D02*
X284Y391D01*
X291Y391D02*
X299Y391D01*
X500Y391D02*
X508Y391D01*
X595Y391D02*
X604Y391D01*
X1188Y391D02*
X1194Y391D01*
X1224Y391D02*
X1230Y391D01*
X1252Y391D02*
X1258Y391D01*
X1803Y391D02*
X1810Y391D01*
X0Y390D02*
X7Y390D01*
X114Y390D02*
X127Y390D01*
X272Y390D02*
X284Y390D01*
X291Y390D02*
X298Y390D01*
X500Y390D02*
X508Y390D01*
X595Y390D02*
X604Y390D01*
X1188Y390D02*
X1194Y390D01*
X1224Y390D02*
X1230Y390D01*
X1252Y390D02*
X1258Y390D01*
X1648Y390D02*
X1650Y390D01*
X1803Y390D02*
X1810Y390D01*
X0Y389D02*
X7Y389D01*
X114Y389D02*
X127Y389D01*
X272Y389D02*
X284Y389D01*
X290Y389D02*
X298Y389D01*
X501Y389D02*
X509Y389D01*
X595Y389D02*
X604Y389D01*
X1188Y389D02*
X1194Y389D01*
X1224Y389D02*
X1230Y389D01*
X1252Y389D02*
X1258Y389D01*
X1635Y389D02*
X1663Y389D01*
X1803Y389D02*
X1810Y389D01*
X0Y388D02*
X7Y388D01*
X114Y388D02*
X127Y388D01*
X272Y388D02*
X284Y388D01*
X290Y388D02*
X297Y388D01*
X501Y388D02*
X509Y388D01*
X595Y388D02*
X604Y388D01*
X1188Y388D02*
X1194Y388D01*
X1224Y388D02*
X1230Y388D01*
X1252Y388D02*
X1258Y388D01*
X1629Y388D02*
X1669Y388D01*
X1803Y388D02*
X1810Y388D01*
X0Y387D02*
X7Y387D01*
X114Y387D02*
X127Y387D01*
X272Y387D02*
X284Y387D01*
X289Y387D02*
X296Y387D01*
X502Y387D02*
X509Y387D01*
X595Y387D02*
X604Y387D01*
X1188Y387D02*
X1194Y387D01*
X1224Y387D02*
X1230Y387D01*
X1252Y387D02*
X1258Y387D01*
X1625Y387D02*
X1673Y387D01*
X1803Y387D02*
X1810Y387D01*
X0Y386D02*
X7Y386D01*
X114Y386D02*
X127Y386D01*
X272Y386D02*
X284Y386D01*
X289Y386D02*
X296Y386D01*
X502Y386D02*
X510Y386D01*
X595Y386D02*
X604Y386D01*
X1188Y386D02*
X1194Y386D01*
X1224Y386D02*
X1230Y386D01*
X1252Y386D02*
X1258Y386D01*
X1621Y386D02*
X1677Y386D01*
X1803Y386D02*
X1810Y386D01*
X0Y385D02*
X7Y385D01*
X114Y385D02*
X127Y385D01*
X272Y385D02*
X284Y385D01*
X288Y385D02*
X295Y385D01*
X503Y385D02*
X510Y385D01*
X595Y385D02*
X604Y385D01*
X1188Y385D02*
X1194Y385D01*
X1224Y385D02*
X1231Y385D01*
X1252Y385D02*
X1258Y385D01*
X1618Y385D02*
X1680Y385D01*
X1803Y385D02*
X1810Y385D01*
X0Y384D02*
X7Y384D01*
X114Y384D02*
X127Y384D01*
X272Y384D02*
X284Y384D01*
X288Y384D02*
X295Y384D01*
X503Y384D02*
X511Y384D01*
X595Y384D02*
X604Y384D01*
X1188Y384D02*
X1194Y384D01*
X1225Y384D02*
X1232Y384D01*
X1252Y384D02*
X1258Y384D01*
X1615Y384D02*
X1683Y384D01*
X1803Y384D02*
X1810Y384D01*
X0Y383D02*
X7Y383D01*
X114Y383D02*
X127Y383D01*
X272Y383D02*
X284Y383D01*
X287Y383D02*
X295Y383D01*
X504Y383D02*
X511Y383D01*
X595Y383D02*
X604Y383D01*
X1188Y383D02*
X1194Y383D01*
X1225Y383D02*
X1258Y383D01*
X1612Y383D02*
X1686Y383D01*
X1803Y383D02*
X1810Y383D01*
X0Y382D02*
X7Y382D01*
X114Y382D02*
X127Y382D01*
X272Y382D02*
X284Y382D01*
X287Y382D02*
X294Y382D01*
X504Y382D02*
X512Y382D01*
X595Y382D02*
X604Y382D01*
X1188Y382D02*
X1194Y382D01*
X1225Y382D02*
X1258Y382D01*
X1610Y382D02*
X1689Y382D01*
X1803Y382D02*
X1810Y382D01*
X0Y381D02*
X7Y381D01*
X114Y381D02*
X127Y381D01*
X272Y381D02*
X284Y381D01*
X287Y381D02*
X294Y381D01*
X505Y381D02*
X512Y381D01*
X595Y381D02*
X604Y381D01*
X1188Y381D02*
X1194Y381D01*
X1226Y381D02*
X1258Y381D01*
X1608Y381D02*
X1691Y381D01*
X1803Y381D02*
X1810Y381D01*
X0Y380D02*
X7Y380D01*
X114Y380D02*
X127Y380D01*
X272Y380D02*
X284Y380D01*
X286Y380D02*
X293Y380D01*
X505Y380D02*
X512Y380D01*
X595Y380D02*
X604Y380D01*
X1188Y380D02*
X1194Y380D01*
X1227Y380D02*
X1258Y380D01*
X1606Y380D02*
X1647Y380D01*
X1652Y380D02*
X1693Y380D01*
X1803Y380D02*
X1810Y380D01*
X0Y379D02*
X7Y379D01*
X114Y379D02*
X127Y379D01*
X272Y379D02*
X284Y379D01*
X286Y379D02*
X293Y379D01*
X506Y379D02*
X513Y379D01*
X595Y379D02*
X604Y379D01*
X1188Y379D02*
X1194Y379D01*
X1228Y379D02*
X1258Y379D01*
X1604Y379D02*
X1634Y379D01*
X1664Y379D02*
X1695Y379D01*
X1803Y379D02*
X1810Y379D01*
X0Y378D02*
X7Y378D01*
X114Y378D02*
X127Y378D01*
X272Y378D02*
X284Y378D01*
X286Y378D02*
X292Y378D01*
X506Y378D02*
X513Y378D01*
X595Y378D02*
X604Y378D01*
X1188Y378D02*
X1194Y378D01*
X1229Y378D02*
X1258Y378D01*
X1602Y378D02*
X1629Y378D01*
X1670Y378D02*
X1697Y378D01*
X1803Y378D02*
X1810Y378D01*
X0Y377D02*
X7Y377D01*
X114Y377D02*
X127Y377D01*
X272Y377D02*
X292Y377D01*
X506Y377D02*
X514Y377D01*
X595Y377D02*
X604Y377D01*
X1188Y377D02*
X1194Y377D01*
X1231Y377D02*
X1258Y377D01*
X1600Y377D02*
X1624Y377D01*
X1674Y377D02*
X1699Y377D01*
X1803Y377D02*
X1810Y377D01*
X0Y376D02*
X7Y376D01*
X114Y376D02*
X127Y376D01*
X272Y376D02*
X292Y376D01*
X507Y376D02*
X514Y376D01*
X595Y376D02*
X604Y376D01*
X1188Y376D02*
X1194Y376D01*
X1238Y376D02*
X1246Y376D01*
X1251Y376D02*
X1258Y376D01*
X1598Y376D02*
X1621Y376D01*
X1678Y376D02*
X1701Y376D01*
X1803Y376D02*
X1810Y376D01*
X0Y375D02*
X7Y375D01*
X114Y375D02*
X127Y375D01*
X272Y375D02*
X291Y375D01*
X507Y375D02*
X514Y375D01*
X1188Y375D02*
X1194Y375D01*
X1238Y375D02*
X1245Y375D01*
X1252Y375D02*
X1258Y375D01*
X1596Y375D02*
X1618Y375D01*
X1681Y375D02*
X1702Y375D01*
X1803Y375D02*
X1810Y375D01*
X0Y374D02*
X7Y374D01*
X114Y374D02*
X127Y374D01*
X272Y374D02*
X291Y374D01*
X507Y374D02*
X515Y374D01*
X1188Y374D02*
X1194Y374D01*
X1238Y374D02*
X1245Y374D01*
X1252Y374D02*
X1258Y374D01*
X1595Y374D02*
X1615Y374D01*
X1683Y374D02*
X1704Y374D01*
X1803Y374D02*
X1810Y374D01*
X0Y373D02*
X7Y373D01*
X114Y373D02*
X127Y373D01*
X272Y373D02*
X291Y373D01*
X508Y373D02*
X515Y373D01*
X1188Y373D02*
X1194Y373D01*
X1237Y373D02*
X1244Y373D01*
X1252Y373D02*
X1258Y373D01*
X1593Y373D02*
X1612Y373D01*
X1686Y373D02*
X1705Y373D01*
X1803Y373D02*
X1810Y373D01*
X0Y372D02*
X7Y372D01*
X114Y372D02*
X127Y372D01*
X272Y372D02*
X290Y372D01*
X508Y372D02*
X515Y372D01*
X642Y372D02*
X694Y372D01*
X1188Y372D02*
X1194Y372D01*
X1236Y372D02*
X1244Y372D01*
X1252Y372D02*
X1258Y372D01*
X1591Y372D02*
X1610Y372D01*
X1688Y372D02*
X1707Y372D01*
X1803Y372D02*
X1810Y372D01*
X0Y371D02*
X7Y371D01*
X114Y371D02*
X127Y371D01*
X272Y371D02*
X290Y371D01*
X508Y371D02*
X515Y371D01*
X642Y371D02*
X695Y371D01*
X1176Y371D02*
X1178Y371D01*
X1188Y371D02*
X1194Y371D01*
X1236Y371D02*
X1243Y371D01*
X1252Y371D02*
X1258Y371D01*
X1590Y371D02*
X1608Y371D01*
X1691Y371D02*
X1708Y371D01*
X1803Y371D02*
X1810Y371D01*
X0Y370D02*
X7Y370D01*
X114Y370D02*
X127Y370D01*
X272Y370D02*
X290Y370D01*
X509Y370D02*
X516Y370D01*
X642Y370D02*
X696Y370D01*
X1175Y370D02*
X1179Y370D01*
X1188Y370D02*
X1194Y370D01*
X1235Y370D02*
X1242Y370D01*
X1252Y370D02*
X1258Y370D01*
X1589Y370D02*
X1606Y370D01*
X1693Y370D02*
X1710Y370D01*
X1803Y370D02*
X1810Y370D01*
X0Y369D02*
X7Y369D01*
X114Y369D02*
X127Y369D01*
X272Y369D02*
X289Y369D01*
X509Y369D02*
X516Y369D01*
X642Y369D02*
X696Y369D01*
X1174Y369D02*
X1180Y369D01*
X1188Y369D02*
X1194Y369D01*
X1235Y369D02*
X1242Y369D01*
X1252Y369D02*
X1258Y369D01*
X1587Y369D02*
X1604Y369D01*
X1695Y369D02*
X1711Y369D01*
X1803Y369D02*
X1810Y369D01*
X0Y368D02*
X7Y368D01*
X114Y368D02*
X127Y368D01*
X272Y368D02*
X289Y368D01*
X509Y368D02*
X516Y368D01*
X642Y368D02*
X695Y368D01*
X1174Y368D02*
X1180Y368D01*
X1188Y368D02*
X1194Y368D01*
X1234Y368D02*
X1241Y368D01*
X1252Y368D02*
X1258Y368D01*
X1586Y368D02*
X1602Y368D01*
X1697Y368D02*
X1712Y368D01*
X1803Y368D02*
X1810Y368D01*
X0Y367D02*
X7Y367D01*
X114Y367D02*
X127Y367D01*
X272Y367D02*
X289Y367D01*
X510Y367D02*
X517Y367D01*
X642Y367D02*
X695Y367D01*
X1174Y367D02*
X1180Y367D01*
X1188Y367D02*
X1194Y367D01*
X1234Y367D02*
X1241Y367D01*
X1252Y367D02*
X1258Y367D01*
X1585Y367D02*
X1600Y367D01*
X1698Y367D02*
X1714Y367D01*
X1803Y367D02*
X1810Y367D01*
X0Y366D02*
X7Y366D01*
X114Y366D02*
X127Y366D01*
X272Y366D02*
X288Y366D01*
X510Y366D02*
X517Y366D01*
X642Y366D02*
X693Y366D01*
X1174Y366D02*
X1180Y366D01*
X1188Y366D02*
X1194Y366D01*
X1233Y366D02*
X1240Y366D01*
X1252Y366D02*
X1258Y366D01*
X1583Y366D02*
X1599Y366D01*
X1700Y366D02*
X1715Y366D01*
X1803Y366D02*
X1810Y366D01*
X0Y365D02*
X7Y365D01*
X114Y365D02*
X127Y365D01*
X272Y365D02*
X288Y365D01*
X510Y365D02*
X517Y365D01*
X642Y365D02*
X649Y365D01*
X660Y365D02*
X666Y365D01*
X1174Y365D02*
X1180Y365D01*
X1188Y365D02*
X1194Y365D01*
X1232Y365D02*
X1240Y365D01*
X1252Y365D02*
X1258Y365D01*
X1582Y365D02*
X1597Y365D01*
X1701Y365D02*
X1716Y365D01*
X1803Y365D02*
X1810Y365D01*
X0Y364D02*
X7Y364D01*
X114Y364D02*
X127Y364D01*
X272Y364D02*
X288Y364D01*
X511Y364D02*
X517Y364D01*
X642Y364D02*
X649Y364D01*
X660Y364D02*
X666Y364D01*
X1174Y364D02*
X1180Y364D01*
X1188Y364D02*
X1194Y364D01*
X1232Y364D02*
X1239Y364D01*
X1252Y364D02*
X1258Y364D01*
X1581Y364D02*
X1595Y364D01*
X1703Y364D02*
X1717Y364D01*
X1803Y364D02*
X1810Y364D01*
X0Y363D02*
X7Y363D01*
X114Y363D02*
X127Y363D01*
X272Y363D02*
X288Y363D01*
X511Y363D02*
X518Y363D01*
X642Y363D02*
X649Y363D01*
X660Y363D02*
X666Y363D01*
X1174Y363D02*
X1180Y363D01*
X1188Y363D02*
X1194Y363D01*
X1231Y363D02*
X1238Y363D01*
X1252Y363D02*
X1258Y363D01*
X1580Y363D02*
X1594Y363D01*
X1705Y363D02*
X1718Y363D01*
X1803Y363D02*
X1810Y363D01*
X0Y362D02*
X7Y362D01*
X114Y362D02*
X127Y362D01*
X272Y362D02*
X287Y362D01*
X511Y362D02*
X518Y362D01*
X642Y362D02*
X649Y362D01*
X660Y362D02*
X666Y362D01*
X1174Y362D02*
X1180Y362D01*
X1188Y362D02*
X1194Y362D01*
X1231Y362D02*
X1238Y362D01*
X1252Y362D02*
X1258Y362D01*
X1579Y362D02*
X1593Y362D01*
X1706Y362D02*
X1719Y362D01*
X1803Y362D02*
X1810Y362D01*
X0Y361D02*
X7Y361D01*
X114Y361D02*
X127Y361D01*
X272Y361D02*
X287Y361D01*
X511Y361D02*
X518Y361D01*
X642Y361D02*
X649Y361D01*
X660Y361D02*
X666Y361D01*
X1174Y361D02*
X1180Y361D01*
X1188Y361D02*
X1194Y361D01*
X1230Y361D02*
X1237Y361D01*
X1252Y361D02*
X1258Y361D01*
X1578Y361D02*
X1591Y361D01*
X1707Y361D02*
X1721Y361D01*
X1803Y361D02*
X1810Y361D01*
X0Y360D02*
X7Y360D01*
X114Y360D02*
X127Y360D01*
X272Y360D02*
X287Y360D01*
X512Y360D02*
X518Y360D01*
X642Y360D02*
X649Y360D01*
X660Y360D02*
X668Y360D01*
X1174Y360D02*
X1180Y360D01*
X1188Y360D02*
X1194Y360D01*
X1229Y360D02*
X1237Y360D01*
X1252Y360D02*
X1258Y360D01*
X1577Y360D02*
X1590Y360D01*
X1709Y360D02*
X1722Y360D01*
X1803Y360D02*
X1810Y360D01*
X0Y359D02*
X7Y359D01*
X114Y359D02*
X127Y359D01*
X272Y359D02*
X287Y359D01*
X512Y359D02*
X518Y359D01*
X642Y359D02*
X649Y359D01*
X660Y359D02*
X670Y359D01*
X1174Y359D02*
X1180Y359D01*
X1188Y359D02*
X1194Y359D01*
X1229Y359D02*
X1236Y359D01*
X1252Y359D02*
X1258Y359D01*
X1576Y359D02*
X1589Y359D01*
X1710Y359D02*
X1723Y359D01*
X1803Y359D02*
X1810Y359D01*
X0Y358D02*
X7Y358D01*
X114Y358D02*
X127Y358D01*
X272Y358D02*
X286Y358D01*
X512Y358D02*
X519Y358D01*
X642Y358D02*
X649Y358D01*
X660Y358D02*
X671Y358D01*
X1174Y358D02*
X1180Y358D01*
X1188Y358D02*
X1194Y358D01*
X1228Y358D02*
X1235Y358D01*
X1252Y358D02*
X1258Y358D01*
X1575Y358D02*
X1587Y358D01*
X1711Y358D02*
X1724Y358D01*
X1803Y358D02*
X1810Y358D01*
X0Y357D02*
X7Y357D01*
X114Y357D02*
X127Y357D01*
X272Y357D02*
X286Y357D01*
X512Y357D02*
X519Y357D01*
X642Y357D02*
X649Y357D01*
X660Y357D02*
X673Y357D01*
X1174Y357D02*
X1180Y357D01*
X1188Y357D02*
X1194Y357D01*
X1228Y357D02*
X1235Y357D01*
X1252Y357D02*
X1258Y357D01*
X1574Y357D02*
X1586Y357D01*
X1712Y357D02*
X1725Y357D01*
X1803Y357D02*
X1810Y357D01*
X0Y356D02*
X7Y356D01*
X112Y356D02*
X127Y356D01*
X272Y356D02*
X286Y356D01*
X512Y356D02*
X519Y356D01*
X642Y356D02*
X649Y356D01*
X660Y356D02*
X675Y356D01*
X1174Y356D02*
X1180Y356D01*
X1188Y356D02*
X1194Y356D01*
X1227Y356D02*
X1234Y356D01*
X1252Y356D02*
X1258Y356D01*
X1573Y356D02*
X1585Y356D01*
X1713Y356D02*
X1725Y356D01*
X1803Y356D02*
X1810Y356D01*
X0Y355D02*
X7Y355D01*
X110Y355D02*
X127Y355D01*
X272Y355D02*
X286Y355D01*
X512Y355D02*
X519Y355D01*
X642Y355D02*
X649Y355D01*
X660Y355D02*
X676Y355D01*
X1174Y355D02*
X1180Y355D01*
X1188Y355D02*
X1194Y355D01*
X1227Y355D02*
X1234Y355D01*
X1252Y355D02*
X1258Y355D01*
X1572Y355D02*
X1584Y355D01*
X1714Y355D02*
X1726Y355D01*
X1803Y355D02*
X1810Y355D01*
X0Y354D02*
X7Y354D01*
X107Y354D02*
X127Y354D01*
X272Y354D02*
X286Y354D01*
X513Y354D02*
X519Y354D01*
X642Y354D02*
X649Y354D01*
X660Y354D02*
X678Y354D01*
X1174Y354D02*
X1180Y354D01*
X1188Y354D02*
X1194Y354D01*
X1226Y354D02*
X1233Y354D01*
X1252Y354D02*
X1258Y354D01*
X1463Y354D02*
X1481Y354D01*
X1501Y354D02*
X1519Y354D01*
X1571Y354D02*
X1583Y354D01*
X1716Y354D02*
X1727Y354D01*
X1803Y354D02*
X1810Y354D01*
X0Y353D02*
X7Y353D01*
X105Y353D02*
X127Y353D01*
X272Y353D02*
X286Y353D01*
X513Y353D02*
X519Y353D01*
X642Y353D02*
X649Y353D01*
X660Y353D02*
X680Y353D01*
X1174Y353D02*
X1206Y353D01*
X1225Y353D02*
X1233Y353D01*
X1252Y353D02*
X1258Y353D01*
X1463Y353D02*
X1482Y353D01*
X1500Y353D02*
X1521Y353D01*
X1570Y353D02*
X1582Y353D01*
X1717Y353D02*
X1728Y353D01*
X1803Y353D02*
X1810Y353D01*
X0Y352D02*
X7Y352D01*
X103Y352D02*
X127Y352D01*
X272Y352D02*
X285Y352D01*
X513Y352D02*
X519Y352D01*
X642Y352D02*
X649Y352D01*
X660Y352D02*
X666Y352D01*
X668Y352D02*
X682Y352D01*
X1174Y352D02*
X1207Y352D01*
X1225Y352D02*
X1232Y352D01*
X1252Y352D02*
X1258Y352D01*
X1463Y352D02*
X1483Y352D01*
X1499Y352D02*
X1522Y352D01*
X1569Y352D02*
X1581Y352D01*
X1718Y352D02*
X1729Y352D01*
X1803Y352D02*
X1810Y352D01*
X0Y351D02*
X7Y351D01*
X101Y351D02*
X127Y351D01*
X272Y351D02*
X285Y351D01*
X513Y351D02*
X520Y351D01*
X642Y351D02*
X649Y351D01*
X660Y351D02*
X666Y351D01*
X670Y351D02*
X683Y351D01*
X1174Y351D02*
X1208Y351D01*
X1224Y351D02*
X1231Y351D01*
X1252Y351D02*
X1258Y351D01*
X1463Y351D02*
X1483Y351D01*
X1499Y351D02*
X1523Y351D01*
X1569Y351D02*
X1580Y351D01*
X1719Y351D02*
X1730Y351D01*
X1803Y351D02*
X1810Y351D01*
X0Y350D02*
X7Y350D01*
X99Y350D02*
X127Y350D01*
X272Y350D02*
X285Y350D01*
X513Y350D02*
X520Y350D01*
X642Y350D02*
X649Y350D01*
X660Y350D02*
X666Y350D01*
X672Y350D02*
X685Y350D01*
X1174Y350D02*
X1208Y350D01*
X1224Y350D02*
X1231Y350D01*
X1252Y350D02*
X1258Y350D01*
X1463Y350D02*
X1482Y350D01*
X1500Y350D02*
X1523Y350D01*
X1568Y350D02*
X1579Y350D01*
X1719Y350D02*
X1731Y350D01*
X1803Y350D02*
X1810Y350D01*
X0Y349D02*
X7Y349D01*
X97Y349D02*
X127Y349D01*
X272Y349D02*
X285Y349D01*
X513Y349D02*
X520Y349D01*
X642Y349D02*
X649Y349D01*
X660Y349D02*
X666Y349D01*
X674Y349D02*
X687Y349D01*
X1175Y349D02*
X1208Y349D01*
X1225Y349D02*
X1230Y349D01*
X1252Y349D02*
X1258Y349D01*
X1463Y349D02*
X1482Y349D01*
X1500Y349D02*
X1524Y349D01*
X1567Y349D02*
X1578Y349D01*
X1720Y349D02*
X1731Y349D01*
X1803Y349D02*
X1810Y349D01*
X0Y348D02*
X7Y348D01*
X96Y348D02*
X127Y348D01*
X272Y348D02*
X285Y348D01*
X514Y348D02*
X520Y348D01*
X643Y348D02*
X649Y348D01*
X660Y348D02*
X666Y348D01*
X675Y348D02*
X688Y348D01*
X1175Y348D02*
X1207Y348D01*
X1225Y348D02*
X1229Y348D01*
X1253Y348D02*
X1257Y348D01*
X1463Y348D02*
X1480Y348D01*
X1502Y348D02*
X1525Y348D01*
X1566Y348D02*
X1577Y348D01*
X1721Y348D02*
X1732Y348D01*
X1803Y348D02*
X1810Y348D01*
X0Y347D02*
X7Y347D01*
X94Y347D02*
X127Y347D01*
X272Y347D02*
X285Y347D01*
X514Y347D02*
X520Y347D01*
X643Y347D02*
X649Y347D01*
X660Y347D02*
X666Y347D01*
X677Y347D02*
X690Y347D01*
X1176Y347D02*
X1206Y347D01*
X1226Y347D02*
X1228Y347D01*
X1254Y347D02*
X1256Y347D01*
X1463Y347D02*
X1469Y347D01*
X1518Y347D02*
X1525Y347D01*
X1566Y347D02*
X1576Y347D01*
X1722Y347D02*
X1733Y347D01*
X1803Y347D02*
X1810Y347D01*
X0Y346D02*
X7Y346D01*
X92Y346D02*
X125Y346D01*
X272Y346D02*
X285Y346D01*
X514Y346D02*
X520Y346D01*
X643Y346D02*
X650Y346D01*
X659Y346D02*
X666Y346D01*
X679Y346D02*
X692Y346D01*
X1463Y346D02*
X1469Y346D01*
X1519Y346D02*
X1526Y346D01*
X1565Y346D02*
X1575Y346D01*
X1723Y346D02*
X1734Y346D01*
X1803Y346D02*
X1810Y346D01*
X0Y345D02*
X7Y345D01*
X91Y345D02*
X121Y345D01*
X272Y345D02*
X285Y345D01*
X514Y345D02*
X520Y345D01*
X643Y345D02*
X665Y345D01*
X680Y345D02*
X694Y345D01*
X1463Y345D02*
X1469Y345D01*
X1519Y345D02*
X1526Y345D01*
X1564Y345D02*
X1575Y345D01*
X1682Y345D02*
X1716Y345D01*
X1724Y345D02*
X1734Y345D01*
X1803Y345D02*
X1810Y345D01*
X0Y344D02*
X7Y344D01*
X89Y344D02*
X118Y344D01*
X272Y344D02*
X285Y344D01*
X514Y344D02*
X520Y344D01*
X644Y344D02*
X665Y344D01*
X682Y344D02*
X695Y344D01*
X1463Y344D02*
X1469Y344D01*
X1520Y344D02*
X1527Y344D01*
X1563Y344D02*
X1574Y344D01*
X1681Y344D02*
X1717Y344D01*
X1725Y344D02*
X1735Y344D01*
X1803Y344D02*
X1810Y344D01*
X0Y343D02*
X7Y343D01*
X88Y343D02*
X116Y343D01*
X272Y343D02*
X285Y343D01*
X514Y343D02*
X520Y343D01*
X644Y343D02*
X664Y343D01*
X684Y343D02*
X695Y343D01*
X1463Y343D02*
X1469Y343D01*
X1520Y343D02*
X1527Y343D01*
X1563Y343D02*
X1573Y343D01*
X1680Y343D02*
X1718Y343D01*
X1725Y343D02*
X1736Y343D01*
X1803Y343D02*
X1810Y343D01*
X0Y342D02*
X7Y342D01*
X86Y342D02*
X113Y342D01*
X272Y342D02*
X284Y342D01*
X514Y342D02*
X520Y342D01*
X645Y342D02*
X664Y342D01*
X686Y342D02*
X696Y342D01*
X1463Y342D02*
X1469Y342D01*
X1521Y342D02*
X1528Y342D01*
X1562Y342D02*
X1572Y342D01*
X1680Y342D02*
X1719Y342D01*
X1726Y342D02*
X1737Y342D01*
X1803Y342D02*
X1810Y342D01*
X0Y341D02*
X7Y341D01*
X85Y341D02*
X111Y341D01*
X272Y341D02*
X284Y341D01*
X514Y341D02*
X520Y341D01*
X646Y341D02*
X663Y341D01*
X687Y341D02*
X696Y341D01*
X1463Y341D02*
X1469Y341D01*
X1521Y341D02*
X1528Y341D01*
X1561Y341D02*
X1572Y341D01*
X1679Y341D02*
X1719Y341D01*
X1727Y341D02*
X1737Y341D01*
X1803Y341D02*
X1810Y341D01*
X0Y340D02*
X7Y340D01*
X84Y340D02*
X109Y340D01*
X272Y340D02*
X284Y340D01*
X514Y340D02*
X520Y340D01*
X647Y340D02*
X661Y340D01*
X689Y340D02*
X695Y340D01*
X1463Y340D02*
X1469Y340D01*
X1522Y340D02*
X1529Y340D01*
X1561Y340D02*
X1571Y340D01*
X1679Y340D02*
X1719Y340D01*
X1728Y340D02*
X1738Y340D01*
X1803Y340D02*
X1810Y340D01*
X0Y339D02*
X7Y339D01*
X82Y339D02*
X107Y339D01*
X272Y339D02*
X284Y339D01*
X514Y339D02*
X520Y339D01*
X649Y339D02*
X660Y339D01*
X691Y339D02*
X694Y339D01*
X1463Y339D02*
X1469Y339D01*
X1522Y339D02*
X1529Y339D01*
X1560Y339D02*
X1570Y339D01*
X1679Y339D02*
X1719Y339D01*
X1728Y339D02*
X1738Y339D01*
X1803Y339D02*
X1810Y339D01*
X0Y338D02*
X7Y338D01*
X81Y338D02*
X105Y338D01*
X272Y338D02*
X284Y338D01*
X514Y338D02*
X520Y338D01*
X1463Y338D02*
X1469Y338D01*
X1523Y338D02*
X1530Y338D01*
X1560Y338D02*
X1569Y338D01*
X1680Y338D02*
X1719Y338D01*
X1729Y338D02*
X1739Y338D01*
X1803Y338D02*
X1810Y338D01*
X0Y337D02*
X7Y337D01*
X80Y337D02*
X103Y337D01*
X272Y337D02*
X284Y337D01*
X514Y337D02*
X521Y337D01*
X1463Y337D02*
X1469Y337D01*
X1523Y337D02*
X1530Y337D01*
X1559Y337D02*
X1569Y337D01*
X1680Y337D02*
X1718Y337D01*
X1730Y337D02*
X1740Y337D01*
X1803Y337D02*
X1810Y337D01*
X0Y336D02*
X7Y336D01*
X79Y336D02*
X101Y336D01*
X272Y336D02*
X284Y336D01*
X514Y336D02*
X521Y336D01*
X1463Y336D02*
X1469Y336D01*
X1524Y336D02*
X1531Y336D01*
X1558Y336D02*
X1568Y336D01*
X1681Y336D02*
X1717Y336D01*
X1730Y336D02*
X1740Y336D01*
X1803Y336D02*
X1810Y336D01*
X0Y335D02*
X7Y335D01*
X77Y335D02*
X100Y335D01*
X272Y335D02*
X284Y335D01*
X514Y335D02*
X521Y335D01*
X1463Y335D02*
X1469Y335D01*
X1524Y335D02*
X1531Y335D01*
X1558Y335D02*
X1568Y335D01*
X1683Y335D02*
X1716Y335D01*
X1731Y335D02*
X1741Y335D01*
X1803Y335D02*
X1810Y335D01*
X0Y334D02*
X7Y334D01*
X76Y334D02*
X98Y334D01*
X272Y334D02*
X284Y334D01*
X514Y334D02*
X520Y334D01*
X1463Y334D02*
X1469Y334D01*
X1525Y334D02*
X1531Y334D01*
X1557Y334D02*
X1567Y334D01*
X1731Y334D02*
X1741Y334D01*
X1803Y334D02*
X1810Y334D01*
X0Y333D02*
X7Y333D01*
X75Y333D02*
X97Y333D01*
X272Y333D02*
X284Y333D01*
X514Y333D02*
X520Y333D01*
X1463Y333D02*
X1469Y333D01*
X1525Y333D02*
X1532Y333D01*
X1557Y333D02*
X1566Y333D01*
X1732Y333D02*
X1742Y333D01*
X1803Y333D02*
X1810Y333D01*
X0Y332D02*
X7Y332D01*
X74Y332D02*
X95Y332D01*
X272Y332D02*
X284Y332D01*
X514Y332D02*
X520Y332D01*
X1463Y332D02*
X1469Y332D01*
X1526Y332D02*
X1532Y332D01*
X1556Y332D02*
X1566Y332D01*
X1733Y332D02*
X1742Y332D01*
X1803Y332D02*
X1810Y332D01*
X0Y331D02*
X7Y331D01*
X73Y331D02*
X94Y331D01*
X272Y331D02*
X284Y331D01*
X514Y331D02*
X520Y331D01*
X1463Y331D02*
X1469Y331D01*
X1526Y331D02*
X1532Y331D01*
X1556Y331D02*
X1565Y331D01*
X1733Y331D02*
X1743Y331D01*
X1803Y331D02*
X1810Y331D01*
X0Y330D02*
X7Y330D01*
X72Y330D02*
X92Y330D01*
X272Y330D02*
X284Y330D01*
X514Y330D02*
X520Y330D01*
X1463Y330D02*
X1469Y330D01*
X1526Y330D02*
X1533Y330D01*
X1555Y330D02*
X1565Y330D01*
X1734Y330D02*
X1743Y330D01*
X1803Y330D02*
X1810Y330D01*
X0Y329D02*
X7Y329D01*
X71Y329D02*
X91Y329D01*
X272Y329D02*
X285Y329D01*
X514Y329D02*
X520Y329D01*
X1463Y329D02*
X1469Y329D01*
X1527Y329D02*
X1533Y329D01*
X1555Y329D02*
X1564Y329D01*
X1734Y329D02*
X1744Y329D01*
X1803Y329D02*
X1810Y329D01*
X0Y328D02*
X7Y328D01*
X70Y328D02*
X90Y328D01*
X272Y328D02*
X285Y328D01*
X514Y328D02*
X520Y328D01*
X1463Y328D02*
X1469Y328D01*
X1527Y328D02*
X1533Y328D01*
X1554Y328D02*
X1564Y328D01*
X1735Y328D02*
X1744Y328D01*
X1803Y328D02*
X1810Y328D01*
X0Y327D02*
X7Y327D01*
X69Y327D02*
X88Y327D01*
X272Y327D02*
X285Y327D01*
X514Y327D02*
X520Y327D01*
X1463Y327D02*
X1469Y327D01*
X1527Y327D02*
X1533Y327D01*
X1554Y327D02*
X1563Y327D01*
X1742Y327D02*
X1745Y327D01*
X1803Y327D02*
X1810Y327D01*
X0Y326D02*
X7Y326D01*
X68Y326D02*
X87Y326D01*
X272Y326D02*
X285Y326D01*
X514Y326D02*
X520Y326D01*
X1463Y326D02*
X1469Y326D01*
X1527Y326D02*
X1533Y326D01*
X1553Y326D02*
X1563Y326D01*
X1742Y326D02*
X1745Y326D01*
X1803Y326D02*
X1810Y326D01*
X0Y325D02*
X7Y325D01*
X67Y325D02*
X86Y325D01*
X272Y325D02*
X285Y325D01*
X514Y325D02*
X520Y325D01*
X1451Y325D02*
X1453Y325D01*
X1463Y325D02*
X1469Y325D01*
X1526Y325D02*
X1532Y325D01*
X1553Y325D02*
X1562Y325D01*
X1742Y325D02*
X1746Y325D01*
X1803Y325D02*
X1810Y325D01*
X0Y324D02*
X7Y324D01*
X66Y324D02*
X85Y324D01*
X272Y324D02*
X285Y324D01*
X514Y324D02*
X520Y324D01*
X1450Y324D02*
X1454Y324D01*
X1463Y324D02*
X1469Y324D01*
X1526Y324D02*
X1532Y324D01*
X1552Y324D02*
X1562Y324D01*
X1742Y324D02*
X1746Y324D01*
X1803Y324D02*
X1810Y324D01*
X0Y323D02*
X7Y323D01*
X65Y323D02*
X84Y323D01*
X272Y323D02*
X285Y323D01*
X513Y323D02*
X520Y323D01*
X1449Y323D02*
X1455Y323D01*
X1463Y323D02*
X1469Y323D01*
X1525Y323D02*
X1532Y323D01*
X1552Y323D02*
X1561Y323D01*
X1742Y323D02*
X1746Y323D01*
X1803Y323D02*
X1810Y323D01*
X0Y322D02*
X7Y322D01*
X64Y322D02*
X83Y322D01*
X272Y322D02*
X285Y322D01*
X513Y322D02*
X520Y322D01*
X698Y322D02*
X701Y322D01*
X1449Y322D02*
X1455Y322D01*
X1463Y322D02*
X1469Y322D01*
X1525Y322D02*
X1532Y322D01*
X1552Y322D02*
X1561Y322D01*
X1742Y322D02*
X1747Y322D01*
X1803Y322D02*
X1810Y322D01*
X0Y321D02*
X7Y321D01*
X64Y321D02*
X82Y321D01*
X272Y321D02*
X285Y321D01*
X513Y321D02*
X520Y321D01*
X697Y321D02*
X702Y321D01*
X1449Y321D02*
X1455Y321D01*
X1463Y321D02*
X1469Y321D01*
X1524Y321D02*
X1531Y321D01*
X1551Y321D02*
X1561Y321D01*
X1742Y321D02*
X1747Y321D01*
X1803Y321D02*
X1810Y321D01*
X0Y320D02*
X7Y320D01*
X63Y320D02*
X81Y320D01*
X272Y320D02*
X285Y320D01*
X513Y320D02*
X519Y320D01*
X697Y320D02*
X703Y320D01*
X1449Y320D02*
X1455Y320D01*
X1463Y320D02*
X1469Y320D01*
X1524Y320D02*
X1531Y320D01*
X1551Y320D02*
X1560Y320D01*
X1742Y320D02*
X1748Y320D01*
X1803Y320D02*
X1810Y320D01*
X0Y319D02*
X7Y319D01*
X62Y319D02*
X80Y319D01*
X272Y319D02*
X286Y319D01*
X513Y319D02*
X519Y319D01*
X697Y319D02*
X703Y319D01*
X1449Y319D02*
X1455Y319D01*
X1463Y319D02*
X1469Y319D01*
X1523Y319D02*
X1530Y319D01*
X1551Y319D02*
X1560Y319D01*
X1742Y319D02*
X1748Y319D01*
X1803Y319D02*
X1810Y319D01*
X0Y318D02*
X7Y318D01*
X61Y318D02*
X78Y318D01*
X272Y318D02*
X286Y318D01*
X513Y318D02*
X519Y318D01*
X697Y318D02*
X703Y318D01*
X1449Y318D02*
X1455Y318D01*
X1463Y318D02*
X1469Y318D01*
X1523Y318D02*
X1530Y318D01*
X1550Y318D02*
X1560Y318D01*
X1742Y318D02*
X1748Y318D01*
X1803Y318D02*
X1810Y318D01*
X0Y317D02*
X7Y317D01*
X60Y317D02*
X78Y317D01*
X272Y317D02*
X286Y317D01*
X513Y317D02*
X519Y317D01*
X697Y317D02*
X703Y317D01*
X1449Y317D02*
X1455Y317D01*
X1463Y317D02*
X1469Y317D01*
X1522Y317D02*
X1529Y317D01*
X1550Y317D02*
X1559Y317D01*
X1742Y317D02*
X1749Y317D01*
X1803Y317D02*
X1810Y317D01*
X0Y316D02*
X7Y316D01*
X60Y316D02*
X77Y316D01*
X272Y316D02*
X286Y316D01*
X512Y316D02*
X519Y316D01*
X697Y316D02*
X703Y316D01*
X1449Y316D02*
X1455Y316D01*
X1463Y316D02*
X1469Y316D01*
X1522Y316D02*
X1529Y316D01*
X1550Y316D02*
X1559Y316D01*
X1742Y316D02*
X1749Y316D01*
X1803Y316D02*
X1810Y316D01*
X0Y315D02*
X7Y315D01*
X59Y315D02*
X76Y315D01*
X272Y315D02*
X286Y315D01*
X512Y315D02*
X519Y315D01*
X697Y315D02*
X703Y315D01*
X1449Y315D02*
X1455Y315D01*
X1463Y315D02*
X1469Y315D01*
X1521Y315D02*
X1528Y315D01*
X1549Y315D02*
X1558Y315D01*
X1742Y315D02*
X1749Y315D01*
X1803Y315D02*
X1810Y315D01*
X0Y314D02*
X7Y314D01*
X58Y314D02*
X75Y314D01*
X272Y314D02*
X286Y314D01*
X512Y314D02*
X519Y314D01*
X697Y314D02*
X703Y314D01*
X1449Y314D02*
X1455Y314D01*
X1463Y314D02*
X1469Y314D01*
X1521Y314D02*
X1528Y314D01*
X1549Y314D02*
X1558Y314D01*
X1742Y314D02*
X1750Y314D01*
X1803Y314D02*
X1810Y314D01*
X0Y313D02*
X7Y313D01*
X58Y313D02*
X74Y313D01*
X272Y313D02*
X287Y313D01*
X512Y313D02*
X518Y313D01*
X697Y313D02*
X703Y313D01*
X1449Y313D02*
X1455Y313D01*
X1463Y313D02*
X1469Y313D01*
X1520Y313D02*
X1527Y313D01*
X1549Y313D02*
X1558Y313D01*
X1742Y313D02*
X1750Y313D01*
X1803Y313D02*
X1810Y313D01*
X0Y312D02*
X7Y312D01*
X57Y312D02*
X73Y312D01*
X272Y312D02*
X287Y312D01*
X512Y312D02*
X518Y312D01*
X697Y312D02*
X703Y312D01*
X1449Y312D02*
X1455Y312D01*
X1463Y312D02*
X1469Y312D01*
X1520Y312D02*
X1527Y312D01*
X1548Y312D02*
X1558Y312D01*
X1742Y312D02*
X1750Y312D01*
X1803Y312D02*
X1810Y312D01*
X0Y311D02*
X7Y311D01*
X56Y311D02*
X72Y311D01*
X272Y311D02*
X287Y311D01*
X511Y311D02*
X518Y311D01*
X697Y311D02*
X703Y311D01*
X1449Y311D02*
X1455Y311D01*
X1463Y311D02*
X1469Y311D01*
X1519Y311D02*
X1526Y311D01*
X1548Y311D02*
X1557Y311D01*
X1742Y311D02*
X1750Y311D01*
X1803Y311D02*
X1810Y311D01*
X0Y310D02*
X7Y310D01*
X56Y310D02*
X72Y310D01*
X272Y310D02*
X287Y310D01*
X511Y310D02*
X518Y310D01*
X697Y310D02*
X703Y310D01*
X1449Y310D02*
X1455Y310D01*
X1463Y310D02*
X1469Y310D01*
X1519Y310D02*
X1526Y310D01*
X1548Y310D02*
X1557Y310D01*
X1742Y310D02*
X1751Y310D01*
X1803Y310D02*
X1810Y310D01*
X0Y309D02*
X7Y309D01*
X55Y309D02*
X71Y309D01*
X272Y309D02*
X288Y309D01*
X511Y309D02*
X517Y309D01*
X697Y309D02*
X703Y309D01*
X1449Y309D02*
X1455Y309D01*
X1463Y309D02*
X1469Y309D01*
X1518Y309D02*
X1525Y309D01*
X1548Y309D02*
X1557Y309D01*
X1742Y309D02*
X1751Y309D01*
X1803Y309D02*
X1810Y309D01*
X0Y308D02*
X7Y308D01*
X54Y308D02*
X70Y308D01*
X272Y308D02*
X288Y308D01*
X511Y308D02*
X517Y308D01*
X697Y308D02*
X703Y308D01*
X1449Y308D02*
X1455Y308D01*
X1463Y308D02*
X1469Y308D01*
X1517Y308D02*
X1525Y308D01*
X1547Y308D02*
X1556Y308D01*
X1742Y308D02*
X1751Y308D01*
X1803Y308D02*
X1810Y308D01*
X0Y307D02*
X7Y307D01*
X54Y307D02*
X69Y307D01*
X272Y307D02*
X288Y307D01*
X511Y307D02*
X517Y307D01*
X697Y307D02*
X703Y307D01*
X1449Y307D02*
X1481Y307D01*
X1501Y307D02*
X1524Y307D01*
X1547Y307D02*
X1556Y307D01*
X1742Y307D02*
X1751Y307D01*
X1803Y307D02*
X1810Y307D01*
X0Y306D02*
X7Y306D01*
X53Y306D02*
X69Y306D01*
X272Y306D02*
X288Y306D01*
X513Y306D02*
X517Y306D01*
X697Y306D02*
X703Y306D01*
X1449Y306D02*
X1482Y306D01*
X1500Y306D02*
X1524Y306D01*
X1547Y306D02*
X1556Y306D01*
X1742Y306D02*
X1752Y306D01*
X1803Y306D02*
X1810Y306D01*
X0Y305D02*
X7Y305D01*
X53Y305D02*
X68Y305D01*
X272Y305D02*
X289Y305D01*
X514Y305D02*
X517Y305D01*
X697Y305D02*
X703Y305D01*
X1449Y305D02*
X1483Y305D01*
X1499Y305D02*
X1523Y305D01*
X1547Y305D02*
X1556Y305D01*
X1743Y305D02*
X1752Y305D01*
X1803Y305D02*
X1810Y305D01*
X0Y304D02*
X7Y304D01*
X52Y304D02*
X67Y304D01*
X272Y304D02*
X289Y304D01*
X515Y304D02*
X516Y304D01*
X697Y304D02*
X703Y304D01*
X1449Y304D02*
X1483Y304D01*
X1499Y304D02*
X1522Y304D01*
X1547Y304D02*
X1556Y304D01*
X1743Y304D02*
X1752Y304D01*
X1803Y304D02*
X1810Y304D01*
X0Y303D02*
X7Y303D01*
X51Y303D02*
X67Y303D01*
X272Y303D02*
X289Y303D01*
X516Y303D02*
X516Y303D01*
X697Y303D02*
X703Y303D01*
X1449Y303D02*
X1482Y303D01*
X1499Y303D02*
X1521Y303D01*
X1546Y303D02*
X1555Y303D01*
X1743Y303D02*
X1752Y303D01*
X1803Y303D02*
X1810Y303D01*
X0Y302D02*
X7Y302D01*
X51Y302D02*
X66Y302D01*
X272Y302D02*
X290Y302D01*
X697Y302D02*
X703Y302D01*
X1450Y302D02*
X1482Y302D01*
X1500Y302D02*
X1519Y302D01*
X1546Y302D02*
X1555Y302D01*
X1743Y302D02*
X1752Y302D01*
X1803Y302D02*
X1810Y302D01*
X0Y301D02*
X7Y301D01*
X50Y301D02*
X65Y301D01*
X272Y301D02*
X290Y301D01*
X697Y301D02*
X703Y301D01*
X1451Y301D02*
X1481Y301D01*
X1501Y301D02*
X1517Y301D01*
X1546Y301D02*
X1555Y301D01*
X1743Y301D02*
X1752Y301D01*
X1803Y301D02*
X1810Y301D01*
X0Y300D02*
X7Y300D01*
X50Y300D02*
X65Y300D01*
X272Y300D02*
X290Y300D01*
X697Y300D02*
X703Y300D01*
X1546Y300D02*
X1555Y300D01*
X1744Y300D02*
X1753Y300D01*
X1803Y300D02*
X1810Y300D01*
X0Y299D02*
X7Y299D01*
X49Y299D02*
X64Y299D01*
X272Y299D02*
X291Y299D01*
X697Y299D02*
X703Y299D01*
X1546Y299D02*
X1555Y299D01*
X1744Y299D02*
X1753Y299D01*
X1803Y299D02*
X1810Y299D01*
X0Y298D02*
X7Y298D01*
X49Y298D02*
X64Y298D01*
X272Y298D02*
X291Y298D01*
X697Y298D02*
X703Y298D01*
X1546Y298D02*
X1555Y298D01*
X1744Y298D02*
X1753Y298D01*
X1803Y298D02*
X1810Y298D01*
X0Y297D02*
X7Y297D01*
X48Y297D02*
X63Y297D01*
X272Y297D02*
X291Y297D01*
X697Y297D02*
X703Y297D01*
X1545Y297D02*
X1554Y297D01*
X1744Y297D02*
X1753Y297D01*
X1803Y297D02*
X1810Y297D01*
X0Y296D02*
X7Y296D01*
X48Y296D02*
X62Y296D01*
X272Y296D02*
X292Y296D01*
X697Y296D02*
X703Y296D01*
X1545Y296D02*
X1554Y296D01*
X1744Y296D02*
X1753Y296D01*
X1803Y296D02*
X1810Y296D01*
X0Y295D02*
X7Y295D01*
X47Y295D02*
X62Y295D01*
X272Y295D02*
X292Y295D01*
X697Y295D02*
X703Y295D01*
X1545Y295D02*
X1554Y295D01*
X1744Y295D02*
X1753Y295D01*
X1803Y295D02*
X1810Y295D01*
X0Y294D02*
X7Y294D01*
X47Y294D02*
X61Y294D01*
X272Y294D02*
X292Y294D01*
X697Y294D02*
X703Y294D01*
X1545Y294D02*
X1554Y294D01*
X1744Y294D02*
X1753Y294D01*
X1803Y294D02*
X1810Y294D01*
X0Y293D02*
X7Y293D01*
X47Y293D02*
X61Y293D01*
X272Y293D02*
X284Y293D01*
X286Y293D02*
X293Y293D01*
X697Y293D02*
X703Y293D01*
X1545Y293D02*
X1554Y293D01*
X1744Y293D02*
X1753Y293D01*
X1803Y293D02*
X1810Y293D01*
X0Y292D02*
X7Y292D01*
X46Y292D02*
X60Y292D01*
X272Y292D02*
X284Y292D01*
X286Y292D02*
X293Y292D01*
X697Y292D02*
X703Y292D01*
X1545Y292D02*
X1554Y292D01*
X1744Y292D02*
X1753Y292D01*
X1803Y292D02*
X1810Y292D01*
X0Y291D02*
X7Y291D01*
X46Y291D02*
X60Y291D01*
X272Y291D02*
X284Y291D01*
X286Y291D02*
X294Y291D01*
X697Y291D02*
X703Y291D01*
X1545Y291D02*
X1554Y291D01*
X1745Y291D02*
X1754Y291D01*
X1803Y291D02*
X1810Y291D01*
X0Y290D02*
X7Y290D01*
X45Y290D02*
X59Y290D01*
X272Y290D02*
X284Y290D01*
X287Y290D02*
X294Y290D01*
X697Y290D02*
X702Y290D01*
X1042Y290D02*
X1108Y290D01*
X1310Y290D02*
X1357Y290D01*
X1545Y290D02*
X1554Y290D01*
X1745Y290D02*
X1754Y290D01*
X1803Y290D02*
X1810Y290D01*
X0Y289D02*
X7Y289D01*
X45Y289D02*
X59Y289D01*
X272Y289D02*
X284Y289D01*
X287Y289D02*
X295Y289D01*
X698Y289D02*
X701Y289D01*
X1042Y289D02*
X1108Y289D01*
X1309Y289D02*
X1356Y289D01*
X1545Y289D02*
X1554Y289D01*
X1745Y289D02*
X1754Y289D01*
X1803Y289D02*
X1810Y289D01*
X0Y288D02*
X7Y288D01*
X45Y288D02*
X59Y288D01*
X272Y288D02*
X284Y288D01*
X288Y288D02*
X295Y288D01*
X1042Y288D02*
X1108Y288D01*
X1309Y288D02*
X1356Y288D01*
X1545Y288D02*
X1554Y288D01*
X1745Y288D02*
X1754Y288D01*
X1803Y288D02*
X1810Y288D01*
X0Y287D02*
X7Y287D01*
X44Y287D02*
X58Y287D01*
X272Y287D02*
X284Y287D01*
X288Y287D02*
X295Y287D01*
X1042Y287D02*
X1108Y287D01*
X1309Y287D02*
X1356Y287D01*
X1545Y287D02*
X1554Y287D01*
X1745Y287D02*
X1754Y287D01*
X1803Y287D02*
X1810Y287D01*
X0Y286D02*
X7Y286D01*
X44Y286D02*
X58Y286D01*
X272Y286D02*
X284Y286D01*
X288Y286D02*
X296Y286D01*
X1042Y286D02*
X1108Y286D01*
X1309Y286D02*
X1356Y286D01*
X1545Y286D02*
X1554Y286D01*
X1745Y286D02*
X1754Y286D01*
X1803Y286D02*
X1810Y286D01*
X0Y285D02*
X7Y285D01*
X43Y285D02*
X57Y285D01*
X272Y285D02*
X284Y285D01*
X289Y285D02*
X297Y285D01*
X1042Y285D02*
X1108Y285D01*
X1309Y285D02*
X1356Y285D01*
X1545Y285D02*
X1554Y285D01*
X1745Y285D02*
X1754Y285D01*
X1803Y285D02*
X1810Y285D01*
X0Y284D02*
X7Y284D01*
X43Y284D02*
X57Y284D01*
X272Y284D02*
X284Y284D01*
X289Y284D02*
X297Y284D01*
X1042Y284D02*
X1108Y284D01*
X1309Y284D02*
X1356Y284D01*
X1545Y284D02*
X1554Y284D01*
X1745Y284D02*
X1754Y284D01*
X1803Y284D02*
X1810Y284D01*
X0Y283D02*
X7Y283D01*
X43Y283D02*
X57Y283D01*
X272Y283D02*
X284Y283D01*
X290Y283D02*
X298Y283D01*
X1042Y283D02*
X1108Y283D01*
X1309Y283D02*
X1356Y283D01*
X1545Y283D02*
X1554Y283D01*
X1745Y283D02*
X1754Y283D01*
X1803Y283D02*
X1810Y283D01*
X0Y282D02*
X7Y282D01*
X42Y282D02*
X56Y282D01*
X272Y282D02*
X284Y282D01*
X290Y282D02*
X298Y282D01*
X1042Y282D02*
X1108Y282D01*
X1309Y282D02*
X1356Y282D01*
X1545Y282D02*
X1554Y282D01*
X1745Y282D02*
X1754Y282D01*
X1803Y282D02*
X1810Y282D01*
X0Y281D02*
X7Y281D01*
X42Y281D02*
X56Y281D01*
X272Y281D02*
X284Y281D01*
X291Y281D02*
X299Y281D01*
X1042Y281D02*
X1108Y281D01*
X1309Y281D02*
X1357Y281D01*
X1545Y281D02*
X1554Y281D01*
X1745Y281D02*
X1754Y281D01*
X1803Y281D02*
X1810Y281D01*
X0Y280D02*
X7Y280D01*
X42Y280D02*
X55Y280D01*
X272Y280D02*
X284Y280D01*
X291Y280D02*
X299Y280D01*
X1545Y280D02*
X1554Y280D01*
X1745Y280D02*
X1754Y280D01*
X1803Y280D02*
X1810Y280D01*
X0Y279D02*
X7Y279D01*
X41Y279D02*
X55Y279D01*
X272Y279D02*
X284Y279D01*
X292Y279D02*
X300Y279D01*
X1545Y279D02*
X1554Y279D01*
X1745Y279D02*
X1754Y279D01*
X1803Y279D02*
X1810Y279D01*
X0Y278D02*
X7Y278D01*
X41Y278D02*
X55Y278D01*
X272Y278D02*
X284Y278D01*
X292Y278D02*
X300Y278D01*
X1545Y278D02*
X1554Y278D01*
X1744Y278D02*
X1753Y278D01*
X1803Y278D02*
X1810Y278D01*
X0Y277D02*
X7Y277D01*
X41Y277D02*
X54Y277D01*
X272Y277D02*
X284Y277D01*
X293Y277D02*
X301Y277D01*
X1545Y277D02*
X1554Y277D01*
X1744Y277D02*
X1753Y277D01*
X1803Y277D02*
X1810Y277D01*
X0Y276D02*
X7Y276D01*
X41Y276D02*
X54Y276D01*
X272Y276D02*
X284Y276D01*
X293Y276D02*
X302Y276D01*
X1545Y276D02*
X1554Y276D01*
X1744Y276D02*
X1753Y276D01*
X1803Y276D02*
X1810Y276D01*
X0Y275D02*
X7Y275D01*
X40Y275D02*
X54Y275D01*
X272Y275D02*
X284Y275D01*
X294Y275D02*
X302Y275D01*
X1545Y275D02*
X1554Y275D01*
X1744Y275D02*
X1753Y275D01*
X1803Y275D02*
X1810Y275D01*
X0Y274D02*
X7Y274D01*
X40Y274D02*
X54Y274D01*
X272Y274D02*
X284Y274D01*
X295Y274D02*
X303Y274D01*
X1545Y274D02*
X1554Y274D01*
X1744Y274D02*
X1753Y274D01*
X1803Y274D02*
X1810Y274D01*
X0Y273D02*
X7Y273D01*
X40Y273D02*
X53Y273D01*
X272Y273D02*
X284Y273D01*
X295Y273D02*
X303Y273D01*
X1545Y273D02*
X1555Y273D01*
X1744Y273D02*
X1753Y273D01*
X1803Y273D02*
X1810Y273D01*
X0Y272D02*
X7Y272D01*
X40Y272D02*
X53Y272D01*
X272Y272D02*
X284Y272D01*
X296Y272D02*
X304Y272D01*
X644Y272D02*
X696Y272D01*
X1546Y272D02*
X1555Y272D01*
X1744Y272D02*
X1753Y272D01*
X1803Y272D02*
X1810Y272D01*
X0Y271D02*
X7Y271D01*
X39Y271D02*
X53Y271D01*
X272Y271D02*
X284Y271D01*
X296Y271D02*
X305Y271D01*
X643Y271D02*
X696Y271D01*
X1546Y271D02*
X1555Y271D01*
X1744Y271D02*
X1753Y271D01*
X1803Y271D02*
X1810Y271D01*
X0Y270D02*
X7Y270D01*
X39Y270D02*
X53Y270D01*
X272Y270D02*
X284Y270D01*
X297Y270D02*
X306Y270D01*
X643Y270D02*
X696Y270D01*
X1546Y270D02*
X1555Y270D01*
X1744Y270D02*
X1753Y270D01*
X1803Y270D02*
X1810Y270D01*
X0Y269D02*
X7Y269D01*
X39Y269D02*
X52Y269D01*
X272Y269D02*
X284Y269D01*
X298Y269D02*
X306Y269D01*
X643Y269D02*
X696Y269D01*
X1546Y269D02*
X1555Y269D01*
X1743Y269D02*
X1752Y269D01*
X1803Y269D02*
X1810Y269D01*
X0Y268D02*
X7Y268D01*
X39Y268D02*
X52Y268D01*
X272Y268D02*
X284Y268D01*
X298Y268D02*
X307Y268D01*
X643Y268D02*
X696Y268D01*
X1546Y268D02*
X1555Y268D01*
X1743Y268D02*
X1752Y268D01*
X1803Y268D02*
X1810Y268D01*
X0Y267D02*
X7Y267D01*
X39Y267D02*
X52Y267D01*
X272Y267D02*
X284Y267D01*
X299Y267D02*
X308Y267D01*
X643Y267D02*
X696Y267D01*
X1546Y267D02*
X1555Y267D01*
X1743Y267D02*
X1752Y267D01*
X1803Y267D02*
X1810Y267D01*
X0Y266D02*
X7Y266D01*
X38Y266D02*
X52Y266D01*
X272Y266D02*
X284Y266D01*
X300Y266D02*
X308Y266D01*
X645Y266D02*
X696Y266D01*
X1547Y266D02*
X1556Y266D01*
X1743Y266D02*
X1752Y266D01*
X1803Y266D02*
X1810Y266D01*
X0Y265D02*
X7Y265D01*
X38Y265D02*
X51Y265D01*
X272Y265D02*
X284Y265D01*
X300Y265D02*
X309Y265D01*
X690Y265D02*
X696Y265D01*
X1547Y265D02*
X1556Y265D01*
X1743Y265D02*
X1752Y265D01*
X1803Y265D02*
X1810Y265D01*
X0Y264D02*
X7Y264D01*
X38Y264D02*
X51Y264D01*
X272Y264D02*
X284Y264D01*
X301Y264D02*
X310Y264D01*
X690Y264D02*
X696Y264D01*
X1547Y264D02*
X1556Y264D01*
X1742Y264D02*
X1752Y264D01*
X1803Y264D02*
X1810Y264D01*
X0Y263D02*
X7Y263D01*
X38Y263D02*
X51Y263D01*
X272Y263D02*
X284Y263D01*
X302Y263D02*
X311Y263D01*
X488Y263D02*
X490Y263D01*
X690Y263D02*
X696Y263D01*
X1547Y263D02*
X1556Y263D01*
X1742Y263D02*
X1751Y263D01*
X1803Y263D02*
X1810Y263D01*
X0Y262D02*
X7Y262D01*
X38Y262D02*
X51Y262D01*
X272Y262D02*
X284Y262D01*
X303Y262D02*
X312Y262D01*
X487Y262D02*
X493Y262D01*
X690Y262D02*
X696Y262D01*
X1547Y262D02*
X1556Y262D01*
X1742Y262D02*
X1751Y262D01*
X1803Y262D02*
X1810Y262D01*
X0Y261D02*
X7Y261D01*
X38Y261D02*
X51Y261D01*
X272Y261D02*
X284Y261D01*
X303Y261D02*
X313Y261D01*
X486Y261D02*
X495Y261D01*
X690Y261D02*
X696Y261D01*
X1548Y261D02*
X1557Y261D01*
X1742Y261D02*
X1751Y261D01*
X1803Y261D02*
X1810Y261D01*
X0Y260D02*
X7Y260D01*
X37Y260D02*
X50Y260D01*
X272Y260D02*
X284Y260D01*
X304Y260D02*
X313Y260D01*
X485Y260D02*
X494Y260D01*
X690Y260D02*
X696Y260D01*
X1548Y260D02*
X1557Y260D01*
X1742Y260D02*
X1751Y260D01*
X1803Y260D02*
X1810Y260D01*
X0Y259D02*
X7Y259D01*
X37Y259D02*
X50Y259D01*
X272Y259D02*
X284Y259D01*
X305Y259D02*
X314Y259D01*
X484Y259D02*
X493Y259D01*
X690Y259D02*
X696Y259D01*
X1548Y259D02*
X1557Y259D01*
X1742Y259D02*
X1750Y259D01*
X1803Y259D02*
X1810Y259D01*
X0Y258D02*
X7Y258D01*
X37Y258D02*
X50Y258D01*
X272Y258D02*
X284Y258D01*
X306Y258D02*
X315Y258D01*
X483Y258D02*
X493Y258D01*
X690Y258D02*
X696Y258D01*
X1548Y258D02*
X1558Y258D01*
X1742Y258D02*
X1750Y258D01*
X1803Y258D02*
X1810Y258D01*
X0Y257D02*
X7Y257D01*
X37Y257D02*
X50Y257D01*
X272Y257D02*
X284Y257D01*
X307Y257D02*
X316Y257D01*
X482Y257D02*
X492Y257D01*
X690Y257D02*
X696Y257D01*
X1549Y257D02*
X1558Y257D01*
X1742Y257D02*
X1750Y257D01*
X1803Y257D02*
X1810Y257D01*
X0Y256D02*
X7Y256D01*
X37Y256D02*
X50Y256D01*
X272Y256D02*
X284Y256D01*
X308Y256D02*
X317Y256D01*
X481Y256D02*
X491Y256D01*
X690Y256D02*
X696Y256D01*
X1549Y256D02*
X1558Y256D01*
X1742Y256D02*
X1750Y256D01*
X1803Y256D02*
X1810Y256D01*
X0Y255D02*
X7Y255D01*
X37Y255D02*
X50Y255D01*
X272Y255D02*
X284Y255D01*
X308Y255D02*
X318Y255D01*
X480Y255D02*
X490Y255D01*
X690Y255D02*
X696Y255D01*
X1549Y255D02*
X1559Y255D01*
X1742Y255D02*
X1749Y255D01*
X1803Y255D02*
X1810Y255D01*
X0Y254D02*
X7Y254D01*
X37Y254D02*
X50Y254D01*
X272Y254D02*
X284Y254D01*
X309Y254D02*
X319Y254D01*
X479Y254D02*
X489Y254D01*
X690Y254D02*
X696Y254D01*
X1550Y254D02*
X1559Y254D01*
X1742Y254D02*
X1749Y254D01*
X1803Y254D02*
X1810Y254D01*
X0Y253D02*
X7Y253D01*
X37Y253D02*
X50Y253D01*
X272Y253D02*
X284Y253D01*
X310Y253D02*
X320Y253D01*
X478Y253D02*
X488Y253D01*
X690Y253D02*
X696Y253D01*
X1550Y253D02*
X1559Y253D01*
X1742Y253D02*
X1749Y253D01*
X1803Y253D02*
X1810Y253D01*
X0Y252D02*
X7Y252D01*
X36Y252D02*
X49Y252D01*
X272Y252D02*
X284Y252D01*
X311Y252D02*
X321Y252D01*
X477Y252D02*
X487Y252D01*
X690Y252D02*
X696Y252D01*
X1550Y252D02*
X1560Y252D01*
X1742Y252D02*
X1748Y252D01*
X1803Y252D02*
X1810Y252D01*
X0Y251D02*
X7Y251D01*
X36Y251D02*
X49Y251D01*
X272Y251D02*
X284Y251D01*
X312Y251D02*
X322Y251D01*
X476Y251D02*
X486Y251D01*
X690Y251D02*
X696Y251D01*
X1551Y251D02*
X1560Y251D01*
X1742Y251D02*
X1748Y251D01*
X1803Y251D02*
X1810Y251D01*
X0Y250D02*
X7Y250D01*
X36Y250D02*
X49Y250D01*
X272Y250D02*
X284Y250D01*
X313Y250D02*
X323Y250D01*
X475Y250D02*
X485Y250D01*
X690Y250D02*
X696Y250D01*
X1551Y250D02*
X1560Y250D01*
X1742Y250D02*
X1748Y250D01*
X1803Y250D02*
X1810Y250D01*
X0Y249D02*
X7Y249D01*
X36Y249D02*
X49Y249D01*
X272Y249D02*
X284Y249D01*
X314Y249D02*
X325Y249D01*
X474Y249D02*
X484Y249D01*
X690Y249D02*
X696Y249D01*
X1551Y249D02*
X1561Y249D01*
X1742Y249D02*
X1747Y249D01*
X1803Y249D02*
X1810Y249D01*
X0Y248D02*
X7Y248D01*
X36Y248D02*
X49Y248D01*
X272Y248D02*
X284Y248D01*
X315Y248D02*
X326Y248D01*
X473Y248D02*
X483Y248D01*
X690Y248D02*
X696Y248D01*
X1552Y248D02*
X1561Y248D01*
X1742Y248D02*
X1747Y248D01*
X1803Y248D02*
X1810Y248D01*
X0Y247D02*
X7Y247D01*
X36Y247D02*
X49Y247D01*
X272Y247D02*
X284Y247D01*
X316Y247D02*
X327Y247D01*
X471Y247D02*
X482Y247D01*
X690Y247D02*
X696Y247D01*
X1552Y247D02*
X1561Y247D01*
X1742Y247D02*
X1746Y247D01*
X1803Y247D02*
X1810Y247D01*
X0Y246D02*
X7Y246D01*
X36Y246D02*
X49Y246D01*
X272Y246D02*
X284Y246D01*
X317Y246D02*
X328Y246D01*
X470Y246D02*
X481Y246D01*
X690Y246D02*
X696Y246D01*
X1552Y246D02*
X1562Y246D01*
X1742Y246D02*
X1746Y246D01*
X1803Y246D02*
X1810Y246D01*
X0Y245D02*
X7Y245D01*
X36Y245D02*
X49Y245D01*
X272Y245D02*
X284Y245D01*
X318Y245D02*
X329Y245D01*
X469Y245D02*
X480Y245D01*
X690Y245D02*
X696Y245D01*
X1553Y245D02*
X1562Y245D01*
X1742Y245D02*
X1746Y245D01*
X1803Y245D02*
X1810Y245D01*
X0Y244D02*
X7Y244D01*
X36Y244D02*
X49Y244D01*
X272Y244D02*
X284Y244D01*
X319Y244D02*
X331Y244D01*
X468Y244D02*
X479Y244D01*
X690Y244D02*
X696Y244D01*
X1553Y244D02*
X1563Y244D01*
X1742Y244D02*
X1745Y244D01*
X1803Y244D02*
X1810Y244D01*
X0Y243D02*
X7Y243D01*
X36Y243D02*
X49Y243D01*
X272Y243D02*
X284Y243D01*
X321Y243D02*
X332Y243D01*
X466Y243D02*
X478Y243D01*
X690Y243D02*
X696Y243D01*
X1554Y243D02*
X1563Y243D01*
X1742Y243D02*
X1745Y243D01*
X1803Y243D02*
X1810Y243D01*
X0Y242D02*
X7Y242D01*
X36Y242D02*
X49Y242D01*
X272Y242D02*
X284Y242D01*
X322Y242D02*
X334Y242D01*
X465Y242D02*
X477Y242D01*
X690Y242D02*
X696Y242D01*
X1554Y242D02*
X1564Y242D01*
X1735Y242D02*
X1744Y242D01*
X1803Y242D02*
X1810Y242D01*
X0Y241D02*
X7Y241D01*
X36Y241D02*
X49Y241D01*
X272Y241D02*
X284Y241D01*
X323Y241D02*
X335Y241D01*
X463Y241D02*
X475Y241D01*
X690Y241D02*
X696Y241D01*
X1555Y241D02*
X1564Y241D01*
X1734Y241D02*
X1744Y241D01*
X1803Y241D02*
X1810Y241D01*
X0Y240D02*
X7Y240D01*
X36Y240D02*
X49Y240D01*
X272Y240D02*
X284Y240D01*
X324Y240D02*
X336Y240D01*
X462Y240D02*
X474Y240D01*
X690Y240D02*
X695Y240D01*
X1555Y240D02*
X1565Y240D01*
X1734Y240D02*
X1743Y240D01*
X1803Y240D02*
X1810Y240D01*
X0Y239D02*
X7Y239D01*
X36Y239D02*
X49Y239D01*
X272Y239D02*
X284Y239D01*
X326Y239D02*
X338Y239D01*
X460Y239D02*
X473Y239D01*
X691Y239D02*
X694Y239D01*
X1556Y239D02*
X1565Y239D01*
X1733Y239D02*
X1743Y239D01*
X1803Y239D02*
X1810Y239D01*
X0Y238D02*
X7Y238D01*
X36Y238D02*
X49Y238D01*
X272Y238D02*
X284Y238D01*
X327Y238D02*
X340Y238D01*
X459Y238D02*
X472Y238D01*
X1556Y238D02*
X1566Y238D01*
X1733Y238D02*
X1742Y238D01*
X1803Y238D02*
X1810Y238D01*
X0Y237D02*
X7Y237D01*
X36Y237D02*
X49Y237D01*
X272Y237D02*
X284Y237D01*
X328Y237D02*
X341Y237D01*
X457Y237D02*
X470Y237D01*
X1557Y237D02*
X1567Y237D01*
X1732Y237D02*
X1742Y237D01*
X1803Y237D02*
X1810Y237D01*
X0Y236D02*
X7Y236D01*
X36Y236D02*
X49Y236D01*
X272Y236D02*
X284Y236D01*
X330Y236D02*
X343Y236D01*
X455Y236D02*
X469Y236D01*
X1557Y236D02*
X1567Y236D01*
X1731Y236D02*
X1741Y236D01*
X1803Y236D02*
X1810Y236D01*
X0Y235D02*
X7Y235D01*
X36Y235D02*
X49Y235D01*
X272Y235D02*
X284Y235D01*
X331Y235D02*
X345Y235D01*
X453Y235D02*
X467Y235D01*
X1558Y235D02*
X1568Y235D01*
X1682Y235D02*
X1716Y235D01*
X1731Y235D02*
X1741Y235D01*
X1803Y235D02*
X1810Y235D01*
X0Y234D02*
X7Y234D01*
X36Y234D02*
X49Y234D01*
X272Y234D02*
X284Y234D01*
X333Y234D02*
X347Y234D01*
X451Y234D02*
X466Y234D01*
X1558Y234D02*
X1568Y234D01*
X1681Y234D02*
X1718Y234D01*
X1730Y234D02*
X1740Y234D01*
X1803Y234D02*
X1810Y234D01*
X0Y233D02*
X7Y233D01*
X36Y233D02*
X49Y233D01*
X272Y233D02*
X284Y233D01*
X334Y233D02*
X349Y233D01*
X449Y233D02*
X464Y233D01*
X1559Y233D02*
X1569Y233D01*
X1680Y233D02*
X1718Y233D01*
X1730Y233D02*
X1739Y233D01*
X1803Y233D02*
X1810Y233D01*
X0Y232D02*
X7Y232D01*
X36Y232D02*
X49Y232D01*
X272Y232D02*
X284Y232D01*
X336Y232D02*
X351Y232D01*
X447Y232D02*
X463Y232D01*
X1560Y232D02*
X1570Y232D01*
X1680Y232D02*
X1719Y232D01*
X1729Y232D02*
X1739Y232D01*
X1803Y232D02*
X1810Y232D01*
X0Y231D02*
X7Y231D01*
X36Y231D02*
X49Y231D01*
X272Y231D02*
X284Y231D01*
X338Y231D02*
X353Y231D01*
X445Y231D02*
X461Y231D01*
X1560Y231D02*
X1570Y231D01*
X1679Y231D02*
X1719Y231D01*
X1728Y231D02*
X1738Y231D01*
X1803Y231D02*
X1810Y231D01*
X0Y230D02*
X7Y230D01*
X36Y230D02*
X49Y230D01*
X272Y230D02*
X284Y230D01*
X339Y230D02*
X355Y230D01*
X443Y230D02*
X459Y230D01*
X1561Y230D02*
X1571Y230D01*
X1679Y230D02*
X1719Y230D01*
X1727Y230D02*
X1738Y230D01*
X1803Y230D02*
X1810Y230D01*
X0Y229D02*
X7Y229D01*
X36Y229D02*
X49Y229D01*
X272Y229D02*
X284Y229D01*
X341Y229D02*
X358Y229D01*
X440Y229D02*
X458Y229D01*
X1561Y229D02*
X1572Y229D01*
X1679Y229D02*
X1719Y229D01*
X1727Y229D02*
X1737Y229D01*
X1803Y229D02*
X1810Y229D01*
X0Y228D02*
X7Y228D01*
X36Y228D02*
X49Y228D01*
X272Y228D02*
X284Y228D01*
X343Y228D02*
X361Y228D01*
X438Y228D02*
X456Y228D01*
X1562Y228D02*
X1573Y228D01*
X1680Y228D02*
X1719Y228D01*
X1726Y228D02*
X1736Y228D01*
X1803Y228D02*
X1810Y228D01*
X0Y227D02*
X7Y227D01*
X36Y227D02*
X49Y227D01*
X272Y227D02*
X284Y227D01*
X345Y227D02*
X364Y227D01*
X435Y227D02*
X454Y227D01*
X1563Y227D02*
X1573Y227D01*
X1680Y227D02*
X1718Y227D01*
X1725Y227D02*
X1736Y227D01*
X1803Y227D02*
X1810Y227D01*
X0Y226D02*
X7Y226D01*
X36Y226D02*
X49Y226D01*
X272Y226D02*
X284Y226D01*
X347Y226D02*
X367Y226D01*
X431Y226D02*
X452Y226D01*
X1563Y226D02*
X1574Y226D01*
X1681Y226D02*
X1717Y226D01*
X1724Y226D02*
X1735Y226D01*
X1803Y226D02*
X1810Y226D01*
X0Y225D02*
X7Y225D01*
X36Y225D02*
X49Y225D01*
X272Y225D02*
X284Y225D01*
X349Y225D02*
X370Y225D01*
X428Y225D02*
X450Y225D01*
X1564Y225D02*
X1575Y225D01*
X1683Y225D02*
X1716Y225D01*
X1724Y225D02*
X1734Y225D01*
X1803Y225D02*
X1810Y225D01*
X0Y224D02*
X7Y224D01*
X36Y224D02*
X49Y224D01*
X272Y224D02*
X284Y224D01*
X352Y224D02*
X375Y224D01*
X423Y224D02*
X447Y224D01*
X1565Y224D02*
X1576Y224D01*
X1723Y224D02*
X1734Y224D01*
X1803Y224D02*
X1810Y224D01*
X0Y223D02*
X7Y223D01*
X36Y223D02*
X49Y223D01*
X272Y223D02*
X284Y223D01*
X354Y223D02*
X380Y223D01*
X418Y223D02*
X445Y223D01*
X1566Y223D02*
X1576Y223D01*
X1722Y223D02*
X1733Y223D01*
X1803Y223D02*
X1810Y223D01*
X0Y222D02*
X7Y222D01*
X37Y222D02*
X49Y222D01*
X272Y222D02*
X284Y222D01*
X357Y222D02*
X387Y222D01*
X411Y222D02*
X442Y222D01*
X642Y222D02*
X696Y222D01*
X1566Y222D02*
X1577Y222D01*
X1721Y222D02*
X1732Y222D01*
X1803Y222D02*
X1810Y222D01*
X0Y221D02*
X7Y221D01*
X37Y221D02*
X50Y221D01*
X272Y221D02*
X284Y221D01*
X359Y221D02*
X440Y221D01*
X642Y221D02*
X696Y221D01*
X946Y221D02*
X974Y221D01*
X999Y221D02*
X1026Y221D01*
X1567Y221D02*
X1578Y221D01*
X1720Y221D02*
X1731Y221D01*
X1803Y221D02*
X1810Y221D01*
X0Y220D02*
X7Y220D01*
X37Y220D02*
X50Y220D01*
X272Y220D02*
X284Y220D01*
X362Y220D02*
X437Y220D01*
X642Y220D02*
X696Y220D01*
X945Y220D02*
X975Y220D01*
X997Y220D02*
X1026Y220D01*
X1568Y220D02*
X1579Y220D01*
X1719Y220D02*
X1731Y220D01*
X1803Y220D02*
X1810Y220D01*
X0Y219D02*
X7Y219D01*
X37Y219D02*
X50Y219D01*
X272Y219D02*
X284Y219D01*
X366Y219D02*
X433Y219D01*
X642Y219D02*
X696Y219D01*
X944Y219D02*
X975Y219D01*
X996Y219D02*
X1026Y219D01*
X1569Y219D02*
X1580Y219D01*
X1718Y219D02*
X1730Y219D01*
X1803Y219D02*
X1810Y219D01*
X0Y218D02*
X7Y218D01*
X37Y218D02*
X50Y218D01*
X272Y218D02*
X284Y218D01*
X369Y218D02*
X430Y218D01*
X642Y218D02*
X696Y218D01*
X943Y218D02*
X975Y218D01*
X995Y218D02*
X1026Y218D01*
X1569Y218D02*
X1581Y218D01*
X1717Y218D02*
X1729Y218D01*
X1803Y218D02*
X1810Y218D01*
X0Y217D02*
X7Y217D01*
X37Y217D02*
X50Y217D01*
X272Y217D02*
X284Y217D01*
X373Y217D02*
X426Y217D01*
X642Y217D02*
X696Y217D01*
X942Y217D02*
X975Y217D01*
X994Y217D02*
X1026Y217D01*
X1570Y217D02*
X1582Y217D01*
X1716Y217D02*
X1728Y217D01*
X1803Y217D02*
X1810Y217D01*
X0Y216D02*
X7Y216D01*
X37Y216D02*
X50Y216D01*
X272Y216D02*
X284Y216D01*
X378Y216D02*
X421Y216D01*
X642Y216D02*
X696Y216D01*
X942Y216D02*
X975Y216D01*
X993Y216D02*
X1026Y216D01*
X1571Y216D02*
X1583Y216D01*
X1715Y216D02*
X1727Y216D01*
X1803Y216D02*
X1810Y216D01*
X0Y215D02*
X7Y215D01*
X37Y215D02*
X50Y215D01*
X272Y215D02*
X284Y215D01*
X385Y215D02*
X414Y215D01*
X642Y215D02*
X649Y215D01*
X666Y215D02*
X672Y215D01*
X690Y215D02*
X696Y215D01*
X942Y215D02*
X973Y215D01*
X993Y215D02*
X1026Y215D01*
X1572Y215D02*
X1584Y215D01*
X1714Y215D02*
X1726Y215D01*
X1803Y215D02*
X1810Y215D01*
X0Y214D02*
X7Y214D01*
X37Y214D02*
X50Y214D01*
X272Y214D02*
X284Y214D01*
X642Y214D02*
X649Y214D01*
X666Y214D02*
X672Y214D01*
X690Y214D02*
X696Y214D01*
X942Y214D02*
X948Y214D01*
X992Y214D02*
X1000Y214D01*
X1020Y214D02*
X1026Y214D01*
X1573Y214D02*
X1585Y214D01*
X1713Y214D02*
X1725Y214D01*
X1803Y214D02*
X1810Y214D01*
X0Y213D02*
X7Y213D01*
X38Y213D02*
X51Y213D01*
X272Y213D02*
X284Y213D01*
X642Y213D02*
X649Y213D01*
X666Y213D02*
X672Y213D01*
X690Y213D02*
X696Y213D01*
X942Y213D02*
X948Y213D01*
X992Y213D02*
X999Y213D01*
X1020Y213D02*
X1026Y213D01*
X1574Y213D02*
X1586Y213D01*
X1712Y213D02*
X1724Y213D01*
X1803Y213D02*
X1810Y213D01*
X0Y212D02*
X7Y212D01*
X38Y212D02*
X51Y212D01*
X272Y212D02*
X284Y212D01*
X642Y212D02*
X649Y212D01*
X666Y212D02*
X672Y212D01*
X690Y212D02*
X696Y212D01*
X942Y212D02*
X948Y212D01*
X992Y212D02*
X998Y212D01*
X1020Y212D02*
X1026Y212D01*
X1575Y212D02*
X1588Y212D01*
X1711Y212D02*
X1724Y212D01*
X1803Y212D02*
X1810Y212D01*
X0Y211D02*
X7Y211D01*
X38Y211D02*
X51Y211D01*
X272Y211D02*
X284Y211D01*
X642Y211D02*
X649Y211D01*
X666Y211D02*
X672Y211D01*
X690Y211D02*
X696Y211D01*
X942Y211D02*
X948Y211D01*
X992Y211D02*
X998Y211D01*
X1020Y211D02*
X1026Y211D01*
X1576Y211D02*
X1589Y211D01*
X1710Y211D02*
X1723Y211D01*
X1803Y211D02*
X1810Y211D01*
X0Y210D02*
X7Y210D01*
X38Y210D02*
X51Y210D01*
X272Y210D02*
X284Y210D01*
X642Y210D02*
X649Y210D01*
X666Y210D02*
X672Y210D01*
X690Y210D02*
X696Y210D01*
X942Y210D02*
X948Y210D01*
X992Y210D02*
X998Y210D01*
X1020Y210D02*
X1026Y210D01*
X1577Y210D02*
X1590Y210D01*
X1708Y210D02*
X1722Y210D01*
X1803Y210D02*
X1810Y210D01*
X0Y209D02*
X7Y209D01*
X38Y209D02*
X51Y209D01*
X272Y209D02*
X284Y209D01*
X642Y209D02*
X649Y209D01*
X666Y209D02*
X672Y209D01*
X690Y209D02*
X696Y209D01*
X942Y209D02*
X948Y209D01*
X992Y209D02*
X998Y209D01*
X1020Y209D02*
X1026Y209D01*
X1578Y209D02*
X1591Y209D01*
X1707Y209D02*
X1720Y209D01*
X1803Y209D02*
X1810Y209D01*
X0Y208D02*
X7Y208D01*
X38Y208D02*
X52Y208D01*
X272Y208D02*
X284Y208D01*
X642Y208D02*
X649Y208D01*
X666Y208D02*
X672Y208D01*
X690Y208D02*
X696Y208D01*
X942Y208D02*
X948Y208D01*
X992Y208D02*
X998Y208D01*
X1020Y208D02*
X1026Y208D01*
X1579Y208D02*
X1593Y208D01*
X1706Y208D02*
X1719Y208D01*
X1803Y208D02*
X1810Y208D01*
X0Y207D02*
X7Y207D01*
X39Y207D02*
X52Y207D01*
X272Y207D02*
X284Y207D01*
X642Y207D02*
X649Y207D01*
X666Y207D02*
X672Y207D01*
X690Y207D02*
X696Y207D01*
X942Y207D02*
X948Y207D01*
X992Y207D02*
X998Y207D01*
X1020Y207D02*
X1026Y207D01*
X1580Y207D02*
X1594Y207D01*
X1704Y207D02*
X1718Y207D01*
X1803Y207D02*
X1810Y207D01*
X0Y206D02*
X7Y206D01*
X39Y206D02*
X52Y206D01*
X272Y206D02*
X284Y206D01*
X642Y206D02*
X649Y206D01*
X666Y206D02*
X672Y206D01*
X690Y206D02*
X696Y206D01*
X942Y206D02*
X948Y206D01*
X992Y206D02*
X998Y206D01*
X1020Y206D02*
X1026Y206D01*
X1581Y206D02*
X1596Y206D01*
X1703Y206D02*
X1717Y206D01*
X1803Y206D02*
X1810Y206D01*
X0Y205D02*
X7Y205D01*
X39Y205D02*
X52Y205D01*
X272Y205D02*
X284Y205D01*
X642Y205D02*
X649Y205D01*
X666Y205D02*
X672Y205D01*
X690Y205D02*
X696Y205D01*
X942Y205D02*
X948Y205D01*
X992Y205D02*
X999Y205D01*
X1020Y205D02*
X1026Y205D01*
X1582Y205D02*
X1597Y205D01*
X1701Y205D02*
X1716Y205D01*
X1803Y205D02*
X1810Y205D01*
X0Y204D02*
X7Y204D01*
X39Y204D02*
X53Y204D01*
X272Y204D02*
X284Y204D01*
X642Y204D02*
X649Y204D01*
X666Y204D02*
X672Y204D01*
X690Y204D02*
X696Y204D01*
X942Y204D02*
X948Y204D01*
X993Y204D02*
X1001Y204D01*
X1019Y204D02*
X1026Y204D01*
X1584Y204D02*
X1599Y204D01*
X1700Y204D02*
X1715Y204D01*
X1803Y204D02*
X1810Y204D01*
X0Y203D02*
X7Y203D01*
X39Y203D02*
X53Y203D01*
X272Y203D02*
X284Y203D01*
X642Y203D02*
X649Y203D01*
X667Y203D02*
X671Y203D01*
X690Y203D02*
X696Y203D01*
X942Y203D02*
X948Y203D01*
X993Y203D02*
X1026Y203D01*
X1585Y203D02*
X1601Y203D01*
X1698Y203D02*
X1714Y203D01*
X1803Y203D02*
X1810Y203D01*
X0Y202D02*
X7Y202D01*
X40Y202D02*
X53Y202D01*
X272Y202D02*
X284Y202D01*
X642Y202D02*
X649Y202D01*
X690Y202D02*
X696Y202D01*
X942Y202D02*
X948Y202D01*
X994Y202D02*
X1026Y202D01*
X1586Y202D02*
X1602Y202D01*
X1696Y202D02*
X1712Y202D01*
X1803Y202D02*
X1810Y202D01*
X0Y201D02*
X7Y201D01*
X40Y201D02*
X53Y201D01*
X272Y201D02*
X284Y201D01*
X642Y201D02*
X649Y201D01*
X690Y201D02*
X696Y201D01*
X942Y201D02*
X948Y201D01*
X994Y201D02*
X1026Y201D01*
X1588Y201D02*
X1604Y201D01*
X1694Y201D02*
X1711Y201D01*
X1803Y201D02*
X1810Y201D01*
X0Y200D02*
X7Y200D01*
X40Y200D02*
X54Y200D01*
X272Y200D02*
X284Y200D01*
X642Y200D02*
X649Y200D01*
X690Y200D02*
X696Y200D01*
X942Y200D02*
X948Y200D01*
X995Y200D02*
X1026Y200D01*
X1589Y200D02*
X1606Y200D01*
X1692Y200D02*
X1710Y200D01*
X1803Y200D02*
X1810Y200D01*
X0Y199D02*
X7Y199D01*
X40Y199D02*
X54Y199D01*
X272Y199D02*
X284Y199D01*
X642Y199D02*
X649Y199D01*
X690Y199D02*
X696Y199D01*
X942Y199D02*
X948Y199D01*
X996Y199D02*
X1026Y199D01*
X1590Y199D02*
X1608Y199D01*
X1690Y199D02*
X1708Y199D01*
X1803Y199D02*
X1810Y199D01*
X0Y198D02*
X7Y198D01*
X41Y198D02*
X54Y198D01*
X272Y198D02*
X284Y198D01*
X642Y198D02*
X649Y198D01*
X690Y198D02*
X696Y198D01*
X942Y198D02*
X969Y198D01*
X998Y198D02*
X1026Y198D01*
X1592Y198D02*
X1610Y198D01*
X1688Y198D02*
X1707Y198D01*
X1803Y198D02*
X1810Y198D01*
X0Y197D02*
X7Y197D01*
X41Y197D02*
X55Y197D01*
X272Y197D02*
X284Y197D01*
X642Y197D02*
X649Y197D01*
X690Y197D02*
X696Y197D01*
X942Y197D02*
X972Y197D01*
X1002Y197D02*
X1026Y197D01*
X1593Y197D02*
X1613Y197D01*
X1686Y197D02*
X1705Y197D01*
X1803Y197D02*
X1810Y197D01*
X0Y196D02*
X7Y196D01*
X41Y196D02*
X55Y196D01*
X272Y196D02*
X284Y196D01*
X642Y196D02*
X649Y196D01*
X690Y196D02*
X696Y196D01*
X942Y196D02*
X973Y196D01*
X1006Y196D02*
X1013Y196D01*
X1020Y196D02*
X1026Y196D01*
X1595Y196D02*
X1616Y196D01*
X1683Y196D02*
X1704Y196D01*
X1803Y196D02*
X1810Y196D01*
X0Y195D02*
X7Y195D01*
X42Y195D02*
X55Y195D01*
X272Y195D02*
X284Y195D01*
X642Y195D02*
X649Y195D01*
X690Y195D02*
X696Y195D01*
X943Y195D02*
X974Y195D01*
X1005Y195D02*
X1013Y195D01*
X1020Y195D02*
X1026Y195D01*
X1597Y195D02*
X1618Y195D01*
X1680Y195D02*
X1702Y195D01*
X1803Y195D02*
X1810Y195D01*
X0Y194D02*
X7Y194D01*
X42Y194D02*
X55Y194D01*
X272Y194D02*
X284Y194D01*
X642Y194D02*
X649Y194D01*
X690Y194D02*
X696Y194D01*
X943Y194D02*
X975Y194D01*
X1005Y194D02*
X1012Y194D01*
X1020Y194D02*
X1026Y194D01*
X1598Y194D02*
X1621Y194D01*
X1677Y194D02*
X1700Y194D01*
X1803Y194D02*
X1810Y194D01*
X0Y193D02*
X7Y193D01*
X42Y193D02*
X56Y193D01*
X272Y193D02*
X284Y193D01*
X642Y193D02*
X649Y193D01*
X690Y193D02*
X696Y193D01*
X944Y193D02*
X975Y193D01*
X1004Y193D02*
X1011Y193D01*
X1020Y193D02*
X1026Y193D01*
X1600Y193D02*
X1625Y193D01*
X1673Y193D02*
X1699Y193D01*
X1803Y193D02*
X1810Y193D01*
X0Y192D02*
X7Y192D01*
X43Y192D02*
X56Y192D01*
X272Y192D02*
X284Y192D01*
X642Y192D02*
X648Y192D01*
X690Y192D02*
X696Y192D01*
X946Y192D02*
X975Y192D01*
X1004Y192D02*
X1011Y192D01*
X1020Y192D02*
X1026Y192D01*
X1602Y192D02*
X1629Y192D01*
X1669Y192D02*
X1697Y192D01*
X1803Y192D02*
X1810Y192D01*
X0Y191D02*
X7Y191D01*
X43Y191D02*
X57Y191D01*
X272Y191D02*
X284Y191D01*
X643Y191D02*
X648Y191D01*
X690Y191D02*
X696Y191D01*
X969Y191D02*
X976Y191D01*
X1003Y191D02*
X1010Y191D01*
X1020Y191D02*
X1026Y191D01*
X1604Y191D02*
X1636Y191D01*
X1663Y191D02*
X1695Y191D01*
X1803Y191D02*
X1810Y191D01*
X0Y190D02*
X7Y190D01*
X43Y190D02*
X57Y190D01*
X272Y190D02*
X284Y190D01*
X643Y190D02*
X648Y190D01*
X690Y190D02*
X695Y190D01*
X970Y190D02*
X976Y190D01*
X1002Y190D02*
X1010Y190D01*
X1020Y190D02*
X1026Y190D01*
X1142Y190D02*
X1208Y190D01*
X1410Y190D02*
X1457Y190D01*
X1606Y190D02*
X1692Y190D01*
X1803Y190D02*
X1810Y190D01*
X0Y189D02*
X7Y189D01*
X43Y189D02*
X57Y189D01*
X272Y189D02*
X284Y189D01*
X644Y189D02*
X647Y189D01*
X691Y189D02*
X694Y189D01*
X970Y189D02*
X976Y189D01*
X1002Y189D02*
X1009Y189D01*
X1020Y189D02*
X1026Y189D01*
X1142Y189D02*
X1208Y189D01*
X1409Y189D02*
X1456Y189D01*
X1608Y189D02*
X1690Y189D01*
X1803Y189D02*
X1810Y189D01*
X0Y188D02*
X7Y188D01*
X44Y188D02*
X58Y188D01*
X272Y188D02*
X284Y188D01*
X970Y188D02*
X976Y188D01*
X1001Y188D02*
X1009Y188D01*
X1020Y188D02*
X1026Y188D01*
X1142Y188D02*
X1208Y188D01*
X1409Y188D02*
X1456Y188D01*
X1610Y188D02*
X1688Y188D01*
X1803Y188D02*
X1810Y188D01*
X0Y187D02*
X7Y187D01*
X44Y187D02*
X58Y187D01*
X272Y187D02*
X284Y187D01*
X970Y187D02*
X976Y187D01*
X1001Y187D02*
X1008Y187D01*
X1020Y187D02*
X1026Y187D01*
X1142Y187D02*
X1208Y187D01*
X1409Y187D02*
X1456Y187D01*
X1613Y187D02*
X1686Y187D01*
X1803Y187D02*
X1810Y187D01*
X0Y186D02*
X7Y186D01*
X45Y186D02*
X59Y186D01*
X272Y186D02*
X284Y186D01*
X970Y186D02*
X976Y186D01*
X1000Y186D02*
X1007Y186D01*
X1020Y186D02*
X1026Y186D01*
X1142Y186D02*
X1208Y186D01*
X1409Y186D02*
X1456Y186D01*
X1616Y186D02*
X1683Y186D01*
X1803Y186D02*
X1810Y186D01*
X0Y185D02*
X7Y185D01*
X45Y185D02*
X59Y185D01*
X272Y185D02*
X284Y185D01*
X970Y185D02*
X976Y185D01*
X1000Y185D02*
X1007Y185D01*
X1020Y185D02*
X1026Y185D01*
X1142Y185D02*
X1208Y185D01*
X1409Y185D02*
X1456Y185D01*
X1618Y185D02*
X1680Y185D01*
X1803Y185D02*
X1810Y185D01*
X0Y184D02*
X7Y184D01*
X45Y184D02*
X60Y184D01*
X272Y184D02*
X284Y184D01*
X970Y184D02*
X976Y184D01*
X999Y184D02*
X1006Y184D01*
X1020Y184D02*
X1026Y184D01*
X1142Y184D02*
X1208Y184D01*
X1409Y184D02*
X1456Y184D01*
X1622Y184D02*
X1677Y184D01*
X1803Y184D02*
X1810Y184D01*
X0Y183D02*
X7Y183D01*
X46Y183D02*
X60Y183D01*
X272Y183D02*
X284Y183D01*
X970Y183D02*
X976Y183D01*
X998Y183D02*
X1006Y183D01*
X1020Y183D02*
X1026Y183D01*
X1142Y183D02*
X1208Y183D01*
X1409Y183D02*
X1456Y183D01*
X1626Y183D02*
X1673Y183D01*
X1803Y183D02*
X1810Y183D01*
X0Y182D02*
X7Y182D01*
X46Y182D02*
X61Y182D01*
X272Y182D02*
X284Y182D01*
X970Y182D02*
X976Y182D01*
X998Y182D02*
X1005Y182D01*
X1020Y182D02*
X1026Y182D01*
X1142Y182D02*
X1208Y182D01*
X1409Y182D02*
X1456Y182D01*
X1630Y182D02*
X1668Y182D01*
X1803Y182D02*
X1810Y182D01*
X0Y181D02*
X7Y181D01*
X47Y181D02*
X61Y181D01*
X272Y181D02*
X284Y181D01*
X970Y181D02*
X976Y181D01*
X997Y181D02*
X1004Y181D01*
X1020Y181D02*
X1026Y181D01*
X1142Y181D02*
X1208Y181D01*
X1409Y181D02*
X1457Y181D01*
X1636Y181D02*
X1662Y181D01*
X1803Y181D02*
X1810Y181D01*
X0Y180D02*
X7Y180D01*
X47Y180D02*
X62Y180D01*
X272Y180D02*
X284Y180D01*
X970Y180D02*
X976Y180D01*
X997Y180D02*
X1004Y180D01*
X1020Y180D02*
X1026Y180D01*
X1803Y180D02*
X1810Y180D01*
X0Y179D02*
X7Y179D01*
X48Y179D02*
X62Y179D01*
X272Y179D02*
X284Y179D01*
X970Y179D02*
X976Y179D01*
X996Y179D02*
X1003Y179D01*
X1020Y179D02*
X1026Y179D01*
X1803Y179D02*
X1810Y179D01*
X0Y178D02*
X7Y178D01*
X48Y178D02*
X63Y178D01*
X272Y178D02*
X284Y178D01*
X970Y178D02*
X976Y178D01*
X995Y178D02*
X1003Y178D01*
X1020Y178D02*
X1026Y178D01*
X1803Y178D02*
X1810Y178D01*
X0Y177D02*
X7Y177D01*
X48Y177D02*
X63Y177D01*
X272Y177D02*
X284Y177D01*
X970Y177D02*
X976Y177D01*
X995Y177D02*
X1002Y177D01*
X1020Y177D02*
X1026Y177D01*
X1803Y177D02*
X1810Y177D01*
X0Y176D02*
X7Y176D01*
X49Y176D02*
X64Y176D01*
X272Y176D02*
X284Y176D01*
X970Y176D02*
X976Y176D01*
X994Y176D02*
X1001Y176D01*
X1020Y176D02*
X1026Y176D01*
X1803Y176D02*
X1810Y176D01*
X0Y175D02*
X7Y175D01*
X49Y175D02*
X64Y175D01*
X272Y175D02*
X284Y175D01*
X595Y175D02*
X604Y175D01*
X970Y175D02*
X976Y175D01*
X994Y175D02*
X1001Y175D01*
X1020Y175D02*
X1026Y175D01*
X1803Y175D02*
X1810Y175D01*
X0Y174D02*
X7Y174D01*
X50Y174D02*
X65Y174D01*
X272Y174D02*
X284Y174D01*
X595Y174D02*
X604Y174D01*
X944Y174D02*
X976Y174D01*
X993Y174D02*
X1000Y174D01*
X1020Y174D02*
X1026Y174D01*
X1803Y174D02*
X1810Y174D01*
X0Y173D02*
X7Y173D01*
X50Y173D02*
X65Y173D01*
X272Y173D02*
X284Y173D01*
X595Y173D02*
X604Y173D01*
X943Y173D02*
X976Y173D01*
X993Y173D02*
X1000Y173D01*
X1020Y173D02*
X1026Y173D01*
X1803Y173D02*
X1810Y173D01*
X0Y172D02*
X7Y172D01*
X51Y172D02*
X66Y172D01*
X272Y172D02*
X284Y172D01*
X595Y172D02*
X604Y172D01*
X644Y172D02*
X647Y172D01*
X691Y172D02*
X694Y172D01*
X942Y172D02*
X976Y172D01*
X992Y172D02*
X999Y172D01*
X1020Y172D02*
X1026Y172D01*
X1803Y172D02*
X1810Y172D01*
X0Y171D02*
X7Y171D01*
X52Y171D02*
X67Y171D01*
X272Y171D02*
X284Y171D01*
X595Y171D02*
X604Y171D01*
X643Y171D02*
X648Y171D01*
X690Y171D02*
X695Y171D01*
X942Y171D02*
X976Y171D01*
X992Y171D02*
X999Y171D01*
X1020Y171D02*
X1026Y171D01*
X1803Y171D02*
X1810Y171D01*
X0Y170D02*
X7Y170D01*
X52Y170D02*
X67Y170D01*
X272Y170D02*
X284Y170D01*
X595Y170D02*
X604Y170D01*
X643Y170D02*
X648Y170D01*
X690Y170D02*
X696Y170D01*
X942Y170D02*
X976Y170D01*
X992Y170D02*
X998Y170D01*
X1020Y170D02*
X1025Y170D01*
X1803Y170D02*
X1810Y170D01*
X0Y169D02*
X7Y169D01*
X53Y169D02*
X68Y169D01*
X272Y169D02*
X284Y169D01*
X595Y169D02*
X604Y169D01*
X642Y169D02*
X648Y169D01*
X690Y169D02*
X696Y169D01*
X943Y169D02*
X976Y169D01*
X993Y169D02*
X997Y169D01*
X1020Y169D02*
X1025Y169D01*
X1803Y169D02*
X1810Y169D01*
X0Y168D02*
X7Y168D01*
X53Y168D02*
X69Y168D01*
X272Y168D02*
X284Y168D01*
X595Y168D02*
X604Y168D01*
X642Y168D02*
X649Y168D01*
X690Y168D02*
X696Y168D01*
X944Y168D02*
X976Y168D01*
X994Y168D02*
X996Y168D01*
X1021Y168D02*
X1024Y168D01*
X1803Y168D02*
X1810Y168D01*
X0Y167D02*
X7Y167D01*
X54Y167D02*
X70Y167D01*
X272Y167D02*
X284Y167D01*
X595Y167D02*
X604Y167D01*
X642Y167D02*
X649Y167D01*
X690Y167D02*
X696Y167D01*
X1803Y167D02*
X1810Y167D01*
X0Y166D02*
X7Y166D01*
X54Y166D02*
X70Y166D01*
X272Y166D02*
X284Y166D01*
X595Y166D02*
X604Y166D01*
X642Y166D02*
X649Y166D01*
X689Y166D02*
X696Y166D01*
X1803Y166D02*
X1810Y166D01*
X0Y165D02*
X7Y165D01*
X55Y165D02*
X71Y165D01*
X272Y165D02*
X284Y165D01*
X595Y165D02*
X604Y165D01*
X642Y165D02*
X696Y165D01*
X1803Y165D02*
X1810Y165D01*
X0Y164D02*
X7Y164D01*
X56Y164D02*
X72Y164D01*
X272Y164D02*
X284Y164D01*
X595Y164D02*
X604Y164D01*
X642Y164D02*
X696Y164D01*
X1803Y164D02*
X1810Y164D01*
X0Y163D02*
X7Y163D01*
X56Y163D02*
X73Y163D01*
X272Y163D02*
X284Y163D01*
X595Y163D02*
X604Y163D01*
X642Y163D02*
X696Y163D01*
X1803Y163D02*
X1810Y163D01*
X0Y162D02*
X7Y162D01*
X57Y162D02*
X74Y162D01*
X272Y162D02*
X284Y162D01*
X595Y162D02*
X604Y162D01*
X642Y162D02*
X696Y162D01*
X1803Y162D02*
X1810Y162D01*
X0Y161D02*
X7Y161D01*
X58Y161D02*
X74Y161D01*
X272Y161D02*
X284Y161D01*
X595Y161D02*
X604Y161D01*
X642Y161D02*
X696Y161D01*
X1803Y161D02*
X1810Y161D01*
X0Y160D02*
X7Y160D01*
X58Y160D02*
X75Y160D01*
X272Y160D02*
X284Y160D01*
X595Y160D02*
X604Y160D01*
X642Y160D02*
X696Y160D01*
X1803Y160D02*
X1810Y160D01*
X0Y159D02*
X7Y159D01*
X59Y159D02*
X76Y159D01*
X272Y159D02*
X284Y159D01*
X595Y159D02*
X604Y159D01*
X642Y159D02*
X696Y159D01*
X1803Y159D02*
X1810Y159D01*
X0Y158D02*
X7Y158D01*
X60Y158D02*
X77Y158D01*
X272Y158D02*
X284Y158D01*
X595Y158D02*
X604Y158D01*
X642Y158D02*
X649Y158D01*
X690Y158D02*
X696Y158D01*
X1803Y158D02*
X1810Y158D01*
X0Y157D02*
X7Y157D01*
X61Y157D02*
X78Y157D01*
X272Y157D02*
X284Y157D01*
X595Y157D02*
X604Y157D01*
X642Y157D02*
X649Y157D01*
X690Y157D02*
X696Y157D01*
X1803Y157D02*
X1810Y157D01*
X0Y156D02*
X7Y156D01*
X61Y156D02*
X79Y156D01*
X272Y156D02*
X284Y156D01*
X595Y156D02*
X604Y156D01*
X643Y156D02*
X649Y156D01*
X690Y156D02*
X696Y156D01*
X1803Y156D02*
X1810Y156D01*
X0Y155D02*
X7Y155D01*
X62Y155D02*
X80Y155D01*
X272Y155D02*
X284Y155D01*
X595Y155D02*
X604Y155D01*
X643Y155D02*
X649Y155D01*
X689Y155D02*
X695Y155D01*
X1803Y155D02*
X1810Y155D01*
X0Y154D02*
X7Y154D01*
X63Y154D02*
X81Y154D01*
X272Y154D02*
X284Y154D01*
X595Y154D02*
X604Y154D01*
X643Y154D02*
X650Y154D01*
X689Y154D02*
X695Y154D01*
X1803Y154D02*
X1810Y154D01*
X0Y153D02*
X7Y153D01*
X64Y153D02*
X82Y153D01*
X272Y153D02*
X284Y153D01*
X595Y153D02*
X604Y153D01*
X643Y153D02*
X651Y153D01*
X687Y153D02*
X695Y153D01*
X1803Y153D02*
X1810Y153D01*
X0Y152D02*
X7Y152D01*
X65Y152D02*
X83Y152D01*
X272Y152D02*
X284Y152D01*
X595Y152D02*
X604Y152D01*
X644Y152D02*
X653Y152D01*
X685Y152D02*
X695Y152D01*
X1803Y152D02*
X1810Y152D01*
X0Y151D02*
X7Y151D01*
X66Y151D02*
X84Y151D01*
X272Y151D02*
X284Y151D01*
X595Y151D02*
X604Y151D01*
X644Y151D02*
X655Y151D01*
X683Y151D02*
X694Y151D01*
X1803Y151D02*
X1810Y151D01*
X0Y150D02*
X7Y150D01*
X66Y150D02*
X85Y150D01*
X272Y150D02*
X284Y150D01*
X595Y150D02*
X604Y150D01*
X645Y150D02*
X657Y150D01*
X681Y150D02*
X693Y150D01*
X1803Y150D02*
X1810Y150D01*
X0Y149D02*
X7Y149D01*
X67Y149D02*
X86Y149D01*
X272Y149D02*
X284Y149D01*
X595Y149D02*
X604Y149D01*
X646Y149D02*
X659Y149D01*
X679Y149D02*
X693Y149D01*
X1803Y149D02*
X1810Y149D01*
X0Y148D02*
X7Y148D01*
X68Y148D02*
X88Y148D01*
X272Y148D02*
X284Y148D01*
X595Y148D02*
X604Y148D01*
X647Y148D02*
X661Y148D01*
X677Y148D02*
X691Y148D01*
X1803Y148D02*
X1810Y148D01*
X0Y147D02*
X7Y147D01*
X69Y147D02*
X89Y147D01*
X272Y147D02*
X284Y147D01*
X595Y147D02*
X604Y147D01*
X648Y147D02*
X663Y147D01*
X675Y147D02*
X690Y147D01*
X1803Y147D02*
X1810Y147D01*
X0Y146D02*
X7Y146D01*
X70Y146D02*
X90Y146D01*
X272Y146D02*
X284Y146D01*
X595Y146D02*
X604Y146D01*
X650Y146D02*
X665Y146D01*
X673Y146D02*
X688Y146D01*
X1803Y146D02*
X1810Y146D01*
X0Y145D02*
X7Y145D01*
X71Y145D02*
X91Y145D01*
X272Y145D02*
X284Y145D01*
X595Y145D02*
X604Y145D01*
X652Y145D02*
X686Y145D01*
X1803Y145D02*
X1810Y145D01*
X0Y144D02*
X7Y144D01*
X72Y144D02*
X93Y144D01*
X272Y144D02*
X284Y144D01*
X595Y144D02*
X604Y144D01*
X654Y144D02*
X684Y144D01*
X1803Y144D02*
X1810Y144D01*
X0Y143D02*
X7Y143D01*
X73Y143D02*
X94Y143D01*
X272Y143D02*
X284Y143D01*
X595Y143D02*
X604Y143D01*
X656Y143D02*
X682Y143D01*
X1803Y143D02*
X1810Y143D01*
X0Y142D02*
X7Y142D01*
X74Y142D02*
X96Y142D01*
X272Y142D02*
X284Y142D01*
X595Y142D02*
X604Y142D01*
X658Y142D02*
X680Y142D01*
X1803Y142D02*
X1810Y142D01*
X0Y141D02*
X7Y141D01*
X76Y141D02*
X97Y141D01*
X272Y141D02*
X284Y141D01*
X595Y141D02*
X604Y141D01*
X660Y141D02*
X678Y141D01*
X1803Y141D02*
X1810Y141D01*
X0Y140D02*
X7Y140D01*
X77Y140D02*
X99Y140D01*
X272Y140D02*
X284Y140D01*
X595Y140D02*
X604Y140D01*
X662Y140D02*
X676Y140D01*
X1803Y140D02*
X1810Y140D01*
X0Y139D02*
X7Y139D01*
X78Y139D02*
X100Y139D01*
X272Y139D02*
X284Y139D01*
X595Y139D02*
X604Y139D01*
X665Y139D02*
X673Y139D01*
X1803Y139D02*
X1810Y139D01*
X0Y138D02*
X7Y138D01*
X79Y138D02*
X102Y138D01*
X272Y138D02*
X284Y138D01*
X595Y138D02*
X604Y138D01*
X1803Y138D02*
X1810Y138D01*
X0Y137D02*
X7Y137D01*
X80Y137D02*
X104Y137D01*
X272Y137D02*
X284Y137D01*
X595Y137D02*
X604Y137D01*
X1803Y137D02*
X1810Y137D01*
X0Y136D02*
X7Y136D01*
X82Y136D02*
X106Y136D01*
X272Y136D02*
X284Y136D01*
X595Y136D02*
X604Y136D01*
X1803Y136D02*
X1810Y136D01*
X0Y135D02*
X7Y135D01*
X83Y135D02*
X108Y135D01*
X272Y135D02*
X284Y135D01*
X595Y135D02*
X604Y135D01*
X1803Y135D02*
X1810Y135D01*
X0Y134D02*
X7Y134D01*
X84Y134D02*
X110Y134D01*
X272Y134D02*
X284Y134D01*
X595Y134D02*
X604Y134D01*
X1803Y134D02*
X1810Y134D01*
X0Y133D02*
X7Y133D01*
X85Y133D02*
X112Y133D01*
X272Y133D02*
X284Y133D01*
X595Y133D02*
X604Y133D01*
X1803Y133D02*
X1810Y133D01*
X0Y132D02*
X7Y132D01*
X87Y132D02*
X114Y132D01*
X272Y132D02*
X284Y132D01*
X595Y132D02*
X604Y132D01*
X1803Y132D02*
X1810Y132D01*
X0Y131D02*
X7Y131D01*
X88Y131D02*
X117Y131D01*
X272Y131D02*
X284Y131D01*
X595Y131D02*
X604Y131D01*
X1803Y131D02*
X1810Y131D01*
X0Y130D02*
X7Y130D01*
X90Y130D02*
X119Y130D01*
X272Y130D02*
X284Y130D01*
X595Y130D02*
X604Y130D01*
X1803Y130D02*
X1810Y130D01*
X0Y129D02*
X7Y129D01*
X91Y129D02*
X123Y129D01*
X272Y129D02*
X284Y129D01*
X595Y129D02*
X604Y129D01*
X1803Y129D02*
X1810Y129D01*
X0Y128D02*
X7Y128D01*
X93Y128D02*
X127Y128D01*
X272Y128D02*
X284Y128D01*
X595Y128D02*
X604Y128D01*
X1803Y128D02*
X1810Y128D01*
X0Y127D02*
X7Y127D01*
X95Y127D02*
X127Y127D01*
X272Y127D02*
X284Y127D01*
X1803Y127D02*
X1810Y127D01*
X0Y126D02*
X7Y126D01*
X96Y126D02*
X127Y126D01*
X272Y126D02*
X284Y126D01*
X1803Y126D02*
X1810Y126D01*
X0Y125D02*
X7Y125D01*
X98Y125D02*
X127Y125D01*
X272Y125D02*
X284Y125D01*
X1803Y125D02*
X1810Y125D01*
X0Y124D02*
X7Y124D01*
X100Y124D02*
X127Y124D01*
X272Y124D02*
X284Y124D01*
X1803Y124D02*
X1810Y124D01*
X0Y123D02*
X7Y123D01*
X102Y123D02*
X127Y123D01*
X272Y123D02*
X284Y123D01*
X1803Y123D02*
X1810Y123D01*
X0Y122D02*
X7Y122D01*
X104Y122D02*
X127Y122D01*
X272Y122D02*
X284Y122D01*
X1803Y122D02*
X1810Y122D01*
X0Y121D02*
X7Y121D01*
X106Y121D02*
X127Y121D01*
X272Y121D02*
X284Y121D01*
X1803Y121D02*
X1810Y121D01*
X0Y120D02*
X7Y120D01*
X108Y120D02*
X127Y120D01*
X272Y120D02*
X284Y120D01*
X1803Y120D02*
X1810Y120D01*
X0Y119D02*
X7Y119D01*
X111Y119D02*
X127Y119D01*
X272Y119D02*
X284Y119D01*
X1803Y119D02*
X1810Y119D01*
X0Y118D02*
X7Y118D01*
X113Y118D02*
X127Y118D01*
X272Y118D02*
X284Y118D01*
X1803Y118D02*
X1810Y118D01*
X0Y117D02*
X7Y117D01*
X114Y117D02*
X127Y117D01*
X272Y117D02*
X284Y117D01*
X1803Y117D02*
X1810Y117D01*
X0Y116D02*
X7Y116D01*
X114Y116D02*
X127Y116D01*
X272Y116D02*
X284Y116D01*
X1803Y116D02*
X1810Y116D01*
X0Y115D02*
X7Y115D01*
X114Y115D02*
X127Y115D01*
X272Y115D02*
X284Y115D01*
X1803Y115D02*
X1810Y115D01*
X0Y114D02*
X7Y114D01*
X114Y114D02*
X127Y114D01*
X272Y114D02*
X284Y114D01*
X1803Y114D02*
X1810Y114D01*
X0Y113D02*
X7Y113D01*
X114Y113D02*
X127Y113D01*
X272Y113D02*
X284Y113D01*
X1803Y113D02*
X1810Y113D01*
X0Y112D02*
X7Y112D01*
X114Y112D02*
X127Y112D01*
X272Y112D02*
X284Y112D01*
X1803Y112D02*
X1810Y112D01*
X0Y111D02*
X7Y111D01*
X114Y111D02*
X127Y111D01*
X272Y111D02*
X284Y111D01*
X1803Y111D02*
X1810Y111D01*
X0Y110D02*
X7Y110D01*
X114Y110D02*
X127Y110D01*
X272Y110D02*
X284Y110D01*
X1803Y110D02*
X1810Y110D01*
X0Y109D02*
X7Y109D01*
X114Y109D02*
X127Y109D01*
X272Y109D02*
X284Y109D01*
X1803Y109D02*
X1810Y109D01*
X0Y108D02*
X7Y108D01*
X114Y108D02*
X127Y108D01*
X272Y108D02*
X284Y108D01*
X1803Y108D02*
X1810Y108D01*
X0Y107D02*
X7Y107D01*
X114Y107D02*
X127Y107D01*
X272Y107D02*
X284Y107D01*
X1803Y107D02*
X1810Y107D01*
X0Y106D02*
X7Y106D01*
X114Y106D02*
X127Y106D01*
X272Y106D02*
X284Y106D01*
X1803Y106D02*
X1810Y106D01*
X0Y105D02*
X7Y105D01*
X114Y105D02*
X127Y105D01*
X272Y105D02*
X284Y105D01*
X1803Y105D02*
X1810Y105D01*
X0Y104D02*
X7Y104D01*
X114Y104D02*
X127Y104D01*
X272Y104D02*
X284Y104D01*
X1803Y104D02*
X1810Y104D01*
X0Y103D02*
X7Y103D01*
X114Y103D02*
X127Y103D01*
X272Y103D02*
X284Y103D01*
X1803Y103D02*
X1810Y103D01*
X0Y102D02*
X7Y102D01*
X114Y102D02*
X127Y102D01*
X272Y102D02*
X284Y102D01*
X1803Y102D02*
X1810Y102D01*
X0Y101D02*
X7Y101D01*
X114Y101D02*
X127Y101D01*
X272Y101D02*
X284Y101D01*
X1803Y101D02*
X1810Y101D01*
X0Y100D02*
X7Y100D01*
X114Y100D02*
X127Y100D01*
X272Y100D02*
X284Y100D01*
X1803Y100D02*
X1810Y100D01*
X0Y99D02*
X7Y99D01*
X114Y99D02*
X127Y99D01*
X272Y99D02*
X284Y99D01*
X1803Y99D02*
X1810Y99D01*
X0Y98D02*
X7Y98D01*
X114Y98D02*
X127Y98D01*
X272Y98D02*
X284Y98D01*
X1803Y98D02*
X1810Y98D01*
X0Y97D02*
X7Y97D01*
X114Y97D02*
X127Y97D01*
X272Y97D02*
X284Y97D01*
X1803Y97D02*
X1810Y97D01*
X0Y96D02*
X7Y96D01*
X114Y96D02*
X127Y96D01*
X272Y96D02*
X284Y96D01*
X1803Y96D02*
X1810Y96D01*
X0Y95D02*
X7Y95D01*
X114Y95D02*
X127Y95D01*
X272Y95D02*
X284Y95D01*
X1803Y95D02*
X1810Y95D01*
X0Y94D02*
X7Y94D01*
X114Y94D02*
X127Y94D01*
X272Y94D02*
X284Y94D01*
X1803Y94D02*
X1810Y94D01*
X0Y93D02*
X7Y93D01*
X114Y93D02*
X127Y93D01*
X272Y93D02*
X284Y93D01*
X1803Y93D02*
X1810Y93D01*
X0Y92D02*
X7Y92D01*
X114Y92D02*
X127Y92D01*
X272Y92D02*
X284Y92D01*
X1803Y92D02*
X1810Y92D01*
X0Y91D02*
X7Y91D01*
X114Y91D02*
X127Y91D01*
X272Y91D02*
X284Y91D01*
X1803Y91D02*
X1810Y91D01*
X0Y90D02*
X7Y90D01*
X114Y90D02*
X127Y90D01*
X272Y90D02*
X284Y90D01*
X1803Y90D02*
X1810Y90D01*
X0Y89D02*
X7Y89D01*
X114Y89D02*
X127Y89D01*
X272Y89D02*
X284Y89D01*
X1803Y89D02*
X1810Y89D01*
X0Y88D02*
X7Y88D01*
X114Y88D02*
X127Y88D01*
X272Y88D02*
X284Y88D01*
X1803Y88D02*
X1810Y88D01*
X0Y87D02*
X7Y87D01*
X114Y87D02*
X127Y87D01*
X272Y87D02*
X284Y87D01*
X1803Y87D02*
X1810Y87D01*
X0Y86D02*
X7Y86D01*
X114Y86D02*
X127Y86D01*
X272Y86D02*
X284Y86D01*
X1803Y86D02*
X1810Y86D01*
X0Y85D02*
X7Y85D01*
X114Y85D02*
X127Y85D01*
X272Y85D02*
X284Y85D01*
X1803Y85D02*
X1810Y85D01*
X0Y84D02*
X7Y84D01*
X114Y84D02*
X127Y84D01*
X272Y84D02*
X284Y84D01*
X1803Y84D02*
X1810Y84D01*
X0Y83D02*
X7Y83D01*
X114Y83D02*
X127Y83D01*
X272Y83D02*
X284Y83D01*
X1803Y83D02*
X1810Y83D01*
X0Y82D02*
X7Y82D01*
X114Y82D02*
X127Y82D01*
X272Y82D02*
X284Y82D01*
X1803Y82D02*
X1810Y82D01*
X0Y81D02*
X7Y81D01*
X114Y81D02*
X127Y81D01*
X272Y81D02*
X284Y81D01*
X1803Y81D02*
X1810Y81D01*
X0Y80D02*
X7Y80D01*
X114Y80D02*
X127Y80D01*
X272Y80D02*
X284Y80D01*
X1803Y80D02*
X1810Y80D01*
X0Y79D02*
X7Y79D01*
X114Y79D02*
X127Y79D01*
X272Y79D02*
X284Y79D01*
X1803Y79D02*
X1810Y79D01*
X0Y78D02*
X7Y78D01*
X114Y78D02*
X127Y78D01*
X272Y78D02*
X284Y78D01*
X1803Y78D02*
X1810Y78D01*
X0Y77D02*
X7Y77D01*
X114Y77D02*
X127Y77D01*
X272Y77D02*
X284Y77D01*
X1803Y77D02*
X1810Y77D01*
X0Y76D02*
X7Y76D01*
X114Y76D02*
X127Y76D01*
X272Y76D02*
X284Y76D01*
X1803Y76D02*
X1810Y76D01*
X0Y75D02*
X7Y75D01*
X114Y75D02*
X127Y75D01*
X272Y75D02*
X284Y75D01*
X328Y75D02*
X358Y75D01*
X378Y75D02*
X380Y75D01*
X405Y75D02*
X408Y75D01*
X428Y75D02*
X458Y75D01*
X1803Y75D02*
X1810Y75D01*
X0Y74D02*
X7Y74D01*
X114Y74D02*
X127Y74D01*
X272Y74D02*
X284Y74D01*
X327Y74D02*
X359Y74D01*
X377Y74D02*
X381Y74D01*
X404Y74D02*
X409Y74D01*
X427Y74D02*
X459Y74D01*
X1803Y74D02*
X1810Y74D01*
X0Y73D02*
X7Y73D01*
X114Y73D02*
X127Y73D01*
X272Y73D02*
X284Y73D01*
X326Y73D02*
X359Y73D01*
X376Y73D02*
X382Y73D01*
X403Y73D02*
X409Y73D01*
X426Y73D02*
X459Y73D01*
X1803Y73D02*
X1810Y73D01*
X0Y72D02*
X7Y72D01*
X114Y72D02*
X127Y72D01*
X272Y72D02*
X284Y72D01*
X326Y72D02*
X359Y72D01*
X376Y72D02*
X382Y72D01*
X403Y72D02*
X409Y72D01*
X426Y72D02*
X459Y72D01*
X1803Y72D02*
X1810Y72D01*
X0Y71D02*
X7Y71D01*
X114Y71D02*
X127Y71D01*
X272Y71D02*
X284Y71D01*
X326Y71D02*
X359Y71D01*
X376Y71D02*
X382Y71D01*
X402Y71D02*
X409Y71D01*
X426Y71D02*
X460Y71D01*
X1803Y71D02*
X1810Y71D01*
X0Y70D02*
X7Y70D01*
X114Y70D02*
X127Y70D01*
X272Y70D02*
X284Y70D01*
X327Y70D02*
X359Y70D01*
X376Y70D02*
X382Y70D01*
X402Y70D02*
X409Y70D01*
X427Y70D02*
X460Y70D01*
X1803Y70D02*
X1810Y70D01*
X0Y69D02*
X7Y69D01*
X114Y69D02*
X127Y69D01*
X272Y69D02*
X284Y69D01*
X328Y69D02*
X358Y69D01*
X376Y69D02*
X382Y69D01*
X401Y69D02*
X408Y69D01*
X428Y69D02*
X460Y69D01*
X1803Y69D02*
X1810Y69D01*
X0Y68D02*
X7Y68D01*
X114Y68D02*
X127Y68D01*
X272Y68D02*
X284Y68D01*
X340Y68D02*
X346Y68D01*
X376Y68D02*
X382Y68D01*
X401Y68D02*
X408Y68D01*
X440Y68D02*
X446Y68D01*
X453Y68D02*
X460Y68D01*
X1803Y68D02*
X1810Y68D01*
X0Y67D02*
X7Y67D01*
X114Y67D02*
X127Y67D01*
X272Y67D02*
X284Y67D01*
X340Y67D02*
X346Y67D01*
X376Y67D02*
X382Y67D01*
X400Y67D02*
X407Y67D01*
X440Y67D02*
X446Y67D01*
X453Y67D02*
X460Y67D01*
X1803Y67D02*
X1810Y67D01*
X0Y66D02*
X7Y66D01*
X114Y66D02*
X127Y66D01*
X272Y66D02*
X284Y66D01*
X340Y66D02*
X346Y66D01*
X376Y66D02*
X382Y66D01*
X399Y66D02*
X407Y66D01*
X440Y66D02*
X446Y66D01*
X453Y66D02*
X460Y66D01*
X1803Y66D02*
X1810Y66D01*
X0Y65D02*
X7Y65D01*
X114Y65D02*
X127Y65D01*
X272Y65D02*
X284Y65D01*
X340Y65D02*
X346Y65D01*
X376Y65D02*
X382Y65D01*
X399Y65D02*
X406Y65D01*
X440Y65D02*
X446Y65D01*
X453Y65D02*
X460Y65D01*
X1803Y65D02*
X1810Y65D01*
X0Y64D02*
X7Y64D01*
X114Y64D02*
X127Y64D01*
X272Y64D02*
X284Y64D01*
X340Y64D02*
X346Y64D01*
X376Y64D02*
X382Y64D01*
X398Y64D02*
X405Y64D01*
X440Y64D02*
X446Y64D01*
X453Y64D02*
X460Y64D01*
X1803Y64D02*
X1810Y64D01*
X0Y63D02*
X7Y63D01*
X114Y63D02*
X127Y63D01*
X272Y63D02*
X284Y63D01*
X340Y63D02*
X346Y63D01*
X376Y63D02*
X382Y63D01*
X398Y63D02*
X405Y63D01*
X440Y63D02*
X446Y63D01*
X453Y63D02*
X460Y63D01*
X1803Y63D02*
X1810Y63D01*
X0Y62D02*
X7Y62D01*
X114Y62D02*
X127Y62D01*
X272Y62D02*
X284Y62D01*
X340Y62D02*
X346Y62D01*
X376Y62D02*
X382Y62D01*
X397Y62D02*
X404Y62D01*
X440Y62D02*
X446Y62D01*
X453Y62D02*
X460Y62D01*
X1803Y62D02*
X1810Y62D01*
X0Y61D02*
X7Y61D01*
X114Y61D02*
X127Y61D01*
X272Y61D02*
X284Y61D01*
X340Y61D02*
X346Y61D01*
X376Y61D02*
X382Y61D01*
X396Y61D02*
X404Y61D01*
X440Y61D02*
X446Y61D01*
X453Y61D02*
X460Y61D01*
X1803Y61D02*
X1810Y61D01*
X0Y60D02*
X7Y60D01*
X114Y60D02*
X127Y60D01*
X272Y60D02*
X284Y60D01*
X340Y60D02*
X346Y60D01*
X376Y60D02*
X382Y60D01*
X396Y60D02*
X403Y60D01*
X440Y60D02*
X446Y60D01*
X453Y60D02*
X460Y60D01*
X1803Y60D02*
X1810Y60D01*
X0Y59D02*
X7Y59D01*
X114Y59D02*
X127Y59D01*
X272Y59D02*
X284Y59D01*
X340Y59D02*
X346Y59D01*
X376Y59D02*
X382Y59D01*
X395Y59D02*
X402Y59D01*
X440Y59D02*
X446Y59D01*
X453Y59D02*
X460Y59D01*
X1803Y59D02*
X1810Y59D01*
X0Y58D02*
X7Y58D01*
X114Y58D02*
X127Y58D01*
X272Y58D02*
X284Y58D01*
X340Y58D02*
X346Y58D01*
X376Y58D02*
X382Y58D01*
X395Y58D02*
X402Y58D01*
X440Y58D02*
X446Y58D01*
X453Y58D02*
X460Y58D01*
X1803Y58D02*
X1810Y58D01*
X0Y57D02*
X7Y57D01*
X114Y57D02*
X127Y57D01*
X272Y57D02*
X284Y57D01*
X340Y57D02*
X346Y57D01*
X376Y57D02*
X382Y57D01*
X394Y57D02*
X401Y57D01*
X440Y57D02*
X446Y57D01*
X453Y57D02*
X460Y57D01*
X1803Y57D02*
X1810Y57D01*
X0Y56D02*
X7Y56D01*
X114Y56D02*
X127Y56D01*
X272Y56D02*
X284Y56D01*
X340Y56D02*
X346Y56D01*
X376Y56D02*
X382Y56D01*
X394Y56D02*
X401Y56D01*
X440Y56D02*
X446Y56D01*
X453Y56D02*
X460Y56D01*
X1803Y56D02*
X1810Y56D01*
X0Y55D02*
X7Y55D01*
X114Y55D02*
X127Y55D01*
X272Y55D02*
X284Y55D01*
X340Y55D02*
X346Y55D01*
X376Y55D02*
X382Y55D01*
X393Y55D02*
X400Y55D01*
X440Y55D02*
X446Y55D01*
X453Y55D02*
X460Y55D01*
X1803Y55D02*
X1810Y55D01*
X0Y54D02*
X7Y54D01*
X114Y54D02*
X127Y54D01*
X272Y54D02*
X284Y54D01*
X340Y54D02*
X346Y54D01*
X376Y54D02*
X382Y54D01*
X392Y54D02*
X400Y54D01*
X440Y54D02*
X446Y54D01*
X454Y54D02*
X459Y54D01*
X1803Y54D02*
X1810Y54D01*
X0Y53D02*
X7Y53D01*
X114Y53D02*
X127Y53D01*
X272Y53D02*
X284Y53D01*
X340Y53D02*
X346Y53D01*
X376Y53D02*
X382Y53D01*
X392Y53D02*
X399Y53D01*
X440Y53D02*
X446Y53D01*
X454Y53D02*
X459Y53D01*
X1803Y53D02*
X1810Y53D01*
X0Y52D02*
X7Y52D01*
X114Y52D02*
X127Y52D01*
X272Y52D02*
X284Y52D01*
X340Y52D02*
X346Y52D01*
X376Y52D02*
X382Y52D01*
X391Y52D02*
X398Y52D01*
X440Y52D02*
X446Y52D01*
X454Y52D02*
X459Y52D01*
X1803Y52D02*
X1810Y52D01*
X0Y51D02*
X7Y51D01*
X114Y51D02*
X127Y51D01*
X272Y51D02*
X284Y51D01*
X340Y51D02*
X346Y51D01*
X376Y51D02*
X382Y51D01*
X391Y51D02*
X398Y51D01*
X440Y51D02*
X446Y51D01*
X456Y51D02*
X457Y51D01*
X1803Y51D02*
X1810Y51D01*
X0Y50D02*
X7Y50D01*
X114Y50D02*
X127Y50D01*
X272Y50D02*
X284Y50D01*
X340Y50D02*
X346Y50D01*
X376Y50D02*
X382Y50D01*
X390Y50D02*
X397Y50D01*
X440Y50D02*
X446Y50D01*
X1803Y50D02*
X1810Y50D01*
X0Y49D02*
X7Y49D01*
X114Y49D02*
X127Y49D01*
X272Y49D02*
X284Y49D01*
X340Y49D02*
X346Y49D01*
X376Y49D02*
X382Y49D01*
X389Y49D02*
X397Y49D01*
X440Y49D02*
X446Y49D01*
X1803Y49D02*
X1810Y49D01*
X0Y48D02*
X7Y48D01*
X114Y48D02*
X127Y48D01*
X272Y48D02*
X284Y48D01*
X340Y48D02*
X346Y48D01*
X376Y48D02*
X382Y48D01*
X389Y48D02*
X396Y48D01*
X440Y48D02*
X446Y48D01*
X1803Y48D02*
X1810Y48D01*
X0Y47D02*
X7Y47D01*
X114Y47D02*
X127Y47D01*
X272Y47D02*
X284Y47D01*
X340Y47D02*
X346Y47D01*
X376Y47D02*
X382Y47D01*
X388Y47D02*
X395Y47D01*
X440Y47D02*
X446Y47D01*
X1803Y47D02*
X1810Y47D01*
X0Y46D02*
X7Y46D01*
X114Y46D02*
X127Y46D01*
X272Y46D02*
X284Y46D01*
X340Y46D02*
X346Y46D01*
X376Y46D02*
X400Y46D01*
X440Y46D02*
X446Y46D01*
X1803Y46D02*
X1810Y46D01*
X0Y45D02*
X7Y45D01*
X114Y45D02*
X127Y45D01*
X272Y45D02*
X284Y45D01*
X340Y45D02*
X346Y45D01*
X376Y45D02*
X403Y45D01*
X440Y45D02*
X446Y45D01*
X1803Y45D02*
X1810Y45D01*
X0Y44D02*
X7Y44D01*
X114Y44D02*
X127Y44D01*
X271Y44D02*
X284Y44D01*
X340Y44D02*
X346Y44D01*
X376Y44D02*
X405Y44D01*
X440Y44D02*
X446Y44D01*
X1803Y44D02*
X1810Y44D01*
X0Y43D02*
X7Y43D01*
X114Y43D02*
X284Y43D01*
X340Y43D02*
X346Y43D01*
X376Y43D02*
X406Y43D01*
X440Y43D02*
X446Y43D01*
X1803Y43D02*
X1810Y43D01*
X0Y42D02*
X7Y42D01*
X114Y42D02*
X284Y42D01*
X340Y42D02*
X346Y42D01*
X376Y42D02*
X407Y42D01*
X440Y42D02*
X446Y42D01*
X1803Y42D02*
X1810Y42D01*
X0Y41D02*
X7Y41D01*
X114Y41D02*
X284Y41D01*
X340Y41D02*
X346Y41D01*
X376Y41D02*
X408Y41D01*
X440Y41D02*
X446Y41D01*
X1803Y41D02*
X1810Y41D01*
X0Y40D02*
X7Y40D01*
X114Y40D02*
X284Y40D01*
X340Y40D02*
X346Y40D01*
X376Y40D02*
X408Y40D01*
X440Y40D02*
X446Y40D01*
X1803Y40D02*
X1810Y40D01*
X0Y39D02*
X7Y39D01*
X114Y39D02*
X284Y39D01*
X340Y39D02*
X346Y39D01*
X376Y39D02*
X382Y39D01*
X400Y39D02*
X409Y39D01*
X440Y39D02*
X446Y39D01*
X1803Y39D02*
X1810Y39D01*
X0Y38D02*
X7Y38D01*
X114Y38D02*
X284Y38D01*
X340Y38D02*
X346Y38D01*
X376Y38D02*
X382Y38D01*
X402Y38D02*
X409Y38D01*
X440Y38D02*
X446Y38D01*
X1803Y38D02*
X1810Y38D01*
X0Y37D02*
X7Y37D01*
X114Y37D02*
X284Y37D01*
X340Y37D02*
X346Y37D01*
X376Y37D02*
X382Y37D01*
X403Y37D02*
X409Y37D01*
X440Y37D02*
X446Y37D01*
X1803Y37D02*
X1810Y37D01*
X0Y36D02*
X7Y36D01*
X114Y36D02*
X284Y36D01*
X340Y36D02*
X346Y36D01*
X376Y36D02*
X382Y36D01*
X403Y36D02*
X409Y36D01*
X440Y36D02*
X446Y36D01*
X1803Y36D02*
X1810Y36D01*
X0Y35D02*
X7Y35D01*
X114Y35D02*
X284Y35D01*
X340Y35D02*
X346Y35D01*
X376Y35D02*
X382Y35D01*
X403Y35D02*
X410Y35D01*
X440Y35D02*
X446Y35D01*
X1803Y35D02*
X1810Y35D01*
X0Y34D02*
X7Y34D01*
X114Y34D02*
X284Y34D01*
X340Y34D02*
X346Y34D01*
X376Y34D02*
X382Y34D01*
X403Y34D02*
X410Y34D01*
X440Y34D02*
X446Y34D01*
X1803Y34D02*
X1810Y34D01*
X0Y33D02*
X7Y33D01*
X114Y33D02*
X284Y33D01*
X340Y33D02*
X346Y33D01*
X376Y33D02*
X382Y33D01*
X403Y33D02*
X410Y33D01*
X440Y33D02*
X446Y33D01*
X1803Y33D02*
X1810Y33D01*
X0Y32D02*
X7Y32D01*
X114Y32D02*
X284Y32D01*
X340Y32D02*
X346Y32D01*
X376Y32D02*
X382Y32D01*
X403Y32D02*
X409Y32D01*
X440Y32D02*
X446Y32D01*
X1803Y32D02*
X1810Y32D01*
X0Y31D02*
X7Y31D01*
X114Y31D02*
X284Y31D01*
X340Y31D02*
X346Y31D01*
X376Y31D02*
X382Y31D01*
X403Y31D02*
X409Y31D01*
X440Y31D02*
X446Y31D01*
X1803Y31D02*
X1810Y31D01*
X0Y30D02*
X7Y30D01*
X114Y30D02*
X284Y30D01*
X340Y30D02*
X346Y30D01*
X376Y30D02*
X382Y30D01*
X403Y30D02*
X409Y30D01*
X440Y30D02*
X446Y30D01*
X1803Y30D02*
X1810Y30D01*
X0Y29D02*
X7Y29D01*
X340Y29D02*
X346Y29D01*
X376Y29D02*
X382Y29D01*
X402Y29D02*
X409Y29D01*
X440Y29D02*
X446Y29D01*
X1803Y29D02*
X1810Y29D01*
X0Y28D02*
X7Y28D01*
X328Y28D02*
X357Y28D01*
X376Y28D02*
X409Y28D01*
X428Y28D02*
X446Y28D01*
X1803Y28D02*
X1810Y28D01*
X0Y27D02*
X7Y27D01*
X327Y27D02*
X359Y27D01*
X376Y27D02*
X408Y27D01*
X427Y27D02*
X446Y27D01*
X1803Y27D02*
X1810Y27D01*
X0Y26D02*
X7Y26D01*
X326Y26D02*
X359Y26D01*
X376Y26D02*
X408Y26D01*
X426Y26D02*
X446Y26D01*
X1803Y26D02*
X1810Y26D01*
X0Y25D02*
X7Y25D01*
X326Y25D02*
X359Y25D01*
X376Y25D02*
X407Y25D01*
X426Y25D02*
X446Y25D01*
X1803Y25D02*
X1810Y25D01*
X0Y24D02*
X7Y24D01*
X326Y24D02*
X359Y24D01*
X376Y24D02*
X406Y24D01*
X426Y24D02*
X446Y24D01*
X1803Y24D02*
X1810Y24D01*
X0Y23D02*
X7Y23D01*
X327Y23D02*
X359Y23D01*
X376Y23D02*
X404Y23D01*
X427Y23D02*
X446Y23D01*
X1803Y23D02*
X1810Y23D01*
X0Y22D02*
X7Y22D01*
X328Y22D02*
X358Y22D01*
X376Y22D02*
X402Y22D01*
X428Y22D02*
X446Y22D01*
X1803Y22D02*
X1810Y22D01*
X0Y21D02*
X7Y21D01*
X1803Y21D02*
X1810Y21D01*
X0Y20D02*
X7Y20D01*
X1803Y20D02*
X1810Y20D01*
X0Y19D02*
X7Y19D01*
X1803Y19D02*
X1810Y19D01*
X0Y18D02*
X7Y18D01*
X1803Y18D02*
X1810Y18D01*
X0Y17D02*
X7Y17D01*
X1803Y17D02*
X1810Y17D01*
X0Y16D02*
X7Y16D01*
X1803Y16D02*
X1810Y16D01*
X0Y15D02*
X7Y15D01*
X1803Y15D02*
X1810Y15D01*
X0Y14D02*
X7Y14D01*
X1803Y14D02*
X1810Y14D01*
X0Y13D02*
X7Y13D01*
X1803Y13D02*
X1810Y13D01*
X0Y12D02*
X7Y12D01*
X1803Y12D02*
X1810Y12D01*
X0Y11D02*
X7Y11D01*
X1803Y11D02*
X1810Y11D01*
X0Y10D02*
X7Y10D01*
X1803Y10D02*
X1810Y10D01*
X0Y9D02*
X7Y9D01*
X1803Y9D02*
X1810Y9D01*
X0Y8D02*
X1810Y8D01*
X0Y7D02*
X1810Y7D01*
X0Y6D02*
X1810Y6D01*
X0Y5D02*
X1810Y5D01*
X0Y4D02*
X1810Y4D01*
X0Y3D02*
X1810Y3D01*
X0Y2D02*
X1810Y2D01*
X0Y1D02*
X1810Y1D01*
D02*
G04 End of Silk0*
M02*