G04 MADE WITH FRITZING*
G04 WWW.FRITZING.ORG*
G04 DOUBLE SIDED*
G04 HOLES PLATED*
G04 CONTOUR ON CENTER OF CONTOUR VECTOR*
%ASAXBY*%
%FSLAX23Y23*%
%MOIN*%
%OFA0B0*%
%SFA1.0B1.0*%
%ADD10R,1.811020X0.551181X1.795020X0.535181*%
%ADD11C,0.008000*%
%ADD12R,0.001000X0.001000*%
%LNSILK1*%
G90*
G70*
G54D11*
X4Y547D02*
X1807Y547D01*
X1807Y4D01*
X4Y4D01*
X4Y547D01*
D02*
G54D12*
X1754Y551D02*
X1761Y551D01*
X1754Y550D02*
X1761Y550D01*
X1754Y549D02*
X1761Y549D01*
X1754Y548D02*
X1761Y548D01*
X1754Y547D02*
X1761Y547D01*
X1754Y546D02*
X1761Y546D01*
X1754Y545D02*
X1761Y545D01*
X1754Y544D02*
X1761Y544D01*
X1754Y543D02*
X1761Y543D01*
X1754Y542D02*
X1761Y542D01*
X1754Y541D02*
X1761Y541D01*
X1754Y540D02*
X1761Y540D01*
X1754Y539D02*
X1761Y539D01*
X1754Y538D02*
X1761Y538D01*
X1754Y537D02*
X1761Y537D01*
X1754Y536D02*
X1761Y536D01*
X1754Y535D02*
X1761Y535D01*
X1754Y534D02*
X1761Y534D01*
X1754Y533D02*
X1761Y533D01*
X1754Y532D02*
X1761Y532D01*
X1754Y531D02*
X1761Y531D01*
X1754Y530D02*
X1761Y530D01*
X1754Y529D02*
X1761Y529D01*
X704Y528D02*
X1761Y528D01*
X704Y527D02*
X1761Y527D01*
X704Y526D02*
X1761Y526D01*
X704Y525D02*
X1761Y525D01*
X704Y524D02*
X1761Y524D01*
X704Y523D02*
X1761Y523D01*
X704Y522D02*
X1761Y522D01*
X704Y521D02*
X1761Y521D01*
X704Y520D02*
X711Y520D01*
X704Y519D02*
X711Y519D01*
X704Y518D02*
X711Y518D01*
X704Y517D02*
X711Y517D01*
X704Y516D02*
X711Y516D01*
X704Y515D02*
X711Y515D01*
X704Y514D02*
X711Y514D01*
X704Y513D02*
X711Y513D01*
X704Y512D02*
X711Y512D01*
X704Y511D02*
X711Y511D01*
X704Y510D02*
X711Y510D01*
X704Y509D02*
X711Y509D01*
X704Y508D02*
X711Y508D01*
X704Y507D02*
X711Y507D01*
X704Y506D02*
X711Y506D01*
X704Y505D02*
X711Y505D01*
X704Y504D02*
X711Y504D01*
X704Y503D02*
X711Y503D01*
X704Y502D02*
X711Y502D01*
X704Y501D02*
X711Y501D01*
X704Y500D02*
X711Y500D01*
X704Y499D02*
X711Y499D01*
X704Y498D02*
X711Y498D01*
X704Y497D02*
X711Y497D01*
X704Y496D02*
X711Y496D01*
X704Y495D02*
X711Y495D01*
X704Y494D02*
X711Y494D01*
X704Y493D02*
X711Y493D01*
X704Y492D02*
X711Y492D01*
X704Y491D02*
X711Y491D01*
X704Y490D02*
X711Y490D01*
X704Y489D02*
X711Y489D01*
X704Y488D02*
X711Y488D01*
X704Y487D02*
X711Y487D01*
X704Y486D02*
X711Y486D01*
X704Y485D02*
X711Y485D01*
X704Y484D02*
X711Y484D01*
X704Y483D02*
X711Y483D01*
X704Y482D02*
X711Y482D01*
X704Y481D02*
X711Y481D01*
X704Y480D02*
X711Y480D01*
X704Y479D02*
X711Y479D01*
X704Y478D02*
X711Y478D01*
X704Y477D02*
X711Y477D01*
X704Y476D02*
X711Y476D01*
X704Y475D02*
X711Y475D01*
X704Y474D02*
X711Y474D01*
X704Y473D02*
X711Y473D01*
X704Y472D02*
X711Y472D01*
X704Y471D02*
X711Y471D01*
X704Y470D02*
X711Y470D01*
X704Y469D02*
X711Y469D01*
X704Y468D02*
X711Y468D01*
X704Y467D02*
X711Y467D01*
X704Y466D02*
X711Y466D01*
X704Y465D02*
X711Y465D01*
X704Y464D02*
X711Y464D01*
X704Y463D02*
X711Y463D01*
X704Y462D02*
X711Y462D01*
X704Y461D02*
X711Y461D01*
X704Y460D02*
X711Y460D01*
X704Y459D02*
X711Y459D01*
X704Y458D02*
X711Y458D01*
X704Y457D02*
X711Y457D01*
X704Y456D02*
X711Y456D01*
X704Y455D02*
X711Y455D01*
X704Y454D02*
X711Y454D01*
X704Y453D02*
X711Y453D01*
X704Y452D02*
X711Y452D01*
X704Y451D02*
X711Y451D01*
X704Y450D02*
X711Y450D01*
X704Y449D02*
X711Y449D01*
X704Y448D02*
X711Y448D01*
X704Y447D02*
X711Y447D01*
X704Y446D02*
X711Y446D01*
X704Y445D02*
X711Y445D01*
X704Y444D02*
X711Y444D01*
X704Y443D02*
X711Y443D01*
X704Y442D02*
X711Y442D01*
X704Y441D02*
X711Y441D01*
X704Y440D02*
X711Y440D01*
X704Y439D02*
X711Y439D01*
X704Y438D02*
X711Y438D01*
X704Y437D02*
X711Y437D01*
X704Y436D02*
X711Y436D01*
X704Y435D02*
X711Y435D01*
X704Y434D02*
X711Y434D01*
X704Y433D02*
X711Y433D01*
X704Y432D02*
X711Y432D01*
X704Y431D02*
X711Y431D01*
X704Y430D02*
X711Y430D01*
X704Y429D02*
X711Y429D01*
X704Y428D02*
X711Y428D01*
X704Y427D02*
X711Y427D01*
X704Y426D02*
X711Y426D01*
X704Y425D02*
X711Y425D01*
X704Y424D02*
X711Y424D01*
X704Y423D02*
X711Y423D01*
X704Y422D02*
X711Y422D01*
X704Y421D02*
X711Y421D01*
X704Y420D02*
X711Y420D01*
X704Y419D02*
X711Y419D01*
X704Y418D02*
X711Y418D01*
X704Y417D02*
X711Y417D01*
X704Y416D02*
X711Y416D01*
X704Y415D02*
X711Y415D01*
X704Y414D02*
X711Y414D01*
X704Y413D02*
X711Y413D01*
X704Y412D02*
X711Y412D01*
X704Y411D02*
X711Y411D01*
X704Y410D02*
X711Y410D01*
X704Y409D02*
X711Y409D01*
X704Y408D02*
X711Y408D01*
X704Y407D02*
X711Y407D01*
X704Y406D02*
X711Y406D01*
X704Y405D02*
X711Y405D01*
X704Y404D02*
X711Y404D01*
X704Y403D02*
X711Y403D01*
X704Y402D02*
X711Y402D01*
X704Y401D02*
X711Y401D01*
X704Y400D02*
X711Y400D01*
X704Y399D02*
X711Y399D01*
X704Y398D02*
X711Y398D01*
X704Y397D02*
X711Y397D01*
X704Y396D02*
X711Y396D01*
X704Y395D02*
X711Y395D01*
X704Y394D02*
X711Y394D01*
X704Y393D02*
X711Y393D01*
X704Y392D02*
X711Y392D01*
X704Y391D02*
X711Y391D01*
X704Y390D02*
X711Y390D01*
X704Y389D02*
X711Y389D01*
X704Y388D02*
X711Y388D01*
X704Y387D02*
X711Y387D01*
X704Y386D02*
X711Y386D01*
X704Y385D02*
X711Y385D01*
X704Y384D02*
X711Y384D01*
X704Y383D02*
X711Y383D01*
X704Y382D02*
X711Y382D01*
X704Y381D02*
X711Y381D01*
X704Y380D02*
X711Y380D01*
X704Y379D02*
X711Y379D01*
X704Y378D02*
X711Y378D01*
X704Y377D02*
X711Y377D01*
X704Y376D02*
X711Y376D01*
X704Y375D02*
X711Y375D01*
X704Y374D02*
X711Y374D01*
X704Y373D02*
X711Y373D01*
X704Y372D02*
X711Y372D01*
X704Y371D02*
X711Y371D01*
X704Y370D02*
X711Y370D01*
X704Y369D02*
X711Y369D01*
X704Y368D02*
X711Y368D01*
X704Y367D02*
X711Y367D01*
X704Y366D02*
X711Y366D01*
X704Y365D02*
X711Y365D01*
X704Y364D02*
X711Y364D01*
X704Y363D02*
X711Y363D01*
X704Y362D02*
X711Y362D01*
X704Y361D02*
X711Y361D01*
X704Y360D02*
X711Y360D01*
X704Y359D02*
X711Y359D01*
X704Y358D02*
X711Y358D01*
X704Y357D02*
X711Y357D01*
X704Y356D02*
X711Y356D01*
X704Y355D02*
X711Y355D01*
X704Y354D02*
X711Y354D01*
X704Y353D02*
X711Y353D01*
X704Y352D02*
X711Y352D01*
X704Y351D02*
X711Y351D01*
X704Y350D02*
X711Y350D01*
X704Y349D02*
X711Y349D01*
X704Y348D02*
X711Y348D01*
X704Y347D02*
X711Y347D01*
X704Y346D02*
X711Y346D01*
X704Y345D02*
X711Y345D01*
X704Y344D02*
X711Y344D01*
X704Y343D02*
X711Y343D01*
X704Y342D02*
X711Y342D01*
X704Y341D02*
X711Y341D01*
X704Y340D02*
X711Y340D01*
X704Y339D02*
X711Y339D01*
X704Y338D02*
X711Y338D01*
X704Y337D02*
X711Y337D01*
X704Y336D02*
X711Y336D01*
X704Y335D02*
X711Y335D01*
X704Y334D02*
X711Y334D01*
X704Y333D02*
X711Y333D01*
X704Y332D02*
X711Y332D01*
X704Y331D02*
X711Y331D01*
X704Y330D02*
X711Y330D01*
X704Y329D02*
X711Y329D01*
X704Y328D02*
X711Y328D01*
X704Y327D02*
X711Y327D01*
X704Y326D02*
X711Y326D01*
X704Y325D02*
X711Y325D01*
X704Y324D02*
X711Y324D01*
X704Y323D02*
X711Y323D01*
X704Y322D02*
X711Y322D01*
X704Y321D02*
X711Y321D01*
X704Y320D02*
X711Y320D01*
X704Y319D02*
X711Y319D01*
X704Y318D02*
X711Y318D01*
X704Y317D02*
X711Y317D01*
X704Y316D02*
X711Y316D01*
X704Y315D02*
X711Y315D01*
X704Y314D02*
X711Y314D01*
X704Y313D02*
X711Y313D01*
X704Y312D02*
X711Y312D01*
X704Y311D02*
X711Y311D01*
X704Y310D02*
X711Y310D01*
X704Y309D02*
X711Y309D01*
X704Y308D02*
X711Y308D01*
X704Y307D02*
X711Y307D01*
X704Y306D02*
X711Y306D01*
X704Y305D02*
X711Y305D01*
X704Y304D02*
X711Y304D01*
X704Y303D02*
X711Y303D01*
X704Y302D02*
X711Y302D01*
X704Y301D02*
X711Y301D01*
X704Y300D02*
X711Y300D01*
X704Y299D02*
X711Y299D01*
X704Y298D02*
X711Y298D01*
X704Y297D02*
X711Y297D01*
X704Y296D02*
X711Y296D01*
X704Y295D02*
X711Y295D01*
X704Y294D02*
X711Y294D01*
X704Y293D02*
X711Y293D01*
X704Y292D02*
X711Y292D01*
X704Y291D02*
X711Y291D01*
X704Y290D02*
X711Y290D01*
X704Y289D02*
X711Y289D01*
X704Y288D02*
X711Y288D01*
X704Y287D02*
X711Y287D01*
X704Y286D02*
X711Y286D01*
X704Y285D02*
X711Y285D01*
X704Y284D02*
X711Y284D01*
X704Y283D02*
X711Y283D01*
X704Y282D02*
X711Y282D01*
X704Y281D02*
X711Y281D01*
X704Y280D02*
X711Y280D01*
X704Y279D02*
X711Y279D01*
X704Y278D02*
X711Y278D01*
X704Y277D02*
X711Y277D01*
X704Y276D02*
X711Y276D01*
X704Y275D02*
X711Y275D01*
X704Y274D02*
X711Y274D01*
X704Y273D02*
X711Y273D01*
X704Y272D02*
X711Y272D01*
X704Y271D02*
X711Y271D01*
X704Y270D02*
X711Y270D01*
X704Y269D02*
X711Y269D01*
X704Y268D02*
X711Y268D01*
X704Y267D02*
X711Y267D01*
X704Y266D02*
X711Y266D01*
X704Y265D02*
X711Y265D01*
X704Y264D02*
X711Y264D01*
X704Y263D02*
X711Y263D01*
X704Y262D02*
X711Y262D01*
X704Y261D02*
X711Y261D01*
X704Y260D02*
X711Y260D01*
X704Y259D02*
X711Y259D01*
X704Y258D02*
X711Y258D01*
X704Y257D02*
X711Y257D01*
X704Y256D02*
X711Y256D01*
X704Y255D02*
X711Y255D01*
X704Y254D02*
X711Y254D01*
X704Y253D02*
X711Y253D01*
X704Y252D02*
X711Y252D01*
X704Y251D02*
X711Y251D01*
X704Y250D02*
X711Y250D01*
X704Y249D02*
X711Y249D01*
X704Y248D02*
X711Y248D01*
X704Y247D02*
X711Y247D01*
X704Y246D02*
X711Y246D01*
X704Y245D02*
X711Y245D01*
X704Y244D02*
X711Y244D01*
X704Y243D02*
X711Y243D01*
X704Y242D02*
X711Y242D01*
X704Y241D02*
X711Y241D01*
X704Y240D02*
X711Y240D01*
X704Y239D02*
X711Y239D01*
X704Y238D02*
X711Y238D01*
X704Y237D02*
X711Y237D01*
X704Y236D02*
X711Y236D01*
X704Y235D02*
X711Y235D01*
X704Y234D02*
X711Y234D01*
X704Y233D02*
X711Y233D01*
X704Y232D02*
X711Y232D01*
X704Y231D02*
X711Y231D01*
X704Y230D02*
X711Y230D01*
X704Y229D02*
X711Y229D01*
X704Y228D02*
X711Y228D01*
X704Y227D02*
X711Y227D01*
X704Y226D02*
X711Y226D01*
X704Y225D02*
X711Y225D01*
X704Y224D02*
X711Y224D01*
X704Y223D02*
X711Y223D01*
X704Y222D02*
X711Y222D01*
X704Y221D02*
X711Y221D01*
X704Y220D02*
X711Y220D01*
X704Y219D02*
X711Y219D01*
X704Y218D02*
X711Y218D01*
X704Y217D02*
X711Y217D01*
X704Y216D02*
X711Y216D01*
X704Y215D02*
X711Y215D01*
X704Y214D02*
X711Y214D01*
X704Y213D02*
X711Y213D01*
X704Y212D02*
X711Y212D01*
X704Y211D02*
X711Y211D01*
X704Y210D02*
X711Y210D01*
X704Y209D02*
X711Y209D01*
X704Y208D02*
X711Y208D01*
X704Y207D02*
X711Y207D01*
X704Y206D02*
X711Y206D01*
X704Y205D02*
X711Y205D01*
X704Y204D02*
X711Y204D01*
X704Y203D02*
X711Y203D01*
X704Y202D02*
X711Y202D01*
X704Y201D02*
X711Y201D01*
X704Y200D02*
X711Y200D01*
X704Y199D02*
X711Y199D01*
X704Y198D02*
X711Y198D01*
X704Y197D02*
X711Y197D01*
X704Y196D02*
X711Y196D01*
X704Y195D02*
X711Y195D01*
X704Y194D02*
X711Y194D01*
X704Y193D02*
X711Y193D01*
X704Y192D02*
X711Y192D01*
X704Y191D02*
X711Y191D01*
X704Y190D02*
X711Y190D01*
X704Y189D02*
X711Y189D01*
X704Y188D02*
X711Y188D01*
X704Y187D02*
X711Y187D01*
X704Y186D02*
X711Y186D01*
X704Y185D02*
X711Y185D01*
X704Y184D02*
X711Y184D01*
X704Y183D02*
X711Y183D01*
X704Y182D02*
X711Y182D01*
X704Y181D02*
X711Y181D01*
X704Y180D02*
X711Y180D01*
X704Y179D02*
X711Y179D01*
X704Y178D02*
X711Y178D01*
X704Y177D02*
X711Y177D01*
X704Y176D02*
X711Y176D01*
X704Y175D02*
X711Y175D01*
X704Y174D02*
X711Y174D01*
X704Y173D02*
X711Y173D01*
X704Y172D02*
X711Y172D01*
X704Y171D02*
X711Y171D01*
X704Y170D02*
X711Y170D01*
X704Y169D02*
X711Y169D01*
X704Y168D02*
X711Y168D01*
X704Y167D02*
X711Y167D01*
X704Y166D02*
X711Y166D01*
X704Y165D02*
X711Y165D01*
X704Y164D02*
X711Y164D01*
X704Y163D02*
X711Y163D01*
X704Y162D02*
X711Y162D01*
X704Y161D02*
X711Y161D01*
X704Y160D02*
X711Y160D01*
X704Y159D02*
X711Y159D01*
X704Y158D02*
X711Y158D01*
X704Y157D02*
X711Y157D01*
X704Y156D02*
X711Y156D01*
X704Y155D02*
X711Y155D01*
X704Y154D02*
X711Y154D01*
X704Y153D02*
X711Y153D01*
X704Y152D02*
X711Y152D01*
X704Y151D02*
X711Y151D01*
X704Y150D02*
X711Y150D01*
X704Y149D02*
X711Y149D01*
X704Y148D02*
X711Y148D01*
X704Y147D02*
X711Y147D01*
X704Y146D02*
X711Y146D01*
X704Y145D02*
X711Y145D01*
X704Y144D02*
X711Y144D01*
X704Y143D02*
X711Y143D01*
X704Y142D02*
X711Y142D01*
X704Y141D02*
X711Y141D01*
X704Y140D02*
X711Y140D01*
X704Y139D02*
X711Y139D01*
X704Y138D02*
X711Y138D01*
X704Y137D02*
X711Y137D01*
X704Y136D02*
X711Y136D01*
X704Y135D02*
X711Y135D01*
X704Y134D02*
X711Y134D01*
X704Y133D02*
X711Y133D01*
X704Y132D02*
X711Y132D01*
X704Y131D02*
X711Y131D01*
X704Y130D02*
X711Y130D01*
X704Y129D02*
X711Y129D01*
X704Y128D02*
X711Y128D01*
X704Y127D02*
X711Y127D01*
X704Y126D02*
X711Y126D01*
X704Y125D02*
X711Y125D01*
X704Y124D02*
X711Y124D01*
X704Y123D02*
X711Y123D01*
X704Y122D02*
X711Y122D01*
X704Y121D02*
X711Y121D01*
X704Y120D02*
X711Y120D01*
X704Y119D02*
X711Y119D01*
X704Y118D02*
X711Y118D01*
X704Y117D02*
X711Y117D01*
X704Y116D02*
X711Y116D01*
X704Y115D02*
X711Y115D01*
X704Y114D02*
X711Y114D01*
X704Y113D02*
X711Y113D01*
X704Y112D02*
X711Y112D01*
X704Y111D02*
X711Y111D01*
X704Y110D02*
X711Y110D01*
X704Y109D02*
X711Y109D01*
X704Y108D02*
X711Y108D01*
X704Y107D02*
X711Y107D01*
X704Y106D02*
X711Y106D01*
X704Y105D02*
X711Y105D01*
X704Y104D02*
X711Y104D01*
X704Y103D02*
X711Y103D01*
X704Y102D02*
X711Y102D01*
X704Y101D02*
X711Y101D01*
X704Y100D02*
X711Y100D01*
X704Y99D02*
X711Y99D01*
X704Y98D02*
X711Y98D01*
X704Y97D02*
X711Y97D01*
X704Y96D02*
X711Y96D01*
X704Y95D02*
X711Y95D01*
X704Y94D02*
X711Y94D01*
X704Y93D02*
X711Y93D01*
X704Y92D02*
X711Y92D01*
X704Y91D02*
X711Y91D01*
X704Y90D02*
X711Y90D01*
X704Y89D02*
X711Y89D01*
X704Y88D02*
X711Y88D01*
X704Y87D02*
X711Y87D01*
X704Y86D02*
X711Y86D01*
X704Y85D02*
X711Y85D01*
X704Y84D02*
X711Y84D01*
X704Y83D02*
X711Y83D01*
X704Y82D02*
X711Y82D01*
X704Y81D02*
X711Y81D01*
X704Y80D02*
X711Y80D01*
X704Y79D02*
X711Y79D01*
X704Y78D02*
X711Y78D01*
X704Y77D02*
X711Y77D01*
X704Y76D02*
X711Y76D01*
X704Y75D02*
X711Y75D01*
X704Y74D02*
X711Y74D01*
X704Y73D02*
X711Y73D01*
X704Y72D02*
X711Y72D01*
X704Y71D02*
X711Y71D01*
X704Y70D02*
X711Y70D01*
X704Y69D02*
X711Y69D01*
X704Y68D02*
X711Y68D01*
X704Y67D02*
X711Y67D01*
X704Y66D02*
X711Y66D01*
X704Y65D02*
X711Y65D01*
X704Y64D02*
X711Y64D01*
X704Y63D02*
X711Y63D01*
X704Y62D02*
X711Y62D01*
X704Y61D02*
X711Y61D01*
X704Y60D02*
X711Y60D01*
X704Y59D02*
X711Y59D01*
X704Y58D02*
X711Y58D01*
X704Y57D02*
X711Y57D01*
X704Y56D02*
X711Y56D01*
X704Y55D02*
X711Y55D01*
X704Y54D02*
X711Y54D01*
X704Y53D02*
X711Y53D01*
X704Y52D02*
X711Y52D01*
X704Y51D02*
X711Y51D01*
X704Y50D02*
X711Y50D01*
X704Y49D02*
X711Y49D01*
X704Y48D02*
X711Y48D01*
X704Y47D02*
X711Y47D01*
X704Y46D02*
X711Y46D01*
X704Y45D02*
X711Y45D01*
X704Y44D02*
X711Y44D01*
X704Y43D02*
X711Y43D01*
X704Y42D02*
X711Y42D01*
X704Y41D02*
X711Y41D01*
X704Y40D02*
X711Y40D01*
X704Y39D02*
X711Y39D01*
X704Y38D02*
X711Y38D01*
X704Y37D02*
X711Y37D01*
X704Y36D02*
X711Y36D01*
X704Y35D02*
X711Y35D01*
X704Y34D02*
X711Y34D01*
X704Y33D02*
X711Y33D01*
X704Y32D02*
X711Y32D01*
X704Y31D02*
X711Y31D01*
X704Y30D02*
X711Y30D01*
X704Y29D02*
X711Y29D01*
X704Y28D02*
X1761Y28D01*
X704Y27D02*
X1761Y27D01*
X704Y26D02*
X1761Y26D01*
X704Y25D02*
X1761Y25D01*
X704Y24D02*
X1761Y24D01*
X704Y23D02*
X1761Y23D01*
X704Y22D02*
X1761Y22D01*
X704Y21D02*
X1761Y21D01*
X1754Y20D02*
X1761Y20D01*
X1754Y19D02*
X1761Y19D01*
X1754Y18D02*
X1761Y18D01*
X1754Y17D02*
X1761Y17D01*
X1754Y16D02*
X1761Y16D01*
X1754Y15D02*
X1761Y15D01*
X1754Y14D02*
X1761Y14D01*
X1754Y13D02*
X1761Y13D01*
X1754Y12D02*
X1761Y12D01*
X1754Y11D02*
X1761Y11D01*
X1754Y10D02*
X1761Y10D01*
X1754Y9D02*
X1761Y9D01*
X1754Y8D02*
X1761Y8D01*
X1754Y7D02*
X1761Y7D01*
X1754Y6D02*
X1761Y6D01*
X1754Y5D02*
X1761Y5D01*
X1754Y4D02*
X1761Y4D01*
X1754Y3D02*
X1761Y3D01*
X1754Y2D02*
X1761Y2D01*
X1754Y1D02*
X1761Y1D01*
X1754Y0D02*
X1761Y0D01*
X1754Y-1D02*
X1761Y-1D01*
D02*
G04 End of Silk1*
M02*