; NON-PLATED HOLES START AT T1
; THROUGH (PLATED) HOLES START AT T100
M48
INCH
T100C0.035000
T101C0.042251
T102C0.015748
T103C0.041334
T104C0.031497
%
T100
X015997Y002846
X010997Y001846
X016997Y002846
X005997Y004846
X009997Y002846
X005997Y000846
X014997Y001846
X013997Y002846
T101
X001997Y000846
X001997Y003846
X001997Y001846
T102
X004999Y002852
T103
X013579Y004757
X011579Y000757
X009579Y004757
X012579Y004757
X007579Y004757
X010579Y004757
X016579Y000757
X015579Y004757
X013579Y000757
X009579Y000757
X014579Y004757
X012579Y000757
X007579Y000757
X008565Y000757
X008579Y004757
X010579Y000757
X011579Y004757
X015579Y000757
X016579Y004757
X014579Y000757
T104
X003997Y003846
X003997Y002862
T00
M30
